<?xml version="1.0" standalone="no"?>
<!DOCTYPE svg PUBLIC "-//W3C//DTD SVG 1.1//EN" "http://www.w3.org/Graphics/SVG/1.1/DTD/svg11.dtd" >
<svg xmlns="http://www.w3.org/2000/svg" xmlns:xlink="http://www.w3.org/1999/xlink" version="1.1">
<metadata>
Created by FontForge 20141024 at Tue Mar 24 17:54:15 2015
 By System Administrator
Copyright (c) 2012 by Kimberly Geswein. All rights reserved.
</metadata>
<defs>
<font id="KGYouWontBringMeDown-Bold" horiz-adv-x="590" >
  <font-face 
    font-family="KG You Wont Bring Me Down"
    font-weight="700"
    font-stretch="normal"
    units-per-em="1024"
    panose-1="2 0 8 6 0 0 0 2 0 4"
    ascent="819"
    descent="-205"
    x-height="451"
    cap-height="635"
    bbox="-138 -610 1274 1134"
    underline-thickness="39"
    underline-position="-40"
    unicode-range="U+0020-FB02"
  />
<missing-glyph horiz-adv-x="391" 
 />
    <glyph glyph-name=".notdef" horiz-adv-x="391" 
 />
    <glyph glyph-name=".null" horiz-adv-x="0" 
 />
    <glyph glyph-name="nonmarkingreturn" horiz-adv-x="391" 
 />
    <glyph glyph-name="space" unicode=" " horiz-adv-x="391" 
 />
    <glyph glyph-name="space" unicode="&#xa0;" horiz-adv-x="391" 
 />
    <glyph glyph-name="numbersign" unicode="#" horiz-adv-x="550" 
d="M154 24q-3 23 -7 47t-7 48q-6 -2 -11.5 -4.5t-10.5 -4.5q-19 -8 -37 -14t-38 -6q-16 0 -29 8t-13 30q0 5 3 15t19 12q32 13 57 23.5t57 23.5q2 29 4 57.5t4 57.5q-19 -6 -41.5 -12.5t-30.5 -8.5h-6q-2 0 -3.5 -0.5t-2.5 -0.5q-16 0 -29 8t-13 31q0 17 8 23.5t20 9.5
q4 2 7 3q4 2 12 4t19 6l37.5 12.5t24.5 7.5q1 20 3 48t3 57.5t2 58t1 49.5h40q6 0 11.5 -8.5t10 -20.5t7.5 -24.5t4 -21.5v-116q18 5 35 10t35 9h-1q2 1 1.5 15t-1.5 24v12q0 5 2 22.5t4 37.5t3.5 37.5t2.5 23.5h63v-153h101q20 0 34 -21.5t14 -50.5h-10t-17.5 -0.5
t-19.5 -0.5h-16q-10 -1 -21.5 -1h-15.5q-6 0 -23 -2.5t-28 -5.5q-1 -9 -2.5 -23.5t-2.5 -29t-1.5 -26.5t-0.5 -17v-19h119q19 0 26.5 -13t7.5 -24q0 -1 -1 -5.5t-2 -9.5q-2 -6 -3 -13q-11 0 -31 -1.5t-42.5 -3.5t-43.5 -5t-35 -6v-159q-11 0 -24.5 4t-24.5 10.5t-18.5 14.5
t-7.5 17v99q-9 -2 -18.5 -4t-18 -3.5t-13.5 -2.5t-5 0l-9 -9v-116q0 -17 -14.5 -25.5t-23.5 -8.5q-6 0 -16 4t-12 21zM362 376h1h-1zM210 229q0 -2 -4 -2q20 0 39.5 3t36.5 14q5 30 6.5 59t2.5 58q-30 -2 -46 -10.5t-24 -24t-9.5 -39.5t-1.5 -58z" />
    <glyph glyph-name="dollar" unicode="$" horiz-adv-x="410" 
d="M194 99h-10t-10 1v-8q-2 -9 -4.5 -20t-7.5 -23t-14 -23.5t-24 -20.5q-24 16 -34 36t-13 37q-4 -1 -7 -0.5t-6 0.5q-14 0 -26 3t-26 12q-4 4 -12 12.5t-8 16.5q0 12 7 27t18 28.5t24 23t25 9.5h1q1 0 1 -0.5t2 -0.5q-1 8 -1.5 14.5t-0.5 14.5q-2 26 -2.5 40.5t-0.5 22.5
q-15 5 -35.5 14.5t-38.5 22.5t-31 30t-13 38q0 24 12 44.5t30 38.5t38 32.5t36 25.5q3 2 1 0t1 0v60q25 0 41 -9t25 -18q7 2 12.5 4.5t16.5 4.5q2 19 7 40.5t5 37.5q8 2 15 4q6 2 11 2.5t7 -0.5q6 -4 13 -13t9 -14v4q2 -5 4.5 -18.5t4.5 -27.5q21 -1 43 -5.5t41.5 -15
t33.5 -28t18 -43.5v1q2 -12 -3.5 -22t-14 -17.5t-19 -11.5t-18.5 -4l-58 1q25 27 32.5 37t7.5 14q0 5 -5.5 8.5t-14.5 5t-19.5 2.5t-20.5 1v-3q-1 -12 -1.5 -24t-0.5 -15q1 -9 3 -30t4.5 -44.5t5 -44.5t4.5 -30q17 -8 39 -19.5t42 -27t33.5 -33.5t13.5 -39q0 -18 -7 -30.5
t-17.5 -21t-24 -14.5t-26.5 -11q-9 -5 -18 -8.5t-14 -7.5q1 -7 1.5 -16t0.5 -18q0 -26 -9 -52.5t-37 -40.5l-37 23v79zM77 143v1v-1zM147 223q-1 -5 -1 -12v-15v-21t-2 -11h7q14 0 26.5 1.5t12.5 10.5q0 5 -1 19t-2.5 29.5t-2.5 30.5t-2 23q-5 6 -14.5 8t-20.5 2v-53v-12z
M144 288h3v1q0 -1 -3 -1zM148 291l-1 -2q1 1 1 2zM308 221q0 9 -15 19.5t-29 15.5v-65q16 4 30 11.5t14 18.5zM264 256q-5 2 -8 2.5t8 -2.5zM147 460q0 -8 0.5 -22t0.5 -25v-12q1 -13 0.5 -26.5t0.5 -14.5q6 -2 11.5 -2.5t11.5 -2.5q0 38 -5 78t-10 79q-3 -1 -5 -1.5
t-4 -1.5q0 -5 -0.5 -10t-0.5 -10v-29zM172 352q13 2 10 2t-10 1v-3zM157 514v1v-3q11 -3 11 -0.5t-3.5 5.5t-7.5 3.5t0 -6.5zM29 409q0 -13 14.5 -20.5t30.5 -11.5q-1 20 -3 43t-4 42v2q-16 -10 -27 -24t-11 -31z" />
    <glyph glyph-name="percent" unicode="%" horiz-adv-x="452" 
d="M80 44q1 3 2 7.5t2 7.5q3 15 7.5 35t8.5 38l7 31.5t4 16.5q49 131 98 262.5t97 262.5q2 4 9 10t17.5 12t22.5 10t24 4v-44q0 -4 -8.5 -32.5t-20 -66t-24 -75t-20.5 -59.5q-4 -11 -13.5 -33.5t-21.5 -51t-25.5 -60t-26 -60.5t-23 -52.5t-16.5 -36.5l1 2q-6 -34 -13.5 -70
t-13.5 -70l-38 -37q-24 13 -30 20t-6 22v7zM268 153q0 19 5 39t15.5 36t25.5 26t36 10q41 0 58 -24.5t17 -61.5q0 -18 -4.5 -36t-14 -32t-25.5 -22.5t-38 -8.5q-35 0 -55 19.5t-20 54.5zM350 174q0 1 -0.5 2t0.5 3q-3 -10 -5 -23q5 5 5 14v4zM350 179q3 8 9 10q-9 -1 -9 -10
zM164 500q6 -36 -4 -60t-29 -36t-43 -12t-44.5 13t-34 39t-12.5 66q0 22 6 44t17 39t27 28t36 11q25 0 41 -15t25 -36t12 -43.5t3 -37.5zM82 554q3 -8 1 -13t-5 -10t-6.5 -10.5t-3.5 -12.5l22 -26q3 22 8.5 38t15.5 21z" />
    <glyph glyph-name="ampersand" unicode="&#x26;" horiz-adv-x="315" 
d="M158 -98q0 29 2.5 54.5t6.5 50.5l4 34t3 34l-8 -3q-11 -3 -23 -6t-24 -3q-11 0 -24.5 3t-25.5 10.5t-20 18.5t-8 28q0 19 17 38t38 35q-19 2 -36.5 6.5t-31.5 14t-22.5 24t-8.5 36.5q0 13 8 24t19.5 19.5t24 14.5t20.5 8q10 2 31 6t44.5 8t45 7.5t32.5 5.5
q-14 39 -24.5 72t-17.5 66.5t-11 72t-4 88.5q24 0 42 -5t26 -22q5 -75 27.5 -153t48.5 -147l-35 -36q-8 -1 -27.5 -3t-40.5 -5t-39 -5.5t-24 -3.5h2q-14 -5 -29 -9t-29 -8h177q0 -24 -6 -40t-16 -27t-23.5 -18.5t-27.5 -15.5q-11 -6 -22 -12.5t-19 -12.5q2 0 3 0.5t3 0.5
l28 6t30 3q23 0 35 -7.5t12 -34.5q0 -32 -6 -63t-13 -63q-7 -29 -12.5 -58t-5.5 -59q0 -1 1.5 -11t3 -21.5t3 -22t1.5 -12.5v-10q0 -2 0.5 -3t0.5 -2q0 -9 -1 -17t-6.5 -13t-17.5 -7.5t-34 -1.5q-12 29 -15 55t-3 49q0 8 0.5 15t0.5 14v19v0z" />
    <glyph glyph-name="quotesingle" unicode="'" horiz-adv-x="93" 
d="M40 615q20 0 30.5 -9.5t15 -23t4.5 -29v-27.5v-8q0 -21 -0.5 -39t-2 -38t-4 -44.5t-7.5 -57.5q-8 5 -18.5 14t-19.5 19t-15.5 18.5t-6.5 13.5v187z" />
    <glyph glyph-name="parenleft" unicode="(" horiz-adv-x="260" 
d="M-6 270q0 20 13 58t34.5 82.5t48 90.5t54 83.5t52.5 61.5t44 24v-53q-30 -39 -60.5 -83.5t-55 -91.5t-40 -96t-15.5 -98q0 -34 16.5 -65.5t38 -58.5t43.5 -46.5t34 -29.5q7 -7 12 -17t5 -34q-55 0 -97 27.5t-70 69t-42.5 89t-14.5 87.5z" />
    <glyph glyph-name="parenright" unicode=")" horiz-adv-x="251" 
d="M51 58q24 28 45.5 58.5t38.5 63t27 67.5t10 73t-11.5 72.5t-30.5 67t-43 62.5l-48 60h1q-8 9 -15.5 18.5t-15.5 20.5q0 2 -0.5 7.5t-0.5 7.5q0 6 0.5 11.5t4.5 11t12.5 11.5t24.5 12l154 -204q26 -35 34 -77t8 -82q0 -75 -29 -142t-77 -124l1 2q-5 -6 -14.5 -15.5
t-20 -18.5t-19 -15t-10.5 -6h-32v42z" />
    <glyph glyph-name="asterisk" unicode="*" horiz-adv-x="359" 
d="M229 149q-12 5 -21 15t-15 23t-10 27t-6 27q-2 -3 -3.5 -6.5t-3.5 -6.5q-11 -23 -23.5 -41t-37.5 -18q-4 0 -11.5 2t-14.5 7t-10 13.5t2 22.5l19 36h-75v62l108 20l10 2h-10v-1v-1q0 1 -1 3t-2 3.5t-3 3.5l1 -1q-3 3 -10 13t-15 21t-15 21t-10 14v49h43l51 -51
q2 23 5.5 49t10.5 44q5 11 24 17t40 6v-52q3 2 5.5 3t5.5 3q24 -7 29.5 -19t5.5 -25q0 -2 -2 -9t-5 -12l2 3q-6 -13 -10 -20.5t-7 -14.5t-7 -14.5t-10 -19.5h92q0 -11 -8.5 -30t-14.5 -27q15 -7 24 -19.5t13 -26t4.5 -26t-0.5 -19.5q-30 0 -55.5 5.5t-46.5 15.5
q2 -8 2 -15.5v-14.5q0 -13 -4.5 -23.5t-29.5 -17.5zM315 270q-6 1 -5 13q-3 -1 -7 -1.5t-8 -2.5q10 -9 20 -9zM168 299q1 0 2 6t1 13t-1 13t-2 6q-2 0 -2.5 -6t-0.5 -13t0.5 -13t2.5 -6z" />
    <glyph glyph-name="plus" unicode="+" horiz-adv-x="384" 
d="M33 270q-19 0 -26.5 13.5t-7.5 23.5q0 5 3 14q1 5 3 12l134 17v148q5 0 17.5 -2t25 -5.5t22.5 -10t10 -15.5v-104h148v-62l-165 -21q7 1 9 -4t2 -8q0 -15 2.5 -29t6.5 -28q3 -17 6.5 -34t3.5 -36v-1q1 -6 0.5 -13.5t-5 -14.5t-14.5 -13.5t-28 -10.5q-40 96 -52 184h-95z
" />
    <glyph glyph-name="comma" unicode="," horiz-adv-x="109" 
d="M21 76q0 11 -1.5 19t-3.5 16q-2 11 -4 24t-2 42q23 0 40.5 -7.5t29 -19t17.5 -26t6 -28.5q0 -12 -8 -44t-21.5 -66t-33 -60t-41.5 -26q-3 0 -12.5 2.5t-26.5 19.5q23 42 42 82t19 72z" />
    <glyph glyph-name="hyphen" unicode="-" horiz-adv-x="516" 
d="M71 307q0 12 23.5 17.5t55 9t64 5.5t50.5 6q6 4 12 5.5t15 3t22.5 4t34.5 8.5q11 3 23 6t22.5 6t18 5t10.5 3h9q26 0 35 -21.5t9 -53.5h-42q-31 -9 -65 -13t-69 -7t-69 -7t-65 -13q-7 -1 -16.5 -1.5t-14.5 -0.5h-4q-9 -1 -19 -0.5t-19 4t-15 11.5t-6 23z" />
    <glyph glyph-name="period" unicode="." horiz-adv-x="188" 
d="M35 59q0 18 7.5 30t19.5 18.5t26.5 8t28.5 -0.5q23 -5 31 -21t8 -31q0 -11 -6.5 -21.5t-16 -19t-21 -14t-20.5 -5.5q-23 0 -40 17t-17 39z" />
    <glyph glyph-name="slash" unicode="/" horiz-adv-x="408" 
d="M-7 49q0 31 5.5 64t14.5 65.5t21 62.5t26 55l249 447q2 6 5.5 15t9 16.5t13 13t18.5 5.5q4 0 11.5 -1.5t14 -6t10 -12.5t0.5 -20l-29 -75l-216 -361q-29 -48 -47 -106t-31 -112l-2 -16q-2 -18 -6.5 -41t-23.5 -45q-18 4 -26.5 10t-12.5 12.5t-4 13.5v13v3v0z" />
    <glyph glyph-name="zero" unicode="0" horiz-adv-x="339" 
d="M5 201q0 37 6.5 81t18 90t26 91t29.5 83q-16 4 -24 21t-8 31q0 22 12.5 46.5t28.5 38.5h24q5 0 10 0.5t7 0.5q65 0 112.5 -49.5t68.5 -135.5v-42q0 -14 0.5 -25.5t0.5 -16.5q0 -34 -3.5 -78t-11 -89t-20.5 -88t-31.5 -77t-43.5 -54.5t-58 -20.5q-31 0 -57 15.5
t-45.5 41.5t-30.5 61.5t-11 74.5zM79 214q0 -56 21 -89t57 -33q19 0 33.5 17.5t24.5 46t17 64.5t11 72.5t5.5 71t1.5 59.5q0 57 -17 102.5t-49 67.5q-28 -46 -46.5 -107t-34.5 -120q-3 -12 -5.5 -23t-6.5 -22q-1 -7 -2 -19.5t-3 -25.5q-3 -22 -5 -41t-2 -21z" />
    <glyph glyph-name="one" unicode="1" horiz-adv-x="93" 
d="M-1 68q0 41 2.5 104t4.5 133q2 78 4.5 155t2.5 136q0 13 -0.5 28.5t-0.5 25.5l28 29q20 -12 31 -26t15 -25v-16v-32.5t-0.5 -43.5t-0.5 -48v-37.5t-0.5 -41t-0.5 -33.5v-15v-13q0 -29 -0.5 -80.5t-5 -106.5t-15 -102.5t-30.5 -67.5l-33 33v13q0 6 -0.5 15.5t-0.5 15.5z
" />
    <glyph glyph-name="two" unicode="2" horiz-adv-x="412" 
d="M33 3q-21 10 -30 29.5t15 42.5q66 130 131.5 259t131.5 259q2 3 3 5.5t3 5.5q-17 -1 -34 -7t-33 -14.5t-30 -18.5t-26 -19q-17 -14 -30.5 -23t-28.5 -9q-4 0 -9.5 3.5t-11 8.5t-9 10.5t-3.5 9.5q0 2 2.5 8t5.5 12t6.5 11t5.5 7l-5 -4q44 45 92 71.5t111 27.5
q18 4 32.5 0.5t25.5 -12t17 -21t6 -27.5q0 -22 -12 -40q-60 -119 -124.5 -246.5t-124.5 -246.5l1 1l-3 -6q30 0 61 6t61 14q32 8 68 15t84 8v-64l-266 -59h-72z" />
    <glyph glyph-name="three" unicode="3" horiz-adv-x="366" 
d="M25 73q19 2 45 9.5t54 20t56 30.5t50 40.5t35.5 50.5t13.5 61q0 14 -5.5 22t-13.5 11.5t-17.5 4t-17.5 0.5q-15 0 -31.5 -4t-33.5 -9q-19 -7 -40 -11.5t-61 -4.5v50l23.5 23.5t34.5 35.5t39.5 41.5t39 41.5t33 35.5t21.5 23.5q10 11 19 25t9 31q0 2 -4 2.5t-6 0.5
q-24 0 -46 -7t-42.5 -18.5t-41 -27.5t-42.5 -34q-6 -5 -14.5 -12.5t-15.5 -12.5h-64q21 46 52.5 80t66.5 56.5t71.5 34t66.5 11.5q13 0 28 -3t28 -11.5t21 -23.5t8 -39q0 -2 -0.5 -4.5t-0.5 -4.5q-1 -4 -4 -12.5t-6 -18t-6 -17.5t-4 -10q-4 -5 -14 -16.5t-22 -26t-25 -29.5
t-23 -27q-5 -6 -11 -12.5t-8 -10.5l-1 -1q23 -1 45.5 -7t40 -20.5t28.5 -39t11 -63.5q0 -62 -30.5 -112.5t-74.5 -86.5t-92.5 -56t-85.5 -21q-6 -1 -15 -1t-17.5 3.5t-15.5 13.5t-9 29z" />
    <glyph glyph-name="four" unicode="4" horiz-adv-x="427" 
d="M237 298q0 1 -0.5 1.5t-0.5 1.5q-32 -10 -56.5 -13.5t-57.5 -3.5q-15 0 -27.5 1t-23.5 6.5t-21.5 17.5t-22.5 35q10 27 23 63.5t24 78.5t18 86t5 86q7 1 13 3q5 1 9.5 2t6.5 1q10 0 23.5 -8.5t13.5 -28.5v-103l-49 -157q5 -1 10.5 -1h8.5q4 0 12.5 0.5t16.5 1t14.5 1.5
t7.5 1q7 1 17 1h19h15.5t6.5 -1v321q24 0 38 -10t22 -23.5t10.5 -28.5t3.5 -25q0 -13 1 -38t2.5 -54t2.5 -57.5t1 -48.5q17 1 38 11t57 30v-56q-7 -17 -13.5 -26.5t-13.5 -15t-15 -8t-17 -4.5q-7 -2 -15.5 -4t-20.5 -12q-4 -28 -8 -73t-7 -92t-4.5 -89.5t-1.5 -66.5h-64
q1 30 2 59q1 25 2 51.5t1 44.5v15.5t-1 11.5v29q0 10 -2 36.5t-3 50.5z" />
    <glyph glyph-name="five" unicode="5" horiz-adv-x="502" 
d="M83 80q0 14 6 24t23 20q16 -2 24 -2.5t14 -0.5q37 0 76.5 11t74 32t60.5 50t35 65q-4 22 -19.5 40t-35 30.5t-40 19t-34.5 6.5q-26 0 -49 -4t-45 -8q-26 -6 -51 -10t-50 -4h-1q-6 -1 -14 -1t-15 3t-12.5 9.5t-7.5 18.5q0 4 -0.5 16t-0.5 25.5v25.5v17v18q0 25 0.5 52.5
t7 51t21 40.5t41.5 22q5 0 21.5 1.5t35.5 3.5t35 4t19 3q10 2 21 7.5t23 13.5q17 10 34 18.5t37 8.5q14 0 22 -9t18 -31q-26 -32 -58.5 -52t-67 -31t-68.5 -15t-62 -5q-1 -3 -2.5 -6.5t-1.5 -5.5v-121q17 1 34 4t34 8q23 5 44.5 9.5t44.5 4.5q24 0 61 -10t71 -32t58.5 -57.5
t24.5 -87.5q0 -31 -14.5 -62.5t-36 -58t-46 -46t-45.5 -27.5l-9 -3t-15 -4q-15 -5 -35 -11t-41 -12t-39.5 -11t-28.5 -8q-2 0 -4 -0.5t-4 -0.5q-20 0 -33 9t-35 31v14z" />
    <glyph glyph-name="six" unicode="6" horiz-adv-x="388" 
d="M25 271q0 4 1 17t2.5 27t3.5 27.5t3 19.5q3 14 10.5 40.5t16.5 58t19 65t18.5 60.5t14 45t6.5 19l47 70q11 -45 13 -62t2 -20q0 -42 -14 -95t-28 -103q-16 -51 -29 -100.5t-13 -87.5v-12.5t0.5 -21t1 -22.5t1.5 -18q18 23 37.5 44.5t41 38t45.5 26t51 9.5q12 0 30 -6
t34 -18.5t27.5 -31t11.5 -43.5q0 -39 -20.5 -69t-49 -50.5t-59.5 -31t-51 -10.5q-17 0 -27.5 2t-21.5 4q-4 0 -10 2q1 -5 2 -15t1 -32q-27 0 -42 5t-22.5 13t-9 19.5t-1.5 23.5v17t-1 19q-5 23 -9.5 37.5t-9.5 26.5v-1q-8 22 -15.5 47t-7.5 67zM273 222q-17 0 -36.5 -11
t-33.5 -29h1q-5 -7 -13 -17t-15.5 -19.5t-12.5 -16l-5 -6.5v-12q1 2 4.5 6t6.5 5h9q8 0 17.5 -0.5t14.5 -0.5q10 0 26.5 3t32 10.5t26.5 20t11 30.5q0 16 -11.5 26.5t-21.5 10.5z" />
    <glyph glyph-name="seven" unicode="7" horiz-adv-x="555" 
d="M253 55l4 24t7 42.5t8.5 52t8.5 52t6.5 42.5t3.5 24q1 4 1 14q-16 -2 -32.5 -6.5t-31.5 -8.5q-23 -8 -46.5 -14t-48.5 -6h-1q-6 0 -14 0.5t-15.5 5t-13.5 13t-9 24.5l20 29q7 1 14 3q6 2 13.5 3.5t15.5 3.5q16 4 36.5 9.5t42 10.5t42.5 10t38 9q2 14 3.5 33.5t3.5 40.5
q3 29 5.5 56.5t4.5 38.5q0 4 -0.5 11t-1.5 16q-1 10 -1 7.5t0 1.5q-29 -2 -58 -5.5t-58 -7.5q-18 -3 -36.5 -5.5t-38.5 -4.5t-43.5 -3t-53.5 -1q0 28 6 47.5t23 27.5q12 2 40 5.5t62.5 8t70.5 9t64 8.5q16 2 27 4t19 2h6q3 0 6 0.5t5 0.5q7 0 15 -1t14.5 -5t10.5 -12.5
t4 -24.5q0 -32 -2.5 -64.5t-5.5 -63.5q-1 -16 -2.5 -28t-2.5 -24t-1.5 -24.5t-0.5 -28.5h179l-44 -58q-19 -3 -37 -6q-15 -2 -30.5 -4.5t-23.5 -4.5h-11t-11 1h1q-11 1 -21.5 1t-12.5 -5q-12 -78 -25 -155.5t-25 -154.5q-2 -12 -11.5 -17.5t-17.5 -5.5q-19 0 -32.5 13.5
t-11.5 39.5z" />
    <glyph glyph-name="eight" unicode="8" horiz-adv-x="442" 
d="M46 86q0 2 -0.5 6.5t-0.5 10.5q-1 7 -1 15v12q0 36 8.5 72.5t22.5 68.5q-13 8 -24.5 17t-20.5 21t-14 29.5t-5 41.5q0 39 14.5 76.5t38 72t54 63.5t62.5 50.5t63 33.5t56 12q22 0 42.5 -7.5t36.5 -23.5t25 -41t9 -59q0 -28 -7.5 -53t-19.5 -47t-27 -42t-30 -38h1
q5 -6 9.5 -10.5l9.5 -9.5q8 -9 15 -17t12.5 -19t8.5 -26t3 -36q4 -56 -17.5 -103.5t-55 -82.5t-73.5 -54.5t-74 -19.5q-73 0 -117 75zM119 128q0 -16 4.5 -25t12 -13.5t16.5 -5.5t18 -1q21 0 47 9t49 27t38.5 45t15.5 63q0 13 -4 29t-10 30.5t-14 24.5t-16 10q-28 7 -57 -6
t-52.5 -40t-37 -65t-10.5 -80v-2zM84 379q0 -17 7.5 -28.5t17.5 -8.5l6 1q-8 0 -9 1t1 3q4 5 7.5 10t8.5 8q20 12 39 17t38 9q21 4 40 9t33 21v-1q2 4 5.5 6.5t6.5 6.5q14 16 24.5 29t17 26.5t9.5 29.5t3 39v17.5t-1 19.5q-9 14 -19.5 19t-24.5 6q-30 -9 -50 -20.5
t-35.5 -25t-29 -29t-29.5 -30.5q-25 -24 -45.5 -58.5t-20.5 -76.5zM119 362l14 4q-3 0 -5.5 -0.5t-4.5 -0.5q-1 -1 -2 -1.5t-2 -1.5v0z" />
    <glyph glyph-name="nine" unicode="9" horiz-adv-x="354" 
d="M242 238q2 31 5.5 62.5t4.5 60.5q-3 -2 -6.5 -4.5t-6.5 -4.5q-26 -18 -56.5 -36t-63.5 -18q-20 0 -40 7.5t-35.5 22t-25 36.5t-9.5 52q0 46 22 93t55 85.5t71 63t71 24.5h20q5 -1 13 -1h12q21 -23 32.5 -57.5t17 -72.5t6 -74.5t0.5 -62.5q0 -8 -0.5 -21.5t-0.5 -24.5v-12
q-2 -25 -6 -59.5t-8.5 -72.5t-10.5 -75.5t-10.5 -67.5t-8.5 -48.5t-6 -19.5l6 3q-2 -2 -9 -6.5t-15.5 -10t-15.5 -10.5t-9 -6q-4 32 -4.5 56.5t-0.5 29.5q0 44 3.5 86.5t8.5 82.5zM82 418q0 -12 1.5 -22t9.5 -16q7 -1 16.5 -0.5t13.5 0.5q53 0 88.5 43.5t35.5 124.5
q0 25 -4 44.5t-18 19.5q-21 0 -45.5 -19t-46.5 -47.5t-36.5 -63t-14.5 -64.5z" />
    <glyph glyph-name="colon" unicode=":" horiz-adv-x="152" 
d="M5 124q0 5 4.5 14t11.5 14l-6 -2q13 11 26.5 22.5t26.5 22.5l-1 -2q4 3 12.5 6t13.5 3q25 0 38.5 -17t13.5 -40q0 -18 -10 -32t-25 -23t-32 -14t-31 -5t-22 5t-12.5 13t-6 17t-1.5 18zM71 416q9 1 18.5 -4t18 -13.5t13.5 -17.5t5 -16q0 -21 -14.5 -35.5t-35 -23.5
t-43 -13t-38.5 -4q0 47 15.5 83t60.5 44z" />
    <glyph glyph-name="semicolon" unicode=";" horiz-adv-x="169" 
d="M54 -6q1 0 1.5 0.5t1.5 0.5q14 0 22 -7t16 -21q0 -2 0.5 -9t1 -15.5t0.5 -16v-10.5q0 -5 -0.5 -12.5t-1.5 -15.5t-1.5 -15t-1.5 -10l2 3q-1 -3 -5.5 -13.5t-11 -23t-12.5 -24.5t-10 -18v1q-4 -6 -12.5 -16t-17.5 -19.5t-16.5 -16t-8.5 -6.5h-51q12 20 17.5 29t7 13t1 4
t0.5 2q14 29 23.5 50.5t16 44.5t10 51t5.5 70h24zM102 274q21 0 39 -13t18 -39q0 -25 -12 -38t-30.5 -19t-40.5 -6.5t-41 -0.5q0 15 4.5 35t13 38t21 30.5t28.5 12.5z" />
    <glyph glyph-name="less" unicode="&#x3c;" horiz-adv-x="462" 
d="M6 196q10 7 34.5 24.5t51.5 37.5t50.5 37.5t32.5 25.5q10 8 25.5 22.5t33.5 31.5q29 28 62.5 57t69.5 51h-1q8 6 21.5 10.5t42.5 4.5v-46l-323 -280h1q15 -5 49.5 -17.5t73.5 -26.5v1q24 -9 48 -17.5t45 -16t37 -13t25 -8.5q15 -8 20.5 -16t5.5 -21q0 -16 -10.5 -27
t-27.5 -11l-11 1q-30 17 -66.5 29t-75.5 24q-34 10 -67.5 21t-63 24t-53 29t-36.5 36z" />
    <glyph glyph-name="equal" unicode="=" horiz-adv-x="477" 
d="M47 299q30 5 58 10t57 11q64 13 130.5 24t149.5 11v-55l-334 -57h-81v32zM1 375q1 3 5 6q5 5 15 7h-2l332 63h91v-53l-397 -75q-5 0 -13 2t-16 7t-13.5 12.5t-5.5 17.5z" />
    <glyph glyph-name="greater" unicode="&#x3e;" horiz-adv-x="437" 
d="M241 243q26 19 49 36t38 31q-2 2 -3.5 2t-3.5 2q-1 0 -2 1t-3 2q-14 6 -43.5 17.5t-61.5 24t-59.5 23t-38.5 15.5q-16 6 -30 13t-27.5 16.5t-26.5 22.5t-26 32q11 18 20 26t22 8q2 0 4.5 -0.5t4.5 -0.5q2 -1 3 -1q5 -2 16 -10t19 -14q3 -2 3.5 -3.5t1.5 -2.5
q7 -4 20 -10.5t25.5 -12.5t23.5 -11.5t16 -7.5q0 1 8.5 -1.5t19.5 -6t23 -7t20 -6.5q7 -2 13 -3.5t8 -2.5q35 -14 69 -29.5t63 -37.5h-1q11 -8 15 -12.5t4 -18.5v-12q-3 -4 -11 -12.5t-17 -17.5l-17 -17t-11 -10l2 2q-24 -20 -47 -37t-44 -32q-48 -35 -90 -70.5t-74 -89.5
q-11 -17 -29 -20t-47 -3q0 38 18.5 71.5t48 64t65 58t70.5 52.5z" />
    <glyph glyph-name="question" unicode="?" horiz-adv-x="305" 
d="M51 275v5.5t1 7.5q0 4 1 9q77 88 115 152.5t53 106t14.5 62l-0.5 20.5q0 2 -7.5 3t-18 2t-21 1h-16.5q-11 0 -23.5 -3.5t-26.5 -8.5t-28.5 -10t-33.5 -5t-30 8.5t-26 37.5l22 21q10 10 29.5 15t41 7.5t41.5 3t32 0.5q14 0 38 -1t46.5 -8t39 -22t16.5 -43q0 -2 -1.5 -11.5
t-3.5 -13.5q-10 -17 -23 -45t-28 -61t-31 -68.5t-31.5 -67t-30 -56.5t-25.5 -36v-59q-37 0 -61 15.5t-24 41.5zM122 135q22 0 39.5 -12.5t17.5 -38.5q0 -21 -6 -33t-16.5 -17.5t-23.5 -6t-26 -0.5q-8 0 -21.5 0.5t-17.5 0.5q0 16 1.5 35t7 35t16.5 26.5t29 10.5z" />
    <glyph glyph-name="at" unicode="@" horiz-adv-x="723" 
d="M14 248q0 44 15.5 87.5t42.5 83t63.5 73.5t77.5 59t84.5 39.5t85.5 14.5q56 0 107 -13.5t89.5 -42t61.5 -71.5t23 -103q0 -25 -5 -53t-16 -54q23 -11 27 -28t3 -29q0 -61 -31 -102t-77.5 -65.5t-101 -34.5t-102.5 -10q-52 0 -113 14t-113 44t-86.5 77.5t-34.5 113.5z
M369 66q37 0 74 7.5t69.5 24t57 43t36.5 64.5q-21 -24 -48 -38.5t-62 -14.5h-13.5t-11.5 1q-1 0 -6.5 3.5t-8.5 5.5q-2 0 -6 2q-2 1 -3 2l-2 -2q-18 12 -46 11.5t-54 2t-44.5 16.5t-18.5 55q0 28 18 59t45 57t59 43.5t60 17.5h1q6 1 14.5 0.5t16.5 -3.5t14.5 -10t9.5 -19
v-33q0 -24 -5 -44t-11 -38v1q-3 -13 -6.5 -25.5t-5.5 -27.5q0 -3 1 -6t3 -3q27 0 46 15.5t31.5 39t18.5 50t6 48.5q0 44 -16.5 76t-45 52.5t-67 30t-82.5 9.5q-53 0 -106 -26t-96 -68t-70 -95t-27 -106q0 -51 28.5 -85t71 -54.5t91.5 -29.5t90 -9zM457 360
q-16 -2 -33.5 -14.5t-32.5 -30.5t-25 -37.5t-10 -33.5q0 1 9 1q20 0 36.5 10t28.5 26t18.5 36t6.5 40q0 2 2 3z" />
    <glyph glyph-name="A" unicode="A" 
d="M6 49q34 38 59 80t47 89q4 8 10 21t12 27t11 26t8 19q-10 2 -19 5t-15 3l-4 18q-2 7 -2.5 13t0.5 8q10 15 31 23.5t36 11.5q31 73 62.5 147.5t61.5 146.5l38 37q17 -11 29.5 -27t14.5 -27v3q10 -33 18 -62t14 -57.5t11 -57.5t10 -63q16 0 31 3q11 2 24 4.5t24 2.5h35
l7 -46l-118 -36q1 -26 11 -51.5t22 -51.5q15 -31 27 -67.5t12 -92.5q-24 0 -47 28t-42.5 67.5t-33.5 81.5t-20 70q-16 -3 -38 -8.5t-43 -10.5t-37.5 -9t-21.5 -5h-3l-31.5 -72t-40 -82t-48.5 -83t-56 -75l-14 -1q-14 0 -21.5 5.5t-14.5 17.5zM320 557q-3 -9 -11 -30
t-17.5 -46t-19 -50.5t-16.5 -43.5q26 2 53.5 7t47.5 18q0 3 0.5 6t0.5 4q0 4 -0.5 9.5t-0.5 10.5q-3 19 -5.5 48.5t-4.5 57t-2.5 47t0.5 19.5h-9q4 0 3 -7t-4 -16.5t-8 -19.5l-8 -16zM357 412q5 3 3.5 2.5t-3.5 -2.5v0z" />
    <glyph glyph-name="B" unicode="B" horiz-adv-x="653" 
d="M82 541q-8 -4 -14 -6t-9 -4h-52q0 24 6.5 41t15.5 23q46 20 83 36t73 27t74.5 17t86.5 6q19 0 52 -3.5t65.5 -14t56.5 -30.5t24 -54q0 -13 -5 -27.5t-13.5 -28t-19 -25t-20.5 -18.5l-157 -101h89q30 -1 65 -7.5t65 -21.5t50 -41.5t20 -66.5q0 -43 -25 -77.5t-64.5 -61.5
t-89 -46.5t-98.5 -32.5t-93 -19t-73 -6q-8 0 -16.5 1.5t-15 5.5t-11 11.5t-4.5 20.5q0 16 12 28q-18 14 -22.5 31t-6.5 34q-1 8 -3 24.5t-3.5 34.5t-2.5 33t-1 21v191q-1 11 -3.5 21.5t-5.5 21.5v-1q-5 15 -8 30.5t-3 32.5zM179 302v-46q0 -42 3 -84t16 -90l-4 -4
q48 4 98 12t96.5 23.5t86.5 41t68 63.5q4 11 6 18.5t2 17.5q0 11 -10.5 19.5t-24.5 14t-29.5 9t-25.5 5.5q-6 1 -20.5 2.5t-30 3t-29 2.5t-18.5 1q-1 0 -8 -0.5t-17 -1.5t-20.5 -2.5t-18.5 -2.5q-4 -1 -12 -1q-4 0 -6 -1h-10q-9 0 -21 -0.5t-19 -0.5q-4 0 -11 0.5t-15 0.5
h-26zM217 597q-11 -4 -37.5 -15t-54.5 -23q15 -8 25 -25.5t15.5 -37.5t8 -38.5t3.5 -28.5q1 -12 1.5 -25.5t1.5 -26.5q21 11 48.5 26t54 29t48 26t30.5 18q10 5 28 16.5t36 25t31 28.5t13 28t-14.5 19.5t-34.5 9t-41 2.5h-35h-32q-7 0 -14 0.5t-15 0.5q-17 0 -34 -2t-32 -7z
" />
    <glyph glyph-name="C" unicode="C" horiz-adv-x="521" 
d="M6 276q0 106 33.5 190.5t113.5 153.5q17 13 44.5 23.5t49.5 10.5q36 0 56.5 -18t31 -44t13 -54.5t2.5 -50.5q0 -4 -0.5 -12t-0.5 -18v-37q-10 -14 -18.5 -20.5t-20.5 -6.5q-15 0 -23 7.5t-11.5 18.5t-3.5 23t1 20v1q0 22 6 40q2 7 3 13t1 13q0 20 -11 34.5t-29 14.5
q-30 0 -53.5 -14t-41.5 -36.5t-30.5 -51t-20.5 -59t-11.5 -59.5t-3.5 -52q0 -39 5 -80t21 -74.5t44 -55t75 -21.5q34 0 70 22t71.5 55t68 72.5t58.5 74.5v-19v-24t0.5 -21.5t0.5 -10.5q0 -2 0.5 -6t0.5 -5q0 -20 -14 -43.5t-37 -47.5t-52 -46t-58.5 -39t-57.5 -27.5
t-48 -10.5q-62 0 -104.5 24t-69 63.5t-38.5 89t-12 100.5z" />
    <glyph glyph-name="D" unicode="D" horiz-adv-x="536" 
d="M115 74q47 16 104 40t107 58t83.5 78.5t33.5 100.5q0 43 -24.5 79t-62 63t-82.5 43.5t-86 19.5v-48q1 -29 1 -65v-58v-32q0 -8 -1 -27t-2 -43t-2 -51t-2 -51.5t-2 -43.5t-1 -27q-1 0 -13.5 -0.5t-14.5 -0.5q-13 0 -20.5 3.5t-11 9.5t-5 13t-2.5 14q0 4 -1 19.5t-2.5 33
t-3 32.5t-2.5 19v5q0 26 1.5 48.5t3.5 45.5t3.5 47t1.5 47v24.5v37t-0.5 36.5t-0.5 25q-3 8 -14.5 12t-24.5 6q-12 3 -23.5 6.5t-21 11t-17 22t-10.5 38.5q6 1 14.5 2.5l17 3t14.5 2t8 0.5q48 0 88 -14t81 -32h1q19 -8 33.5 -14t34.5 -13q12 2 19 -2t13 -12l-3 1l1 -1
q5 -3 11.5 -7t11.5 -7h-1q30 -18 59.5 -38t53 -44.5t38.5 -56t15 -71.5q0 -36 -9.5 -66.5t-25.5 -57.5t-37 -51t-44 -47h33v-52q-10 -3 -35 -9.5t-53 -14.5t-52.5 -15.5t-33.5 -11.5q-17 -5 -27.5 -10t-18.5 -9q-17 -8 -30 -13.5t-36 -5.5q-7 0 -13 0.5t-13.5 3.5t-17.5 10
t-23 20z" />
    <glyph glyph-name="E" unicode="E" horiz-adv-x="530" 
d="M7 89q0 2 0.5 8t0.5 11v10l64 551v48h71v-67q78 14 153 29.5t154 29.5h9q14 0 35.5 -19t37.5 -42l-404 -71q5 0 4.5 -3.5t-3.5 -7.5q-2 -17 -6 -52.5t-8.5 -74.5t-8 -73.5t-4.5 -47.5v-10q38 6 81.5 22.5t87 41.5t85 58t76.5 72v-70q0 -29 -22 -53t-52 -42.5t-60.5 -31.5
t-46.5 -19q-9 -3 -28 -9.5t-40.5 -14t-43 -14.5t-35.5 -12l-14 -4q-6 -25 -7 -51.5t-1 -52.5v-9v-41v1q1 -2 0 -0.5t1 -2.5h28q11 5 21.5 9.5t20.5 7.5q79 30 149 54.5t148 38.5h14q6 0 12 -0.5t11.5 -4.5t10.5 -12.5t9 -23.5l-25 -25q-72 -11 -127.5 -29.5t-112.5 -41.5
q-24 -9 -49.5 -18.5t-51.5 -19.5q-20 -8 -33 -10t-32 -2q-21 0 -34.5 8.5t-21 21.5t-10.5 29t-3 31zM77 228q2 0 8 2z" />
    <glyph glyph-name="F" unicode="F" horiz-adv-x="536" 
d="M35 563v1q0 1 0.5 1t0.5 1q2 11 7.5 22t22.5 19q3 1 14 2t24 2.5t24.5 3t16.5 1.5h9q10 1 28.5 3t41.5 4t49.5 4t52.5 4q25 2 50.5 4t47.5 4t39 3t26 2q16 -2 28.5 -9.5t12.5 -28.5q0 -17 -8.5 -26.5t-18.5 -14.5l3 4l-3 -3l-35 1q-20 -2 -54 -6t-73 -7q-44 -5 -83 -8
t-55 -5h-10q-13 -2 -29 -3t-30 -3q-17 -2 -33 -3l-1.5 -3t-1.5 -4q-2 -47 -4.5 -90.5t-4.5 -90.5q16 4 44 10t57 13t54 12.5t36 7.5l-5 -2q4 1 15 3t23 3.5t23.5 2.5t17.5 2h9q7 0 17.5 -1.5t22.5 -8t24 -19.5t23 -37q-106 -1 -199 -21.5t-174 -52.5q9 2 10.5 0.5t1.5 -2.5
v-7q0 -17 3 -41t7 -50q5 -32 8 -63.5t-1 -54.5q-1 -4 -7.5 -10.5t-15.5 -13t-18.5 -12t-16.5 -6.5q-26 73 -33.5 154.5t-7.5 162.5q0 33 0.5 65.5t0.5 62.5q1 26 1.5 50.5t0.5 47.5z" />
    <glyph glyph-name="G" unicode="G" horiz-adv-x="565" 
d="M405 -32q0 6 -0.5 11t-0.5 7q0 16 3 30.5t8 30.5q1 7 2 8t1.5 1t0.5 1.5v8.5q-8 -3 -16.5 -7.5t-19.5 -9.5q-35 -16 -74.5 -31.5t-80.5 -15.5q-48 0 -86.5 16t-65.5 44.5t-41.5 68t-14.5 86.5q0 66 27.5 131t69.5 124.5t92 112t95 92.5q15 14 27.5 23t24 13.5t24.5 6
t30 1.5t36 -4t35 -13t26.5 -24.5t10.5 -38.5q0 -5 -10 -17.5t-24.5 -27t-32 -30t-32.5 -26.5q9 22 11.5 42.5t0.5 36.5t-7.5 25t-12.5 9q-8 0 -18.5 -4t-21 -10t-20.5 -13t-16 -12h1q-43 -41 -85.5 -86.5t-77 -95.5t-56 -105.5t-21.5 -116.5v-10.5v-15.5t0.5 -15t0.5 -10
q8 -27 30.5 -50t48.5 -31q4 0 12 -0.5l16 -1t15 -0.5h9q39 0 80 9.5t75 30t56 52t22 75.5q0 5 -0.5 10t-2.5 5h-285l-35 36q15 12 32.5 20t33.5 12.5t29 6.5t19 2q7 0 24.5 0.5t37.5 0.5h39h31h27h41.5t41 -0.5t27.5 -0.5q2 -2 7 -6.5t10.5 -9.5t10.5 -10.5t7 -8.5v-12
q0 -51 -14 -97.5t-29 -91.5q-14 -39 -26 -80t-15 -94q-8 -2 -14 -3q-8 -2 -10 -2q-3 -1 -4 -1q-14 0 -22.5 6.5t-16.5 22.5v20z" />
    <glyph glyph-name="H" unicode="H" horiz-adv-x="432" 
d="M15 259q9 81 19.5 170t19.5 170l26 1q26 0 39 -29q0 -3 0.5 -11t0.5 -17v-17v-11q0 -38 -4.5 -71.5t-9.5 -67.5q-5 -29 -8 -55t-5 -52q17 -2 24 0q6 0 21 1.5t33 4t37 4.5t34 4q8 1 7.5 0.5t3.5 -0.5q9 20 11 44t2 52q0 16 -0.5 32t-1.5 33q-1 14 -1.5 31t-0.5 30
q0 24 2 45.5t9 39.5q2 8 7.5 24t7.5 23q21 -2 33 -4.5t18 -7t7.5 -11t1.5 -16.5v-7q0 -7 -1.5 -29t-3 -51.5t-3.5 -64t-4 -65.5q-2 -26 -3 -48.5t-3 -36.5q5 0 10 0.5t11 0.5q14 0 36.5 -12t54.5 -44q-10 0 -28 -2.5t-37 -5.5t-34 -6t-18 -5q-2 -2 -5 3v-208q-6 0 -18 2.5
t-24 7.5t-21 11t-9 14v158q-1 0 -2 1q-20 -3 -47.5 -7t-53.5 -7.5t-44.5 -6.5l-18.5 -3q-2 -2 -2 -3t-3 -4v-186q-18 3 -31.5 11.5t-22 18.5t-13 20t-4.5 17v180z" />
    <glyph glyph-name="I" unicode="I" horiz-adv-x="624" 
d="M2 62q4 9 14 15.5t21.5 10t21 5t11.5 1.5q4 -2 8 -3q3 -2 7 -2.5t8 -2.5q0 -1 -1 -1h1q5 0 14.5 -0.5t14.5 -0.5t13 0.5t13 0.5h4q8 2 22.5 5.5t30 7.5t29.5 8t22 6q6 2 7 6.5t2 15.5q0 2 0.5 4.5t0.5 5.5v99v74.5t-0.5 61.5t-2 63t-4.5 80h-151q0 8 2.5 19t6.5 21.5
t10 18t13 8.5q80 11 161 23t160 23h58q0 -21 -5 -34.5t-12 -22t-15 -12.5l-14 -7q-8 -3 -25.5 -8.5t-36.5 -12t-36.5 -12t-25.5 -8.5q-2 -13 -3.5 -27t-2.5 -28v-332q13 1 24 2.5t25 2.5q19 2 39.5 3.5t41.5 1.5q5 0 16 -0.5t25 -0.5h42q2 0 7.5 -2t11 -4.5t10 -5.5t6.5 -5
t7 -11t5 -36h-52h-43.5t-38.5 -1.5t-38.5 -4t-44.5 -6.5q-25 -5 -51 -11t-50 -12h1q-51 -14 -101 -24t-104 -10q-4 0 -11.5 0.5t-15.5 1t-15 1.5t-9 2l-22 23z" />
    <glyph glyph-name="J" unicode="J" horiz-adv-x="609" 
d="M58 140l22 -11q24 -13 44.5 -23t40.5 -17t41 -10.5t48 -3.5q12 0 26 1.5t25.5 7t19 14.5t5.5 24l-44 354h-180q-5 0 -14 1.5t-19.5 6t-20.5 11.5t-16 18h-0.5t-4 3t-10.5 10l-20 20q9 0 33.5 0.5t56.5 1t67.5 1t67 1.5t56 1.5t34.5 1.5q25 2 52.5 6t55.5 9q32 5 68 10
t90 5q0 -19 -6.5 -41.5t-22.5 -27.5l-192 -55q2 -2 4.5 -12.5t3.5 -13.5q0 -38 4.5 -75.5t9.5 -75.5t9.5 -75.5t4.5 -76.5q0 -66 -37.5 -98.5t-101.5 -32.5q-13 0 -37 6t-53 16t-59.5 24t-55 29.5t-40.5 32.5t-16 33h61z" />
    <glyph glyph-name="K" unicode="K" horiz-adv-x="462" 
d="M124 28h-76v140q-11 8 -23 19.5t-16 16.5l-2 8q-2 8 -2 9q0 18 6.5 31t16.5 26q5 8 10 17t5 20q0 38 -1.5 73.5t-3.5 73.5q-2 36 -3.5 73t-1.5 74v4v16.5t3.5 16t11.5 12.5t24 5h26q5 -48 8 -105t5 -105q1 -18 1 -27v-16.5t0.5 -16.5t2.5 -27q54 57 109 116.5t107 116.5
l14 1q4 0 13 -3.5t16.5 -10t10 -15.5t-4.5 -20q-5 -7 -10 -15l-10 -16q-8 -9 -25.5 -27.5t-39 -41.5t-45.5 -49t-46 -49.5t-39 -42t-25 -27.5l-8 -9h1q-11 -12 -13.5 -17t-2.5 -21v-7q0 -6 0.5 -10.5t5.5 -6.5q75 -35 151 -69l152 -68q5 -4 14 -16t9 -16q0 -3 -3.5 -9.5
t-8.5 -14t-10.5 -14t-9.5 -9.5q-15 8 -38 20t-39 21q-26 15 -53 29.5t-54 26.5t-54.5 20.5t-54.5 10.5v-96zM57 203q-6 3 -9 8t-2.5 11t4 11t10.5 7q-19 -7 -18 -21.5t21 -17.5z" />
    <glyph glyph-name="L" unicode="L" horiz-adv-x="609" 
d="M8 163q0 63 9 126t23.5 125.5t33 123t37.5 118.5q2 7 7 22l7 21h22q16 0 27.5 -10.5t11.5 -26.5v-8l-94 -343v1q-3 -14 -5 -31.5t-3 -36t-1 -36.5v-33v-14q0 -23 0.5 -41t8.5 -38l218 76l-7 -5q10 5 29.5 5.5t30.5 0.5h11h30.5t27 -1t29 -3.5t35.5 -6.5q10 -2 26 -7.5
t31 -12.5t25.5 -13t10.5 -9v-44q-42 0 -69.5 3t-50.5 8q-23 4 -45 7.5t-42 3.5h-14.5t-19 -0.5t-16.5 -1t-8 -0.5q-11 -2 -31.5 -8t-37.5 -11h1q-9 -2 -16.5 -4.5t-9.5 -3.5h-11q-33 -14 -68.5 -28t-68.5 -27q-2 -1 -4 -1h-9q-24 0 -36.5 18t-18 43t-6 51.5t-0.5 43.5v8v0z
" />
    <glyph glyph-name="M" unicode="M" horiz-adv-x="584" 
d="M10 702q5 13 16 18.5t34 5.5q3 -2 10 -8.5t15 -14.5t15 -16t10 -12q4 -9 15.5 -32.5t24.5 -49.5t25 -49t17 -32q6 -13 16.5 -29.5t23 -31.5t27.5 -25.5t30 -10.5h5t6 3q5 7 14 21.5t18 30.5t16.5 30t10.5 20q11 22 17.5 44t13.5 45q8 27 18 55.5t25 58.5l-3 -10q1 3 6 9
t10.5 11.5t11 10t8.5 6.5q13 -9 25.5 -27t13.5 -29q7 -125 14 -252t14 -252v1q4 -26 10 -53h-1q2 -10 5 -22.5t5 -23.5v-8q-1 -2 -4.5 -8.5t-8 -14.5t-9 -15.5t-6.5 -11.5q-23 17 -35.5 34t-19.5 33.5t-9 32.5t-3 33v10t-1 10q-2 53 -5 101.5t-6 94.5q-2 33 -3 47t-1.5 24
t-1.5 25.5t-3 51.5q-5 -14 -9 -24.5t-6 -16.5q-7 -13 -9 -23q-10 -24 -20 -46t-24 -38t-35 -25.5t-52 -9.5q-23 0 -44 9.5t-39 24.5t-33.5 33.5t-25.5 36.5h1q-5 8 -15 26.5t-22 41.5q2 -48 5.5 -96t7.5 -97q5 -63 9.5 -127t4.5 -127v-2q1 -9 0.5 -21.5t-4 -24t-12 -19.5
t-23.5 -8q-6 0 -16 8.5t-12 17.5q-2 8 -5 19t-5 19q0 2 0.5 31.5t1 76.5t1 106t1 119t0.5 115.5v96.5q-1 1 -1 2h1q0 17 -1 32t-5.5 27t-14 21t-26.5 13z" />
    <glyph glyph-name="N" unicode="N" horiz-adv-x="619" 
d="M13 269q0 11 0.5 31.5t0.5 36.5v149q0 56 4.5 115t21.5 116q1 0 10.5 0.5t10.5 0.5q18 0 26.5 -8t14.5 -17l-3 2q1 -1 2.5 -3t2.5 -3q6 -12 18.5 -36t28.5 -54.5t34 -63.5t34.5 -63t29.5 -53.5t20 -34.5v1q3 -5 19.5 -27.5t37 -49.5t40.5 -53.5t31 -40.5h-1q1 -3 6 -8.5
t11 -12t13 -13t12 -9.5l71 497l23 82q5 1 9 2l8 2t6 1q16 0 24.5 -5t12 -13t3.5 -17.5v-17.5q0 -16 -3.5 -26t-8.5 -20q-6 -10 -7 -20q-17 -121 -32.5 -243.5t-32.5 -243.5q-1 -10 -2.5 -21.5t-7 -21.5t-15 -17t-26.5 -7h-18q-5 3 -16 11.5t-24 18t-24 18t-15 12.5
q-3 2 -12 11.5t-12 12.5q-14 19 -38 51.5t-48 65.5t-42 58t-20 29l1 -1q-14 22 -27.5 48t-26.5 53v-1q-8 17 -9.5 23.5t-2.5 10.5t-4 9.5t-15 20.5q-1 -42 -2.5 -94t-2.5 -101.5t-2 -90t-1 -58.5v-165l-28 -28q-14 5 -24 24.5t-16.5 46.5t-10 58.5t-5 60t-2 51t-0.5 32.5z
" />
    <glyph glyph-name="O" unicode="O" horiz-adv-x="511" 
d="M6 336q0 39 4 82t16.5 83.5t35.5 77.5t61 64q7 1 27 2.5t38 3.5q17 2 31.5 3t22.5 1h10q66 0 110 -24.5t69.5 -65t36 -93t10.5 -109.5q0 -30 -6.5 -68t-19.5 -78t-32.5 -78.5t-46.5 -69t-60.5 -49t-74.5 -18.5q-69 0 -114 33t-71 82.5t-36.5 108.5t-10.5 112zM81 323
q0 -38 7 -81t24.5 -80t47 -61.5t73.5 -24.5q47 0 81 30.5t55.5 75t31.5 94.5t10 89q0 41 -7 79.5t-24.5 68t-47.5 47.5t-76 18q-41 0 -65.5 -7t-38 -25t-18.5 -47.5t-6 -74.5l-41 -8l-1 1q-3 -20 -3 -28q0 -2 -0.5 -10t-1 -18.5t-0.5 -21v-16.5z" />
    <glyph glyph-name="P" unicode="P" horiz-adv-x="541" 
d="M127 268q-1 22 -1 43.5t-2 44.5q-18 2 -24 13t-6 30q0 17 8 27.5t19 17.5v43q0 18 0.5 36t1.5 26q0 10 4 25t9.5 28.5t10.5 23t8 9.5h40q0 -48 1.5 -96t7.5 -85q10 -3 17 -3.5t18 -0.5q18 0 52.5 10t68 26.5t59 38.5t25.5 46q0 22 -27 35.5t-63 21.5t-72 11t-53 3h-19
q-23 0 -41 -1t-44 -9q-13 -2 -28 -8.5t-29 -11.5h1q-5 -2 -10.5 -4.5t-7.5 -3.5h-10q-14 0 -23.5 9t-18.5 35q54 41 110.5 55.5t112.5 14.5q19 0 48 -3.5t62.5 -11t67 -19.5t60 -29t43.5 -39.5t17 -50.5q0 -2 -0.5 -4.5t-0.5 -4.5v-18q-33 -36 -66 -61t-68 -43t-72 -31
t-76 -26q-8 -2 -13.5 -4t-13.5 -5l-1 -1h-1v-324q0 -16 -9.5 -30t-29.5 -14q-4 0 -15.5 3t-12.5 19q-8 61 -10 123.5t-4 123.5z" />
    <glyph glyph-name="Q" unicode="Q" horiz-adv-x="663" 
d="M8 266q0 15 9 56t24.5 93t37 109t47 104t53.5 77.5t57 30.5q16 0 29.5 -8t13.5 -31v-4q16 6 34 6q66 0 112 -33t74.5 -82.5t41.5 -108.5t13 -111v-21q0 -34 -1.5 -65t-13.5 -64q5 -2 12 -5.5t15 -6.5q23 -9 41.5 -20.5t18.5 -33.5q0 -14 -7.5 -23t-25.5 -18q-6 3 -20.5 9
t-30.5 12.5t-30.5 12t-19.5 6.5q-10 4 -16 7l9 -7q16 0 10 -8t-16 -18q-11 -12 -24.5 -26t-28 -27t-28.5 -23t-26 -15q-28 -11 -60.5 -21t-63.5 -10q-57 0 -101.5 22.5t-75 60t-47 85.5t-16.5 99zM218 615q0 8 3 19q-29 -30 -50 -67.5t-36.5 -79t-27 -85t-21.5 -86.5
q0 -5 -0.5 -11t-0.5 -13v-25q0 -37 9.5 -73t30 -64t51.5 -45.5t73 -17.5q25 0 54.5 8.5t56.5 23.5t49.5 36t34.5 45q-24 16 -48 33.5t-45.5 40.5t-41 53.5t-35.5 71.5h64q6 -7 17 -19t23.5 -24.5l24.5 -24.5l20 -20l12 -12l-1 2q8 -8 20 -17.5t21 -12.5q9 26 10.5 47.5
t1.5 52.5q0 43 -8 91t-27 88.5t-52 67.5t-82 27h-6.5t-10.5 -1h-10q-8 -8 -15 -22t-12 -27l-44 9q0 1 -0.5 6t-0.5 9q-1 4 -1 9v7z" />
    <glyph glyph-name="R" unicode="R" horiz-adv-x="624" 
d="M27 499v10q0 8 -0.5 18.5t-0.5 16.5t0.5 17.5t0.5 20.5v10q1 13 6.5 33t13.5 35h-14l-46 45q30 9 53.5 13.5t42 6.5t34.5 2h32h21q21 0 52.5 -1t66 -6t69.5 -14t64.5 -24.5t49.5 -39t25 -56.5q2 -20 -8 -39.5t-27.5 -37t-40 -33t-44.5 -28t-40.5 -21.5t-28.5 -13
q-5 -3 -16.5 -7.5t-25.5 -9.5t-30 -11t-31 -11q12 -7 25.5 -14t26.5 -13.5l23 -11.5t15 -8l266 -223q17 -1 27.5 -13t10.5 -26q0 -5 -3 -13t-9 -14.5t-14.5 -9.5t-19.5 2l-36 17q-11 10 -37 32t-57.5 48.5t-64 53.5t-56.5 48q-11 10 -21.5 18.5t-15.5 13.5q-28 22 -66.5 44
t-75.5 29q1 -37 3.5 -65t4.5 -64q4 -38 6.5 -79.5t2.5 -84.5v-12.5t-3.5 -12t-12 -11t-24.5 -9.5l-26 26zM100 661v-18q0 -23 0.5 -50.5t1 -57.5t2 -60t4.5 -56q24 4 56.5 13t67.5 21t69 26.5t60.5 31t43 34t16.5 34.5q0 23 -22 38.5t-52 24.5t-61.5 13t-50.5 5
q-11 0 -38.5 0.5t-58.5 0.5h-38z" />
    <glyph glyph-name="S" unicode="S" horiz-adv-x="560" 
d="M4 66q5 8 20.5 18t26.5 10h109l23 -18h48h30q5 0 22 2t37 5t39 6t27 5l-2 -1q6 1 16.5 4.5t21 8t18.5 9.5t8 10t-3 11q-6 7 -16.5 18t-21.5 22t-20 19t-11 10l-247 175q-68 48 -68 130q0 49 27.5 89.5t68.5 68.5t88.5 43.5t88.5 15.5q34 0 68 -6.5t61.5 -22.5t44.5 -44.5
t17 -71.5v-6q0 -11 -0.5 -20.5t-4.5 -17.5t-13 -12.5t-26 -4.5h-4h-7t-13.5 0.5t-14 0.5h-6.5q1 4 4 12t6.5 17t6.5 17.5t5 13.5v-3v3q0 1 0.5 2t0.5 2q-1 0 -1 -1v-3q-1 21 -14 36t-31.5 24t-41 13.5t-41.5 4.5q-27 0 -60.5 -11.5t-63 -31t-49 -45.5t-19.5 -56
q0 -31 14.5 -54.5t40.5 -41.5l256 -184l-1 1q8 -5 21 -17t25.5 -27.5t21.5 -32t9 -30.5q0 -32 -24 -54t-61.5 -36.5t-83 -22.5t-88.5 -12t-77.5 -5t-49.5 -1h-12h-33t-35.5 3.5t-32.5 12t-25 24.5z" />
    <glyph glyph-name="T" unicode="T" horiz-adv-x="781" 
d="M15 632q60 34 124.5 53.5t132 29t135 12t133.5 2.5q8 0 28 -0.5t43 -1.5q22 -1 40.5 -1h25.5q4 0 15.5 -1.5t24 -7t22 -14.5t9.5 -24q0 -10 -7 -17.5t-17.5 -12.5t-23 -7.5t-24.5 -2.5q0 12 -3 15.5t-6 5.5q-9 0 -27.5 0.5t-39 1t-39 0.5h-26.5h-33t-41.5 -0.5t-36.5 -1
t-18 -0.5q-8 -1 -26 -4t-43 -7q8 -8 11 -19.5t5 -24.5q6 -35 9 -73t5 -75q1 -22 2 -46.5t3 -45.5q0 -2 1 -8.5t2 -15t2.5 -18t2.5 -16.5q0 -3 0.5 -6t0.5 -5v-6v-9q2 -15 6.5 -44t9.5 -62t10 -65t8 -53q1 -8 1.5 -15t2.5 -12q-8 -17 -17 -24t-22 -7l-24 1q-33 120 -47 245
t-22 237q-2 32 -4.5 65t-5.5 62v28l1 1q-36 -7 -69 -13t-49 -10q-5 -2 -20 -7.5t-31.5 -11.5t-31 -12t-17.5 -7h-17q-12 0 -22.5 3.5t-16.5 23.5z" />
    <glyph glyph-name="U" unicode="U" 
d="M13 288q0 48 5.5 94t10.5 93q6 46 11 95t5 111h39q11 0 18 -10.5t10.5 -24t4.5 -26.5t1 -18q0 -43 -5 -83t-10 -79q-6 -39 -10 -77.5t-4 -76.5v-42.5t3 -44.5t9.5 -42t18.5 -35v1q5 -5 12 -13t13 -15.5t10 -13t3 -5.5h45l4.5 6.5t12 15t15 18t13.5 15.5q42 46 73 112.5
t51.5 140t31.5 147t14 135.5q7 1 13 3q5 1 9.5 2t5.5 1q11 0 24.5 -8t13.5 -25v-85l-65 -261q0 -1 -0.5 -6.5t-0.5 -12.5v-14v-11q0 -33 8 -62t27 -50t51.5 -31.5t80.5 -5.5q-14 -26 -28 -40.5t-26.5 -21.5t-23.5 -9t-20 -2q-32 0 -54.5 11t-38 29t-26.5 41.5t-18 47.5
q-16 -25 -31.5 -48.5t-22.5 -32.5q-8 -11 -20.5 -24.5t-27.5 -25t-32.5 -19t-35.5 -7.5q-35 0 -61 15t-44.5 40t-30.5 56t-19 63t-9.5 62t-2.5 53z" />
    <glyph glyph-name="V" unicode="V" horiz-adv-x="516" 
d="M3 638q8 0 19 -0.5t22 -3t20 -7.5t12 -13q3 -14 9.5 -41.5t14.5 -63t17 -74t17.5 -73.5t15.5 -63t10 -41v2l7 -21t10.5 -32.5t11 -33t7.5 -21.5q2 -7 5.5 -17.5t5.5 -20.5q8 25 19 59t23 71t25 75t24.5 71.5t21 59.5t14.5 40q5 13 20 45t32.5 68.5t34 69t24.5 46.5
q20 -2 38 -11t18 -29l-4 -12q-2 -6 -3 -8t-1 -3q-42 -69 -76 -145.5t-62.5 -156.5t-52 -161t-42.5 -159q-8 -12 -17 -23.5t-28 -11.5q-9 0 -18 7t-16.5 16.5t-13.5 18.5t-7 12l1 -3q-6 12 -15 34.5l-18 45t-16 40.5t-8 22l-101 408v38z" />
    <glyph glyph-name="W" unicode="W" horiz-adv-x="835" 
d="M41 553q2 8 -2 18t-9 21q-6 13 -12.5 30t-6.5 52q24 0 41 -10t28.5 -23.5t17.5 -29t8 -25.5q2 -8 6.5 -30.5t11.5 -53.5q8 -35 17 -75.5t16.5 -77t13.5 -63.5l8 -36q1 -5 5 -17t9.5 -28t12 -34t12.5 -35q28 102 54 203.5t53 204.5v-6q1 4 6 15.5t12.5 23.5t17 21.5
t19.5 9.5q3 0 9 -2q3 -1 5 -1q27 -19 39 -45.5t18 -50.5l3 -11q2 -6 4.5 -15t4.5 -20q7 -28 17 -65.5t19.5 -74t17.5 -66.5t11 -43l-1 2q3 -9 8 -22t11 -26t13 -23.5t14 -13.5l19 33q4 6 14 34.5t21.5 64.5t21.5 71t15 54q3 11 7.5 35.5t10 56t12 67t11.5 68l9 58.5l6 39
q7 1 12 3q5 1 9 2t6 1q11 0 20 -8.5t15 -19.5t9 -22t2 -17l1 2q-1 -5 -8 -19t-12 -23q-18 -90 -36.5 -177t-36.5 -177l1 1q0 -2 -5.5 -18.5t-13 -37.5t-15.5 -42.5t-13 -34.5v1q-5 -11 -10.5 -24t-14 -23.5t-20.5 -17.5t-28 -7q-20 0 -41 20.5t-40 47t-32 52.5t-16 37v-1
q-16 62 -33 126.5t-33 126.5q1 5 1 19t-2 26l-116 -461q-3 -11 -15 -27t-26 -25q-18 11 -31.5 28t-23 34t-15 31t-7.5 19v-1q-3 7 -8.5 23t-11.5 34l-11.5 34.5t-6.5 22.5q-4 14 -10 40.5t-13.5 58.5t-15.5 66.5t-15 65t-12.5 55t-7.5 36.5z" />
    <glyph glyph-name="X" unicode="X" horiz-adv-x="462" 
d="M397 -3q-31 24 -58 55t-50.5 65t-43 69t-36.5 68q-3 -15 -7.5 -33.5l-9 -37t-8.5 -36t-6 -29.5q-1 -1 -1.5 -11t-0.5 -15v-17q13 -11 13 -28q0 -12 -5 -19.5t-12.5 -12t-16 -6t-15.5 -1.5q-27 0 -37 19t-10 37q0 4 -0.5 9t1.5 12q17 66 33.5 133t33.5 133
q-80 159 -159 318v41q23 0 38.5 -4t25 -11t16 -16.5t11.5 -20.5v1q3 -5 7 -13t9 -19q9 -17 19.5 -38.5t22 -44t22.5 -44.5l20 -40q17 51 33.5 102t32.5 102v-1q5 15 17 29t29 24t37 16t41 6q0 -33 -11 -53.5t-26 -35.5q-8 -8 -14.5 -16t-8.5 -13l1 1q-20 -64 -40.5 -127
t-40.5 -127v-22q0 -2 11 -22t26.5 -47.5t32 -56t27.5 -46.5q1 -3 8 -12t15.5 -20.5t16.5 -22t13 -15.5q4 -5 9 -9t9 -6q12 -9 19 -17.5t7 -27.5q0 -12 -6.5 -25t-33.5 -21z" />
    <glyph glyph-name="Y" unicode="Y" horiz-adv-x="403" 
d="M-5 645q6 7 14.5 8t11.5 1q18 0 27 -6.5t20 -24.5l120 -202q2 -2 4.5 -5.5t5.5 -6.5q5 26 10 59t11 70q8 52 17.5 107.5t24 105t34.5 89t49 58.5l62 -63q-16 -4 -34 -9.5t-20 -7.5q-20 -57 -30.5 -120.5t-18.5 -125.5q-6 -54 -14 -111t-25 -111q-4 -14 -11 -20t-16 -8
q2 -15 6 -33.5t6 -38.5q3 -24 6.5 -49t7 -46.5t6 -37.5t4.5 -22q3 -11 14 -25.5t29 -27.5q-11 -23 -21 -33t-23 -10q-17 0 -31 11.5t-24.5 27.5t-17 33.5t-9.5 28.5q-5 20 -10 58t-9 77t-7 71.5t-4 41.5q-29 25 -56.5 64t-51 79.5t-40 75.5t-23.5 52z" />
    <glyph glyph-name="Z" unicode="Z" horiz-adv-x="668" 
d="M208 -2q0 165 46 300q-14 -2 -27 -5t-27 -6q-24 -6 -51.5 -10.5t-69.5 -4.5v66q7 1 26.5 5.5t43 9.5l47 10t40.5 9q9 2 16.5 4t11.5 3l-1 -1q25 6 38 31q6 16 16.5 42t20.5 52t17.5 46t9.5 24l-1 -1q7 21 12.5 41t5.5 39q0 5 -8 8h-21q-8 0 -15 0.5t-10 0.5
q-71 0 -135 -20t-130 -55h-9h-6q-7 0 -13 0.5t-12 5t-11 14t-10 26.5q42 22 82.5 41t81 33.5t82 22.5t85.5 8q22 0 44 -2.5t40 -11.5t29.5 -27t11.5 -49q0 -2 -0.5 -5.5t-0.5 -7.5v-10l-75 -217q23 2 44 6.5t43 9.5q32 8 64 14t65 6h54q-9 -21 -18.5 -33.5t-18.5 -19.5
t-17 -10t-14 -4q-12 -3 -42.5 -9t-62.5 -14q-36 -8 -66.5 -14.5t-38.5 -8.5v1q-27 -6 -42 -34t-22.5 -65t-9.5 -77t-2 -70h1q13 5 42 15.5t60.5 22t59 21.5l38.5 14q2 0 14.5 2.5t28 5.5t31.5 6t25 4q2 0 5 0.5t4 0.5t2 -0.5t3 -0.5h62l-59 -59q-1 0 -13.5 -4.5t-29 -10.5
t-34.5 -11.5t-29 -8.5h-8q-10 -5 -20.5 -9.5t-20.5 -9.5h1q-27 -12 -55 -23.5t-58 -21t-64.5 -15t-75.5 -5.5z" />
    <glyph glyph-name="bracketleft" unicode="[" horiz-adv-x="472" 
d="M14 603v157l22 22q102 10 191.5 39.5t179.5 79.5h40v-42q0 -3 -19 -15t-45.5 -27t-55 -29.5t-47.5 -22.5q-21 -9 -45.5 -16t-49.5 -13t-50 -10t-47 -7v-91q3 -15 9 -44.5t13.5 -65.5t15 -76t14 -75.5t12 -64t7.5 -42.5q1 -10 4 -34.5t6 -53.5t5.5 -56t3.5 -41h3
q8 2 16 3.5t16 3.5q52 12 109.5 21.5t127.5 9.5q0 -26 -7.5 -40.5t-18.5 -22t-24 -10t-24 -3.5h1h-11q-3 -1 -9.5 -2.5t-14.5 -3.5q-18 -3 -43 -8t-49 -10t-42.5 -8.5t-23.5 -4.5h-9q-4 0 -7.5 -0.5t-5.5 -0.5q-22 0 -36 10t-22 26t-11 36t-3 41q0 17 1 32.5t3 26.5v-1
q0 1 0.5 1t0.5 2z" />
    <glyph glyph-name="backslash" unicode="\" horiz-adv-x="545" 
d="M21 652q9 0 18 -5t16.5 -12t13 -14t8.5 -10q48 -99 108 -188.5t132 -167.5q6 -6 24 -24.5t39 -39.5t41 -40.5t29 -28.5q5 -4 9.5 -7t9.5 -5q19 -11 36 -25.5t17 -42.5q0 -7 -0.5 -13t-4.5 -12t-12.5 -11t-23.5 -9q-39 34 -83 74.5t-86.5 84t-81.5 88.5t-68 89
q-13 19 -30 47t-35.5 58.5t-36 61.5t-32 55.5t-23 41t-8.5 19.5v13z" />
    <glyph glyph-name="bracketright" unicode="]" horiz-adv-x="487" 
d="M39 77q8 -2 21 -3t22 -1q22 0 32 2q8 1 37.5 5.5t65.5 10t70 11.5l51 9q5 0 8 1q-1 30 -6 59t-12 59q-8 36 -14.5 72.5t-6.5 73.5q0 8 0.5 21t1 26.5t1 24t0.5 12.5l63 284v6q-2 -3 -8.5 -3.5t-11.5 -0.5h-8q-35 0 -75.5 -2t-73.5 -9q-5 -1 -26.5 -6t-46.5 -11t-47 -11.5
t-27 -6.5h-11q-14 0 -25.5 5t-19.5 35l19 18q1 1 21.5 7t48.5 13t57 13.5t47 10.5q42 8 78.5 9t81.5 1h14q6 0 17.5 -0.5t23.5 -1t21.5 -1.5t12.5 -1l23 -22q-3 -11 -6.5 -28t-6.5 -28v1q-12 -50 -23.5 -97t-19.5 -93.5t-13 -94t-5 -98.5q0 -34 6 -64.5t12 -61.5
q7 -35 13 -67.5t6 -64.5q0 -27 -6.5 -33t-28.5 -10q-2 -1 -5.5 -1t-5.5 -1q-15 -3 -51 -9.5t-76.5 -13.5t-76 -13.5t-49.5 -8.5l1 1q-5 -2 -17 -2h-15q-10 0 -20 0.5t-20.5 5t-21 14t-22.5 26.5z" />
    <glyph glyph-name="asciicircum" unicode="^" horiz-adv-x="421" 
d="M155 412l-1 -4q6 15 13.5 20t21.5 5q13 0 22 -4.5t14 -20.5q17 -36 36 -75.5t37 -74.5q0 -2 0.5 -10.5t0.5 -9.5q-19 -23 -34.5 -24t-29 11t-25 32.5t-22.5 42.5q-2 4 -2 4.5v0.5v0.5t-3 4.5q-8 -12 -13.5 -22t-10.5 -18q-7 -11 -19.5 -30.5t-20.5 -33.5l-61 35z" />
    <glyph glyph-name="underscore" unicode="_" 
d="M28 71q44 0 89.5 6t91.5 14t92.5 14.5t97.5 6.5h22t34.5 -0.5t35 -0.5h22.5q14 -3 25 -10t11 -27q0 -14 -6.5 -22.5t-22.5 -16.5q-20 2 -56.5 2.5t-74.5 0.5q-39 0 -74 -0.5t-49 -1.5q-8 -1 -36.5 -6.5t-60 -11.5t-59 -11.5t-34.5 -6.5h-5q-6 0 -17.5 2.5t-22.5 8.5
t-19 15t-8 22z" />
    <glyph glyph-name="a" unicode="a" horiz-adv-x="503" 
d="M10 78q0 18 8.5 51.5t23.5 73t35.5 80.5t44.5 74.5t50.5 55t53.5 21.5q26 0 39.5 -6.5t19.5 -18.5t6.5 -28.5t0.5 -36.5t-1.5 -32t-3.5 -25t-3 -26t-1 -25q-10 -36 -10 -66q0 -37 19 -61t64 -26q17 1 39 10t46 23t48 32t45 38v-14v-17.5t0.5 -15.5l0.5 -7v-3q0 -1 1 -1
q0 -27 -23 -47.5t-54 -35t-62.5 -21.5t-47.5 -7h-8h-18.5t-21.5 1.5t-21 4.5t-17 9q-7 5 -21.5 19t-27.5 27q-12 -13 -27 -27t-31.5 -25.5t-34.5 -19t-37 -7.5q-37 0 -55.5 22t-18.5 57zM85 81q0 -2 -0.5 -4t-0.5 -3q23 0 42.5 16t35 41t28 55.5t20.5 61t12.5 57t4.5 42.5
q0 14 -5 14q-16 0 -32.5 -16.5t-32 -42.5t-28.5 -58.5t-23 -63.5t-15.5 -57.5t-5.5 -41.5z" />
    <glyph glyph-name="b" unicode="b" horiz-adv-x="354" 
d="M11 224q0 69 3 137.5t8 137.5q2 34 4 71.5t3.5 76t2.5 76t1 72.5q23 0 40.5 -11.5t21.5 -18.5v-61q0 -17 0.5 -33t0.5 -23q0 -60 -1.5 -118.5t-3.5 -118.5q-1 -31 -1.5 -61.5t-1.5 -60.5q17 27 43 46t64 19q33 0 61 -13.5t48 -36.5t31.5 -53t11.5 -63q0 -41 -20 -66
t-50.5 -38.5t-67 -18t-68.5 -4.5h-21.5t-19.5 1q-2 -11 -4 -28.5t-4 -24.5h-39q-2 0 -8 20t-13 48t-13 58t-7 50v8q0 7 -0.5 16.5t-0.5 14.5zM195 280q-19 0 -32.5 -14.5t-23.5 -35.5t-16 -44.5t-10 -42.5l36 -14l4 -0.5t9 -0.5h10.5h7.5q42 0 67.5 19.5t25.5 59.5
q0 32 -23 52.5t-55 20.5z" />
    <glyph glyph-name="c" unicode="c" horiz-adv-x="438" 
d="M8 149q0 23 7 52.5t20 60t31.5 60t41 52t49 36.5t55.5 14q16 0 32 -6.5t28.5 -17.5t20 -26t7.5 -32q0 -15 -13.5 -31.5t-51.5 -16.5q0 7 -1 17t-2.5 19t-4.5 15t-6 6q-32 0 -57.5 -22t-43.5 -54t-27.5 -67.5t-9.5 -62.5q0 -20 8.5 -34t22 -22.5t31 -12t34.5 -3.5
q31 0 64.5 8.5t68 22.5t70 31.5t69.5 36.5l1 -45q0 -11 -16.5 -25t-43 -28.5t-58 -28t-62 -23.5t-55 -16.5t-36.5 -6.5q-31 0 -62 10t-55.5 29t-40 47t-15.5 64z" />
    <glyph glyph-name="d" unicode="d" horiz-adv-x="563" 
d="M258 382q26 0 42 -10t25 -26t12 -35t3 -38q2 14 4 32t5 38v-1q6 48 14 102.5t20.5 100t29.5 75.5t41 30q22 0 33.5 -12.5t17 -29.5t6 -35t0.5 -28v-3q0 -38 -8.5 -75t-21.5 -72.5t-29.5 -69t-31.5 -64.5q-1 -5 -1.5 -18t-0.5 -17q0 -37 15 -63.5t43 -44t68.5 -27.5
t91.5 -14q-33 -19 -55 -29.5t-36.5 -15t-23.5 -5.5t-18 -1h-4q-32 0 -55.5 11t-41.5 30t-30.5 43.5t-22.5 50.5q-10 -10 -18.5 -19.5t-17.5 -19.5q-20 -23 -41 -45t-44.5 -39t-52 -28t-63.5 -11q-9 0 -25 3.5t-32.5 11t-28.5 19t-12 26.5v82q0 2 9.5 18t23 37t28 42t25.5 33
q12 15 29 34.5t38 36.5t44 28.5t47 11.5zM228 122q11 9 23 20.5t26 24.5v56q0 21 -2 43.5t-9 38.5q-3 0 -5 0.5t-3 0.5q-18 0 -38 -11t-40 -29t-38.5 -40.5t-32.5 -45.5t-22.5 -44t-8.5 -36q0 -13 12 -25q3 0 7 -0.5t6 -0.5q5 0 9 -0.5t6 -0.5q18 0 31.5 2.5t25.5 8.5
t24.5 15t28.5 23zM396 314q7 -4 16 17.5t17.5 54.5t16 71.5t11 69.5t3 48t-7.5 7q3 8 -0.5 -8.5t-11 -45.5t-17 -65.5t-17 -68.5t-11 -55t0.5 -25z" />
    <glyph glyph-name="e" unicode="e" horiz-adv-x="337" 
d="M195 8q-39 0 -68 15t-48.5 39.5t-30.5 56t-15 65.5q-9 -2 -17.5 -3.5t-15.5 -0.5q-4 2 -9.5 6.5t-10 10t-8 10.5t-3.5 8q6 24 26 35.5t40 13.5l1.5 7.5l1.5 7.5q4 32 10.5 62t26.5 60q6 13 18 29.5t27 30.5t32 24t34 10q10 0 29.5 -7.5t39 -18.5t35 -23.5t17.5 -23.5v1
q3 -31 -5.5 -54t-24.5 -41t-37 -32t-43 -26q-12 -7 -22.5 -13.5t-17.5 -11.5q-19 -20 -35 -30q-8 -6 -12.5 -11t-4.5 -19q0 -47 27 -79.5t73 -32.5q2 0 7.5 1t18 7t35.5 19t60 37q24 0 28 -10t4 -18q0 -22 -20.5 -40.5t-47.5 -32t-54 -21t-41 -7.5zM192 421q-16 0 -29 -12.5
t-22.5 -30.5t-16 -39t-9.5 -38q6 2 11.5 5.5t10.5 6.5l36 22t31.5 23t22 27t8.5 33q0 1 -5.5 1.5t-12.5 1t-14 0.5h-11z" />
    <glyph glyph-name="f" unicode="f" horiz-adv-x="407" 
d="M181 90q-3 12 -7.5 29.5l-9 35t-8.5 31t-5 17.5q-20 -5 -39 -6t-39 -1h-8q-4 0 -13 0.5t-14 0.5h-14l-33 33l32 32q20 1 49 4t54 9q0 4 0.5 8t0.5 6q0 24 -1.5 48.5t-3.5 49.5q-2 26 -3.5 51.5t-1.5 53.5q0 38 2.5 71.5t9 66t18 66t30.5 71.5q11 8 19.5 12.5t20.5 4.5
q15 0 41 -13t51.5 -32.5t44 -42.5t18.5 -44v-3v-12t-0.5 -24.5t-0.5 -25v-11.5q-14 17 -34 40t-41.5 44t-41 35.5t-32.5 14.5q-6 0 -10 -13.5t-7.5 -34.5t-6 -46.5t-4 -49.5t-2.5 -44t-1 -29q0 -49 1.5 -98t10.5 -96q23 1 46.5 4.5t49.5 8.5h-1q29 6 57.5 10t58.5 4h62
l-55 -55q-11 -2 -38.5 -8.5t-58.5 -14t-59 -14t-38 -9.5l-6 -2q9 -39 20 -79t22 -79q2 -5 2 -11v-10q0 -11 -4.5 -24.5t-30.5 -20.5q-16 6 -25.5 15t-14.5 20t-6.5 22.5t-1.5 22.5q0 7 -1 11z" />
    <glyph glyph-name="g" unicode="g" horiz-adv-x="459" 
d="M162 -236q0 47 13 92t33.5 86.5t46.5 80t52 73.5q0 4 -2.5 19t-6.5 33t-8 34.5t-7 23.5q-12 -8 -23 -25.5t-25 -37.5q-12 -18 -25 -37t-29.5 -36t-36.5 -31t-45 -22q-30 0 -47.5 15.5t-27 37.5t-12.5 46.5t-3 42.5q0 20 6.5 54t18.5 73.5t28.5 80t38 73.5t46.5 54t53 21
q24 0 40.5 -12t27 -30t16 -39t7.5 -39q1 -8 2 -23t2.5 -32t3 -32t1.5 -21q26 -21 35 -46.5t17 -53.5q2 -8 5.5 -17.5t7.5 -20.5q23 17 46.5 35t45.5 34h12q21 0 29.5 -13.5t8.5 -29.5q0 -25 -7 -29t-24 -4q-5 0 -8 -3q-17 -11 -39.5 -32t-39.5 -38q2 -10 5 -27.5t7 -37.5
t7.5 -39t5.5 -31q1 -4 1 -7.5t1 -5.5v-9q0 -20 -2.5 -48t-8.5 -58t-17 -60t-28 -53.5t-41 -38t-56 -14.5q-28 0 -47 11t-31 29t-17.5 40t-5.5 44zM236 -257v-11t1 -9q5 -7 11.5 -8.5t14.5 -1.5q27 0 42.5 24t24 57t10.5 66.5t2 53.5q0 5 -0.5 12.5t-0.5 12.5v4
q-1 10 -5.5 28.5t-8.5 35.5q-21 -23 -37.5 -52.5t-28.5 -61t-18.5 -63.5t-6.5 -62v-25zM237 -281v4q-2 2 -2 4zM83 160q0 -9 -0.5 -20.5t1 -22.5t4.5 -18.5t9 -7.5q9 0 22.5 13.5t20.5 22.5v-1q5 8 17 27t25.5 40.5t25.5 41t17 27.5q0 5 0.5 13.5t0.5 17.5v16.5v10.5v8
q0 12 -0.5 31.5t-2.5 37.5t-8 31t-16 13q-16 0 -31 -16.5t-27.5 -42t-23.5 -56.5t-18.5 -61.5t-11.5 -56t-4 -39.5v-9z" />
    <glyph glyph-name="h" unicode="h" horiz-adv-x="485" 
d="M34 712q1 0 2.5 0.5t2.5 0.5h4q12 0 23 -4t20 -28q14 -81 23 -172t17 -180q3 -32 5.5 -65t6.5 -67q0 -3 0.5 -8t1.5 -10q8 15 15 27.5t11 18.5q10 15 18.5 27.5t17.5 22t20 17.5t27 14q7 3 21 7t18 4q4 -2 11.5 -7t15 -11.5t13 -12t6.5 -8.5l7 -28t11 -42.5t11.5 -42.5
t7.5 -27q4 -13 17 -27t24 -22v1q-3 1 -1 1q11 0 27 8.5t28 16.5q7 5 50 27l1 -43q0 -18 -13 -32t-31 -23t-36.5 -14t-30.5 -5q-33 0 -54.5 16.5t-35 41.5t-21.5 55t-14 57q-5 18 -7.5 31.5t2.5 15.5q-13 -1 -25.5 -14.5t-24 -34.5t-22 -46t-19.5 -48q-16 -38 -31 -65
t-35 -27l-21 1q-20 53 -24.5 95t-5.5 83q-1 15 -1.5 29.5t-2.5 29.5q-4 51 -6 106q-5 81 -14 166t-33 163z" />
    <glyph glyph-name="i" unicode="i" horiz-adv-x="208" 
d="M103 379l29 -245q1 -8 4 -18.5t7.5 -20t10.5 -16t13 -6.5q9 0 16 8.5t18 27.5l39 -10v-17q0 -14 -8.5 -28.5t-21 -26.5t-28 -19.5t-29.5 -7.5q-15 0 -29 10.5t-25.5 24.5t-19.5 29.5t-11 25.5q-18 69 -21 138.5t-3 150.5h59zM17 583q31 0 42.5 -26t11.5 -59q-46 0 -62 18
t-16 43z" />
    <glyph glyph-name="j" unicode="j" horiz-adv-x="345" 
d="M57 -233q0 35 9.5 69.5t24.5 66.5t33.5 62.5t36.5 58.5q3 3 5 7v5q-22 48 -46 101t-49 107t-49 106.5t-46 100.5h76l161 -349q40 47 87 93t101 89q18 -8 28 -17t10 -23q0 -5 -4 -13q-2 -4 -4 -7l-162 -163q1 1 -1.5 -3t-5.5 -10v1q-6 -8 -8 -11v1q-2 -2 -3.5 -4.5
t-1.5 -1.5q0 -26 14 -53.5t31 -56.5h-1q20 -35 37.5 -72.5t17.5 -79.5q0 -31 -12.5 -55.5t-33.5 -41t-48 -25.5t-55 -9q-29 0 -54.5 8.5t-45 24.5t-31 40t-11.5 54zM123 -232q0 -29 22 -41.5t51 -12.5q35 0 56.5 14t21.5 49q0 39 -16.5 76t-36.5 74v-1q-6 11 -11.5 23
t-11.5 24q-12 -6 -25 -32t-24 -59t-18.5 -65t-7.5 -49zM203 -26q-5 0 -7 3l2 -4q2 1 5 1zM42 663q7 14 15 18t20 4q15 0 22.5 -8t11.5 -20t4.5 -25.5t0.5 -23.5q-33 0 -48 8.5t-24 21.5z" />
    <glyph glyph-name="k" unicode="k" horiz-adv-x="481" 
d="M10 667v44q34 0 53.5 -17.5t21.5 -37.5q3 -20 7.5 -52t10.5 -70t12 -79t12 -78t11 -68t8 -49q15 19 41.5 54t54.5 71t52 67.5t33 43.5h45v-58l-171 -226l27 -13.5t30 -14.5t27 -13t18 -8q15 -6 39.5 -15t49 -17t43 -14t21.5 -6h62q0 -26 -5.5 -40t-14.5 -20t-19.5 -6.5
t-19.5 -0.5h-5q-46 0 -87.5 16.5t-81.5 36.5q-29 14 -58.5 26t-60.5 17v-25q0 -5 -1 -9.5t-3 -4.5q22 -25 22 -49q0 -17 -14 -32.5t-44 -25.5l-17 54z" />
    <glyph glyph-name="l" unicode="l" horiz-adv-x="282" 
d="M7 208q0 51 5.5 99t12.5 96t12.5 95t5.5 92q0 19 -1.5 39t-3.5 40t-3.5 45.5t-1.5 60.5h42q3 0 8.5 -7t10.5 -17t9 -21t5 -20q0 -6 0.5 -20.5t0.5 -31.5v-33v-25q0 -46 -4.5 -89.5t-10.5 -87.5q-5 -44 -9.5 -87.5t-4.5 -86.5v-8q0 -18 1 -46.5t6 -55t17 -46t34 -19.5
q10 0 20.5 4t20.5 11l-1 -1q7 4 24.5 16.5t37 26t37.5 25.5t25 17h61q0 -5 -13 -19.5t-33 -33.5t-45.5 -40.5t-50.5 -39.5t-47 -29.5t-36 -11.5q-41 0 -67 22t-40 54.5t-19 68.5t-5 64z" />
    <glyph glyph-name="m" unicode="m" horiz-adv-x="663" 
d="M525 232q-1 22 -1.5 40.5t-2.5 32.5q-9 -2 -20.5 -12.5t-22 -23t-19.5 -24.5t-12 -18q-6 -10 -20 -36.5t-30 -56.5t-29.5 -57.5t-18.5 -39.5l-32 -30q-29 6 -35 23t-5 29v2q0 23 1.5 47t3.5 46q2 23 3.5 45t1.5 45v13q0 14 -1 27t-6 13q-18 0 -33.5 -14t-23.5 -28
q-31 -57 -63.5 -115t-63.5 -115l-61 -30v22.5t0.5 37.5t0.5 42.5v38.5q0 33 -0.5 62.5t-0.5 40.5q0 3 -1 13.5t-2.5 22.5t-2.5 23.5t-2 17.5q0 -2 1 -2q-1 1 -1 2v1v-1q-4 9 -6.5 19t-2.5 12q0 4 4 9.5t10 10.5t12.5 8.5t10.5 3.5q15 -6 23.5 -15.5t13 -21t6.5 -22.5t3 -20
v-5q2 -20 3.5 -48t2.5 -48q10 18 18.5 32.5t13.5 20.5v-1q11 19 25.5 40t32.5 39t40.5 30t48.5 12q27 0 47 -20t20 -50v-114q2 5 5.5 10.5t5.5 10.5q15 29 32.5 59.5t37.5 55.5t44 41t53 16q15 0 26.5 -6.5t19.5 -16t12 -21.5t5 -24q1 -9 2 -25.5t3 -38.5q2 -27 4 -59
t4.5 -61.5t4 -53t1.5 -33.5q0 -2 0.5 -4.5t0.5 -6.5v-33q-32 0 -49 22.5t-25.5 57t-11 75.5t-3.5 79z" />
    <glyph glyph-name="n" unicode="n" horiz-adv-x="479" 
d="M100 407v-179q18 24 39 47t45 40.5t50 28t55 10.5q13 0 25 -6.5t20 -16.5t13 -22.5t5 -24.5v-188q0 -5 2 -13.5t5 -8.5q13 0 31.5 22.5t37.5 48.5q20 29 40 51t43 22h57q-4 -5 -17.5 -22t-30 -38t-32.5 -42.5t-26 -35.5q-8 -11 -15 -20t-11 -14q-6 -8 -15.5 -16.5
t-20.5 -15t-23 -11t-23 -4.5q-22 0 -36.5 12t-23 29t-12.5 36.5t-5 34.5q-1 14 -1 40.5v52.5q0 21 -0.5 40.5t0.5 34.5q-26 -1 -46 -15t-37 -36t-31.5 -49t-27.5 -54v1q-9 -19 -19 -37.5t-23.5 -37t-31.5 -38t-43 -39.5v59q0 46 3 107.5t7 120.5q1 17 2.5 37.5t2.5 40
t2 37.5t1 31h65z" />
    <glyph glyph-name="o" unicode="o" horiz-adv-x="318" 
d="M6 88q0 27 10.5 62t25.5 72t32 72.5t30 62.5q3 5 1.5 3t0.5 3v6q0 4 -1 7.5t-2 8.5q-7 19 -7 30t5.5 23.5t27.5 12.5q25 0 39 -11t28 -28q10 -11 22.5 -22t36.5 -11q23 0 43 10t47 36q4 -5 8.5 -11.5t8.5 -13t6 -11.5t2 -6q0 -26 -15 -41t-36.5 -22.5t-46 -9.5t-43.5 -2
q0 -5 0.5 -11.5t0.5 -13.5q2 -26 4 -53t0 -37q-2 -24 -15.5 -57.5t-35 -64t-49.5 -51.5t-59 -21q-20 0 -33.5 8t-21.5 21t-11 29t-3 31zM80 87q0 -4 -0.5 -8.5t-3.5 -5.5q7 0 11 4q46 40 64 83t18 102v11v22t-2 20q-8 -17 -18.5 -40.5t-20.5 -46.5t-18.5 -42t-12.5 -28
q-10 -23 -13.5 -37.5t-3.5 -33.5z" />
    <glyph glyph-name="p" unicode="p" horiz-adv-x="496" 
d="M-56 -235q5 113 39 221t85 214q14 11 29 30.5t32 42.5q20 27 42.5 55.5t48 52t55 38.5t62.5 15q30 0 53 -13t38.5 -33t23.5 -46t8 -51q0 -54 -32 -102t-80.5 -84t-106 -57.5t-109.5 -21.5q-13 -73 -25 -146.5t-25 -146.5q-2 -10 -8 -28.5t-15 -36.5t-20.5 -31.5
t-24.5 -13.5q-20 0 -33.5 20t-21.5 45t-11.5 47.5t-3.5 28.5v1zM18 -254q9 27 18 64.5t16 78.5t11.5 81t4.5 72q-9 -27 -18 -59.5t-16 -67t-11.5 -68t-4.5 -61.5v-40zM134 100q1 0 1.5 0.5t1.5 0.5h6q34 0 78 13t82.5 37t65 57t26.5 72q0 32 -14.5 56.5t-48.5 24.5
q-33 0 -68 -24t-64 -59t-47.5 -75t-18.5 -71v-21v-11z" />
    <glyph glyph-name="q" unicode="q" horiz-adv-x="266" 
d="M92 -361q0 46 5.5 89t12.5 86q9 50 12.5 100t13.5 92q-3 -1 -10 -3.5t-15 -5t-15.5 -4.5t-11.5 -2q-24 0 -40 15t-25 36t-12.5 43.5t-3.5 37.5q0 17 4 48.5t12 69t21 76.5t31 71t41.5 52.5t53.5 20.5q18 0 31 -6t22.5 -16t16 -23.5t12.5 -28.5v-34q0 -11 0.5 -20t0.5 -13
q0 -8 -0.5 -23t-0.5 -27v-14q-1 -11 -3.5 -40t-5.5 -62t-6.5 -62.5t-4.5 -39.5q-12 -6 -14 -17q54 -12 88.5 -45t55 -76.5t28 -93.5t7.5 -96q0 -19 -3 -51t-10.5 -69t-20 -75.5t-31.5 -69t-44.5 -50t-58.5 -19.5q-50 0 -77 28t-39.5 68t-14.5 82t-2 71zM168 -450
q0 -12 4 -27t11.5 -28t17.5 -22t24 -9q20 0 35 16t26.5 41.5t19 56.5t12.5 61.5t7 56t2 40.5q0 31 -6.5 69.5t-21.5 71.5t-40.5 55.5t-62.5 23.5q-1 -5 -3 -17l1 1q-3 -17 -7 -46t-8.5 -57.5t-7.5 -50.5t-3 -25q0 -2 -0.5 -15t-1 -30t-1 -33.5t-0.5 -26.5q0 -6 0.5 -21
t1 -32t1 -32t0.5 -21zM197 -39q-1 -1 -1 -3v-1q0 1 0.5 2t0.5 2zM195 -44h1v1zM77 138v-16t0.5 -27.5t2.5 -26t5 -11.5q18 6 32.5 24t25.5 43.5t18.5 55.5t12.5 58.5t7 53t2 40.5q0 6 -0.5 15.5t-2.5 18t-5 14.5t-9 6q-25 0 -42 -31t-27.5 -72.5t-15 -82.5t-4.5 -62z" />
    <glyph glyph-name="r" unicode="r" horiz-adv-x="369" 
d="M9 401q5 12 14.5 18.5t20.5 6.5t18 -7t11.5 -18t7 -25.5t4.5 -30.5q15 25 34 48t42.5 40t50 27t56.5 10q12 0 25 -2.5t27.5 -11t29 -24t28.5 -41.5q-19 2 -31 3t-19.5 1.5t-12 0.5h-7.5q-69 0 -110.5 -32.5t-63.5 -84t-28.5 -116.5t-6.5 -130l-46 -47q-11 19 -17 31.5
t-8.5 21.5t-2.5 15.5v14.5v16q-2 20 -4 63.5t-5 89.5q-2 24 -3 48t-2.5 44.5t-2.5 36t-1 24.5z" />
    <glyph glyph-name="s" unicode="s" horiz-adv-x="373" 
d="M11 46q0 36 25 59.5t59 36.5t70 18t59 5h6h14q-12 8 -28 16.5t-34 17.5q-31 15 -63 33t-58.5 40.5t-43 52t-16.5 68.5q0 29 21.5 53t51.5 41.5t62.5 27t55.5 9.5q16 0 32 -2t29.5 -9.5t22 -21t8.5 -35.5q0 -23 -16.5 -47t-59.5 -57v58q0 8 2 15.5t4 13.5q4 8 4 11h-32
q-15 0 -32.5 -5.5t-33 -14.5t-26 -22t-10.5 -28q0 -21 11.5 -39.5t30.5 -34t43.5 -30t49.5 -27.5q35 -20 66.5 -39t54.5 -46l-1 1q6 -6 7 -16t1 -13q0 -25 -13.5 -44.5t-35 -35t-48 -26.5t-53 -17.5t-50.5 -10t-40 -3.5h-6q-11 0 -26 0.5t-29.5 4.5t-24.5 14t-10 28zM156 74
q10 2 30.5 7.5t40.5 14.5q-20 -2 -38.5 -4t-24.5 -2q-10 -2 -21 -5.5t-22 -7.5q13 -2 23 -3t12 0z" />
    <glyph glyph-name="t" unicode="t" horiz-adv-x="432" 
d="M169 182q-1 7 -2.5 22.5t-3 34.5t-2.5 38.5t-1 34.5q-37 -10 -75 -21t-74 -21l1 1q-12 -4 -20 -0.5t-13 10t-7 14t-2 11.5q0 14 11 24t28 17t39 12t45 10q26 5 46.5 10t21.5 7q7 11 7.5 27.5t0.5 32.5v26q0 6 1 28t3 47q2 24 3 45t1 26q1 8 1.5 31.5t1 49.5t0.5 50v34h63
v-371q14 3 32 6t34.5 6.5t30.5 6t20 3.5h63q-17 -28 -35 -45.5t-29 -19.5q-9 -2 -24.5 -6.5t-32.5 -9.5t-33 -10t-26 -8v-2q0 -11 -0.5 -26.5t-0.5 -23.5q0 -11 0.5 -33t0.5 -40v-24q0 -10 3 -28.5t8 -37t13 -32.5t19 -14h3l169 181l1 -65q0 -12 -10 -30.5t-26 -40t-36 -43
t-40 -38.5t-37 -28t-28 -11q-14 0 -27.5 6.5t-25 17t-20.5 23.5t-13 25q-3 10 -7 27t-8.5 34t-8 31.5t-3.5 18.5z" />
    <glyph glyph-name="u" unicode="u" horiz-adv-x="545" 
d="M24 322v47.5t1 45.5q-4 11 -6.5 28.5t-2.5 46.5q1 0 14 -1t27 -4.5t26 -10.5t12 -19v-296q0 -8 3.5 -22.5t9.5 -28.5t13.5 -24.5t16.5 -10.5q13 0 25.5 11.5t23 30.5t19.5 41.5t16 44.5t11.5 40.5t6.5 29.5q2 9 6.5 33.5t9 52t8 52.5t4.5 35q7 16 25 21.5t42 5.5
q0 -22 -0.5 -37.5t-1.5 -27.5t-2 -21.5t-2 -18.5q-2 -19 -3.5 -38.5t-1.5 -36.5q0 -12 4.5 -35t13 -45.5t20.5 -39t28 -16.5h167q-27 -26 -45 -39.5t-31.5 -19t-23.5 -6t-20 -0.5h-8q-100 0 -147 74q-10 -25 -24 -54t-32 -53.5t-40 -41t-48 -16.5q-21 0 -39 12.5t-32 31.5
t-22.5 39.5t-10.5 37.5q-5 48 -7.5 99t-2.5 103z" />
    <glyph glyph-name="v" unicode="v" horiz-adv-x="403" 
d="M61 451q1 -9 5 -30t8.5 -44t9 -42.5t6.5 -25.5q2 -8 8 -25.5t13 -37t13.5 -37t9.5 -24.5q-1 2 1.5 -2.5t7 -13t10.5 -18.5t11 -19q2 -4 3 -7t3 -6q7 25 17.5 59t21 67.5t19.5 61t14 39.5q6 15 16.5 39.5t21 48.5t19.5 42.5t11 21.5l30 29q28 -11 33.5 -23t5.5 -23
q0 -16 -5.5 -26t-19.5 -18q-47 -99 -80.5 -202t-58.5 -213l-31 -30q-41 36 -75.5 92.5t-59.5 120.5t-38.5 129t-13.5 117h64z" />
    <glyph glyph-name="w" unicode="w" horiz-adv-x="619" 
d="M15 444q4 4 13 6.5t13 2.5q17 0 30 -8.5t11 -36.5q1 -21 3 -48t5 -55.5t7.5 -55.5t9.5 -48q5 -16 13 -41t15 -45q9 26 16.5 51.5t13.5 50.5q13 51 28 100t43 97q6 6 17.5 9.5t15.5 3.5q15 0 25.5 -11t19.5 -29.5t16.5 -43t16.5 -52.5q10 -35 22.5 -72t26 -66.5t29 -47
t32.5 -14.5q4 1 7 9t5.5 17.5t3.5 17.5l1 8q8 33 13 64t8 61.5t5 61t4 62.5q2 22 3 44.5t3 47.5v6q0 4 0.5 7t2.5 7.5t6.5 11t12.5 18.5q18 -3 27.5 -8.5t13 -12t3.5 -13v-12.5v-27q-2 -15 -4.5 -53t-4.5 -81q-3 -43 -5.5 -82.5t-3.5 -54.5q-1 -4 -1.5 -9t-2.5 -11
q-3 -21 -9 -46t-17.5 -47t-29.5 -36.5t-45 -14.5q-39 0 -66.5 22t-46.5 56t-32 75.5t-23 79.5q-5 17 -9.5 34t-9.5 30q-19 -67 -38.5 -135t-38.5 -136q-5 -14 -18.5 -28.5t-33.5 -28.5q-29 24 -48 57t-32 68.5t-20.5 70.5t-11.5 62q-2 11 -4.5 36t-5.5 52.5t-5 51.5t-2 34z
" />
    <glyph glyph-name="x" unicode="x" horiz-adv-x="423" 
d="M329 0q-29 5 -54.5 25.5t-46.5 47.5t-37.5 57.5t-28.5 54.5q-8 -10 -17 -23t-19 -26.5t-19 -25.5t-15 -21h30q-12 -22 -22 -34.5t-18.5 -19t-16 -8t-16.5 -1.5q-13 0 -26 4t-20 29q8 40 28 70t43 58q16 20 30.5 39.5t23.5 42.5q-4 14 -11.5 41t-15.5 56t-15 54t-10 36
q-1 3 -7 16t-13.5 28t-14.5 29.5t-10 20.5h59q3 0 10 -8t15 -19t15 -23t10 -20q2 -8 7 -22.5t10.5 -33.5t12 -39.5t11.5 -38.5q12 18 26.5 39t28 41.5t25 36.5t16.5 23q5 6 15 15.5t20 18.5t18.5 15.5t10.5 6.5h70l-194 -272q-5 -5 -5 -12q0 -14 12 -44t30 -61t39 -55
t39 -25q-3 1 -1 6q3 11 14.5 24.5t46.5 37.5v-50q0 -8 -2.5 -24.5t-9 -32.5t-19 -26.5t-32.5 -7.5z" />
    <glyph glyph-name="y" unicode="y" horiz-adv-x="635" 
d="M234 -245q0 40 13.5 75t35 66.5t48 59.5t52.5 54q8 8 11 10t10 10q-12 73 -25 146.5t-26 146.5q-29 -56 -59 -111t-59 -110q-7 -13 -18 -28t-25.5 -27.5t-31 -21t-34.5 -8.5q-26 0 -44 14.5t-30 37.5t-18 50.5t-9 53.5t-3.5 47.5t-0.5 31.5q0 6 2 27.5t6.5 50t12 60.5
t18 58.5t24.5 44t32 17.5q0 -52 -3.5 -85t-7.5 -62q-5 -30 -8 -59t-3 -56q0 -11 0.5 -31.5t0.5 -34.5v-15q0 -8 2 -21t6 -25t9 -21t13 -9q9 0 19.5 7.5t19.5 18t16.5 22.5t12.5 21l148 283l6 4q6 4 7 4q4 2 7.5 2h5.5q13 0 22.5 -8t15 -18.5t8.5 -22t4 -17.5l52 -309
q21 12 49.5 30t57 35t52 32t33.5 21l-2 -1q15 10 28.5 13t46.5 3q0 -25 -10.5 -43.5t-28 -33t-40.5 -26t-47 -22.5q-23 -11 -45.5 -22t-41 -22.5t-30 -22.5t-11.5 -21q0 -25 3 -51l6 -52q4 -26 7 -52.5t3 -55.5q0 -28 -4 -62.5t-17.5 -65t-38.5 -51.5t-67 -21
q-40 0 -66.5 14.5t-42.5 38t-22.5 53.5t-6.5 62zM300 -253q0 -34 16.5 -60.5t51.5 -26.5q24 0 33.5 12.5t20.5 36.5q2 2 1.5 1.5t0.5 2.5q0 6 0.5 16.5t0.5 22.5v57q0 36 -1 71.5t-9 70.5q-23 -22 -44 -44.5t-37 -47.5t-25 -53t-9 -59z" />
    <glyph glyph-name="z" unicode="z" horiz-adv-x="599" 
d="M141 88q0 32 12.5 61t28.5 58q5 10 9.5 18.5t9.5 18.5q-32 -5 -59 -8t-63 -3h-38q-26 15 -26 38q0 5 6.5 15.5t15.5 12.5q51 7 103 13.5t103 13.5q10 1 22.5 20.5t23 44t17.5 48.5t7 35q0 8 -7 12.5t-17 6t-22 1.5h-22h-12q-37 0 -74 -3t-65 -25l-6.5 -6.5t-10 -9l-11 -9
t-9.5 -7.5q-3 -1 -9.5 0.5t-14 4t-14 6t-9.5 6.5l-2 8q-2 8 -2 9q0 19 13.5 34.5t34 26.5t46.5 18.5t50.5 12.5t45.5 7t32 2q18 0 45 -1t52.5 -9t43.5 -25.5t18 -51.5q0 -32 -14.5 -68.5t-31.5 -68.5q10 2 19.5 5t20.5 5q20 6 41 11t44 5h52q-3 -5 -8 -14t-11 -17t-11 -14.5
t-6 -7.5q-29 -11 -52.5 -17t-43.5 -10q-18 -4 -36 -9.5t-34.5 -15.5t-31.5 -25t-26 -39q-2 -4 -7 -16t-10.5 -26.5t-11 -27t-6.5 -18.5q-2 -4 -4.5 -14.5t-2.5 -12.5q0 -4 6 -4.5t11 -0.5q10 0 17 0.5t14.5 2.5t15.5 5.5t19 8.5q12 6 42 21.5t64 33t63.5 33.5t41.5 22h47
v-47l-236 -132q-27 -15 -49 -18.5t-49 -3.5h-16.5t-21.5 2q-23 13 -33.5 34t-10.5 44z" />
    <glyph glyph-name="braceleft" unicode="{" horiz-adv-x="384" 
d="M104 -92q0 25 8 47.5t21 44t29.5 42t34.5 41.5l32 38t29 39.5t20.5 41t7.5 42.5q0 25 -13.5 41t-35 24.5t-47.5 11t-50 2.5q-14 8 -20 16.5t-6 22.5q0 22 24 32t56 18h-1q14 4 29 8t27 8.5t20 8.5t8 9q0 3 -3.5 6t-10.5 8q-1 0 -4 3h1q-50 34 -99.5 67.5t-99.5 67.5v-1
q-26 17 -44.5 48.5t-18.5 65.5q0 27 19.5 59.5t50.5 65t69.5 63t78 54t75.5 37.5t61 14q0 -17 -3.5 -36t-12 -34t-22 -22t-33.5 1q-30 -13 -66 -33.5t-68 -47.5t-53.5 -59t-21.5 -66q0 -18 12.5 -35.5t32.5 -33.5t45 -31.5t51 -30.5v1q27 -15 51.5 -30.5t44 -31.5t31 -34.5
t11.5 -39.5q0 -13 -6.5 -24t-16.5 -20.5t-22.5 -17t-24.5 -13.5q2 -1 5 -3l6 -4h-1q12 -8 24.5 -16t22.5 -20t16 -30t6 -44q0 -35 -16.5 -70t-32.5 -60l1 1q-3 -4 -15.5 -23t-29 -43t-33.5 -49t-28 -41l1 1q-5 -6 -8 -10.5t-4 -6.5q-5 -8 -10 -18.5t-5 -18.5q0 1 6 1h12
q17 0 34.5 2t36.5 4q9 1 16.5 2t17.5 2t25.5 1.5t40.5 0.5v-35q0 -1 -10.5 -7t-25.5 -13t-31 -13t-26 -8q-20 -4 -44.5 -7t-45.5 -3q-31 0 -56.5 16t-25.5 54z" />
    <glyph glyph-name="bar" unicode="|" horiz-adv-x="88" 
d="M16 719l33 33l32 -33v-17q0 -7 0.5 -14t0.5 -10q0 -179 -3 -356q0 -45 -0.5 -85.5l-1 -81t-1 -81.5t-0.5 -86h7q0 -35 -16 -63t-45 -48l-24 46z" />
    <glyph glyph-name="asciitilde" unicode="~" horiz-adv-x="535" 
d="M297 187q2 -2 5 -2q-21 0 -35 7t-23 18.5t-14 25.5t-9 28q-4 12 -9 24t-13 14q-27 -1 -44.5 -17t-34.5 -37v1q-3 -4 -7 -8.5t-9 -9.5q-11 -11 -30 -13.5t-45 -2.5q0 31 5 41.5t14 16.5q6 4 5 3q16 16 28 31q12 14 23 26t25 21t32.5 15t45.5 8q23 0 34 -8t28 -31
q2 -6 5.5 -18t5.5 -23q4 -17 9.5 -29.5t21.5 -10.5q14 -1 30.5 13.5t32.5 31.5q13 15 26.5 27.5t28 19t30.5 3.5t35 -19l-1 -25q-62 -51 -98 -77.5t-56 -37t-28 -10t-14 3.5z" />
    <glyph glyph-name="braceright" unicode="}" horiz-adv-x="403" 
d="M308 87q0 10 -20 23.5t-46 27.5q-24 13 -49 28.5t-45.5 36t-33.5 46.5t-13 60q0 46 21.5 85.5t48.5 77.5q7 11 11.5 16t8 8.5t6 9l7.5 16.5q-26 2 -52.5 8t-47.5 19.5t-34.5 35t-13.5 54.5v4q0 12 2 25t14 26q9 10 31 35.5t46 54t45 54t29 35.5t18 23.5t19 29t15 30.5
t6 28q0 22 -14 36.5t-34 23.5t-43 12.5t-42 3.5q-12 0 -24.5 -3t-24.5 -6h1q-30 -9 -55 -9q-2 0 -10 1t-17.5 4.5t-17 11t-7.5 20.5q5 7 9 13q4 5 6.5 9.5t3.5 4.5q32 13 71.5 20.5t72.5 7.5q32 0 66 -9t61.5 -27.5t45.5 -47t18 -66.5q0 -31 -15 -64.5t-38 -68t-51 -67.5
t-54 -62q-16 -18 -32 -36.5t-27 -34.5q-1 -3 -1 -7v-5q0 -12 7.5 -21t18.5 -14t24.5 -7.5t25.5 -1.5q2 0 14 2t27.5 5t31 5.5t24.5 4.5l-1 -1q5 2 8 2h4h6h5.5t10 0.5t10 0.5h4.5q0 -42 -20 -70.5t-48 -57.5q-18 -18 -37 -39t-34 -43t-25 -45.5t-10 -47.5q0 -20 7.5 -34.5
t20 -26t28.5 -20.5t33 -18q21 -11 41 -22.5t35.5 -26.5t25 -35.5t9.5 -48.5q0 -41 -32 -86.5t-79 -84t-99.5 -64t-93.5 -25.5q0 20 7 35t18.5 27.5t26.5 22.5t32 19q24 14 51 31t49.5 37.5t37.5 44t15 51.5z" />
    <glyph glyph-name="exclam" unicode="!" horiz-adv-x="172" 
d="M59 26l17 18l-11 -2q6 16 24 21t41 5q0 -26 -8.5 -44t-30.5 -29zM56 549q0 29 -3.5 59.5t-7.5 61.5q-5 31 -7.5 66.5t-2.5 83.5h44q3 0 10.5 -24t15.5 -57t15 -68.5t10 -59.5v-64q2 -20 2.5 -50t0.5 -61q0 -52 -2 -105.5t-6.5 -100t-11.5 -81.5t-16.5 -49.5t-22 -5
t-27.5 52.5q0 5 -0.5 17t-0.5 24v39q0 40 1 80t3 81t4 80.5t2 80.5z" />
    <glyph glyph-name="quotedbl" unicode="&#x22;" horiz-adv-x="226" 
d="M131 471q0 9 -0.5 17.5t-0.5 12.5q0 42 4.5 85t19.5 91q5 1 9 2l8 2t7 1q20 0 28.5 -13t8.5 -28q0 -29 -3 -56t-8 -53q-4 -26 -7.5 -54.5t-3.5 -70.5q-21 0 -39.5 11.5t-22.5 19.5v33zM6 663q-2 9 2 16t10.5 12t13 7.5t11.5 2.5q4 0 14 -4q4 -2 10 -3l13 -53v-222h-55
l-19 246v-2z" />
    <glyph glyph-name="glyph97" horiz-adv-x="0" 
 />
    <glyph glyph-name="quotedblleft" unicode="&#x201c;" horiz-adv-x="226" 
d="M131 471q0 9 -0.5 17.5t-0.5 12.5q0 42 4.5 85t19.5 91q5 1 9 2l8 2t7 1q20 0 28.5 -13t8.5 -28q0 -29 -3 -56t-8 -53q-4 -26 -7.5 -54.5t-3.5 -70.5q-21 0 -39.5 11.5t-22.5 19.5v33zM6 663q-2 9 2 16t10.5 12t13 7.5t11.5 2.5q4 0 14 -4q4 -2 10 -3l13 -53v-222h-55
l-19 246v-2z" />
    <glyph glyph-name="quotedblright" unicode="&#x201d;" horiz-adv-x="226" 
d="M131 471q0 9 -0.5 17.5t-0.5 12.5q0 42 4.5 85t19.5 91q5 1 9 2l8 2t7 1q20 0 28.5 -13t8.5 -28q0 -29 -3 -56t-8 -53q-4 -26 -7.5 -54.5t-3.5 -70.5q-21 0 -39.5 11.5t-22.5 19.5v33zM6 663q-2 9 2 16t10.5 12t13 7.5t11.5 2.5q4 0 14 -4q4 -2 10 -3l13 -53v-222h-55
l-19 246v-2z" />
    <glyph glyph-name="quoteright" unicode="&#x2019;" horiz-adv-x="93" 
d="M40 615q20 0 30.5 -9.5t15 -23t4.5 -29v-27.5v-8q0 -21 -0.5 -39t-2 -38t-4 -44.5t-7.5 -57.5q-8 5 -18.5 14t-19.5 19t-15.5 18.5t-6.5 13.5v187z" />
    <glyph glyph-name="quoteleft" unicode="&#x2018;" horiz-adv-x="93" 
d="M40 615q20 0 30.5 -9.5t15 -23t4.5 -29v-27.5v-8q0 -21 -0.5 -39t-2 -38t-4 -44.5t-7.5 -57.5q-8 5 -18.5 14t-19.5 19t-15.5 18.5t-6.5 13.5v187z" />
    <glyph glyph-name="caron" unicode="&#x2c7;" horiz-adv-x="287" 
d="M-2 775l77 17q8 -10 13.5 -18.5t7.5 -12.5q17 -26 32 -47t32 -44q4 5 7.5 9t6.5 9q8 11 15.5 21.5t9.5 16.5l-1 -2q4 14 12 26q7 11 17.5 21t26.5 15q16 -19 21 -28t5 -20q0 -1 -0.5 -3t-0.5 -4q-1 -3 -1 -6l-74 -141q-4 -11 -14 -16t-20 -5q-14 0 -20.5 4t-12.5 12z" />
    <glyph glyph-name="grave" unicode="`" horiz-adv-x="202" 
d="M136 513q-57 56 -84.5 88t-36.5 49t-3 23t17 10q12 7 25 8t23 -10l-1 1q26 -24 54.5 -53t54.5 -53q2 -6 3 -10q2 -10 2 -11q0 -9 -4 -17.5t-15 -22.5z" />
    <glyph glyph-name="acute" unicode="&#xb4;" horiz-adv-x="198" 
d="M36 564q-12 14 -15.5 23t-3.5 20l1 -3q-1 3 -0.5 7t1.5 7q1 4 1 8l111 105q9 9 22.5 8.5t24.5 -7.5q11 -4 17 -10t-3 -23t-36.5 -49t-84.5 -88z" />
    <glyph glyph-name="fraction" unicode="&#x2044;" horiz-adv-x="408" 
d="M-7 49q0 31 5.5 64t14.5 65.5t21 62.5t26 55l249 447q2 6 5.5 15t9 16.5t13 13t18.5 5.5q4 0 11.5 -1.5t14 -6t10 -12.5t0.5 -20l-29 -75l-216 -361q-29 -48 -47 -106t-31 -112l-2 -16q-2 -18 -6.5 -41t-23.5 -45q-18 4 -26.5 10t-12.5 12.5t-4 13.5v13v3v0z" />
    <glyph glyph-name="fi" unicode="&#xfb01;" horiz-adv-x="615" 
d="M181 90q-3 12 -7.5 29.5l-9 35t-8.5 31t-5 17.5q-20 -5 -39 -6t-39 -1h-8q-4 0 -13 0.5t-14 0.5h-14l-33 33l32 32q20 1 49 4t54 9q0 4 0.5 8t0.5 6q0 24 -1.5 48.5t-3.5 49.5q-2 26 -3.5 51.5t-1.5 53.5q0 38 2.5 71.5t9 66t18 66t30.5 71.5q11 8 19.5 12.5t20.5 4.5
q15 0 41 -13t51.5 -32.5t44 -42.5t18.5 -44v-3v-12t-0.5 -24.5t-0.5 -25v-11.5q-14 17 -34 40t-41.5 44t-41 35.5t-32.5 14.5q-6 0 -10 -13.5t-7.5 -34.5t-6 -46.5t-4 -49.5t-2.5 -44t-1 -29q0 -49 1.5 -98t10.5 -96q23 1 46.5 4.5t49.5 8.5h-1q29 6 57.5 10t58.5 4h62
l-55 -55q-11 -2 -38.5 -8.5t-58.5 -14t-59 -14t-38 -9.5l-6 -2q9 -39 20 -79t22 -79q2 -5 2 -11v-10q0 -11 -4.5 -24.5t-30.5 -20.5q-16 6 -25.5 15t-14.5 20t-6.5 22.5t-1.5 22.5q0 7 -1 11zM458 364l29 -245q1 -8 4 -18.5t7.5 -20t10.5 -16t13 -6.5q9 0 16 8.5t18 27.5
l39 -10v-17q0 -14 -8.5 -28.5t-21 -26.5t-28 -19.5t-29.5 -7.5q-15 0 -29 10.5t-25.5 24.5t-19.5 29.5t-11 25.5q-18 69 -21 138.5t-3 150.5h59zM372 568q31 0 42.5 -26t11.5 -59q-46 0 -62 18t-16 43z" />
    <glyph glyph-name="fl" unicode="&#xfb02;" horiz-adv-x="698" 
d="M181 90q-3 12 -7.5 29.5l-9 35t-8.5 31t-5 17.5q-20 -5 -39 -6t-39 -1h-8q-4 0 -13 0.5t-14 0.5h-14l-33 33l32 32q20 1 49 4t54 9q0 4 0.5 8t0.5 6q0 24 -1.5 48.5t-3.5 49.5q-2 26 -3.5 51.5t-1.5 53.5q0 38 2.5 71.5t9 66t18 66t30.5 71.5q11 8 19.5 12.5t20.5 4.5
q15 0 41 -13t51.5 -32.5t44 -42.5t18.5 -44v-3v-12t-0.5 -24.5t-0.5 -25v-11.5q-14 17 -34 40t-41.5 44t-41 35.5t-32.5 14.5q-6 0 -10 -13.5t-7.5 -34.5t-6 -46.5t-4 -49.5t-2.5 -44t-1 -29q0 -49 1.5 -98t10.5 -96q23 1 46.5 4.5t49.5 8.5h-1q29 6 57.5 10t58.5 4h62
l-55 -55q-11 -2 -38.5 -8.5t-58.5 -14t-59 -14t-38 -9.5l-6 -2q9 -39 20 -79t22 -79q2 -5 2 -11v-10q0 -11 -4.5 -24.5t-30.5 -20.5q-16 6 -25.5 15t-14.5 20t-6.5 22.5t-1.5 22.5q0 7 -1 11zM398 193q0 51 5.5 99t12.5 96t12.5 95t5.5 92q0 19 -1.5 39t-3.5 40t-3.5 45.5
t-1.5 60.5h42q3 0 8.5 -7t10.5 -17t9 -21t5 -20q0 -6 0.5 -20.5t0.5 -31.5v-33v-25q0 -46 -4.5 -89.5t-10.5 -87.5q-5 -44 -9.5 -87.5t-4.5 -86.5v-8q0 -18 1 -46.5t6 -55t17 -46t34 -19.5q10 0 20.5 4t20.5 11l-1 -1q7 4 24.5 16.5t37 26t37.5 25.5t25 17h61
q0 -5 -13 -19.5t-33 -33.5t-45.5 -40.5t-50.5 -39.5t-47 -29.5t-36 -11.5q-41 0 -67 22t-40 54.5t-19 68.5t-5 64z" />
    <glyph glyph-name="Lslash" unicode="&#x141;" horiz-adv-x="609" 
d="M8 163q0 63 9 126t23.5 125.5t33 123t37.5 118.5q2 7 7 22l7 21h22q16 0 27.5 -10.5t11.5 -26.5v-8l-94 -343v1q-3 -14 -5 -31.5t-3 -36t-1 -36.5v-33v-14q0 -23 0.5 -41t8.5 -38l218 76l-7 -5q10 5 29.5 5.5t30.5 0.5h11h30.5t27 -1t29 -3.5t35.5 -6.5q10 -2 26 -7.5
t31 -12.5t25.5 -13t10.5 -9v-44q-42 0 -69.5 3t-50.5 8q-23 4 -45 7.5t-42 3.5h-14.5t-19 -0.5t-16.5 -1t-8 -0.5q-11 -2 -31.5 -8t-37.5 -11h1q-9 -2 -16.5 -4.5t-9.5 -3.5h-11q-33 -14 -68.5 -28t-68.5 -27q-2 -1 -4 -1h-9q-24 0 -36.5 18t-18 43t-6 51.5t-0.5 43.5v8v0z
M-23 296q0 12 23.5 17.5t55 9t64 5.5t50.5 6q6 4 12 5.5t15 3t22.5 4t34.5 8.5q11 3 23 6t22.5 6t18 5t10.5 3h9q26 0 35 -21.5t9 -53.5h-42q-31 -9 -65 -13t-69 -7t-69 -7t-65 -13q-7 -1 -16.5 -1.5t-14.5 -0.5h-4q-9 -1 -19 -0.5t-19 4t-15 11.5t-6 23z" />
    <glyph glyph-name="lslash" unicode="&#x142;" horiz-adv-x="282" 
d="M7 208q0 51 5.5 99t12.5 96t12.5 95t5.5 92q0 19 -1.5 39t-3.5 40t-3.5 45.5t-1.5 60.5h42q3 0 8.5 -7t10.5 -17t9 -21t5 -20q0 -6 0.5 -20.5t0.5 -31.5v-33v-25q0 -46 -4.5 -89.5t-10.5 -87.5q-5 -44 -9.5 -87.5t-4.5 -86.5v-8q0 -18 1 -46.5t6 -55t17 -46t34 -19.5
q10 0 20.5 4t20.5 11l-1 -1q7 4 24.5 16.5t37 26t37.5 25.5t25 17h61q0 -5 -13 -19.5t-33 -33.5t-45.5 -40.5t-50.5 -39.5t-47 -29.5t-36 -11.5q-41 0 -67 22t-40 54.5t-19 68.5t-5 64zM-11.6826 286.931q0 12.0811 14.4492 17.6191q14.4502 5.53711 33.8184 9.06055
t39.3516 5.53711t31.0508 6.04102q3.68848 4.02734 7.37793 5.53711t9.22363 3.02051q5.5332 1.50977 13.834 4.02734q8.30078 2.5166 21.2129 8.55664q6.76367 3.02051 14.1426 6.04102q7.37793 3.02051 13.834 6.04102t11.0674 5.0332q4.6123 2.01367 6.45703 3.02051
h5.5332q15.9863 0 21.5205 -21.6455t5.53418 -53.8623h-25.8252q-19.0605 -9.06152 -39.9658 -13.0879q-20.9062 -4.02734 -42.4258 -7.04785q-21.5205 -3.02051 -42.4258 -7.04688q-20.9062 -4.02734 -39.9668 -13.0889q-4.30469 -1.00684 -10.1455 -1.50977
t-8.91504 -0.50293h-2.45996q-5.53418 -1.00684 -11.6826 -0.503906q-6.14844 0.503906 -11.6826 4.02734q-5.5332 3.52344 -9.22266 11.5781q-3.68945 8.05371 -3.68945 23.1553z" />
    <glyph glyph-name="Zcaron" unicode="&#x17d;" horiz-adv-x="668" 
d="M208 -2q0 165 46 300q-14 -2 -27 -5t-27 -6q-24 -6 -51.5 -10.5t-69.5 -4.5v66q7 1 26.5 5.5t43 9.5l47 10t40.5 9q9 2 16.5 4t11.5 3l-1 -1q25 6 38 31q6 16 16.5 42t20.5 52t17.5 46t9.5 24l-1 -1q7 21 12.5 41t5.5 39q0 5 -8 8h-21q-8 0 -15 0.5t-10 0.5
q-71 0 -135 -20t-130 -55h-9h-6q-7 0 -13 0.5t-12 5t-11 14t-10 26.5q42 22 82.5 41t81 33.5t82 22.5t85.5 8q22 0 44 -2.5t40 -11.5t29.5 -27t11.5 -49q0 -2 -0.5 -5.5t-0.5 -7.5v-10l-75 -217q23 2 44 6.5t43 9.5q32 8 64 14t65 6h54q-9 -21 -18.5 -33.5t-18.5 -19.5
t-17 -10t-14 -4q-12 -3 -42.5 -9t-62.5 -14q-36 -8 -66.5 -14.5t-38.5 -8.5v1q-27 -6 -42 -34t-22.5 -65t-9.5 -77t-2 -70h1q13 5 42 15.5t60.5 22t59 21.5l38.5 14q2 0 14.5 2.5t28 5.5t31.5 6t25 4q2 0 5 0.5t4 0.5t2 -0.5t3 -0.5h62l-59 -59q-1 0 -13.5 -4.5t-29 -10.5
t-34.5 -11.5t-29 -8.5h-8q-10 -5 -20.5 -9.5t-20.5 -9.5h1q-27 -12 -55 -23.5t-58 -21t-64.5 -15t-75.5 -5.5zM50 995l77 17q8 -10 13.5 -18.5t7.5 -12.5q17 -26 32 -47t32 -44q4 5 7.5 9t6.5 9q8 11 15.5 21.5t9.5 16.5l-1 -2q4 14 12 26q7 11 17.5 21t26.5 15
q16 -19 21 -28t5 -20q0 -1 -0.5 -3t-0.5 -4q-1 -3 -1 -6l-74 -141q-4 -11 -14 -16t-20 -5q-14 0 -20.5 4t-12.5 12z" />
    <glyph glyph-name="zcaron" unicode="&#x17e;" horiz-adv-x="599" 
d="M141 88q0 32 12.5 61t28.5 58q5 10 9.5 18.5t9.5 18.5q-32 -5 -59 -8t-63 -3h-38q-26 15 -26 38q0 5 6.5 15.5t15.5 12.5q51 7 103 13.5t103 13.5q10 1 22.5 20.5t23 44t17.5 48.5t7 35q0 8 -7 12.5t-17 6t-22 1.5h-22h-12q-37 0 -74 -3t-65 -25l-6.5 -6.5t-10 -9l-11 -9
t-9.5 -7.5q-3 -1 -9.5 0.5t-14 4t-14 6t-9.5 6.5l-2 8q-2 8 -2 9q0 19 13.5 34.5t34 26.5t46.5 18.5t50.5 12.5t45.5 7t32 2q18 0 45 -1t52.5 -9t43.5 -25.5t18 -51.5q0 -32 -14.5 -68.5t-31.5 -68.5q10 2 19.5 5t20.5 5q20 6 41 11t44 5h52q-3 -5 -8 -14t-11 -17t-11 -14.5
t-6 -7.5q-29 -11 -52.5 -17t-43.5 -10q-18 -4 -36 -9.5t-34.5 -15.5t-31.5 -25t-26 -39q-2 -4 -7 -16t-10.5 -26.5t-11 -27t-6.5 -18.5q-2 -4 -4.5 -14.5t-2.5 -12.5q0 -4 6 -4.5t11 -0.5q10 0 17 0.5t14.5 2.5t15.5 5.5t19 8.5q12 6 42 21.5t64 33t63.5 33.5t41.5 22h47
v-47l-236 -132q-27 -15 -49 -18.5t-49 -3.5h-16.5t-21.5 2q-23 13 -33.5 34t-10.5 44zM-56 851l77 17q8 -10 13.5 -18.5t7.5 -12.5q17 -26 32 -47t32 -44q4 5 7.5 9t6.5 9q8 11 15.5 21.5t9.5 16.5l-1 -2q4 14 12 26q7 11 17.5 21t26.5 15q16 -19 21 -28t5 -20q0 -1 -0.5 -3
t-0.5 -4q-1 -3 -1 -6l-74 -141q-4 -11 -14 -16t-20 -5q-14 0 -20.5 4t-12.5 12z" />
    <glyph glyph-name="Euro" unicode="&#x20ac;" horiz-adv-x="645" 
d="M5 340q0 5 6.5 15t15.5 12q30 6 53.5 11t54.5 10q8 37 22 76t32.5 75t42.5 67.5t53 55.5q17 14 42.5 23.5t48.5 9.5q29 2 55 3t43 1q48 0 69.5 -10.5t21.5 -22.5q0 -7 -13.5 -15t-38 -14.5t-59.5 -11t-77 -4.5q-32 -11 -57.5 -34.5t-45.5 -53.5t-35 -64t-24 -67
q35 7 71 14t71 14h92v-53l-250 -48q-1 -8 -1 -13.5v-11.5q56 11 116 20t135 9v-54l-248 -43q3 -32 11.5 -61t25 -52t41.5 -36.5t62 -13.5h69q24 0 47.5 3t47.5 14t49.5 33t53.5 60v-22v-24.5t0.5 -20t0.5 -9.5q0 -2 0.5 -5.5t0.5 -4.5q0 -34 -30.5 -53.5t-73.5 -29.5
t-88 -12.5t-75 -2.5q-53 0 -91.5 18.5t-64.5 50t-41 71.5t-20 84q-2 -1 -5.5 -1t-6.5 -1h-80v53q23 4 44.5 7t44.5 8v10t2 17q-18 -3 -36 -7t-37 -8q-5 0 -13 2.5t-15.5 8t-13 12.5t-5.5 16z" />
    <glyph glyph-name="ellipsis" unicode="&#x2026;" horiz-adv-x="518" 
d="M6 55q0 18 7.5 30t19.5 18.5t26.5 8t28.5 -0.5q23 -5 31 -21t8 -31q0 -11 -6.5 -21.5t-16.5 -19t-21 -14t-21 -5.5q-23 0 -39.5 17t-16.5 39zM186 54q0 18 6 30t16.5 18.5t24 8t27.5 -0.5q23 -5 30.5 -22t7.5 -32q0 -11 -6 -21t-15.5 -18.5t-21 -13.5t-21.5 -5
q-21 0 -34.5 17t-13.5 39zM372 52q0 18 7 29.5t18 17.5t24.5 7.5t27.5 -0.5q23 -5 31.5 -21t8.5 -31q0 -11 -6.5 -21.5t-16 -19t-21.5 -14t-22 -5.5q-23 0 -37 18t-14 40z" />
    <glyph glyph-name="dieresis" unicode="&#xa8;" horiz-adv-x="306" 
d="M29 621q0 18 7.5 30t19.5 18.5t26.5 8t28.5 -0.5q23 -4 31 -20t8 -31q0 -11 -6.5 -21.5t-16.5 -19t-21 -14t-21 -5.5q-23 0 -39.5 16t-16.5 39zM176 622q0 36 22.5 45.5t51.5 5.5q23 -4 31.5 -20t8.5 -31q0 -11 -6.5 -21.5t-16.5 -19t-21.5 -14t-20.5 -5.5
q-23 0 -36 18.5t-13 41.5z" />
    <glyph glyph-name="florin" unicode="&#x192;" horiz-adv-x="407" 
d="M150 137q-2 26 -1 43.5t1 22.5q-19 -5 -38 -6t-39 -1h-8q-4 0 -13 0.5t-14 0.5h-14l-33 33l32 32q20 1 49 4t54 9q0 4 0.5 8t0.5 6q0 24 -1.5 48.5t-3.5 49.5q-2 26 -3.5 51.5t-1.5 53.5q0 38 2.5 71.5t9 66t18 66t30.5 71.5q11 8 19.5 12.5t20.5 4.5q15 0 41 -13
t51.5 -32.5t44 -42.5t18.5 -44v-3v-12t-0.5 -24.5t-0.5 -25v-11.5q-14 17 -34 40t-41.5 44t-41 35.5t-32.5 14.5q-6 0 -10 -13.5t-7.5 -34.5t-6 -46.5t-4 -49.5t-2.5 -44t-1 -29q0 -49 1.5 -98t10.5 -96q23 1 46.5 4.5t49.5 8.5h-1q29 6 57.5 10t58.5 4h62l-55 -55
q-11 -2 -38.5 -8.5t-58.5 -14t-59 -14t-38 -9.5q-3 -1 -4 -1.5l-3 -1.5q9 -93 18 -187l18 -188q1 -3 1 -8v-7q0 -19 -5.5 -23t-21.5 -6q-5 0 -7.5 -1t-7.5 -2q-78 25 -110.5 44.5t-32.5 34.5q0 16 15 24t41 8q7 0 10.5 0.5t7 0.5t8.5 -0.5l15 -1.5q-3 20 -5.5 48t-5 59
t-4.5 62t-4 58z" />
    <glyph glyph-name="quotesinglbase" unicode="&#x201a;" horiz-adv-x="93" 
d="M31 185q21 0 31.5 -9.5t15 -23t4.5 -28.5v-27v-8q0 -21 -0.5 -40t-2 -40t-4 -46t-6.5 -59q-8 6 -18.5 16t-20 20.5t-16 19.5t-6.5 14v188z" />
    <glyph glyph-name="quotedblbase" unicode="&#x201e;" horiz-adv-x="226" 
d="M134 -24q0 4 -0.5 12t-0.5 17v30q0 42 5 86.5t20 94.5h23q20 0 28.5 -12.5t8.5 -28.5q0 -29 -3.5 -56t-7.5 -53t-7 -55.5t-3 -68.5q-17 0 -26.5 1.5t-15 4t-8 5.5t-4.5 5l-2 2zM9 197q-2 9 2 16t10 12t13 7.5t12 2.5q4 0 14 -4q4 -2 10 -3l13 -53v-223h-55l-19 247v-2z
" />
    <glyph glyph-name="Scaron" unicode="&#x160;" horiz-adv-x="560" 
d="M4 66q5 8 20.5 18t26.5 10h109l23 -18h48h30q5 0 22 2t37 5t39 6t27 5l-2 -1q6 1 16.5 4.5t21 8t18.5 9.5t8 10t-3 11q-6 7 -16.5 18t-21.5 22t-20 19t-11 10l-247 175q-68 48 -68 130q0 49 27.5 89.5t68.5 68.5t88.5 43.5t88.5 15.5q34 0 68 -6.5t61.5 -22.5t44.5 -44.5
t17 -71.5v-6q0 -11 -0.5 -20.5t-4.5 -17.5t-13 -12.5t-26 -4.5h-4h-7t-13.5 0.5t-14 0.5h-6.5q1 4 4 12t6.5 17t6.5 17.5t5 13.5v-3v3q0 1 0.5 2t0.5 2q-1 0 -1 -1v-3q-1 21 -14 36t-31.5 24t-41 13.5t-41.5 4.5q-27 0 -60.5 -11.5t-63 -31t-49 -45.5t-19.5 -56
q0 -31 14.5 -54.5t40.5 -41.5l256 -184l-1 1q8 -5 21 -17t25.5 -27.5t21.5 -32t9 -30.5q0 -32 -24 -54t-61.5 -36.5t-83 -22.5t-88.5 -12t-77.5 -5t-49.5 -1h-12h-33t-35.5 3.5t-32.5 12t-25 24.5zM28 967l77 17q8 -10 13.5 -18.5t7.5 -12.5q17 -26 32 -47t32 -44q4 5 7.5 9
t6.5 9q8 11 15.5 21.5t9.5 16.5l-1 -2q4 14 12 26q7 11 17.5 21t26.5 15q16 -19 21 -28t5 -20q0 -1 -0.5 -3t-0.5 -4q-1 -3 -1 -6l-74 -141q-4 -11 -14 -16t-20 -5q-14 0 -20.5 4t-12.5 12z" />
    <glyph glyph-name="OE" unicode="&#x152;" horiz-adv-x="945" 
d="M6 336q0 39 4 82t16.5 83.5t35.5 77.5t61 64q7 1 27 2.5t38 3.5q17 2 31.5 3t22.5 1h10q66 0 110 -24.5t69.5 -65t36 -93t10.5 -109.5q0 -30 -6.5 -68t-19.5 -78t-32.5 -78.5t-46.5 -69t-60.5 -49t-74.5 -18.5q-69 0 -114 33t-71 82.5t-36.5 108.5t-10.5 112zM81 323
q0 -38 7 -81t24.5 -80t47 -61.5t73.5 -24.5q47 0 81 30.5t55.5 75t31.5 94.5t10 89q0 41 -7 79.5t-24.5 68t-47.5 47.5t-76 18q-41 0 -65.5 -7t-38 -25t-18.5 -47.5t-6 -74.5l-41 -8l-1 1q-3 -20 -3 -28q0 -2 -0.5 -10t-1 -18.5t-0.5 -21v-16.5zM415 89q0 2 0.5 8t0.5 11v10
l64 551v48h71v-67q78 14 153 29.5t154 29.5h9q14 0 35.5 -19t37.5 -42l-404 -71q5 0 4.5 -3.5t-3.5 -7.5q-2 -17 -6 -52.5t-8.5 -74.5t-8 -73.5t-4.5 -47.5v-10q38 6 81.5 22.5t87 41.5t85 58t76.5 72v-70q0 -29 -22 -53t-52 -42.5t-60.5 -31.5t-46.5 -19q-9 -3 -28 -9.5
t-40.5 -14t-43 -14.5t-35.5 -12l-14 -4q-6 -25 -7 -51.5t-1 -52.5v-9v-41v1q1 -2 0 -0.5t1 -2.5h28q11 5 21.5 9.5t20.5 7.5q79 30 149 54.5t148 38.5h14q6 0 12 -0.5t11.5 -4.5t10.5 -12.5t9 -23.5l-25 -25q-72 -11 -127.5 -29.5t-112.5 -41.5q-24 -9 -49.5 -18.5
t-51.5 -19.5q-20 -8 -33 -10t-32 -2q-21 0 -34.5 8.5t-21 21.5t-10.5 29t-3 31zM485 228q2 0 8 2z" />
    <glyph glyph-name="trademark" unicode="&#x2122;" horiz-adv-x="1366" 
d="M312 648q16 0 25 -4.5t14.5 -12.5t7.5 -18l4 -20q5 -34 7.5 -71.5t4.5 -73.5q2 -22 3 -45.5t3 -45.5q0 -2 1 -8t2 -14.5t2 -17.5t2 -16q0 -3 0.5 -6t0.5 -5q0 -3 1 -6v-9q2 -15 6.5 -43t9.5 -60.5t9.5 -63.5t7.5 -52q1 -8 1.5 -14.5t2.5 -12.5q-8 -17 -16.5 -23.5
t-22.5 -6.5l-23 1q-32 117 -45.5 239.5t-21.5 232.5q-3 32 -5.5 64t-4.5 61v27zM31 619q58 33 122 52t129.5 28.5t132 12t130.5 2.5h28t42 -1q21 -1 39.5 -1h25.5q4 0 15.5 -2t23.5 -7t21 -14t9 -24q0 -9 -6.5 -16.5t-17 -12.5t-22.5 -7.5t-24 -2.5q0 13 -3.5 16.5t-6.5 4.5
h2q-8 0 -26.5 0.5t-39 1t-39 0.5h-25.5h-32.5t-41 -0.5t-36 -1t-17.5 -0.5l-24.5 -3.5t-40.5 -7t-49 -9t-50.5 -9t-45 -9t-31.5 -6.5h1q-3 -1 -18 -6.5t-31.5 -12t-31.5 -12t-18 -6.5h-17q-11 0 -21.5 3t-16.5 23zM744 690q7 13 14.5 17.5t19.5 4.5h14q3 -2 9.5 -8.5
t13.5 -14t13.5 -14l9.5 -9.5q4 -9 16 -33l25 -50t25 -49t17 -32q6 -12 16.5 -28.5t23 -31.5t26.5 -25t29 -10h5t6 2q5 7 13.5 21.5t17.5 30t16.5 29.5t10.5 20h-1q11 21 17.5 42.5t13.5 44.5q8 26 18 54t25 57q1 2 4.5 6.5t8 9l8.5 8.5t6 5q14 -10 28.5 -28t15.5 -29
q6 -121 13 -245.5t13 -245.5q1 -6 4 -19t6 -27.5t5.5 -27.5t3.5 -18v-7q0 -2 -0.5 -3.5t-0.5 -3.5v-4l-5 -9q-2 -2 -2.5 -17.5t-0.5 -32.5q-30 23 -46.5 42.5t-24 37t-9.5 33.5t-3 32q0 5 -0.5 10t-0.5 10q-2 24 -2.5 46.5t-2.5 44.5q-3 47 -4.5 73t-3 47.5t-3 48t-4.5 75.5
q-5 -14 -9 -23.5t-6 -15.5v1q-2 -5 -4.5 -11t-4.5 -11v1q-9 -24 -18.5 -46t-23.5 -38.5t-34.5 -26t-50.5 -9.5q-23 0 -43.5 9.5t-38.5 24.5t-32.5 33t-24.5 35q-5 8 -15 26.5t-22 40.5q2 -48 5 -94.5t8 -94.5q5 -63 9.5 -125.5t4.5 -124.5v-2v-20t-4 -23.5t-11.5 -19.5
t-22.5 -8q-8 0 -17 8t-11 17q-2 7 -3.5 14.5t-3.5 15.5l4 -7q-3 6 -5 22.5t-4 39t-3.5 49.5t-2.5 56q-2 37 -4.5 72.5t-4.5 60.5v19q-2 17 -5 59t-7 89q-2 26 -4.5 51.5t-4.5 47t-3.5 38.5t-2.5 26z" />
    <glyph glyph-name="scaron" unicode="&#x161;" horiz-adv-x="373" 
d="M11 46q0 36 25 59.5t59 36.5t70 18t59 5h6h14q-12 8 -28 16.5t-34 17.5q-31 15 -63 33t-58.5 40.5t-43 52t-16.5 68.5q0 29 21.5 53t51.5 41.5t62.5 27t55.5 9.5q16 0 32 -2t29.5 -9.5t22 -21t8.5 -35.5q0 -23 -16.5 -47t-59.5 -57v58q0 8 2 15.5t4 13.5q4 8 4 11h-32
q-15 0 -32.5 -5.5t-33 -14.5t-26 -22t-10.5 -28q0 -21 11.5 -39.5t30.5 -34t43.5 -30t49.5 -27.5q35 -20 66.5 -39t54.5 -46l-1 1q6 -6 7 -16t1 -13q0 -25 -13.5 -44.5t-35 -35t-48 -26.5t-53 -17.5t-50.5 -10t-40 -3.5h-6q-11 0 -26 0.5t-29.5 4.5t-24.5 14t-10 28zM156 74
q10 2 30.5 7.5t40.5 14.5q-20 -2 -38.5 -4t-24.5 -2q-10 -2 -21 -5.5t-22 -7.5q13 -2 23 -3t12 0zM-64 775l77 17q8 -10 13.5 -18.5t7.5 -12.5q17 -26 32 -47t32 -44q4 5 7.5 9t6.5 9q8 11 15.5 21.5t9.5 16.5l-1 -2q4 14 12 26q7 11 17.5 21t26.5 15q16 -19 21 -28t5 -20
q0 -1 -0.5 -3t-0.5 -4q-1 -3 -1 -6l-74 -141q-4 -11 -14 -16t-20 -5q-14 0 -20.5 4t-12.5 12z" />
    <glyph glyph-name="oe" unicode="&#x153;" horiz-adv-x="655" 
d="M6 88q0 27 10.5 62t25.5 72t32 72.5t30 62.5q3 5 1.5 3t0.5 3v6q0 4 -1 7.5t-2 8.5q-7 19 -7 30t5.5 23.5t27.5 12.5q25 0 39 -11t28 -28q10 -11 22.5 -22t36.5 -11q23 0 43 10t47 36q4 -5 8.5 -11.5t8.5 -13t6 -11.5t2 -6q0 -26 -15 -41t-36.5 -22.5t-46 -9.5t-43.5 -2
q0 -5 0.5 -11.5t0.5 -13.5q2 -26 4 -53t0 -37q-2 -24 -15.5 -57.5t-35 -64t-49.5 -51.5t-59 -21q-20 0 -33.5 8t-21.5 21t-11 29t-3 31zM80 87q0 -4 -0.5 -8.5t-3.5 -5.5q7 0 11 4q46 40 64 83t18 102v11v22t-2 20q-8 -17 -18.5 -40.5t-20.5 -46.5t-18.5 -42t-12.5 -28
q-10 -23 -13.5 -37.5t-3.5 -33.5zM429 -14q-39 0 -68 15t-48.5 39.5t-30.5 56t-15 65.5q-9 -2 -17.5 -3.5t-15.5 -0.5q-4 2 -9.5 6.5t-10 10t-8 10.5t-3.5 8q6 24 26 35.5t40 13.5l1.5 7.5l1.5 7.5q4 32 10.5 62t26.5 60q6 13 18 29.5t27 30.5t32 24t34 10q10 0 29.5 -7.5
t39 -18.5t35 -23.5t17.5 -23.5v1q3 -31 -5.5 -54t-24.5 -41t-37 -32t-43 -26q-12 -7 -22.5 -13.5t-17.5 -11.5q-19 -20 -35 -30q-8 -6 -12.5 -11t-4.5 -19q0 -47 27 -79.5t73 -32.5q2 0 7.5 1t18 7t35.5 19t60 37q24 0 28 -10t4 -18q0 -22 -20.5 -40.5t-47.5 -32t-54 -21
t-41 -7.5zM426 399q-16 0 -29 -12.5t-22.5 -30.5t-16 -39t-9.5 -38q6 2 11.5 5.5t10.5 6.5l36 22t31.5 23t22 27t8.5 33q0 1 -5.5 1.5t-12.5 1t-14 0.5h-11z" />
    <glyph glyph-name="Ydieresis" unicode="&#x178;" horiz-adv-x="403" 
d="M-5 645q6 7 14.5 8t11.5 1q18 0 27 -6.5t20 -24.5l120 -202q2 -2 4.5 -5.5t5.5 -6.5q5 26 10 59t11 70q8 52 17.5 107.5t24 105t34.5 89t49 58.5l62 -63q-16 -4 -34 -9.5t-20 -7.5q-20 -57 -30.5 -120.5t-18.5 -125.5q-6 -54 -14 -111t-25 -111q-4 -14 -11 -20t-16 -8
q2 -15 6 -33.5t6 -38.5q3 -24 6.5 -49t7 -46.5t6 -37.5t4.5 -22q3 -11 14 -25.5t29 -27.5q-11 -23 -21 -33t-23 -10q-17 0 -31 11.5t-24.5 27.5t-17 33.5t-9.5 28.5q-5 20 -10 58t-9 77t-7 71.5t-4 41.5q-29 25 -56.5 64t-51 79.5t-40 75.5t-23.5 52zM-82 841q0 18 7.5 30
t19.5 18.5t26.5 8t28.5 -0.5q23 -4 31 -20t8 -31q0 -11 -6.5 -21.5t-16.5 -19t-21 -14t-21 -5.5q-23 0 -39.5 16t-16.5 39zM65 842q0 36 22.5 45.5t51.5 5.5q23 -4 31.5 -20t8.5 -31q0 -11 -6.5 -21.5t-16.5 -19t-21.5 -14t-20.5 -5.5q-23 0 -36 18.5t-13 41.5z" />
    <glyph glyph-name="exclamdown" unicode="&#xa1;" horiz-adv-x="172" 
d="M58.2871 396.078l19.4287 -12.4639l-12.5713 1.38477q6.85742 -11.0791 27.4287 -14.542q20.5723 -3.46191 46.8584 -3.46191q0 18.0039 -9.71484 30.4678q-9.71387 12.4639 -34.8574 20.0811zM54.8584 33.9297q0 -20.0811 -4 -41.2002q-4 -21.1201 -8.57129 -42.585
q-5.71484 -21.4658 -8.57227 -46.0479t-2.85742 -57.8193h50.2871q3.42871 0 12 16.6191q8.57227 16.6182 17.7148 39.4688q9.14355 22.8506 17.1436 47.4326t11.4287 41.2002v44.3164q2.28613 13.8486 2.85742 34.6221t0.571289 42.2393q0 36.0068 -2.28613 73.0527
q-2.28516 37.0459 -7.42871 69.2441q-5.14258 32.1992 -13.1426 56.4346t-18.8574 34.2764q-10.8574 10.04 -25.1436 3.46191t-31.4297 -36.3535q0 -3.46191 -0.571289 -11.7715t-0.571289 -16.6182v-27.0059q0 -27.6973 1.14258 -55.3955
q1.14258 -27.6973 3.42871 -56.0879q2.28613 -28.3896 4.57129 -55.7412q2.28613 -27.3516 2.28613 -55.7422z" />
    <glyph glyph-name="cent" unicode="&#xa2;" horiz-adv-x="438" 
d="M8 149q0 23 7 52.5t20 60t31.5 60t41 52t49 36.5t55.5 14q16 0 32 -6.5t28.5 -17.5t20 -26t7.5 -32q0 -15 -13.5 -31.5t-51.5 -16.5q0 7 -1 17t-2.5 19t-4.5 15t-6 6q-32 0 -57.5 -22t-43.5 -54t-27.5 -67.5t-9.5 -62.5q0 -20 8.5 -34t22 -22.5t31 -12t34.5 -3.5
q31 0 64.5 8.5t68 22.5t70 31.5t69.5 36.5l1 -45q0 -11 -16.5 -25t-43 -28.5t-58 -28t-62 -23.5t-55 -16.5t-36.5 -6.5q-31 0 -62 10t-55.5 29t-40 47t-15.5 64zM183 512l33 33l32 -33v-17q0 -7 0.5 -14t0.5 -10v-79.5t-0.5 -65.5t-1 -56.5t-0.5 -51.5t-0.5 -47.5t-1 -48
t-0.5 -57.5v-77h8q0 -35 -16 -63.5t-44 -48.5l-25 47z" />
    <glyph glyph-name="yen" unicode="&#xa5;" horiz-adv-x="482" 
d="M183 383q17 0 34.5 -11.5t17.5 -35.5l-1 6q0 -14 4.5 -41t8.5 -56q3 -23 6.5 -47.5l6.5 -45.5t5.5 -37t4.5 -22q4 -11 14.5 -25t28.5 -27q-11 -23 -20.5 -32.5t-23.5 -9.5q-17 0 -30.5 11.5t-23.5 27t-16.5 32.5t-9.5 28q-5 21 -10.5 62t-9.5 82t-6.5 71.5t-2.5 31.5v14z
M-2 632q6 6 14.5 7t11.5 1q17 0 26 -6t20 -24l117 -198v1q4 -6 10 -12q5 25 10 58t10 68q8 51 17.5 105.5t24 103t34 87t48.5 57.5l60 -61q-8 -2 -17 -5l-16.5 -5.5t-13 -4.5t-6.5 -3q-20 -55 -30 -118t-18 -123q-6 -53 -14 -108.5t-24 -108.5q-5 -22 -18 -25.5t-27 -3.5
q-22 0 -45.5 18t-47 46t-45 62t-39 67t-30.5 59.5t-18 40.5zM48 227q29 5 57 9.5t57 11.5q64 13 131 24t150 11v-56l-334 -56h-81v32zM1 313l351 66h91v-53l-397 -75q-5 -1 -12.5 2t-15.5 9t-13.5 14t-5.5 19z" />
    <glyph glyph-name="sterling" unicode="&#xa3;" horiz-adv-x="681" 
d="M0 407q0 12 12.5 20.5t31.5 15.5t42.5 12t45.5 11q-3 21 -4.5 42.5t-1.5 41.5q0 33 6 61.5t22.5 48.5t44.5 31.5t72 11.5q18 0 38.5 -1.5t45.5 -7.5q11 0 16.5 -5t8 -11.5t2 -14.5t-1.5 -15v-33q-82 19 -120 19q-37 0 -49 -16.5t-12 -45.5q0 -17 2.5 -37.5t5.5 -44.5v-7
q8 2 22 6l28 8l46 12t29 8h8q27 0 35.5 -21.5t8.5 -53.5h-42q-18 -5 -33.5 -9.5t-30.5 -9t-30 -8.5t-33 -9v-40q0 -29 -2 -64.5t-5.5 -72t-9.5 -73t-14 -67.5l192 66q7 1 14 1.5t18 0.5q51 0 94 -17t75 -34q17 -8 33 -14t41 -8v-69q-45 5 -69.5 14.5t-46.5 19.5
q-26 13 -55 24t-61 11q-8 0 -16.5 -1t-18.5 -3q-14 -1 -35.5 -8.5t-65.5 -23.5q-23 -8 -57 -21t-75 -27q-2 -1 -4 -1h-9q-23 0 -31 14.5t-8 39.5q0 26 7.5 62t15.5 67q5 17 8 28.5t3 16.5v23t1 33q2 38 4 62.5t0 38.5q-13 -4 -24.5 -7t-22.5 -7h-10q-4 0 -9 -0.5t-9 -0.5h-4
q-8 -1 -18.5 -0.5t-19.5 4t-15 11.5t-6 23z" />
    <glyph glyph-name="twosuperior" unicode="&#xb2;" horiz-adv-x="315" 
d="M25.7773 117.13q-13.8799 4.84082 -19.8291 14.2783q-5.94824 9.43848 9.91504 20.5703q43.6221 62.9219 86.9141 125.358q43.293 62.4375 86.915 125.358q1.32227 1.45215 1.9834 2.66211q0.660156 1.20996 1.98242 2.66211q-11.2363 -0.484375 -22.4727 -3.38867
q-11.2354 -2.90332 -21.8105 -7.01758t-19.8291 -8.9541q-9.25293 -4.83984 -17.1846 -9.19629q-11.2363 -6.77637 -20.1592 -11.1318q-8.92285 -4.35645 -18.8369 -4.35645q-2.64355 0 -6.2793 1.69434q-3.63477 1.69336 -7.26953 4.11426
q-3.63574 2.41992 -5.94922 5.08203t-2.31348 4.59766q0 0.967773 1.65234 3.87207t3.63574 5.80762q1.98242 2.9043 4.2959 5.32422t3.63574 3.38867l-3.30469 -1.93652q29.0811 21.7803 60.8066 34.6064t73.3652 13.3105q11.8975 1.93652 21.4814 0.242188
t16.8545 -5.80859q7.27051 -4.11328 11.2354 -10.1641q3.96582 -6.0498 3.96582 -13.3096q0 -10.6484 -7.93066 -19.3604q-39.6572 -57.5977 -82.2891 -119.309q-42.6309 -61.7109 -82.2881 -119.309l0.661133 0.484375l-1.98242 -2.9043q19.8281 0 40.3174 2.9043
t40.3184 6.77637q21.1504 3.87207 44.9443 7.25977q23.7939 3.38867 55.5195 3.87207v-30.9766l-175.812 -28.5566h-47.5879z" />
    <glyph glyph-name="threesuperior" unicode="&#xb3;" horiz-adv-x="263" 
d="M18.8945 156.441q11.9668 1.07422 28.3418 5.10645q16.376 4.03223 34.0107 10.752t35.2695 16.3975q17.6357 9.67578 31.4912 21.7725q13.8564 12.0957 22.3594 27.1484q8.50195 15.0527 8.50195 32.7939q0 7.52539 -3.46387 11.8262t-8.50293 6.18262
q-5.03809 1.88184 -11.0215 2.15039t-11.0215 0.268555q-9.44727 0 -19.8398 -2.15039q-10.3916 -2.15039 -21.0986 -4.83789q-11.9668 -3.76367 -25.1934 -6.18262q-13.2256 -2.41895 -38.4189 -2.41895v26.8799q5.03906 4.30078 14.8008 12.6338
q9.7627 8.33203 21.7285 19.084q11.9668 10.752 24.8779 22.3105q12.9121 11.5586 24.5635 22.3105t20.7842 19.085q9.13184 8.33301 13.541 12.6338q6.29785 5.91309 11.9668 13.4395q5.66797 7.52637 5.66797 16.666q0 1.07422 -2.51855 1.34375
q-2.51953 0.268555 -3.7793 0.268555q-15.1162 0 -28.9717 -3.7627q-13.8564 -3.76367 -26.7676 -9.94629t-25.8223 -14.7842q-12.9121 -8.60156 -26.7676 -18.2773q-3.7793 -2.68848 -9.13281 -6.7207q-5.35352 -4.03125 -9.76172 -6.71973h-40.3086
q13.2256 24.7295 33.0654 43.0078q19.8389 18.2783 41.8828 30.374t45.0322 18.2783t41.8838 6.18262q8.1875 0 17.6348 -1.61328q9.44727 -1.6123 17.6348 -6.18164q8.1875 -4.57031 13.2266 -12.6338q5.03809 -8.06348 5.03809 -20.9658q0 -1.07617 -0.314453 -2.41992
q-0.31543 -1.34375 -0.31543 -2.41895q-0.629883 -2.15039 -2.51953 -6.71973q-1.88867 -4.57031 -3.77832 -9.67676q-1.88965 -5.10742 -3.7793 -9.4082t-2.51855 -5.37598q-2.51953 -2.6875 -8.81836 -8.87012q-6.29785 -6.18262 -13.8555 -13.9775
q-7.55859 -7.79492 -15.7461 -15.8594t-14.4854 -14.5156q-3.14941 -3.22461 -6.92871 -6.71973q-3.77832 -3.49414 -5.03809 -5.64453l-0.629883 -0.538086q14.4863 -0.537109 28.6572 -3.7627t25.1924 -11.0205q11.0225 -7.79492 17.9502 -20.9668
q6.92773 -13.1709 6.92773 -34.1367q0 -33.332 -19.209 -60.4805q-19.21 -27.1484 -46.9219 -46.502t-58.2588 -30.1055q-30.5459 -10.752 -53.8496 -11.2891q-3.7793 -0.538086 -9.44727 -0.538086q-5.66895 0 -11.0225 1.88184q-5.35352 1.88086 -9.76172 7.25781
q-4.40918 5.375 -5.66895 15.5898z" />
    <glyph glyph-name="cedilla" unicode="&#xb8;" horiz-adv-x="446" 
d="M86 -223q0 16 5.5 30t13.5 24t17.5 15.5t17.5 5.5q14 0 24.5 -9.5t12.5 -29.5q3 0 4.5 -1t4.5 -1q14 -2 27 -4t19 -1q9 1 23 6t27.5 12.5t23 17.5t9.5 22q0 6 -19 7t-45 0q-29 0 -58.5 1t-53.5 11.5t-39.5 33t-15.5 65.5q0 52 10.5 72.5t27.5 20.5q8 0 16.5 -12.5
t15 -30.5t9.5 -37t0 -32l4 6q0 -14 5.5 -21.5t15.5 -11t22.5 -3.5t26.5 1q7 0 14.5 0.5t15.5 0.5q31 0 61.5 -9t59.5 -40v-22q0 -37 -23.5 -62.5t-56 -41.5t-68 -23t-59.5 -7h-4q-11 0 -26.5 0.5t-29.5 5t-24.5 14t-10.5 27.5z" />
    <glyph glyph-name="onesuperior" unicode="&#xb9;" horiz-adv-x="93" 
d="M2.51758 156.269q0 24.3613 2.09863 61.7949q2.09863 37.4326 3.77637 79.0254q1.67871 46.3457 3.77734 92.0977q2.09766 45.751 2.09766 80.8076q0 7.72461 -0.418945 16.9346q-0.419922 9.20898 -0.419922 15.1514l23.5 17.2305q16.7861 -7.12988 26.0186 -15.4482
t12.5889 -14.8545v-9.50684v-19.3105q0 -11.5869 -0.418945 -25.8467q-0.419922 -14.2607 -0.419922 -28.5205v-22.2822q0 -12.7744 -0.419922 -24.3613q-0.419922 -11.5859 -0.419922 -19.9043v-8.91309v-7.72363q0 -17.2314 -0.418945 -47.832
q-0.419922 -30.5996 -4.19629 -63.2793q-3.77734 -32.6797 -12.5898 -60.9033t-25.5986 -40.1074l-27.6963 19.6084v7.72461q0 3.56445 -0.419922 9.20898t-0.419922 9.20996z" />
    <glyph glyph-name="ring" unicode="&#x2da;" horiz-adv-x="276" 
d="M11 648q0 29 13 55.5t32 49.5q-11 11 -11 24q0 14 11.5 28.5t28.5 21.5q1 0 6.5 0.5t10.5 0.5h10q50 0 87.5 -24t54.5 -65q0 -2 0.5 -7t0.5 -10v-21q0 -25 -4.5 -50t-17 -45.5t-36.5 -33t-63 -12.5q-24 0 -46 6t-39 17.5t-27.5 28t-10.5 36.5zM85 654q1 -26 45 -26
q19 0 30 6t17 15.5t7.5 22t1.5 24.5q0 20 -8.5 39t-28.5 27q-10 -10 -21 -23.5t-20.5 -28.5t-16 -29.5t-6.5 -26.5z" />
    <glyph glyph-name="questiondown" unicode="&#xbf;" horiz-adv-x="366" 
d="M320.657 701.594v-6.74609t-1.06543 -9.19922q0 -4.90625 -1.06445 -11.0391q-82.0293 -107.938 -122.511 -187.051t-56.4609 -130.016t-15.4473 -76.0469l0.532227 -25.1445q0 -2.45312 7.99023 -3.67969t19.1758 -2.45312t22.3711 -1.22656h17.5781
q11.7178 0 25.0342 4.29297t28.2305 10.4258q14.915 6.13281 30.3613 12.2656q15.4473 6.13281 35.6885 6.13281q20.2402 0 31.959 -10.4258q11.7178 -10.4258 27.6973 -45.9961l-23.4365 -25.7578q-10.6533 -12.2656 -31.4268 -18.3984t-43.6768 -9.19922
q-22.9043 -3.06641 -44.2109 -3.67969q-21.3057 -0.613281 -34.0898 -0.613281q-14.9141 0 -40.4814 1.22656t-49.5371 9.8125q-23.9688 8.58594 -41.5469 26.9844q-17.5771 18.3984 -17.5771 52.7422q0 2.45312 1.59766 14.1055t3.72852 16.5586
q10.6533 20.8516 24.502 55.1953q13.8496 34.3438 29.8291 74.8203t33.0244 84.0195t33.5566 82.1797q16.5127 38.6367 31.96 69.3008q15.4463 30.6641 27.165 44.1562v72.3672q39.416 0 64.9834 -19.0117t25.5674 -50.9023zM245.021 873.312q-23.4365 0 -42.0791 15.332
q-18.6436 15.332 -18.6436 47.2227q0 25.7578 6.39258 40.4766q6.3916 14.7188 17.5771 21.4648t25.0352 7.35938q13.8486 0.613281 27.6973 0.613281q8.52246 0 22.9043 -0.613281t18.6426 -0.613281q0 -19.625 -1.59766 -42.9297t-7.45703 -42.9297t-17.5771 -32.5039
q-11.7188 -12.8789 -30.8945 -12.8789z" />
    <glyph glyph-name="germandbls" unicode="&#xdf;" horiz-adv-x="651" 
d="M190 125q0 14 7 22t21 16q33 1 62.5 -1t55.5 -5q20 -2 38 -3.5t34 -1.5q35 0 67.5 12t60.5 49q3 11 5 19t2 17q0 11 -10 19t-24 13.5t-29 9t-25 5.5q-6 1 -20.5 2.5t-30 3t-29.5 2.5t-19 1l-113 18q-16 8 -21 16t-5 21v19q19 10 41 24.5t45 29.5v-1q15 11 29.5 20
t23.5 14q10 6 28 17t35.5 24.5t30.5 28.5t13 27t-14 18.5t-33.5 9t-40.5 2.5h-35h-31q-7 0 -13.5 0.5t-14.5 0.5q-17 0 -33.5 -2t-31.5 -7q-9 -3 -31 -12t-47 -19.5t-46.5 -19.5t-30.5 -13h-51q0 23 6 40t15 22q45 19 81.5 35t72 26.5t73 16.5t84.5 6q18 0 51 -3.5t65 -14
t55.5 -30t23.5 -52.5q0 -13 -5 -27t-13.5 -27t-18.5 -24t-20 -18h2q-19 -14 -32 -24t-25 -19t-25 -19t-32 -24q2 -1 3 -2t3 -1q11 -5 22 -8t17 -3q30 -1 64.5 -7t63.5 -21t48.5 -40.5t19.5 -64.5q0 -51 -26 -81.5t-66 -46t-89.5 -20.5t-95.5 -5q-14 0 -28 0.5t-28 0.5
q-11 0 -21 0.5t-19 0.5q-8 0 -16 1t-15 5t-11 11.5t-4 20.5zM106 553q22 0 35.5 -16.5t21 -38.5t10.5 -44.5t4 -33.5q2 -29 2 -68.5v-81.5q0 -39 0.5 -79t2.5 -79t6 -75.5t12 -66.5l-31 -32q-34 18 -43 39.5t-12 41.5q0 5 -1 22t-2.5 40t-2.5 49.5t-2.5 49.5t-2 39t-0.5 20
v188q-1 10 -4 20.5t-6 21.5v-1q-5 14 -8 29t-3 32z" />
    <glyph glyph-name="Thorn" unicode="&#xde;" horiz-adv-x="386" 
d="M24 342q0 32 -0.5 53t-1 33.5t-1 20t-1.5 12.5q-1 6 -2 14t-1.5 24t-1 43t-0.5 71q5 0 18 -2.5t26.5 -7t24.5 -9.5t13 -11v-120v-8.5v-9.5v-16t1 -28q17 32 44.5 53.5t69.5 21.5q34 0 62.5 -14t49 -37.5t32 -54t11.5 -63.5q0 -43 -21 -68.5t-52.5 -39.5t-68.5 -18.5
t-70 -4.5h-36v-22v-106v-93h-41q-4 0 -9.5 22t-11 56.5t-11 76t-10.5 80t-8 69t-4 43.5v40zM119 187v-1v1zM212 400q-20 0 -34 -14.5t-24 -36t-16 -46t-10 -43.5l37 -14l4 -0.5t9.5 -0.5h11h7.5q43 0 69 19.5t26 60.5q0 34 -23 54.5t-57 20.5zM111 267l16 -23v10q0 3 1 6z
" />
    <glyph glyph-name="thorn" unicode="&#xfe;" horiz-adv-x="374" 
d="M26 335q0 31 -0.5 51.5t-1 33t-1.5 19.5t-1 12q-1 6 -2 14t-1.5 23.5t-1 42t-0.5 69.5q5 0 17.5 -2.5t26 -6.5t24.5 -9t12 -11v-104v-17t2 -18v6.5v6.5t0.5 -8t2.5 -36q20 38 50 65.5t72 27.5q33 0 60.5 -13.5t47.5 -36.5t31.5 -53t11.5 -63q-11 -50 -33 -82t-50 -50.5
t-58.5 -26t-58.5 -7.5q-33 0 -57 6v-17v-50t1 -54v-91h-41q-4 0 -9 22t-10.5 55.5t-11 74t-10 78.5t-7.5 68t-4 42v39zM119 184l-1 -2q1 1 1 2zM224 420q-21 0 -37 -19t-28 -45.5t-20 -55.5t-12 -49l28 -16q36 1 64.5 9.5t48 23t28.5 34t6 42.5q0 35 -23 55.5t-55 20.5z
M115 259l12 -20v10v2z" />
    <glyph glyph-name="tilde" unicode="&#x2dc;" horiz-adv-x="535" 
d="M296 556q-24 0 -38.5 6.5t-23.5 17.5t-13.5 25.5t-8.5 29.5q-4 13 -9 24.5t-13 14.5q-26 -2 -44 -18.5t-37 -38.5v1q-2 -3 -5.5 -6.5l-6.5 -6.5q-12 -13 -31.5 -16t-44.5 -3q0 18 1.5 28t4.5 16t7 9t8 7l2 1q8 8 15 15.5t14 15.5q12 13 23 25t25 21t32.5 15.5t45.5 8.5
q11 0 18.5 -1.5t14 -6t13 -12.5t15.5 -20q3 -7 6 -18.5t6 -21.5q3 -17 9 -30t21 -11q14 -1 30.5 14t31.5 32q13 15 26.5 28t28.5 19.5t31 3.5t36 -19q0 -11 -4 -21q-2 -4 -3 -8q-50 -42 -83 -67t-53 -37t-30.5 -15t-16.5 -1zM288 559q2 -3 8 -3q-2 0 -4 1z" />
    <glyph glyph-name="circumflex" unicode="&#x2c6;" horiz-adv-x="248" 
d="M93 717v-1q7 14 14.5 18t20.5 4t22 -4t13 -20q18 -37 37 -76.5t36 -74.5q0 -2 0.5 -10t0.5 -10q-18 -23 -33.5 -24t-29 11t-25.5 33t-22 43q-2 4 -2 4.5v0.5v0.5t-3 4.5q-8 -12 -13.5 -22t-10.5 -18q-8 -11 -20.5 -31t-21.5 -33l-59 35z" />
    <glyph glyph-name="breve" unicode="&#x2d8;" horiz-adv-x="285" 
d="M68 744q12 -51 34.5 -79.5t45.5 -28.5q19 0 36.5 19.5t28.5 64.5q34 36 53 23.5t9 -61.5l1 3q-3 -24 -15 -46.5t-30.5 -40.5t-41.5 -28.5t-48 -10.5q-40 0 -79.5 37.5t-67.5 130.5z" />
    <glyph glyph-name="dotaccent" unicode="&#x2d9;" horiz-adv-x="154" 
d="M26 617q0 18 7.5 29.5t19.5 17.5t26.5 7.5t28.5 0.5q23 -5 31.5 -20.5t8.5 -30.5q0 -11 -6.5 -21.5t-16.5 -19.5t-21.5 -14.5t-20.5 -5.5q-23 0 -40 17t-17 40z" />
    <glyph glyph-name="hungarumlaut" unicode="&#x2dd;" horiz-adv-x="325" 
d="M37 574q-11 13 -15 22.5t-4 18.5q-1 5 0.5 9.5t3.5 12.5l110 104l-2 -5q8 13 22.5 13.5t27.5 -7.5q9 -5 14.5 -12t-3.5 -24t-36.5 -48.5t-82.5 -85.5zM149 564q-14 14 -17.5 23t-3.5 19q0 3 3 5.5t7 5.5t7.5 6t3.5 6l93 103q10 8 23.5 7t23.5 -6t16 -11.5t-3 -23.5
t-36.5 -49t-82.5 -86z" />
    <glyph glyph-name="ogonek" unicode="&#x2db;" horiz-adv-x="162" 
d="M146 -199q-27 1 -53 8t-45.5 18.5t-31.5 27t-12 35.5t10 42t26 45t36.5 46t41.5 46l4 -61q-10 -11 -18 -26.5t-13.5 -31t-9 -29.5t-3.5 -23q1 -26 66 -26z" />
    <glyph glyph-name="dotlessi" unicode="&#x131;" horiz-adv-x="208" 
d="M104 379l29 -245q1 -8 4 -18.5t7.5 -20t10.5 -16t13 -6.5q9 0 16 8.5t18 27.5l39 -10v-17q0 -14 -8.5 -28.5t-21 -26.5t-28 -19.5t-29.5 -7.5q-15 0 -29 10.5t-25.5 24.5t-19.5 29.5t-11 25.5q-18 69 -21 138.5t-3 150.5h59z" />
    <glyph glyph-name="commaaccent" horiz-adv-x="199" 
d="M89 -84q0 11 -1.5 19t-3.5 16q-3 11 -4.5 24t-1.5 42q23 0 40.5 -7.5t29 -19t17.5 -26t6 -28.5q0 -12 -8 -44t-21.5 -65.5t-33 -59.5t-41.5 -26q-3 0 -13 2.5t-27 18.5q27 39 44.5 77t17.5 77z" />
    <glyph glyph-name="macron" unicode="&#xaf;" horiz-adv-x="355" 
d="M29 644q19 4 39.5 5.5t43.5 1.5q17 0 33.5 -0.5t33.5 -1.5q11 0 27 -0.5t26 -0.5q28 0 49 3h8q5 0 11 -2h-1q23 -6 30.5 -29.5t7.5 -57.5l-49 12q-48 -2 -93 -4t-93 -4q-6 -2 -11.5 0t-11.5 4q-2 0 -2.5 0.5t-1.5 0.5h-5q-8 2 -18 5t-19 8.5t-15 14t-7 21.5z" />
    <glyph glyph-name="Aacute" unicode="&#xc1;" 
d="M6 49q34 38 59 80t47 89q4 8 10 21t12 27t11 26t8 19q-10 2 -19 5t-15 3l-4 18q-2 7 -2.5 13t0.5 8q10 15 31 23.5t36 11.5q31 73 62.5 147.5t61.5 146.5l38 37q17 -11 29.5 -27t14.5 -27v3q10 -33 18 -62t14 -57.5t11 -57.5t10 -63q16 0 31 3q11 2 24 4.5t24 2.5h35
l7 -46l-118 -36q1 -26 11 -51.5t22 -51.5q15 -31 27 -67.5t12 -92.5q-24 0 -47 28t-42.5 67.5t-33.5 81.5t-20 70q-16 -3 -38 -8.5t-43 -10.5t-37.5 -9t-21.5 -5h-3l-31.5 -72t-40 -82t-48.5 -83t-56 -75l-14 -1q-14 0 -21.5 5.5t-14.5 17.5zM320 557q-3 -9 -11 -30
t-17.5 -46t-19 -50.5t-16.5 -43.5q26 2 53.5 7t47.5 18q0 3 0.5 6t0.5 4q0 4 -0.5 9.5t-0.5 10.5q-3 19 -5.5 48.5t-4.5 57t-2.5 47t0.5 19.5h-9q4 0 3 -7t-4 -16.5t-8 -19.5l-8 -16zM357 412q5 3 3.5 2.5t-3.5 -2.5v0zM230 731q-12 14 -15.5 23t-3.5 20l1 -3q-1 3 -0.5 7
t1.5 7q1 4 1 8l111 105q9 9 22.5 8.5t24.5 -7.5q11 -4 17 -10t-3 -23t-36.5 -49t-84.5 -88z" />
    <glyph glyph-name="Abreve" unicode="&#x102;" 
d="M6 49q34 38 59 80t47 89q4 8 10 21t12 27t11 26t8 19q-10 2 -19 5t-15 3l-4 18q-2 7 -2.5 13t0.5 8q10 15 31 23.5t36 11.5q31 73 62.5 147.5t61.5 146.5l38 37q17 -11 29.5 -27t14.5 -27v3q10 -33 18 -62t14 -57.5t11 -57.5t10 -63q16 0 31 3q11 2 24 4.5t24 2.5h35
l7 -46l-118 -36q1 -26 11 -51.5t22 -51.5q15 -31 27 -67.5t12 -92.5q-24 0 -47 28t-42.5 67.5t-33.5 81.5t-20 70q-16 -3 -38 -8.5t-43 -10.5t-37.5 -9t-21.5 -5h-3l-31.5 -72t-40 -82t-48.5 -83t-56 -75l-14 -1q-14 0 -21.5 5.5t-14.5 17.5zM320 557q-3 -9 -11 -30
t-17.5 -46t-19 -50.5t-16.5 -43.5q26 2 53.5 7t47.5 18q0 3 0.5 6t0.5 4q0 4 -0.5 9.5t-0.5 10.5q-3 19 -5.5 48.5t-4.5 57t-2.5 47t0.5 19.5h-9q4 0 3 -7t-4 -16.5t-8 -19.5l-8 -16zM357 412q5 3 3.5 2.5t-3.5 -2.5v0zM218 911q12 -51 34.5 -79.5t45.5 -28.5
q19 0 36.5 19.5t28.5 64.5q34 36 53 23.5t9 -61.5l1 3q-3 -24 -15 -46.5t-30.5 -40.5t-41.5 -28.5t-48 -10.5q-40 0 -79.5 37.5t-67.5 130.5z" />
    <glyph glyph-name="Acircumflex" unicode="&#xc2;" 
d="M6 49q34 38 59 80t47 89q4 8 10 21t12 27t11 26t8 19q-10 2 -19 5t-15 3l-4 18q-2 7 -2.5 13t0.5 8q10 15 31 23.5t36 11.5q31 73 62.5 147.5t61.5 146.5l38 37q17 -11 29.5 -27t14.5 -27v3q10 -33 18 -62t14 -57.5t11 -57.5t10 -63q16 0 31 3q11 2 24 4.5t24 2.5h35
l7 -46l-118 -36q1 -26 11 -51.5t22 -51.5q15 -31 27 -67.5t12 -92.5q-24 0 -47 28t-42.5 67.5t-33.5 81.5t-20 70q-16 -3 -38 -8.5t-43 -10.5t-37.5 -9t-21.5 -5h-3l-31.5 -72t-40 -82t-48.5 -83t-56 -75l-14 -1q-14 0 -21.5 5.5t-14.5 17.5zM320 557q-3 -9 -11 -30
t-17.5 -46t-19 -50.5t-16.5 -43.5q26 2 53.5 7t47.5 18q0 3 0.5 6t0.5 4q0 4 -0.5 9.5t-0.5 10.5q-3 19 -5.5 48.5t-4.5 57t-2.5 47t0.5 19.5h-9q4 0 3 -7t-4 -16.5t-8 -19.5l-8 -16zM357 412q5 3 3.5 2.5t-3.5 -2.5v0zM323 887v-1q7 14 14.5 18t20.5 4t22 -4t13 -20
q18 -37 37 -76.5t36 -74.5q0 -2 0.5 -10t0.5 -10q-18 -23 -33.5 -24t-29 11t-25.5 33t-22 43q-2 4 -2 4.5v0.5v0.5t-3 4.5q-8 -12 -13.5 -22t-10.5 -18q-8 -11 -20.5 -31t-21.5 -33l-59 35z" />
    <glyph glyph-name="Agrave" unicode="&#xc0;" 
d="M6 49q34 38 59 80t47 89q4 8 10 21t12 27t11 26t8 19q-10 2 -19 5t-15 3l-4 18q-2 7 -2.5 13t0.5 8q10 15 31 23.5t36 11.5q31 73 62.5 147.5t61.5 146.5l38 37q17 -11 29.5 -27t14.5 -27v3q10 -33 18 -62t14 -57.5t11 -57.5t10 -63q16 0 31 3q11 2 24 4.5t24 2.5h35
l7 -46l-118 -36q1 -26 11 -51.5t22 -51.5q15 -31 27 -67.5t12 -92.5q-24 0 -47 28t-42.5 67.5t-33.5 81.5t-20 70q-16 -3 -38 -8.5t-43 -10.5t-37.5 -9t-21.5 -5h-3l-31.5 -72t-40 -82t-48.5 -83t-56 -75l-14 -1q-14 0 -21.5 5.5t-14.5 17.5zM320 557q-3 -9 -11 -30
t-17.5 -46t-19 -50.5t-16.5 -43.5q26 2 53.5 7t47.5 18q0 3 0.5 6t0.5 4q0 4 -0.5 9.5t-0.5 10.5q-3 19 -5.5 48.5t-4.5 57t-2.5 47t0.5 19.5h-9q4 0 3 -7t-4 -16.5t-8 -19.5l-8 -16zM357 412q5 3 3.5 2.5t-3.5 -2.5v0zM398 719q-57 56 -84.5 88t-36.5 49t-3 23t17 10
q12 7 25 8t23 -10l-1 1q26 -24 54.5 -53t54.5 -53q2 -6 3 -10q2 -10 2 -11q0 -9 -4 -17.5t-15 -22.5z" />
    <glyph glyph-name="Adieresis" unicode="&#xc4;" 
d="M6 49q34 38 59 80t47 89q4 8 10 21t12 27t11 26t8 19q-10 2 -19 5t-15 3l-4 18q-2 7 -2.5 13t0.5 8q10 15 31 23.5t36 11.5q31 73 62.5 147.5t61.5 146.5l38 37q17 -11 29.5 -27t14.5 -27v3q10 -33 18 -62t14 -57.5t11 -57.5t10 -63q16 0 31 3q11 2 24 4.5t24 2.5h35
l7 -46l-118 -36q1 -26 11 -51.5t22 -51.5q15 -31 27 -67.5t12 -92.5q-24 0 -47 28t-42.5 67.5t-33.5 81.5t-20 70q-16 -3 -38 -8.5t-43 -10.5t-37.5 -9t-21.5 -5h-3l-31.5 -72t-40 -82t-48.5 -83t-56 -75l-14 -1q-14 0 -21.5 5.5t-14.5 17.5zM320 557q-3 -9 -11 -30
t-17.5 -46t-19 -50.5t-16.5 -43.5q26 2 53.5 7t47.5 18q0 3 0.5 6t0.5 4q0 4 -0.5 9.5t-0.5 10.5q-3 19 -5.5 48.5t-4.5 57t-2.5 47t0.5 19.5h-9q4 0 3 -7t-4 -16.5t-8 -19.5l-8 -16zM357 412q5 3 3.5 2.5t-3.5 -2.5v0zM239 791q0 18 7.5 30t19.5 18.5t26.5 8t28.5 -0.5
q23 -4 31 -20t8 -31q0 -11 -6.5 -21.5t-16.5 -19t-21 -14t-21 -5.5q-23 0 -39.5 16t-16.5 39zM386 792q0 36 22.5 45.5t51.5 5.5q23 -4 31.5 -20t8.5 -31q0 -11 -6.5 -21.5t-16.5 -19t-21.5 -14t-20.5 -5.5q-23 0 -36 18.5t-13 41.5z" />
    <glyph glyph-name="Amacron" unicode="&#x100;" 
d="M6 49q34 38 59 80t47 89q4 8 10 21t12 27t11 26t8 19q-10 2 -19 5t-15 3l-4 18q-2 7 -2.5 13t0.5 8q10 15 31 23.5t36 11.5q31 73 62.5 147.5t61.5 146.5l38 37q17 -11 29.5 -27t14.5 -27v3q10 -33 18 -62t14 -57.5t11 -57.5t10 -63q16 0 31 3q11 2 24 4.5t24 2.5h35
l7 -46l-118 -36q1 -26 11 -51.5t22 -51.5q15 -31 27 -67.5t12 -92.5q-24 0 -47 28t-42.5 67.5t-33.5 81.5t-20 70q-16 -3 -38 -8.5t-43 -10.5t-37.5 -9t-21.5 -5h-3l-31.5 -72t-40 -82t-48.5 -83t-56 -75l-14 -1q-14 0 -21.5 5.5t-14.5 17.5zM320 557q-3 -9 -11 -30
t-17.5 -46t-19 -50.5t-16.5 -43.5q26 2 53.5 7t47.5 18q0 3 0.5 6t0.5 4q0 4 -0.5 9.5t-0.5 10.5q-3 19 -5.5 48.5t-4.5 57t-2.5 47t0.5 19.5h-9q4 0 3 -7t-4 -16.5t-8 -19.5l-8 -16zM357 412q5 3 3.5 2.5t-3.5 -2.5v0zM208 827q19 4 39.5 5.5t43.5 1.5q17 0 33.5 -0.5
t33.5 -1.5q11 0 27 -0.5t26 -0.5q28 0 49 3h8q5 0 11 -2h-1q23 -6 30.5 -29.5t7.5 -57.5l-49 12q-48 -2 -93 -4t-93 -4q-6 -2 -11.5 0t-11.5 4q-2 0 -2.5 0.5t-1.5 0.5h-5q-8 2 -18 5t-19 8.5t-15 14t-7 21.5z" />
    <glyph glyph-name="Aogonek" unicode="&#x104;" 
d="M6 49q34 38 59 80t47 89q4 8 10 21t12 27t11 26t8 19q-10 2 -19 5t-15 3l-4 18q-2 7 -2.5 13t0.5 8q10 15 31 23.5t36 11.5q31 73 62.5 147.5t61.5 146.5l38 37q17 -11 29.5 -27t14.5 -27v3q10 -33 18 -62t14 -57.5t11 -57.5t10 -63q16 0 31 3q11 2 24 4.5t24 2.5h35
l7 -46l-118 -36q1 -26 11 -51.5t22 -51.5q15 -31 27 -67.5t12 -92.5q-24 0 -47 28t-42.5 67.5t-33.5 81.5t-20 70q-16 -3 -38 -8.5t-43 -10.5t-37.5 -9t-21.5 -5h-3l-31.5 -72t-40 -82t-48.5 -83t-56 -75l-14 -1q-14 0 -21.5 5.5t-14.5 17.5zM320 557q-3 -9 -11 -30
t-17.5 -46t-19 -50.5t-16.5 -43.5q26 2 53.5 7t47.5 18q0 3 0.5 6t0.5 4q0 4 -0.5 9.5t-0.5 10.5q-3 19 -5.5 48.5t-4.5 57t-2.5 47t0.5 19.5h-9q4 0 3 -7t-4 -16.5t-8 -19.5l-8 -16zM357 412q5 3 3.5 2.5t-3.5 -2.5v0zM540 -89q-27 1 -53 8t-45.5 18.5t-31.5 27t-12 35.5
t10 42t26 45t36.5 46t41.5 46l4 -61q-10 -11 -18 -26.5t-13.5 -31t-9 -29.5t-3.5 -23q1 -26 66 -26z" />
    <glyph glyph-name="Aring" unicode="&#xc5;" 
d="M6 49q34 38 59 80t47 89q4 8 10 21t12 27t11 26t8 19q-10 2 -19 5t-15 3l-4 18q-2 7 -2.5 13t0.5 8q10 15 31 23.5t36 11.5q31 73 62.5 147.5t61.5 146.5l38 37q17 -11 29.5 -27t14.5 -27v3q10 -33 18 -62t14 -57.5t11 -57.5t10 -63q16 0 31 3q11 2 24 4.5t24 2.5h35
l7 -46l-118 -36q1 -26 11 -51.5t22 -51.5q15 -31 27 -67.5t12 -92.5q-24 0 -47 28t-42.5 67.5t-33.5 81.5t-20 70q-16 -3 -38 -8.5t-43 -10.5t-37.5 -9t-21.5 -5h-3l-31.5 -72t-40 -82t-48.5 -83t-56 -75l-14 -1q-14 0 -21.5 5.5t-14.5 17.5zM320 557q-3 -9 -11 -30
t-17.5 -46t-19 -50.5t-16.5 -43.5q26 2 53.5 7t47.5 18q0 3 0.5 6t0.5 4q0 4 -0.5 9.5t-0.5 10.5q-3 19 -5.5 48.5t-4.5 57t-2.5 47t0.5 19.5h-9q4 0 3 -7t-4 -16.5t-8 -19.5l-8 -16zM357 412q5 3 3.5 2.5t-3.5 -2.5v0zM168 815q0 29 13 55.5t32 49.5q-11 11 -11 24
q0 14 11.5 28.5t28.5 21.5q1 0 6.5 0.5t10.5 0.5h10q50 0 87.5 -24t54.5 -65q0 -2 0.5 -7t0.5 -10v-21q0 -25 -4.5 -50t-17 -45.5t-36.5 -33t-63 -12.5q-24 0 -46 6t-39 17.5t-27.5 28t-10.5 36.5zM242 821q1 -26 45 -26q19 0 30 6t17 15.5t7.5 22t1.5 24.5q0 20 -8.5 39
t-28.5 27q-10 -10 -21 -23.5t-20.5 -28.5t-16 -29.5t-6.5 -26.5z" />
    <glyph glyph-name="Atilde" unicode="&#xc3;" 
d="M6 49q34 38 59 80t47 89q4 8 10 21t12 27t11 26t8 19q-10 2 -19 5t-15 3l-4 18q-2 7 -2.5 13t0.5 8q10 15 31 23.5t36 11.5q31 73 62.5 147.5t61.5 146.5l38 37q17 -11 29.5 -27t14.5 -27v3q10 -33 18 -62t14 -57.5t11 -57.5t10 -63q16 0 31 3q11 2 24 4.5t24 2.5h35
l7 -46l-118 -36q1 -26 11 -51.5t22 -51.5q15 -31 27 -67.5t12 -92.5q-24 0 -47 28t-42.5 67.5t-33.5 81.5t-20 70q-16 -3 -38 -8.5t-43 -10.5t-37.5 -9t-21.5 -5h-3l-31.5 -72t-40 -82t-48.5 -83t-56 -75l-14 -1q-14 0 -21.5 5.5t-14.5 17.5zM320 557q-3 -9 -11 -30
t-17.5 -46t-19 -50.5t-16.5 -43.5q26 2 53.5 7t47.5 18q0 3 0.5 6t0.5 4q0 4 -0.5 9.5t-0.5 10.5q-3 19 -5.5 48.5t-4.5 57t-2.5 47t0.5 19.5h-9q4 0 3 -7t-4 -16.5t-8 -19.5l-8 -16zM357 412q5 3 3.5 2.5t-3.5 -2.5v0zM443 713q-24 0 -38.5 6.5t-23.5 17.5t-13.5 25.5
t-8.5 29.5q-4 13 -9 24.5t-13 14.5q-26 -2 -44 -18.5t-37 -38.5v1q-2 -3 -5.5 -6.5l-6.5 -6.5q-12 -13 -31.5 -16t-44.5 -3q0 18 1.5 28t4.5 16t7 9t8 7l2 1q8 8 15 15.5t14 15.5q12 13 23 25t25 21t32.5 15.5t45.5 8.5q11 0 18.5 -1.5t14 -6t13 -12.5t15.5 -20
q3 -7 6 -18.5t6 -21.5q3 -17 9 -30t21 -11q14 -1 30.5 14t31.5 32q13 15 26.5 28t28.5 19.5t31 3.5t36 -19q0 -11 -4 -21q-2 -4 -3 -8q-50 -42 -83 -67t-53 -37t-30.5 -15t-16.5 -1zM435 716q2 -3 8 -3q-2 0 -4 1z" />
    <glyph glyph-name="AE" unicode="&#xc6;" horiz-adv-x="964" 
d="M407 90v11.5t1 14.5q0 37 3.5 78.5t7.5 74.5q1 13 3 30q-17 -1 -39.5 -3t-44.5 -4l-38.5 -3.5t-21.5 -1.5q-2 0 -2 1q-20 -31 -45.5 -69t-54.5 -76.5t-61 -74.5t-64 -63l-17 -1q-14 2 -22 13t-15 32q48 38 83.5 79t64.5 84q6 8 14 20t16.5 24.5t15.5 24t11 17.5l-18 8
t-16 4q-1 9 -2 17q-1 7 -1 13t2 8q6 9 15.5 14.5t20.5 8.5t22 4.5t19 1.5q43 68 86.5 137.5t86.5 138.5l42 29q9 -9 12 -13l1 2v48h71v-67q78 14 153 29t154 29h9q14 0 35.5 -19t38.5 -41l-405 -71q-17 -3 -22 -28.5t-5 -62.5q0 -18 1 -36.5t2 -37.5l2 -36t1 -35v-16.5
t-1 -16.5q38 7 81 23.5t86.5 41t84 57t74.5 71.5v-69q0 -29 -22 -53t-52 -42.5t-60.5 -31.5t-46.5 -19q-9 -3 -28 -9.5t-40.5 -14t-43 -14.5t-35.5 -12l-14 -4q-2 -16 -2 -31t-1 -31q-1 -20 -2 -41.5t-3 -41.5q0 -2 0.5 -3.5t0.5 -3.5q-1 0 -2 3l2 -7h28q11 5 21.5 9t20.5 8
q79 30 149 54.5t148 38.5h14q7 0 13 -0.5t11.5 -4.5t10 -12.5t9.5 -23.5l-26 -25q-72 -11 -127.5 -29.5t-112.5 -41.5q-24 -9 -49 -18.5t-52 -19.5q-20 -8 -33 -10t-32 -2q-21 0 -34.5 8t-21 21t-10.5 29t-3 31zM478 230q1 0 7 2zM378 464q-16 -27 -33 -56.5t-29 -49.5
q9 -2 17.5 -2h16.5q20 0 38.5 2.5t33.5 8.5q0 1 0.5 1.5t0.5 1.5q2 8 2 9l2 19q0 11 0.5 24t0.5 27q0 20 1.5 41t4.5 39t6.5 30t7.5 13l-8 2q2 -1 -0.5 -7t-7.5 -14.5t-10.5 -17.5t-9.5 -15l-5 -5q-5 -8 -12.5 -21.5t-16.5 -29.5zM305 337q2 3 5 8.5t6 12.5q-5 0 -15 2
q4 -2 5 -4z" />
    <glyph glyph-name="AEacute" unicode="&#x1fc;" horiz-adv-x="964" 
d="M407 90v11.5t1 14.5q0 37 3.5 78.5t7.5 74.5q1 13 3 30q-17 -1 -39.5 -3t-44.5 -4l-38.5 -3.5t-21.5 -1.5q-2 0 -2 1q-20 -31 -45.5 -69t-54.5 -76.5t-61 -74.5t-64 -63l-17 -1q-14 2 -22 13t-15 32q48 38 83.5 79t64.5 84q6 8 14 20t16.5 24.5t15.5 24t11 17.5l-18 8
t-16 4q-1 9 -2 17q-1 7 -1 13t2 8q6 9 15.5 14.5t20.5 8.5t22 4.5t19 1.5q43 68 86.5 137.5t86.5 138.5l42 29q9 -9 12 -13l1 2v48h71v-67q78 14 153 29t154 29h9q14 0 35.5 -19t38.5 -41l-405 -71q-17 -3 -22 -28.5t-5 -62.5q0 -18 1 -36.5t2 -37.5l2 -36t1 -35v-16.5
t-1 -16.5q38 7 81 23.5t86.5 41t84 57t74.5 71.5v-69q0 -29 -22 -53t-52 -42.5t-60.5 -31.5t-46.5 -19q-9 -3 -28 -9.5t-40.5 -14t-43 -14.5t-35.5 -12l-14 -4q-2 -16 -2 -31t-1 -31q-1 -20 -2 -41.5t-3 -41.5q0 -2 0.5 -3.5t0.5 -3.5q-1 0 -2 3l2 -7h28q11 5 21.5 9t20.5 8
q79 30 149 54.5t148 38.5h14q7 0 13 -0.5t11.5 -4.5t10 -12.5t9.5 -23.5l-26 -25q-72 -11 -127.5 -29.5t-112.5 -41.5q-24 -9 -49 -18.5t-52 -19.5q-20 -8 -33 -10t-32 -2q-21 0 -34.5 8t-21 21t-10.5 29t-3 31zM478 230q1 0 7 2zM378 464q-16 -27 -33 -56.5t-29 -49.5
q9 -2 17.5 -2h16.5q20 0 38.5 2.5t33.5 8.5q0 1 0.5 1.5t0.5 1.5q2 8 2 9l2 19q0 11 0.5 24t0.5 27q0 20 1.5 41t4.5 39t6.5 30t7.5 13l-8 2q2 -1 -0.5 -7t-7.5 -14.5t-10.5 -17.5t-9.5 -15l-5 -5q-5 -8 -12.5 -21.5t-16.5 -29.5zM305 337q2 3 5 8.5t6 12.5q-5 0 -15 2
q4 -2 5 -4zM417 731q-12 14 -15.5 23t-3.5 20l1 -3q-1 3 -0.5 7t1.5 7q1 4 1 8l111 105q9 9 22.5 8.5t24.5 -7.5q11 -4 17 -10t-3 -23t-36.5 -49t-84.5 -88z" />
    <glyph glyph-name="Cacute" unicode="&#x106;" horiz-adv-x="521" 
d="M6 276q0 106 33.5 190.5t113.5 153.5q17 13 44.5 23.5t49.5 10.5q36 0 56.5 -18t31 -44t13 -54.5t2.5 -50.5q0 -4 -0.5 -12t-0.5 -18v-37q-10 -14 -18.5 -20.5t-20.5 -6.5q-15 0 -23 7.5t-11.5 18.5t-3.5 23t1 20v1q0 22 6 40q2 7 3 13t1 13q0 20 -11 34.5t-29 14.5
q-30 0 -53.5 -14t-41.5 -36.5t-30.5 -51t-20.5 -59t-11.5 -59.5t-3.5 -52q0 -39 5 -80t21 -74.5t44 -55t75 -21.5q34 0 70 22t71.5 55t68 72.5t58.5 74.5v-19v-24t0.5 -21.5t0.5 -10.5q0 -2 0.5 -6t0.5 -5q0 -20 -14 -43.5t-37 -47.5t-52 -46t-58.5 -39t-57.5 -27.5
t-48 -10.5q-62 0 -104.5 24t-69 63.5t-38.5 89t-12 100.5zM195 731q-12 14 -15.5 23t-3.5 20l1 -3q-1 3 -0.5 7t1.5 7q1 4 1 8l111 105q9 9 22.5 8.5t24.5 -7.5q11 -4 17 -10t-3 -23t-36.5 -49t-84.5 -88z" />
    <glyph glyph-name="Ccaron" unicode="&#x10c;" horiz-adv-x="521" 
d="M6 276q0 106 33.5 190.5t113.5 153.5q17 13 44.5 23.5t49.5 10.5q36 0 56.5 -18t31 -44t13 -54.5t2.5 -50.5q0 -4 -0.5 -12t-0.5 -18v-37q-10 -14 -18.5 -20.5t-20.5 -6.5q-15 0 -23 7.5t-11.5 18.5t-3.5 23t1 20v1q0 22 6 40q2 7 3 13t1 13q0 20 -11 34.5t-29 14.5
q-30 0 -53.5 -14t-41.5 -36.5t-30.5 -51t-20.5 -59t-11.5 -59.5t-3.5 -52q0 -39 5 -80t21 -74.5t44 -55t75 -21.5q34 0 70 22t71.5 55t68 72.5t58.5 74.5v-19v-24t0.5 -21.5t0.5 -10.5q0 -2 0.5 -6t0.5 -5q0 -20 -14 -43.5t-37 -47.5t-52 -46t-58.5 -39t-57.5 -27.5
t-48 -10.5q-62 0 -104.5 24t-69 63.5t-38.5 89t-12 100.5zM122 942l77 17q8 -10 13.5 -18.5t7.5 -12.5q17 -26 32 -47t32 -44q4 5 7.5 9t6.5 9q8 11 15.5 21.5t9.5 16.5l-1 -2q4 14 12 26q7 11 17.5 21t26.5 15q16 -19 21 -28t5 -20q0 -1 -0.5 -3t-0.5 -4q-1 -3 -1 -6
l-74 -141q-4 -11 -14 -16t-20 -5q-14 0 -20.5 4t-12.5 12z" />
    <glyph glyph-name="Ccedilla" unicode="&#xc7;" horiz-adv-x="521" 
d="M6 276q0 106 33.5 190.5t113.5 153.5q17 13 44.5 23.5t49.5 10.5q36 0 56.5 -18t31 -44t13 -54.5t2.5 -50.5q0 -4 -0.5 -12t-0.5 -18v-37q-10 -14 -18.5 -20.5t-20.5 -6.5q-15 0 -23 7.5t-11.5 18.5t-3.5 23t1 20v1q0 22 6 40q2 7 3 13t1 13q0 20 -11 34.5t-29 14.5
q-30 0 -53.5 -14t-41.5 -36.5t-30.5 -51t-20.5 -59t-11.5 -59.5t-3.5 -52q0 -39 5 -80t21 -74.5t44 -55t75 -21.5q34 0 70 22t71.5 55t68 72.5t58.5 74.5v-19v-24t0.5 -21.5t0.5 -10.5q0 -2 0.5 -6t0.5 -5q0 -20 -14 -43.5t-37 -47.5t-52 -46t-58.5 -39t-57.5 -27.5
t-48 -10.5q-62 0 -104.5 24t-69 63.5t-38.5 89t-12 100.5zM182 -225q0 16 5.5 30t13.5 24t17.5 15.5t17.5 5.5q14 0 24.5 -9.5t12.5 -29.5q3 0 4.5 -1t4.5 -1q14 -2 27 -4t19 -1q9 1 23 6t27.5 12.5t23 17.5t9.5 22q0 6 -19 7t-45 0q-29 0 -58.5 1t-53.5 11.5t-39.5 33
t-15.5 65.5q0 52 10.5 72.5t27.5 20.5q8 0 16.5 -12.5t15 -30.5t9.5 -37t0 -32l4 6q0 -14 5.5 -21.5t15.5 -11t22.5 -3.5t26.5 1q7 0 14.5 0.5t15.5 0.5q31 0 61.5 -9t59.5 -40v-22q0 -37 -23.5 -62.5t-56 -41.5t-68 -23t-59.5 -7h-4q-11 0 -26.5 0.5t-29.5 5t-24.5 14
t-10.5 27.5z" />
    <glyph glyph-name="Ccircumflex" unicode="&#x108;" horiz-adv-x="521" 
d="M6 276q0 106 33.5 190.5t113.5 153.5q17 13 44.5 23.5t49.5 10.5q36 0 56.5 -18t31 -44t13 -54.5t2.5 -50.5q0 -4 -0.5 -12t-0.5 -18v-37q-10 -14 -18.5 -20.5t-20.5 -6.5q-15 0 -23 7.5t-11.5 18.5t-3.5 23t1 20v1q0 22 6 40q2 7 3 13t1 13q0 20 -11 34.5t-29 14.5
q-30 0 -53.5 -14t-41.5 -36.5t-30.5 -51t-20.5 -59t-11.5 -59.5t-3.5 -52q0 -39 5 -80t21 -74.5t44 -55t75 -21.5q34 0 70 22t71.5 55t68 72.5t58.5 74.5v-19v-24t0.5 -21.5t0.5 -10.5q0 -2 0.5 -6t0.5 -5q0 -20 -14 -43.5t-37 -47.5t-52 -46t-58.5 -39t-57.5 -27.5
t-48 -10.5q-62 0 -104.5 24t-69 63.5t-38.5 89t-12 100.5zM226 884v-1q7 14 14.5 18t20.5 4t22 -4t13 -20q18 -37 37 -76.5t36 -74.5q0 -2 0.5 -10t0.5 -10q-18 -23 -33.5 -24t-29 11t-25.5 33t-22 43q-2 4 -2 4.5v0.5v0.5t-3 4.5q-8 -12 -13.5 -22t-10.5 -18
q-8 -11 -20.5 -31t-21.5 -33l-59 35z" />
    <glyph glyph-name="Cdotaccent" unicode="&#x10a;" horiz-adv-x="521" 
d="M6 276q0 106 33.5 190.5t113.5 153.5q17 13 44.5 23.5t49.5 10.5q36 0 56.5 -18t31 -44t13 -54.5t2.5 -50.5q0 -4 -0.5 -12t-0.5 -18v-37q-10 -14 -18.5 -20.5t-20.5 -6.5q-15 0 -23 7.5t-11.5 18.5t-3.5 23t1 20v1q0 22 6 40q2 7 3 13t1 13q0 20 -11 34.5t-29 14.5
q-30 0 -53.5 -14t-41.5 -36.5t-30.5 -51t-20.5 -59t-11.5 -59.5t-3.5 -52q0 -39 5 -80t21 -74.5t44 -55t75 -21.5q34 0 70 22t71.5 55t68 72.5t58.5 74.5v-19v-24t0.5 -21.5t0.5 -10.5q0 -2 0.5 -6t0.5 -5q0 -20 -14 -43.5t-37 -47.5t-52 -46t-58.5 -39t-57.5 -27.5
t-48 -10.5q-62 0 -104.5 24t-69 63.5t-38.5 89t-12 100.5zM202 784q0 18 7.5 29.5t19.5 17.5t26.5 7.5t28.5 0.5q23 -5 31.5 -20.5t8.5 -30.5q0 -11 -6.5 -21.5t-16.5 -19.5t-21.5 -14.5t-20.5 -5.5q-23 0 -40 17t-17 40z" />
    <glyph glyph-name="Dcaron" unicode="&#x10e;" horiz-adv-x="536" 
d="M115 74q47 16 104 40t107 58t83.5 78.5t33.5 100.5q0 43 -24.5 79t-62 63t-82.5 43.5t-86 19.5v-48q1 -29 1 -65v-58v-32q0 -8 -1 -27t-2 -43t-2 -51t-2 -51.5t-2 -43.5t-1 -27q-1 0 -13.5 -0.5t-14.5 -0.5q-13 0 -20.5 3.5t-11 9.5t-5 13t-2.5 14q0 4 -1 19.5t-2.5 33
t-3 32.5t-2.5 19v5q0 26 1.5 48.5t3.5 45.5t3.5 47t1.5 47v24.5v37t-0.5 36.5t-0.5 25q-3 8 -14.5 12t-24.5 6q-12 3 -23.5 6.5t-21 11t-17 22t-10.5 38.5q6 1 14.5 2.5l17 3t14.5 2t8 0.5q48 0 88 -14t81 -32h1q19 -8 33.5 -14t34.5 -13q12 2 19 -2t13 -12l-3 1l1 -1
q5 -3 11.5 -7t11.5 -7h-1q30 -18 59.5 -38t53 -44.5t38.5 -56t15 -71.5q0 -36 -9.5 -66.5t-25.5 -57.5t-37 -51t-44 -47h33v-52q-10 -3 -35 -9.5t-53 -14.5t-52.5 -15.5t-33.5 -11.5q-17 -5 -27.5 -10t-18.5 -9q-17 -8 -30 -13.5t-36 -5.5q-7 0 -13 0.5t-13.5 3.5t-17.5 10
t-23 20zM129 942l77 17q8 -10 13.5 -18.5t7.5 -12.5q17 -26 32 -47t32 -44q4 5 7.5 9t6.5 9q8 11 15.5 21.5t9.5 16.5l-1 -2q4 14 12 26q7 11 17.5 21t26.5 15q16 -19 21 -28t5 -20q0 -1 -0.5 -3t-0.5 -4q-1 -3 -1 -6l-74 -141q-4 -11 -14 -16t-20 -5q-14 0 -20.5 4
t-12.5 12z" />
    <glyph glyph-name="Dcroat" unicode="&#x110;" horiz-adv-x="536" 
d="M115 74q47 16 104 40t107 58t83.5 78.5t33.5 100.5q0 43 -24.5 79t-62 63t-82.5 43.5t-86 19.5v-48q1 -29 1 -65v-58v-32q0 -8 -1 -27t-2 -43t-2 -51t-2 -51.5t-2 -43.5t-1 -27q-1 0 -13.5 -0.5t-14.5 -0.5q-13 0 -20.5 3.5t-11 9.5t-5 13t-2.5 14q0 4 -1 19.5t-2.5 33
t-3 32.5t-2.5 19v5q0 26 1.5 48.5t3.5 45.5t3.5 47t1.5 47v24.5v37t-0.5 36.5t-0.5 25q-3 8 -14.5 12t-24.5 6q-12 3 -23.5 6.5t-21 11t-17 22t-10.5 38.5q6 1 14.5 2.5l17 3t14.5 2t8 0.5q48 0 88 -14t81 -32h1q19 -8 33.5 -14t34.5 -13q12 2 19 -2t13 -12l-3 1l1 -1
q5 -3 11.5 -7t11.5 -7h-1q30 -18 59.5 -38t53 -44.5t38.5 -56t15 -71.5q0 -36 -9.5 -66.5t-25.5 -57.5t-37 -51t-44 -47h33v-52q-10 -3 -35 -9.5t-53 -14.5t-52.5 -15.5t-33.5 -11.5q-17 -5 -27.5 -10t-18.5 -9q-17 -8 -30 -13.5t-36 -5.5q-7 0 -13 0.5t-13.5 3.5t-17.5 10
t-23 20zM22 386q19 4 39.5 5.5t43.5 1.5q17 0 33.5 -0.5t33.5 -1.5q11 0 27 -0.5t26 -0.5q28 0 49 3h8q5 0 11 -2h-1q23 -6 30.5 -29.5t7.5 -57.5l-49 12q-48 -2 -93 -4t-93 -4q-6 -2 -11.5 0t-11.5 4q-2 0 -2.5 0.5t-1.5 0.5h-5q-8 2 -18 5t-19 8.5t-15 14t-7 21.5z" />
    <glyph glyph-name="Eacute" unicode="&#xc9;" horiz-adv-x="530" 
d="M7 89q0 2 0.5 8t0.5 11v10l64 551v48h71v-67q78 14 153 29.5t154 29.5h9q14 0 35.5 -19t37.5 -42l-404 -71q5 0 4.5 -3.5t-3.5 -7.5q-2 -17 -6 -52.5t-8.5 -74.5t-8 -73.5t-4.5 -47.5v-10q38 6 81.5 22.5t87 41.5t85 58t76.5 72v-70q0 -29 -22 -53t-52 -42.5t-60.5 -31.5
t-46.5 -19q-9 -3 -28 -9.5t-40.5 -14t-43 -14.5t-35.5 -12l-14 -4q-6 -25 -7 -51.5t-1 -52.5v-9v-41v1q1 -2 0 -0.5t1 -2.5h28q11 5 21.5 9.5t20.5 7.5q79 30 149 54.5t148 38.5h14q6 0 12 -0.5t11.5 -4.5t10.5 -12.5t9 -23.5l-25 -25q-72 -11 -127.5 -29.5t-112.5 -41.5
q-24 -9 -49.5 -18.5t-51.5 -19.5q-20 -8 -33 -10t-32 -2q-21 0 -34.5 8.5t-21 21.5t-10.5 29t-3 31zM77 228q2 0 8 2zM200 731q-12 14 -15.5 23t-3.5 20l1 -3q-1 3 -0.5 7t1.5 7q1 4 1 8l111 105q9 9 22.5 8.5t24.5 -7.5q11 -4 17 -10t-3 -23t-36.5 -49t-84.5 -88z" />
    <glyph glyph-name="Ebreve" unicode="&#x114;" horiz-adv-x="530" 
d="M7 89q0 2 0.5 8t0.5 11v10l64 551v48h71v-67q78 14 153 29.5t154 29.5h9q14 0 35.5 -19t37.5 -42l-404 -71q5 0 4.5 -3.5t-3.5 -7.5q-2 -17 -6 -52.5t-8.5 -74.5t-8 -73.5t-4.5 -47.5v-10q38 6 81.5 22.5t87 41.5t85 58t76.5 72v-70q0 -29 -22 -53t-52 -42.5t-60.5 -31.5
t-46.5 -19q-9 -3 -28 -9.5t-40.5 -14t-43 -14.5t-35.5 -12l-14 -4q-6 -25 -7 -51.5t-1 -52.5v-9v-41v1q1 -2 0 -0.5t1 -2.5h28q11 5 21.5 9.5t20.5 7.5q79 30 149 54.5t148 38.5h14q6 0 12 -0.5t11.5 -4.5t10.5 -12.5t9 -23.5l-25 -25q-72 -11 -127.5 -29.5t-112.5 -41.5
q-24 -9 -49.5 -18.5t-51.5 -19.5q-20 -8 -33 -10t-32 -2q-21 0 -34.5 8.5t-21 21.5t-10.5 29t-3 31zM77 228q2 0 8 2zM188 911q12 -51 34.5 -79.5t45.5 -28.5q19 0 36.5 19.5t28.5 64.5q34 36 53 23.5t9 -61.5l1 3q-3 -24 -15 -46.5t-30.5 -40.5t-41.5 -28.5t-48 -10.5
q-40 0 -79.5 37.5t-67.5 130.5z" />
    <glyph glyph-name="Ecaron" unicode="&#x11a;" horiz-adv-x="530" 
d="M7 89q0 2 0.5 8t0.5 11v10l64 551v48h71v-67q78 14 153 29.5t154 29.5h9q14 0 35.5 -19t37.5 -42l-404 -71q5 0 4.5 -3.5t-3.5 -7.5q-2 -17 -6 -52.5t-8.5 -74.5t-8 -73.5t-4.5 -47.5v-10q38 6 81.5 22.5t87 41.5t85 58t76.5 72v-70q0 -29 -22 -53t-52 -42.5t-60.5 -31.5
t-46.5 -19q-9 -3 -28 -9.5t-40.5 -14t-43 -14.5t-35.5 -12l-14 -4q-6 -25 -7 -51.5t-1 -52.5v-9v-41v1q1 -2 0 -0.5t1 -2.5h28q11 5 21.5 9.5t20.5 7.5q79 30 149 54.5t148 38.5h14q6 0 12 -0.5t11.5 -4.5t10.5 -12.5t9 -23.5l-25 -25q-72 -11 -127.5 -29.5t-112.5 -41.5
q-24 -9 -49.5 -18.5t-51.5 -19.5q-20 -8 -33 -10t-32 -2q-21 0 -34.5 8.5t-21 21.5t-10.5 29t-3 31zM77 228q2 0 8 2zM126 942l77 17q8 -10 13.5 -18.5t7.5 -12.5q17 -26 32 -47t32 -44q4 5 7.5 9t6.5 9q8 11 15.5 21.5t9.5 16.5l-1 -2q4 14 12 26q7 11 17.5 21t26.5 15
q16 -19 21 -28t5 -20q0 -1 -0.5 -3t-0.5 -4q-1 -3 -1 -6l-74 -141q-4 -11 -14 -16t-20 -5q-14 0 -20.5 4t-12.5 12z" />
    <glyph glyph-name="Ecircumflex" unicode="&#xca;" horiz-adv-x="530" 
d="M7 89q0 2 0.5 8t0.5 11v10l64 551v48h71v-67q78 14 153 29.5t154 29.5h9q14 0 35.5 -19t37.5 -42l-404 -71q5 0 4.5 -3.5t-3.5 -7.5q-2 -17 -6 -52.5t-8.5 -74.5t-8 -73.5t-4.5 -47.5v-10q38 6 81.5 22.5t87 41.5t85 58t76.5 72v-70q0 -29 -22 -53t-52 -42.5t-60.5 -31.5
t-46.5 -19q-9 -3 -28 -9.5t-40.5 -14t-43 -14.5t-35.5 -12l-14 -4q-6 -25 -7 -51.5t-1 -52.5v-9v-41v1q1 -2 0 -0.5t1 -2.5h28q11 5 21.5 9.5t20.5 7.5q79 30 149 54.5t148 38.5h14q6 0 12 -0.5t11.5 -4.5t10.5 -12.5t9 -23.5l-25 -25q-72 -11 -127.5 -29.5t-112.5 -41.5
q-24 -9 -49.5 -18.5t-51.5 -19.5q-20 -8 -33 -10t-32 -2q-21 0 -34.5 8.5t-21 21.5t-10.5 29t-3 31zM77 228q2 0 8 2zM238 930v-1q7 14 14.5 18t20.5 4t22 -4t13 -20q18 -37 37 -76.5t36 -74.5q0 -2 0.5 -10t0.5 -10q-18 -23 -33.5 -24t-29 11t-25.5 33t-22 43q-2 4 -2 4.5
v0.5v0.5t-3 4.5q-8 -12 -13.5 -22t-10.5 -18q-8 -11 -20.5 -31t-21.5 -33l-59 35z" />
    <glyph glyph-name="Edotaccent" unicode="&#x116;" horiz-adv-x="530" 
d="M7 89q0 2 0.5 8t0.5 11v10l64 551v48h71v-67q78 14 153 29.5t154 29.5h9q14 0 35.5 -19t37.5 -42l-404 -71q5 0 4.5 -3.5t-3.5 -7.5q-2 -17 -6 -52.5t-8.5 -74.5t-8 -73.5t-4.5 -47.5v-10q38 6 81.5 22.5t87 41.5t85 58t76.5 72v-70q0 -29 -22 -53t-52 -42.5t-60.5 -31.5
t-46.5 -19q-9 -3 -28 -9.5t-40.5 -14t-43 -14.5t-35.5 -12l-14 -4q-6 -25 -7 -51.5t-1 -52.5v-9v-41v1q1 -2 0 -0.5t1 -2.5h28q11 5 21.5 9.5t20.5 7.5q79 30 149 54.5t148 38.5h14q6 0 12 -0.5t11.5 -4.5t10.5 -12.5t9 -23.5l-25 -25q-72 -11 -127.5 -29.5t-112.5 -41.5
q-24 -9 -49.5 -18.5t-51.5 -19.5q-20 -8 -33 -10t-32 -2q-21 0 -34.5 8.5t-21 21.5t-10.5 29t-3 31zM77 228q2 0 8 2zM206 784q0 18 7.5 29.5t19.5 17.5t26.5 7.5t28.5 0.5q23 -5 31.5 -20.5t8.5 -30.5q0 -11 -6.5 -21.5t-16.5 -19.5t-21.5 -14.5t-20.5 -5.5q-23 0 -40 17
t-17 40z" />
    <glyph glyph-name="Edieresis" unicode="&#xcb;" horiz-adv-x="530" 
d="M7 89q0 2 0.5 8t0.5 11v10l64 551v48h71v-67q78 14 153 29.5t154 29.5h9q14 0 35.5 -19t37.5 -42l-404 -71q5 0 4.5 -3.5t-3.5 -7.5q-2 -17 -6 -52.5t-8.5 -74.5t-8 -73.5t-4.5 -47.5v-10q38 6 81.5 22.5t87 41.5t85 58t76.5 72v-70q0 -29 -22 -53t-52 -42.5t-60.5 -31.5
t-46.5 -19q-9 -3 -28 -9.5t-40.5 -14t-43 -14.5t-35.5 -12l-14 -4q-6 -25 -7 -51.5t-1 -52.5v-9v-41v1q1 -2 0 -0.5t1 -2.5h28q11 5 21.5 9.5t20.5 7.5q79 30 149 54.5t148 38.5h14q6 0 12 -0.5t11.5 -4.5t10.5 -12.5t9 -23.5l-25 -25q-72 -11 -127.5 -29.5t-112.5 -41.5
q-24 -9 -49.5 -18.5t-51.5 -19.5q-20 -8 -33 -10t-32 -2q-21 0 -34.5 8.5t-21 21.5t-10.5 29t-3 31zM77 228q2 0 8 2zM155 788q0 18 7.5 30t19.5 18.5t26.5 8t28.5 -0.5q23 -4 31 -20t8 -31q0 -11 -6.5 -21.5t-16.5 -19t-21 -14t-21 -5.5q-23 0 -39.5 16t-16.5 39zM302 789
q0 36 22.5 45.5t51.5 5.5q23 -4 31.5 -20t8.5 -31q0 -11 -6.5 -21.5t-16.5 -19t-21.5 -14t-20.5 -5.5q-23 0 -36 18.5t-13 41.5z" />
    <glyph glyph-name="Egrave" unicode="&#xc8;" horiz-adv-x="530" 
d="M7 89q0 2 0.5 8t0.5 11v10l64 551v48h71v-67q78 14 153 29.5t154 29.5h9q14 0 35.5 -19t37.5 -42l-404 -71q5 0 4.5 -3.5t-3.5 -7.5q-2 -17 -6 -52.5t-8.5 -74.5t-8 -73.5t-4.5 -47.5v-10q38 6 81.5 22.5t87 41.5t85 58t76.5 72v-70q0 -29 -22 -53t-52 -42.5t-60.5 -31.5
t-46.5 -19q-9 -3 -28 -9.5t-40.5 -14t-43 -14.5t-35.5 -12l-14 -4q-6 -25 -7 -51.5t-1 -52.5v-9v-41v1q1 -2 0 -0.5t1 -2.5h28q11 5 21.5 9.5t20.5 7.5q79 30 149 54.5t148 38.5h14q6 0 12 -0.5t11.5 -4.5t10.5 -12.5t9 -23.5l-25 -25q-72 -11 -127.5 -29.5t-112.5 -41.5
q-24 -9 -49.5 -18.5t-51.5 -19.5q-20 -8 -33 -10t-32 -2q-21 0 -34.5 8.5t-21 21.5t-10.5 29t-3 31zM77 228q2 0 8 2zM284 722q-57 56 -84.5 88t-36.5 49t-3 23t17 10q12 7 25 8t23 -10l-1 1q26 -24 54.5 -53t54.5 -53q2 -6 3 -10q2 -10 2 -11q0 -9 -4 -17.5t-15 -22.5z" />
    <glyph glyph-name="Emacron" unicode="&#x112;" horiz-adv-x="530" 
d="M7 89q0 2 0.5 8t0.5 11v10l64 551v48h71v-67q78 14 153 29.5t154 29.5h9q14 0 35.5 -19t37.5 -42l-404 -71q5 0 4.5 -3.5t-3.5 -7.5q-2 -17 -6 -52.5t-8.5 -74.5t-8 -73.5t-4.5 -47.5v-10q38 6 81.5 22.5t87 41.5t85 58t76.5 72v-70q0 -29 -22 -53t-52 -42.5t-60.5 -31.5
t-46.5 -19q-9 -3 -28 -9.5t-40.5 -14t-43 -14.5t-35.5 -12l-14 -4q-6 -25 -7 -51.5t-1 -52.5v-9v-41v1q1 -2 0 -0.5t1 -2.5h28q11 5 21.5 9.5t20.5 7.5q79 30 149 54.5t148 38.5h14q6 0 12 -0.5t11.5 -4.5t10.5 -12.5t9 -23.5l-25 -25q-72 -11 -127.5 -29.5t-112.5 -41.5
q-24 -9 -49.5 -18.5t-51.5 -19.5q-20 -8 -33 -10t-32 -2q-21 0 -34.5 8.5t-21 21.5t-10.5 29t-3 31zM77 228q2 0 8 2zM116 811q19 4 39.5 5.5t43.5 1.5q17 0 33.5 -0.5t33.5 -1.5q11 0 27 -0.5t26 -0.5q28 0 49 3h8q5 0 11 -2h-1q23 -6 30.5 -29.5t7.5 -57.5l-49 12
q-48 -2 -93 -4t-93 -4q-6 -2 -11.5 0t-11.5 4q-2 0 -2.5 0.5t-1.5 0.5h-5q-8 2 -18 5t-19 8.5t-15 14t-7 21.5z" />
    <glyph glyph-name="Eogonek" unicode="&#x118;" horiz-adv-x="530" 
d="M7 89q0 2 0.5 8t0.5 11v10l64 551v48h71v-67q78 14 153 29.5t154 29.5h9q14 0 35.5 -19t37.5 -42l-404 -71q5 0 4.5 -3.5t-3.5 -7.5q-2 -17 -6 -52.5t-8.5 -74.5t-8 -73.5t-4.5 -47.5v-10q38 6 81.5 22.5t87 41.5t85 58t76.5 72v-70q0 -29 -22 -53t-52 -42.5t-60.5 -31.5
t-46.5 -19q-9 -3 -28 -9.5t-40.5 -14t-43 -14.5t-35.5 -12l-14 -4q-6 -25 -7 -51.5t-1 -52.5v-9v-41v1q1 -2 0 -0.5t1 -2.5h28q11 5 21.5 9.5t20.5 7.5q79 30 149 54.5t148 38.5h14q6 0 12 -0.5t11.5 -4.5t10.5 -12.5t9 -23.5l-25 -25q-72 -11 -127.5 -29.5t-112.5 -41.5
q-24 -9 -49.5 -18.5t-51.5 -19.5q-20 -8 -33 -10t-32 -2q-21 0 -34.5 8.5t-21 21.5t-10.5 29t-3 31zM77 228q2 0 8 2zM501 -108q-27 1 -53 8t-45.5 18.5t-31.5 27t-12 35.5t10 42t26 45t36.5 46t41.5 46l4 -61q-10 -11 -18 -26.5t-13.5 -31t-9 -29.5t-3.5 -23q1 -26 66 -26z
" />
    <glyph glyph-name="Gbreve" unicode="&#x11e;" horiz-adv-x="565" 
d="M405 -32q0 6 -0.5 11t-0.5 7q0 16 3 30.5t8 30.5q1 7 2 8t1.5 1t0.5 1.5v8.5q-8 -3 -16.5 -7.5t-19.5 -9.5q-35 -16 -74.5 -31.5t-80.5 -15.5q-48 0 -86.5 16t-65.5 44.5t-41.5 68t-14.5 86.5q0 66 27.5 131t69.5 124.5t92 112t95 92.5q15 14 27.5 23t24 13.5t24.5 6
t30 1.5t36 -4t35 -13t26.5 -24.5t10.5 -38.5q0 -5 -10 -17.5t-24.5 -27t-32 -30t-32.5 -26.5q9 22 11.5 42.5t0.5 36.5t-7.5 25t-12.5 9q-8 0 -18.5 -4t-21 -10t-20.5 -13t-16 -12h1q-43 -41 -85.5 -86.5t-77 -95.5t-56 -105.5t-21.5 -116.5v-10.5v-15.5t0.5 -15t0.5 -10
q8 -27 30.5 -50t48.5 -31q4 0 12 -0.5l16 -1t15 -0.5h9q39 0 80 9.5t75 30t56 52t22 75.5q0 5 -0.5 10t-2.5 5h-285l-35 36q15 12 32.5 20t33.5 12.5t29 6.5t19 2q7 0 24.5 0.5t37.5 0.5h39h31h27h41.5t41 -0.5t27.5 -0.5q2 -2 7 -6.5t10.5 -9.5t10.5 -10.5t7 -8.5v-12
q0 -51 -14 -97.5t-29 -91.5q-14 -39 -26 -80t-15 -94q-8 -2 -14 -3q-8 -2 -10 -2q-3 -1 -4 -1q-14 0 -22.5 6.5t-16.5 22.5v20zM277 933q12 -51 34.5 -79.5t45.5 -28.5q19 0 36.5 19.5t28.5 64.5q34 36 53 23.5t9 -61.5l1 3q-3 -24 -15 -46.5t-30.5 -40.5t-41.5 -28.5
t-48 -10.5q-40 0 -79.5 37.5t-67.5 130.5z" />
    <glyph glyph-name="Gcircumflex" unicode="&#x11c;" horiz-adv-x="565" 
d="M405 -32q0 6 -0.5 11t-0.5 7q0 16 3 30.5t8 30.5q1 7 2 8t1.5 1t0.5 1.5v8.5q-8 -3 -16.5 -7.5t-19.5 -9.5q-35 -16 -74.5 -31.5t-80.5 -15.5q-48 0 -86.5 16t-65.5 44.5t-41.5 68t-14.5 86.5q0 66 27.5 131t69.5 124.5t92 112t95 92.5q15 14 27.5 23t24 13.5t24.5 6
t30 1.5t36 -4t35 -13t26.5 -24.5t10.5 -38.5q0 -5 -10 -17.5t-24.5 -27t-32 -30t-32.5 -26.5q9 22 11.5 42.5t0.5 36.5t-7.5 25t-12.5 9q-8 0 -18.5 -4t-21 -10t-20.5 -13t-16 -12h1q-43 -41 -85.5 -86.5t-77 -95.5t-56 -105.5t-21.5 -116.5v-10.5v-15.5t0.5 -15t0.5 -10
q8 -27 30.5 -50t48.5 -31q4 0 12 -0.5l16 -1t15 -0.5h9q39 0 80 9.5t75 30t56 52t22 75.5q0 5 -0.5 10t-2.5 5h-285l-35 36q15 12 32.5 20t33.5 12.5t29 6.5t19 2q7 0 24.5 0.5t37.5 0.5h39h31h27h41.5t41 -0.5t27.5 -0.5q2 -2 7 -6.5t10.5 -9.5t10.5 -10.5t7 -8.5v-12
q0 -51 -14 -97.5t-29 -91.5q-14 -39 -26 -80t-15 -94q-8 -2 -14 -3q-8 -2 -10 -2q-3 -1 -4 -1q-14 0 -22.5 6.5t-16.5 22.5v20zM365 946v-1q7 14 14.5 18t20.5 4t22 -4t13 -20q18 -37 37 -76.5t36 -74.5q0 -2 0.5 -10t0.5 -10q-18 -23 -33.5 -24t-29 11t-25.5 33t-22 43
q-2 4 -2 4.5v0.5v0.5t-3 4.5q-8 -12 -13.5 -22t-10.5 -18q-8 -11 -20.5 -31t-21.5 -33l-59 35z" />
    <glyph glyph-name="Gcommaaccent" unicode="&#x122;" horiz-adv-x="565" 
d="M405 -32q0 6 -0.5 11t-0.5 7q0 16 3 30.5t8 30.5q1 7 2 8t1.5 1t0.5 1.5v8.5q-8 -3 -16.5 -7.5t-19.5 -9.5q-35 -16 -74.5 -31.5t-80.5 -15.5q-48 0 -86.5 16t-65.5 44.5t-41.5 68t-14.5 86.5q0 66 27.5 131t69.5 124.5t92 112t95 92.5q15 14 27.5 23t24 13.5t24.5 6
t30 1.5t36 -4t35 -13t26.5 -24.5t10.5 -38.5q0 -5 -10 -17.5t-24.5 -27t-32 -30t-32.5 -26.5q9 22 11.5 42.5t0.5 36.5t-7.5 25t-12.5 9q-8 0 -18.5 -4t-21 -10t-20.5 -13t-16 -12h1q-43 -41 -85.5 -86.5t-77 -95.5t-56 -105.5t-21.5 -116.5v-10.5v-15.5t0.5 -15t0.5 -10
q8 -27 30.5 -50t48.5 -31q4 0 12 -0.5l16 -1t15 -0.5h9q39 0 80 9.5t75 30t56 52t22 75.5q0 5 -0.5 10t-2.5 5h-285l-35 36q15 12 32.5 20t33.5 12.5t29 6.5t19 2q7 0 24.5 0.5t37.5 0.5h39h31h27h41.5t41 -0.5t27.5 -0.5q2 -2 7 -6.5t10.5 -9.5t10.5 -10.5t7 -8.5v-12
q0 -51 -14 -97.5t-29 -91.5q-14 -39 -26 -80t-15 -94q-8 -2 -14 -3q-8 -2 -10 -2q-3 -1 -4 -1q-14 0 -22.5 6.5t-16.5 22.5v20zM264 -84q0 11 -1.5 19t-3.5 16q-3 11 -4.5 24t-1.5 42q23 0 40.5 -7.5t29 -19t17.5 -26t6 -28.5q0 -12 -8 -44t-21.5 -65.5t-33 -59.5t-41.5 -26
q-3 0 -13 2.5t-27 18.5q27 39 44.5 77t17.5 77z" />
    <glyph glyph-name="Gdotaccent" unicode="&#x120;" horiz-adv-x="565" 
d="M405 -32q0 6 -0.5 11t-0.5 7q0 16 3 30.5t8 30.5q1 7 2 8t1.5 1t0.5 1.5v8.5q-8 -3 -16.5 -7.5t-19.5 -9.5q-35 -16 -74.5 -31.5t-80.5 -15.5q-48 0 -86.5 16t-65.5 44.5t-41.5 68t-14.5 86.5q0 66 27.5 131t69.5 124.5t92 112t95 92.5q15 14 27.5 23t24 13.5t24.5 6
t30 1.5t36 -4t35 -13t26.5 -24.5t10.5 -38.5q0 -5 -10 -17.5t-24.5 -27t-32 -30t-32.5 -26.5q9 22 11.5 42.5t0.5 36.5t-7.5 25t-12.5 9q-8 0 -18.5 -4t-21 -10t-20.5 -13t-16 -12h1q-43 -41 -85.5 -86.5t-77 -95.5t-56 -105.5t-21.5 -116.5v-10.5v-15.5t0.5 -15t0.5 -10
q8 -27 30.5 -50t48.5 -31q4 0 12 -0.5l16 -1t15 -0.5h9q39 0 80 9.5t75 30t56 52t22 75.5q0 5 -0.5 10t-2.5 5h-285l-35 36q15 12 32.5 20t33.5 12.5t29 6.5t19 2q7 0 24.5 0.5t37.5 0.5h39h31h27h41.5t41 -0.5t27.5 -0.5q2 -2 7 -6.5t10.5 -9.5t10.5 -10.5t7 -8.5v-12
q0 -51 -14 -97.5t-29 -91.5q-14 -39 -26 -80t-15 -94q-8 -2 -14 -3q-8 -2 -10 -2q-3 -1 -4 -1q-14 0 -22.5 6.5t-16.5 22.5v20zM355 801q0 18 7.5 29.5t19.5 17.5t26.5 7.5t28.5 0.5q23 -5 31.5 -20.5t8.5 -30.5q0 -11 -6.5 -21.5t-16.5 -19.5t-21.5 -14.5t-20.5 -5.5
q-23 0 -40 17t-17 40z" />
    <glyph glyph-name="Hbar" unicode="&#x126;" horiz-adv-x="432" 
d="M15 259q9 81 19.5 170t19.5 170l26 1q26 0 39 -29q0 -3 0.5 -11t0.5 -17v-17v-11q0 -38 -4.5 -71.5t-9.5 -67.5q-5 -29 -8 -55t-5 -52q17 -2 24 0q6 0 21 1.5t33 4t37 4.5t34 4q8 1 7.5 0.5t3.5 -0.5q9 20 11 44t2 52q0 16 -0.5 32t-1.5 33q-1 14 -1.5 31t-0.5 30
q0 24 2 45.5t9 39.5q2 8 7.5 24t7.5 23q21 -2 33 -4.5t18 -7t7.5 -11t1.5 -16.5v-7q0 -7 -1.5 -29t-3 -51.5t-3.5 -64t-4 -65.5q-2 -26 -3 -48.5t-3 -36.5q5 0 10 0.5t11 0.5q14 0 36.5 -12t54.5 -44q-10 0 -28 -2.5t-37 -5.5t-34 -6t-18 -5q-2 -2 -5 3v-208q-6 0 -18 2.5
t-24 7.5t-21 11t-9 14v158q-1 0 -2 1q-20 -3 -47.5 -7t-53.5 -7.5t-44.5 -6.5l-18.5 -3q-2 -2 -2 -3t-3 -4v-186q-18 3 -31.5 11.5t-22 18.5t-13 20t-4.5 17v180zM29 463q19 4 39.5 5.5t43.5 1.5q17 0 33.5 -0.5t33.5 -1.5q11 0 27 -0.5t26 -0.5q28 0 49 3h8q5 0 11 -2h-1
q23 -6 30.5 -29.5t7.5 -57.5l-49 12q-48 -2 -93 -4t-93 -4q-6 -2 -11.5 0t-11.5 4q-2 0 -2.5 0.5t-1.5 0.5h-5q-8 2 -18 5t-19 8.5t-15 14t-7 21.5z" />
    <glyph glyph-name="Hcircumflex" unicode="&#x124;" horiz-adv-x="432" 
d="M15 259q9 81 19.5 170t19.5 170l26 1q26 0 39 -29q0 -3 0.5 -11t0.5 -17v-17v-11q0 -38 -4.5 -71.5t-9.5 -67.5q-5 -29 -8 -55t-5 -52q17 -2 24 0q6 0 21 1.5t33 4t37 4.5t34 4q8 1 7.5 0.5t3.5 -0.5q9 20 11 44t2 52q0 16 -0.5 32t-1.5 33q-1 14 -1.5 31t-0.5 30
q0 24 2 45.5t9 39.5q2 8 7.5 24t7.5 23q21 -2 33 -4.5t18 -7t7.5 -11t1.5 -16.5v-7q0 -7 -1.5 -29t-3 -51.5t-3.5 -64t-4 -65.5q-2 -26 -3 -48.5t-3 -36.5q5 0 10 0.5t11 0.5q14 0 36.5 -12t54.5 -44q-10 0 -28 -2.5t-37 -5.5t-34 -6t-18 -5q-2 -2 -5 3v-208q-6 0 -18 2.5
t-24 7.5t-21 11t-9 14v158q-1 0 -2 1q-20 -3 -47.5 -7t-53.5 -7.5t-44.5 -6.5l-18.5 -3q-2 -2 -2 -3t-3 -4v-186q-18 3 -31.5 11.5t-22 18.5t-13 20t-4.5 17v180zM166 889v-1q7 14 14.5 18t20.5 4t22 -4t13 -20q18 -37 37 -76.5t36 -74.5q0 -2 0.5 -10t0.5 -10
q-18 -23 -33.5 -24t-29 11t-25.5 33t-22 43q-2 4 -2 4.5v0.5v0.5t-3 4.5q-8 -12 -13.5 -22t-10.5 -18q-8 -11 -20.5 -31t-21.5 -33l-59 35z" />
    <glyph glyph-name="Iacute" unicode="&#xcd;" horiz-adv-x="624" 
d="M2 62q4 9 14 15.5t21.5 10t21 5t11.5 1.5q4 -2 8 -3q3 -2 7 -2.5t8 -2.5q0 -1 -1 -1h1q5 0 14.5 -0.5t14.5 -0.5t13 0.5t13 0.5h4q8 2 22.5 5.5t30 7.5t29.5 8t22 6q6 2 7 6.5t2 15.5q0 2 0.5 4.5t0.5 5.5v99v74.5t-0.5 61.5t-2 63t-4.5 80h-151q0 8 2.5 19t6.5 21.5
t10 18t13 8.5q80 11 161 23t160 23h58q0 -21 -5 -34.5t-12 -22t-15 -12.5l-14 -7q-8 -3 -25.5 -8.5t-36.5 -12t-36.5 -12t-25.5 -8.5q-2 -13 -3.5 -27t-2.5 -28v-332q13 1 24 2.5t25 2.5q19 2 39.5 3.5t41.5 1.5q5 0 16 -0.5t25 -0.5h42q2 0 7.5 -2t11 -4.5t10 -5.5t6.5 -5
t7 -11t5 -36h-52h-43.5t-38.5 -1.5t-38.5 -4t-44.5 -6.5q-25 -5 -51 -11t-50 -12h1q-51 -14 -101 -24t-104 -10q-4 0 -11.5 0.5t-15.5 1t-15 1.5t-9 2l-22 23zM247 731q-12 14 -15.5 23t-3.5 20l1 -3q-1 3 -0.5 7t1.5 7q1 4 1 8l111 105q9 9 22.5 8.5t24.5 -7.5
q11 -4 17 -10t-3 -23t-36.5 -49t-84.5 -88z" />
    <glyph glyph-name="Ibreve" unicode="&#x12c;" horiz-adv-x="624" 
d="M2 62q4 9 14 15.5t21.5 10t21 5t11.5 1.5q4 -2 8 -3q3 -2 7 -2.5t8 -2.5q0 -1 -1 -1h1q5 0 14.5 -0.5t14.5 -0.5t13 0.5t13 0.5h4q8 2 22.5 5.5t30 7.5t29.5 8t22 6q6 2 7 6.5t2 15.5q0 2 0.5 4.5t0.5 5.5v99v74.5t-0.5 61.5t-2 63t-4.5 80h-151q0 8 2.5 19t6.5 21.5
t10 18t13 8.5q80 11 161 23t160 23h58q0 -21 -5 -34.5t-12 -22t-15 -12.5l-14 -7q-8 -3 -25.5 -8.5t-36.5 -12t-36.5 -12t-25.5 -8.5q-2 -13 -3.5 -27t-2.5 -28v-332q13 1 24 2.5t25 2.5q19 2 39.5 3.5t41.5 1.5q5 0 16 -0.5t25 -0.5h42q2 0 7.5 -2t11 -4.5t10 -5.5t6.5 -5
t7 -11t5 -36h-52h-43.5t-38.5 -1.5t-38.5 -4t-44.5 -6.5q-25 -5 -51 -11t-50 -12h1q-51 -14 -101 -24t-104 -10q-4 0 -11.5 0.5t-15.5 1t-15 1.5t-9 2l-22 23zM235 911q12 -51 34.5 -79.5t45.5 -28.5q19 0 36.5 19.5t28.5 64.5q34 36 53 23.5t9 -61.5l1 3q-3 -24 -15 -46.5
t-30.5 -40.5t-41.5 -28.5t-48 -10.5q-40 0 -79.5 37.5t-67.5 130.5z" />
    <glyph glyph-name="Icircumflex" unicode="&#xce;" horiz-adv-x="624" 
d="M2 62q4 9 14 15.5t21.5 10t21 5t11.5 1.5q4 -2 8 -3q3 -2 7 -2.5t8 -2.5q0 -1 -1 -1h1q5 0 14.5 -0.5t14.5 -0.5t13 0.5t13 0.5h4q8 2 22.5 5.5t30 7.5t29.5 8t22 6q6 2 7 6.5t2 15.5q0 2 0.5 4.5t0.5 5.5v99v74.5t-0.5 61.5t-2 63t-4.5 80h-151q0 8 2.5 19t6.5 21.5
t10 18t13 8.5q80 11 161 23t160 23h58q0 -21 -5 -34.5t-12 -22t-15 -12.5l-14 -7q-8 -3 -25.5 -8.5t-36.5 -12t-36.5 -12t-25.5 -8.5q-2 -13 -3.5 -27t-2.5 -28v-332q13 1 24 2.5t25 2.5q19 2 39.5 3.5t41.5 1.5q5 0 16 -0.5t25 -0.5h42q2 0 7.5 -2t11 -4.5t10 -5.5t6.5 -5
t7 -11t5 -36h-52h-43.5t-38.5 -1.5t-38.5 -4t-44.5 -6.5q-25 -5 -51 -11t-50 -12h1q-51 -14 -101 -24t-104 -10q-4 0 -11.5 0.5t-15.5 1t-15 1.5t-9 2l-22 23zM277 884v-1q7 14 14.5 18t20.5 4t22 -4t13 -20q18 -37 37 -76.5t36 -74.5q0 -2 0.5 -10t0.5 -10
q-18 -23 -33.5 -24t-29 11t-25.5 33t-22 43q-2 4 -2 4.5v0.5v0.5t-3 4.5q-8 -12 -13.5 -22t-10.5 -18q-8 -11 -20.5 -31t-21.5 -33l-59 35z" />
    <glyph glyph-name="Idieresis" unicode="&#xcf;" horiz-adv-x="624" 
d="M2 62q4 9 14 15.5t21.5 10t21 5t11.5 1.5q4 -2 8 -3q3 -2 7 -2.5t8 -2.5q0 -1 -1 -1h1q5 0 14.5 -0.5t14.5 -0.5t13 0.5t13 0.5h4q8 2 22.5 5.5t30 7.5t29.5 8t22 6q6 2 7 6.5t2 15.5q0 2 0.5 4.5t0.5 5.5v99v74.5t-0.5 61.5t-2 63t-4.5 80h-151q0 8 2.5 19t6.5 21.5
t10 18t13 8.5q80 11 161 23t160 23h58q0 -21 -5 -34.5t-12 -22t-15 -12.5l-14 -7q-8 -3 -25.5 -8.5t-36.5 -12t-36.5 -12t-25.5 -8.5q-2 -13 -3.5 -27t-2.5 -28v-332q13 1 24 2.5t25 2.5q19 2 39.5 3.5t41.5 1.5q5 0 16 -0.5t25 -0.5h42q2 0 7.5 -2t11 -4.5t10 -5.5t6.5 -5
t7 -11t5 -36h-52h-43.5t-38.5 -1.5t-38.5 -4t-44.5 -6.5q-25 -5 -51 -11t-50 -12h1q-51 -14 -101 -24t-104 -10q-4 0 -11.5 0.5t-15.5 1t-15 1.5t-9 2l-22 23zM202 788q0 18 7.5 30t19.5 18.5t26.5 8t28.5 -0.5q23 -4 31 -20t8 -31q0 -11 -6.5 -21.5t-16.5 -19t-21 -14
t-21 -5.5q-23 0 -39.5 16t-16.5 39zM349 789q0 36 22.5 45.5t51.5 5.5q23 -4 31.5 -20t8.5 -31q0 -11 -6.5 -21.5t-16.5 -19t-21.5 -14t-20.5 -5.5q-23 0 -36 18.5t-13 41.5z" />
    <glyph glyph-name="Idotaccent" unicode="&#x130;" horiz-adv-x="624" 
d="M2 62q4 9 14 15.5t21.5 10t21 5t11.5 1.5q4 -2 8 -3q3 -2 7 -2.5t8 -2.5q0 -1 -1 -1h1q5 0 14.5 -0.5t14.5 -0.5t13 0.5t13 0.5h4q8 2 22.5 5.5t30 7.5t29.5 8t22 6q6 2 7 6.5t2 15.5q0 2 0.5 4.5t0.5 5.5v99v74.5t-0.5 61.5t-2 63t-4.5 80h-151q0 8 2.5 19t6.5 21.5
t10 18t13 8.5q80 11 161 23t160 23h58q0 -21 -5 -34.5t-12 -22t-15 -12.5l-14 -7q-8 -3 -25.5 -8.5t-36.5 -12t-36.5 -12t-25.5 -8.5q-2 -13 -3.5 -27t-2.5 -28v-332q13 1 24 2.5t25 2.5q19 2 39.5 3.5t41.5 1.5q5 0 16 -0.5t25 -0.5h42q2 0 7.5 -2t11 -4.5t10 -5.5t6.5 -5
t7 -11t5 -36h-52h-43.5t-38.5 -1.5t-38.5 -4t-44.5 -6.5q-25 -5 -51 -11t-50 -12h1q-51 -14 -101 -24t-104 -10q-4 0 -11.5 0.5t-15.5 1t-15 1.5t-9 2l-22 23zM253 784q0 18 7.5 29.5t19.5 17.5t26.5 7.5t28.5 0.5q23 -5 31.5 -20.5t8.5 -30.5q0 -11 -6.5 -21.5t-16.5 -19.5
t-21.5 -14.5t-20.5 -5.5q-23 0 -40 17t-17 40z" />
    <glyph glyph-name="Igrave" unicode="&#xcc;" horiz-adv-x="624" 
d="M2 62q4 9 14 15.5t21.5 10t21 5t11.5 1.5q4 -2 8 -3q3 -2 7 -2.5t8 -2.5q0 -1 -1 -1h1q5 0 14.5 -0.5t14.5 -0.5t13 0.5t13 0.5h4q8 2 22.5 5.5t30 7.5t29.5 8t22 6q6 2 7 6.5t2 15.5q0 2 0.5 4.5t0.5 5.5v99v74.5t-0.5 61.5t-2 63t-4.5 80h-151q0 8 2.5 19t6.5 21.5
t10 18t13 8.5q80 11 161 23t160 23h58q0 -21 -5 -34.5t-12 -22t-15 -12.5l-14 -7q-8 -3 -25.5 -8.5t-36.5 -12t-36.5 -12t-25.5 -8.5q-2 -13 -3.5 -27t-2.5 -28v-332q13 1 24 2.5t25 2.5q19 2 39.5 3.5t41.5 1.5q5 0 16 -0.5t25 -0.5h42q2 0 7.5 -2t11 -4.5t10 -5.5t6.5 -5
t7 -11t5 -36h-52h-43.5t-38.5 -1.5t-38.5 -4t-44.5 -6.5q-25 -5 -51 -11t-50 -12h1q-51 -14 -101 -24t-104 -10q-4 0 -11.5 0.5t-15.5 1t-15 1.5t-9 2l-22 23zM347 680q-57 56 -84.5 88t-36.5 49t-3 23t17 10q12 7 25 8t23 -10l-1 1q26 -24 54.5 -53t54.5 -53q2 -6 3 -10
q2 -10 2 -11q0 -9 -4 -17.5t-15 -22.5z" />
    <glyph glyph-name="Imacron" horiz-adv-x="624" 
d="M2 62q4 9 14 15.5t21.5 10t21 5t11.5 1.5q4 -2 8 -3q3 -2 7 -2.5t8 -2.5q0 -1 -1 -1h1q5 0 14.5 -0.5t14.5 -0.5t13 0.5t13 0.5h4q8 2 22.5 5.5t30 7.5t29.5 8t22 6q6 2 7 6.5t2 15.5q0 2 0.5 4.5t0.5 5.5v99v74.5t-0.5 61.5t-2 63t-4.5 80h-151q0 8 2.5 19t6.5 21.5
t10 18t13 8.5q80 11 161 23t160 23h58q0 -21 -5 -34.5t-12 -22t-15 -12.5l-14 -7q-8 -3 -25.5 -8.5t-36.5 -12t-36.5 -12t-25.5 -8.5q-2 -13 -3.5 -27t-2.5 -28v-332q13 1 24 2.5t25 2.5q19 2 39.5 3.5t41.5 1.5q5 0 16 -0.5t25 -0.5h42q2 0 7.5 -2t11 -4.5t10 -5.5t6.5 -5
t7 -11t5 -36h-52h-43.5t-38.5 -1.5t-38.5 -4t-44.5 -6.5q-25 -5 -51 -11t-50 -12h1q-51 -14 -101 -24t-104 -10q-4 0 -11.5 0.5t-15.5 1t-15 1.5t-9 2l-22 23zM163 811q19 4 39.5 5.5t43.5 1.5q17 0 33.5 -0.5t33.5 -1.5q11 0 27 -0.5t26 -0.5q28 0 49 3h8q5 0 11 -2h-1
q23 -6 30.5 -29.5t7.5 -57.5l-49 12q-48 -2 -93 -4t-93 -4q-6 -2 -11.5 0t-11.5 4q-2 0 -2.5 0.5t-1.5 0.5h-5q-8 2 -18 5t-19 8.5t-15 14t-7 21.5z" />
    <glyph glyph-name="Iogonek" unicode="&#x12e;" horiz-adv-x="624" 
d="M2 62q4 9 14 15.5t21.5 10t21 5t11.5 1.5q4 -2 8 -3q3 -2 7 -2.5t8 -2.5q0 -1 -1 -1h1q5 0 14.5 -0.5t14.5 -0.5t13 0.5t13 0.5h4q8 2 22.5 5.5t30 7.5t29.5 8t22 6q6 2 7 6.5t2 15.5q0 2 0.5 4.5t0.5 5.5v99v74.5t-0.5 61.5t-2 63t-4.5 80h-151q0 8 2.5 19t6.5 21.5
t10 18t13 8.5q80 11 161 23t160 23h58q0 -21 -5 -34.5t-12 -22t-15 -12.5l-14 -7q-8 -3 -25.5 -8.5t-36.5 -12t-36.5 -12t-25.5 -8.5q-2 -13 -3.5 -27t-2.5 -28v-332q13 1 24 2.5t25 2.5q19 2 39.5 3.5t41.5 1.5q5 0 16 -0.5t25 -0.5h42q2 0 7.5 -2t11 -4.5t10 -5.5t6.5 -5
t7 -11t5 -36h-52h-43.5t-38.5 -1.5t-38.5 -4t-44.5 -6.5q-25 -5 -51 -11t-50 -12h1q-51 -14 -101 -24t-104 -10q-4 0 -11.5 0.5t-15.5 1t-15 1.5t-9 2l-22 23zM602 -145q-27 1 -53 8t-45.5 18.5t-31.5 27t-12 35.5t10 42t26 45t36.5 46t41.5 46l4 -61q-10 -11 -18 -26.5
t-13.5 -31t-9 -29.5t-3.5 -23q1 -26 66 -26z" />
    <glyph glyph-name="Itilde" unicode="&#x128;" horiz-adv-x="624" 
d="M2 62q4 9 14 15.5t21.5 10t21 5t11.5 1.5q4 -2 8 -3q3 -2 7 -2.5t8 -2.5q0 -1 -1 -1h1q5 0 14.5 -0.5t14.5 -0.5t13 0.5t13 0.5h4q8 2 22.5 5.5t30 7.5t29.5 8t22 6q6 2 7 6.5t2 15.5q0 2 0.5 4.5t0.5 5.5v99v74.5t-0.5 61.5t-2 63t-4.5 80h-151q0 8 2.5 19t6.5 21.5
t10 18t13 8.5q80 11 161 23t160 23h58q0 -21 -5 -34.5t-12 -22t-15 -12.5l-14 -7q-8 -3 -25.5 -8.5t-36.5 -12t-36.5 -12t-25.5 -8.5q-2 -13 -3.5 -27t-2.5 -28v-332q13 1 24 2.5t25 2.5q19 2 39.5 3.5t41.5 1.5q5 0 16 -0.5t25 -0.5h42q2 0 7.5 -2t11 -4.5t10 -5.5t6.5 -5
t7 -11t5 -36h-52h-43.5t-38.5 -1.5t-38.5 -4t-44.5 -6.5q-25 -5 -51 -11t-50 -12h1q-51 -14 -101 -24t-104 -10q-4 0 -11.5 0.5t-15.5 1t-15 1.5t-9 2l-22 23zM343 723q-24 0 -38.5 6.5t-23.5 17.5t-13.5 25.5t-8.5 29.5q-4 13 -9 24.5t-13 14.5q-26 -2 -44 -18.5t-37 -38.5
v1q-2 -3 -5.5 -6.5l-6.5 -6.5q-12 -13 -31.5 -16t-44.5 -3q0 18 1.5 28t4.5 16t7 9t8 7l2 1q8 8 15 15.5t14 15.5q12 13 23 25t25 21t32.5 15.5t45.5 8.5q11 0 18.5 -1.5t14 -6t13 -12.5t15.5 -20q3 -7 6 -18.5t6 -21.5q3 -17 9 -30t21 -11q14 -1 30.5 14t31.5 32
q13 15 26.5 28t28.5 19.5t31 3.5t36 -19q0 -11 -4 -21q-2 -4 -3 -8q-50 -42 -83 -67t-53 -37t-30.5 -15t-16.5 -1zM335 726q2 -3 8 -3q-2 0 -4 1z" />
    <glyph glyph-name="Jcircumflex" unicode="&#x134;" horiz-adv-x="609" 
d="M58 140l22 -11q24 -13 44.5 -23t40.5 -17t41 -10.5t48 -3.5q12 0 26 1.5t25.5 7t19 14.5t5.5 24l-44 354h-180q-5 0 -14 1.5t-19.5 6t-20.5 11.5t-16 18h-0.5t-4 3t-10.5 10l-20 20q9 0 33.5 0.5t56.5 1t67.5 1t67 1.5t56 1.5t34.5 1.5q25 2 52.5 6t55.5 9q32 5 68 10
t90 5q0 -19 -6.5 -41.5t-22.5 -27.5l-192 -55q2 -2 4.5 -12.5t3.5 -13.5q0 -38 4.5 -75.5t9.5 -75.5t9.5 -75.5t4.5 -76.5q0 -66 -37.5 -98.5t-101.5 -32.5q-13 0 -37 6t-53 16t-59.5 24t-55 29.5t-40.5 32.5t-16 33h61zM270 884v-1q7 14 14.5 18t20.5 4t22 -4t13 -20
q18 -37 37 -76.5t36 -74.5q0 -2 0.5 -10t0.5 -10q-18 -23 -33.5 -24t-29 11t-25.5 33t-22 43q-2 4 -2 4.5v0.5v0.5t-3 4.5q-8 -12 -13.5 -22t-10.5 -18q-8 -11 -20.5 -31t-21.5 -33l-59 35z" />
    <glyph glyph-name="Kcommaaccent" unicode="&#x136;" horiz-adv-x="462" 
d="M124 28h-76v140q-11 8 -23 19.5t-16 16.5l-2 8q-2 8 -2 9q0 18 6.5 31t16.5 26q5 8 10 17t5 20q0 38 -1.5 73.5t-3.5 73.5q-2 36 -3.5 73t-1.5 74v4v16.5t3.5 16t11.5 12.5t24 5h26q5 -48 8 -105t5 -105q1 -18 1 -27v-16.5t0.5 -16.5t2.5 -27q54 57 109 116.5t107 116.5
l14 1q4 0 13 -3.5t16.5 -10t10 -15.5t-4.5 -20q-5 -7 -10 -15l-10 -16q-8 -9 -25.5 -27.5t-39 -41.5t-45.5 -49t-46 -49.5t-39 -42t-25 -27.5l-8 -9h1q-11 -12 -13.5 -17t-2.5 -21v-7q0 -6 0.5 -10.5t5.5 -6.5q75 -35 151 -69l152 -68q5 -4 14 -16t9 -16q0 -3 -3.5 -9.5
t-8.5 -14t-10.5 -14t-9.5 -9.5q-15 8 -38 20t-39 21q-26 15 -53 29.5t-54 26.5t-54.5 20.5t-54.5 10.5v-96zM57 203q-6 3 -9 8t-2.5 11t4 11t10.5 7q-19 -7 -18 -21.5t21 -17.5zM213 -84q0 11 -1.5 19t-3.5 16q-3 11 -4.5 24t-1.5 42q23 0 40.5 -7.5t29 -19t17.5 -26
t6 -28.5q0 -12 -8 -44t-21.5 -65.5t-33 -59.5t-41.5 -26q-3 0 -13 2.5t-27 18.5q27 39 44.5 77t17.5 77z" />
    <glyph glyph-name="Lacute" unicode="&#x139;" horiz-adv-x="609" 
d="M8 163q0 63 9 126t23.5 125.5t33 123t37.5 118.5q2 7 7 22l7 21h22q16 0 27.5 -10.5t11.5 -26.5v-8l-94 -343v1q-3 -14 -5 -31.5t-3 -36t-1 -36.5v-33v-14q0 -23 0.5 -41t8.5 -38l218 76l-7 -5q10 5 29.5 5.5t30.5 0.5h11h30.5t27 -1t29 -3.5t35.5 -6.5q10 -2 26 -7.5
t31 -12.5t25.5 -13t10.5 -9v-44q-42 0 -69.5 3t-50.5 8q-23 4 -45 7.5t-42 3.5h-14.5t-19 -0.5t-16.5 -1t-8 -0.5q-11 -2 -31.5 -8t-37.5 -11h1q-9 -2 -16.5 -4.5t-9.5 -3.5h-11q-33 -14 -68.5 -28t-68.5 -27q-2 -1 -4 -1h-9q-24 0 -36.5 18t-18 43t-6 51.5t-0.5 43.5v8v0z
M239 731q-12 14 -15.5 23t-3.5 20l1 -3q-1 3 -0.5 7t1.5 7q1 4 1 8l111 105q9 9 22.5 8.5t24.5 -7.5q11 -4 17 -10t-3 -23t-36.5 -49t-84.5 -88z" />
    <glyph glyph-name="Lcaron" unicode="&#x13d;" horiz-adv-x="609" 
d="M8 163q0 63 9 126t23.5 125.5t33 123t37.5 118.5q2 7 7 22l7 21h22q16 0 27.5 -10.5t11.5 -26.5v-8l-94 -343v1q-3 -14 -5 -31.5t-3 -36t-1 -36.5v-33v-14q0 -23 0.5 -41t8.5 -38l218 76l-7 -5q10 5 29.5 5.5t30.5 0.5h11h30.5t27 -1t29 -3.5t35.5 -6.5q10 -2 26 -7.5
t31 -12.5t25.5 -13t10.5 -9v-44q-42 0 -69.5 3t-50.5 8q-23 4 -45 7.5t-42 3.5h-14.5t-19 -0.5t-16.5 -1t-8 -0.5q-11 -2 -31.5 -8t-37.5 -11h1q-9 -2 -16.5 -4.5t-9.5 -3.5h-11q-33 -14 -68.5 -28t-68.5 -27q-2 -1 -4 -1h-9q-24 0 -36.5 18t-18 43t-6 51.5t-0.5 43.5v8v0z
M283 692q20 0 30.5 -9.5t15 -23t4.5 -29v-27.5v-8q0 -21 -0.5 -39t-2 -38t-4 -44.5t-7.5 -57.5q-8 5 -18.5 14t-19.5 19t-15.5 18.5t-6.5 13.5v187z" />
    <glyph glyph-name="Lcommaaccent" unicode="&#x13b;" horiz-adv-x="609" 
d="M8 163q0 63 9 126t23.5 125.5t33 123t37.5 118.5q2 7 7 22l7 21h22q16 0 27.5 -10.5t11.5 -26.5v-8l-94 -343v1q-3 -14 -5 -31.5t-3 -36t-1 -36.5v-33v-14q0 -23 0.5 -41t8.5 -38l218 76l-7 -5q10 5 29.5 5.5t30.5 0.5h11h30.5t27 -1t29 -3.5t35.5 -6.5q10 -2 26 -7.5
t31 -12.5t25.5 -13t10.5 -9v-44q-42 0 -69.5 3t-50.5 8q-23 4 -45 7.5t-42 3.5h-14.5t-19 -0.5t-16.5 -1t-8 -0.5q-11 -2 -31.5 -8t-37.5 -11h1q-9 -2 -16.5 -4.5t-9.5 -3.5h-11q-33 -14 -68.5 -28t-68.5 -27q-2 -1 -4 -1h-9q-24 0 -36.5 18t-18 43t-6 51.5t-0.5 43.5v8v0z
M286 -84q0 11 -1.5 19t-3.5 16q-3 11 -4.5 24t-1.5 42q23 0 40.5 -7.5t29 -19t17.5 -26t6 -28.5q0 -12 -8 -44t-21.5 -65.5t-33 -59.5t-41.5 -26q-3 0 -13 2.5t-27 18.5q27 39 44.5 77t17.5 77z" />
    <glyph glyph-name="Ldot" unicode="&#x13f;" horiz-adv-x="609" 
d="M8 163q0 63 9 126t23.5 125.5t33 123t37.5 118.5q2 7 7 22l7 21h22q16 0 27.5 -10.5t11.5 -26.5v-8l-94 -343v1q-3 -14 -5 -31.5t-3 -36t-1 -36.5v-33v-14q0 -23 0.5 -41t8.5 -38l218 76l-7 -5q10 5 29.5 5.5t30.5 0.5h11h30.5t27 -1t29 -3.5t35.5 -6.5q10 -2 26 -7.5
t31 -12.5t25.5 -13t10.5 -9v-44q-42 0 -69.5 3t-50.5 8q-23 4 -45 7.5t-42 3.5h-14.5t-19 -0.5t-16.5 -1t-8 -0.5q-11 -2 -31.5 -8t-37.5 -11h1q-9 -2 -16.5 -4.5t-9.5 -3.5h-11q-33 -14 -68.5 -28t-68.5 -27q-2 -1 -4 -1h-9q-24 0 -36.5 18t-18 43t-6 51.5t-0.5 43.5v8v0z
M246 365q0 18 7.5 29.5t19.5 17.5t26.5 7.5t28.5 0.5q23 -5 31.5 -20.5t8.5 -30.5q0 -11 -6.5 -21.5t-16.5 -19.5t-21.5 -14.5t-20.5 -5.5q-23 0 -40 17t-17 40z" />
    <glyph glyph-name="Nacute" unicode="&#x143;" horiz-adv-x="619" 
d="M13 269q0 11 0.5 31.5t0.5 36.5v149q0 56 4.5 115t21.5 116q1 0 10.5 0.5t10.5 0.5q18 0 26.5 -8t14.5 -17l-3 2q1 -1 2.5 -3t2.5 -3q6 -12 18.5 -36t28.5 -54.5t34 -63.5t34.5 -63t29.5 -53.5t20 -34.5v1q3 -5 19.5 -27.5t37 -49.5t40.5 -53.5t31 -40.5h-1q1 -3 6 -8.5
t11 -12t13 -13t12 -9.5l71 497l23 82q5 1 9 2l8 2t6 1q16 0 24.5 -5t12 -13t3.5 -17.5v-17.5q0 -16 -3.5 -26t-8.5 -20q-6 -10 -7 -20q-17 -121 -32.5 -243.5t-32.5 -243.5q-1 -10 -2.5 -21.5t-7 -21.5t-15 -17t-26.5 -7h-18q-5 3 -16 11.5t-24 18t-24 18t-15 12.5
q-3 2 -12 11.5t-12 12.5q-14 19 -38 51.5t-48 65.5t-42 58t-20 29l1 -1q-14 22 -27.5 48t-26.5 53v-1q-8 17 -9.5 23.5t-2.5 10.5t-4 9.5t-15 20.5q-1 -42 -2.5 -94t-2.5 -101.5t-2 -90t-1 -58.5v-165l-28 -28q-14 5 -24 24.5t-16.5 46.5t-10 58.5t-5 60t-2 51t-0.5 32.5z
M244 731q-12 14 -15.5 23t-3.5 20l1 -3q-1 3 -0.5 7t1.5 7q1 4 1 8l111 105q9 9 22.5 8.5t24.5 -7.5q11 -4 17 -10t-3 -23t-36.5 -49t-84.5 -88z" />
    <glyph glyph-name="Ncaron" unicode="&#x147;" horiz-adv-x="619" 
d="M13 269q0 11 0.5 31.5t0.5 36.5v149q0 56 4.5 115t21.5 116q1 0 10.5 0.5t10.5 0.5q18 0 26.5 -8t14.5 -17l-3 2q1 -1 2.5 -3t2.5 -3q6 -12 18.5 -36t28.5 -54.5t34 -63.5t34.5 -63t29.5 -53.5t20 -34.5v1q3 -5 19.5 -27.5t37 -49.5t40.5 -53.5t31 -40.5h-1q1 -3 6 -8.5
t11 -12t13 -13t12 -9.5l71 497l23 82q5 1 9 2l8 2t6 1q16 0 24.5 -5t12 -13t3.5 -17.5v-17.5q0 -16 -3.5 -26t-8.5 -20q-6 -10 -7 -20q-17 -121 -32.5 -243.5t-32.5 -243.5q-1 -10 -2.5 -21.5t-7 -21.5t-15 -17t-26.5 -7h-18q-5 3 -16 11.5t-24 18t-24 18t-15 12.5
q-3 2 -12 11.5t-12 12.5q-14 19 -38 51.5t-48 65.5t-42 58t-20 29l1 -1q-14 22 -27.5 48t-26.5 53v-1q-8 17 -9.5 23.5t-2.5 10.5t-4 9.5t-15 20.5q-1 -42 -2.5 -94t-2.5 -101.5t-2 -90t-1 -58.5v-165l-28 -28q-14 5 -24 24.5t-16.5 46.5t-10 58.5t-5 60t-2 51t-0.5 32.5z
M171 942l77 17q8 -10 13.5 -18.5t7.5 -12.5q17 -26 32 -47t32 -44q4 5 7.5 9t6.5 9q8 11 15.5 21.5t9.5 16.5l-1 -2q4 14 12 26q7 11 17.5 21t26.5 15q16 -19 21 -28t5 -20q0 -1 -0.5 -3t-0.5 -4q-1 -3 -1 -6l-74 -141q-4 -11 -14 -16t-20 -5q-14 0 -20.5 4t-12.5 12z" />
    <glyph glyph-name="Ncommaaccent" unicode="&#x145;" horiz-adv-x="619" 
d="M13 269q0 11 0.5 31.5t0.5 36.5v149q0 56 4.5 115t21.5 116q1 0 10.5 0.5t10.5 0.5q18 0 26.5 -8t14.5 -17l-3 2q1 -1 2.5 -3t2.5 -3q6 -12 18.5 -36t28.5 -54.5t34 -63.5t34.5 -63t29.5 -53.5t20 -34.5v1q3 -5 19.5 -27.5t37 -49.5t40.5 -53.5t31 -40.5h-1q1 -3 6 -8.5
t11 -12t13 -13t12 -9.5l71 497l23 82q5 1 9 2l8 2t6 1q16 0 24.5 -5t12 -13t3.5 -17.5v-17.5q0 -16 -3.5 -26t-8.5 -20q-6 -10 -7 -20q-17 -121 -32.5 -243.5t-32.5 -243.5q-1 -10 -2.5 -21.5t-7 -21.5t-15 -17t-26.5 -7h-18q-5 3 -16 11.5t-24 18t-24 18t-15 12.5
q-3 2 -12 11.5t-12 12.5q-14 19 -38 51.5t-48 65.5t-42 58t-20 29l1 -1q-14 22 -27.5 48t-26.5 53v-1q-8 17 -9.5 23.5t-2.5 10.5t-4 9.5t-15 20.5q-1 -42 -2.5 -94t-2.5 -101.5t-2 -90t-1 -58.5v-165l-28 -28q-14 5 -24 24.5t-16.5 46.5t-10 58.5t-5 60t-2 51t-0.5 32.5z
M291 -84q0 11 -1.5 19t-3.5 16q-3 11 -4.5 24t-1.5 42q23 0 40.5 -7.5t29 -19t17.5 -26t6 -28.5q0 -12 -8 -44t-21.5 -65.5t-33 -59.5t-41.5 -26q-3 0 -13 2.5t-27 18.5q27 39 44.5 77t17.5 77z" />
    <glyph glyph-name="Ntilde" unicode="&#xd1;" horiz-adv-x="619" 
d="M13 269q0 11 0.5 31.5t0.5 36.5v149q0 56 4.5 115t21.5 116q1 0 10.5 0.5t10.5 0.5q18 0 26.5 -8t14.5 -17l-3 2q1 -1 2.5 -3t2.5 -3q6 -12 18.5 -36t28.5 -54.5t34 -63.5t34.5 -63t29.5 -53.5t20 -34.5v1q3 -5 19.5 -27.5t37 -49.5t40.5 -53.5t31 -40.5h-1q1 -3 6 -8.5
t11 -12t13 -13t12 -9.5l71 497l23 82q5 1 9 2l8 2t6 1q16 0 24.5 -5t12 -13t3.5 -17.5v-17.5q0 -16 -3.5 -26t-8.5 -20q-6 -10 -7 -20q-17 -121 -32.5 -243.5t-32.5 -243.5q-1 -10 -2.5 -21.5t-7 -21.5t-15 -17t-26.5 -7h-18q-5 3 -16 11.5t-24 18t-24 18t-15 12.5
q-3 2 -12 11.5t-12 12.5q-14 19 -38 51.5t-48 65.5t-42 58t-20 29l1 -1q-14 22 -27.5 48t-26.5 53v-1q-8 17 -9.5 23.5t-2.5 10.5t-4 9.5t-15 20.5q-1 -42 -2.5 -94t-2.5 -101.5t-2 -90t-1 -58.5v-165l-28 -28q-14 5 -24 24.5t-16.5 46.5t-10 58.5t-5 60t-2 51t-0.5 32.5z
M341 723q-24 0 -38.5 6.5t-23.5 17.5t-13.5 25.5t-8.5 29.5q-4 13 -9 24.5t-13 14.5q-26 -2 -44 -18.5t-37 -38.5v1q-2 -3 -5.5 -6.5l-6.5 -6.5q-12 -13 -31.5 -16t-44.5 -3q0 18 1.5 28t4.5 16t7 9t8 7l2 1q8 8 15 15.5t14 15.5q12 13 23 25t25 21t32.5 15.5t45.5 8.5
q11 0 18.5 -1.5t14 -6t13 -12.5t15.5 -20q3 -7 6 -18.5t6 -21.5q3 -17 9 -30t21 -11q14 -1 30.5 14t31.5 32q13 15 26.5 28t28.5 19.5t31 3.5t36 -19q0 -11 -4 -21q-2 -4 -3 -8q-50 -42 -83 -67t-53 -37t-30.5 -15t-16.5 -1zM333 726q2 -3 8 -3q-2 0 -4 1z" />
    <glyph glyph-name="Oacute" unicode="&#xd3;" horiz-adv-x="511" 
d="M6 336q0 39 4 82t16.5 83.5t35.5 77.5t61 64q7 1 27 2.5t38 3.5q17 2 31.5 3t22.5 1h10q66 0 110 -24.5t69.5 -65t36 -93t10.5 -109.5q0 -30 -6.5 -68t-19.5 -78t-32.5 -78.5t-46.5 -69t-60.5 -49t-74.5 -18.5q-69 0 -114 33t-71 82.5t-36.5 108.5t-10.5 112zM81 323
q0 -38 7 -81t24.5 -80t47 -61.5t73.5 -24.5q47 0 81 30.5t55.5 75t31.5 94.5t10 89q0 41 -7 79.5t-24.5 68t-47.5 47.5t-76 18q-41 0 -65.5 -7t-38 -25t-18.5 -47.5t-6 -74.5l-41 -8l-1 1q-3 -20 -3 -28q0 -2 -0.5 -10t-1 -18.5t-0.5 -21v-16.5zM190 731q-12 14 -15.5 23
t-3.5 20l1 -3q-1 3 -0.5 7t1.5 7q1 4 1 8l111 105q9 9 22.5 8.5t24.5 -7.5q11 -4 17 -10t-3 -23t-36.5 -49t-84.5 -88z" />
    <glyph glyph-name="Obreve" unicode="&#x14e;" horiz-adv-x="511" 
d="M6 336q0 39 4 82t16.5 83.5t35.5 77.5t61 64q7 1 27 2.5t38 3.5q17 2 31.5 3t22.5 1h10q66 0 110 -24.5t69.5 -65t36 -93t10.5 -109.5q0 -30 -6.5 -68t-19.5 -78t-32.5 -78.5t-46.5 -69t-60.5 -49t-74.5 -18.5q-69 0 -114 33t-71 82.5t-36.5 108.5t-10.5 112zM81 323
q0 -38 7 -81t24.5 -80t47 -61.5t73.5 -24.5q47 0 81 30.5t55.5 75t31.5 94.5t10 89q0 41 -7 79.5t-24.5 68t-47.5 47.5t-76 18q-41 0 -65.5 -7t-38 -25t-18.5 -47.5t-6 -74.5l-41 -8l-1 1q-3 -20 -3 -28q0 -2 -0.5 -10t-1 -18.5t-0.5 -21v-16.5zM179 911q12 -51 34.5 -79.5
t45.5 -28.5q19 0 36.5 19.5t28.5 64.5q34 36 53 23.5t9 -61.5l1 3q-3 -24 -15 -46.5t-30.5 -40.5t-41.5 -28.5t-48 -10.5q-40 0 -79.5 37.5t-67.5 130.5z" />
    <glyph glyph-name="Ocircumflex" unicode="&#xd4;" horiz-adv-x="511" 
d="M6 336q0 39 4 82t16.5 83.5t35.5 77.5t61 64q7 1 27 2.5t38 3.5q17 2 31.5 3t22.5 1h10q66 0 110 -24.5t69.5 -65t36 -93t10.5 -109.5q0 -30 -6.5 -68t-19.5 -78t-32.5 -78.5t-46.5 -69t-60.5 -49t-74.5 -18.5q-69 0 -114 33t-71 82.5t-36.5 108.5t-10.5 112zM81 323
q0 -38 7 -81t24.5 -80t47 -61.5t73.5 -24.5q47 0 81 30.5t55.5 75t31.5 94.5t10 89q0 41 -7 79.5t-24.5 68t-47.5 47.5t-76 18q-41 0 -65.5 -7t-38 -25t-18.5 -47.5t-6 -74.5l-41 -8l-1 1q-3 -20 -3 -28q0 -2 -0.5 -10t-1 -18.5t-0.5 -21v-16.5zM221 884v-1q7 14 14.5 18
t20.5 4t22 -4t13 -20q18 -37 37 -76.5t36 -74.5q0 -2 0.5 -10t0.5 -10q-18 -23 -33.5 -24t-29 11t-25.5 33t-22 43q-2 4 -2 4.5v0.5v0.5t-3 4.5q-8 -12 -13.5 -22t-10.5 -18q-8 -11 -20.5 -31t-21.5 -33l-59 35z" />
    <glyph glyph-name="Odieresis" unicode="&#xd6;" horiz-adv-x="511" 
d="M6 336q0 39 4 82t16.5 83.5t35.5 77.5t61 64q7 1 27 2.5t38 3.5q17 2 31.5 3t22.5 1h10q66 0 110 -24.5t69.5 -65t36 -93t10.5 -109.5q0 -30 -6.5 -68t-19.5 -78t-32.5 -78.5t-46.5 -69t-60.5 -49t-74.5 -18.5q-69 0 -114 33t-71 82.5t-36.5 108.5t-10.5 112zM81 323
q0 -38 7 -81t24.5 -80t47 -61.5t73.5 -24.5q47 0 81 30.5t55.5 75t31.5 94.5t10 89q0 41 -7 79.5t-24.5 68t-47.5 47.5t-76 18q-41 0 -65.5 -7t-38 -25t-18.5 -47.5t-6 -74.5l-41 -8l-1 1q-3 -20 -3 -28q0 -2 -0.5 -10t-1 -18.5t-0.5 -21v-16.5zM146 788q0 18 7.5 30
t19.5 18.5t26.5 8t28.5 -0.5q23 -4 31 -20t8 -31q0 -11 -6.5 -21.5t-16.5 -19t-21 -14t-21 -5.5q-23 0 -39.5 16t-16.5 39zM293 789q0 36 22.5 45.5t51.5 5.5q23 -4 31.5 -20t8.5 -31q0 -11 -6.5 -21.5t-16.5 -19t-21.5 -14t-20.5 -5.5q-23 0 -36 18.5t-13 41.5z" />
    <glyph glyph-name="Ograve" unicode="&#xd2;" horiz-adv-x="511" 
d="M6 336q0 39 4 82t16.5 83.5t35.5 77.5t61 64q7 1 27 2.5t38 3.5q17 2 31.5 3t22.5 1h10q66 0 110 -24.5t69.5 -65t36 -93t10.5 -109.5q0 -30 -6.5 -68t-19.5 -78t-32.5 -78.5t-46.5 -69t-60.5 -49t-74.5 -18.5q-69 0 -114 33t-71 82.5t-36.5 108.5t-10.5 112zM81 323
q0 -38 7 -81t24.5 -80t47 -61.5t73.5 -24.5q47 0 81 30.5t55.5 75t31.5 94.5t10 89q0 41 -7 79.5t-24.5 68t-47.5 47.5t-76 18q-41 0 -65.5 -7t-38 -25t-18.5 -47.5t-6 -74.5l-41 -8l-1 1q-3 -20 -3 -28q0 -2 -0.5 -10t-1 -18.5t-0.5 -21v-16.5zM290 680q-57 56 -84.5 88
t-36.5 49t-3 23t17 10q12 7 25 8t23 -10l-1 1q26 -24 54.5 -53t54.5 -53q2 -6 3 -10q2 -10 2 -11q0 -9 -4 -17.5t-15 -22.5z" />
    <glyph glyph-name="Ohungarumlaut" unicode="&#x150;" horiz-adv-x="511" 
d="M6 336q0 39 4 82t16.5 83.5t35.5 77.5t61 64q7 1 27 2.5t38 3.5q17 2 31.5 3t22.5 1h10q66 0 110 -24.5t69.5 -65t36 -93t10.5 -109.5q0 -30 -6.5 -68t-19.5 -78t-32.5 -78.5t-46.5 -69t-60.5 -49t-74.5 -18.5q-69 0 -114 33t-71 82.5t-36.5 108.5t-10.5 112zM81 323
q0 -38 7 -81t24.5 -80t47 -61.5t73.5 -24.5q47 0 81 30.5t55.5 75t31.5 94.5t10 89q0 41 -7 79.5t-24.5 68t-47.5 47.5t-76 18q-41 0 -65.5 -7t-38 -25t-18.5 -47.5t-6 -74.5l-41 -8l-1 1q-3 -20 -3 -28q0 -2 -0.5 -10t-1 -18.5t-0.5 -21v-16.5zM115 741q-11 13 -15 22.5
t-4 18.5q-1 5 0.5 9.5t3.5 12.5l110 104l-2 -5q8 13 22.5 13.5t27.5 -7.5q9 -5 14.5 -12t-3.5 -24t-36.5 -48.5t-82.5 -85.5zM227 731q-14 14 -17.5 23t-3.5 19q0 3 3 5.5t7 5.5t7.5 6t3.5 6l93 103q10 8 23.5 7t23.5 -6t16 -11.5t-3 -23.5t-36.5 -49t-82.5 -86z" />
    <glyph glyph-name="Omacron" unicode="&#x14c;" horiz-adv-x="511" 
d="M6 336q0 39 4 82t16.5 83.5t35.5 77.5t61 64q7 1 27 2.5t38 3.5q17 2 31.5 3t22.5 1h10q66 0 110 -24.5t69.5 -65t36 -93t10.5 -109.5q0 -30 -6.5 -68t-19.5 -78t-32.5 -78.5t-46.5 -69t-60.5 -49t-74.5 -18.5q-69 0 -114 33t-71 82.5t-36.5 108.5t-10.5 112zM81 323
q0 -38 7 -81t24.5 -80t47 -61.5t73.5 -24.5q47 0 81 30.5t55.5 75t31.5 94.5t10 89q0 41 -7 79.5t-24.5 68t-47.5 47.5t-76 18q-41 0 -65.5 -7t-38 -25t-18.5 -47.5t-6 -74.5l-41 -8l-1 1q-3 -20 -3 -28q0 -2 -0.5 -10t-1 -18.5t-0.5 -21v-16.5zM107 811q19 4 39.5 5.5
t43.5 1.5q17 0 33.5 -0.5t33.5 -1.5q11 0 27 -0.5t26 -0.5q28 0 49 3h8q5 0 11 -2h-1q23 -6 30.5 -29.5t7.5 -57.5l-49 12q-48 -2 -93 -4t-93 -4q-6 -2 -11.5 0t-11.5 4q-2 0 -2.5 0.5t-1.5 0.5h-5q-8 2 -18 5t-19 8.5t-15 14t-7 21.5z" />
    <glyph glyph-name="Oslash" unicode="&#xd8;" horiz-adv-x="511" 
d="M6 336q0 39 4 82t16.5 83.5t35.5 77.5t61 64q7 1 27 2.5t38 3.5q17 2 31.5 3t22.5 1h10q66 0 110 -24.5t69.5 -65t36 -93t10.5 -109.5q0 -30 -6.5 -68t-19.5 -78t-32.5 -78.5t-46.5 -69t-60.5 -49t-74.5 -18.5q-69 0 -114 33t-71 82.5t-36.5 108.5t-10.5 112zM81 323
q0 -38 7 -81t24.5 -80t47 -61.5t73.5 -24.5q47 0 81 30.5t55.5 75t31.5 94.5t10 89q0 41 -7 79.5t-24.5 68t-47.5 47.5t-76 18q-41 0 -65.5 -7t-38 -25t-18.5 -47.5t-6 -74.5l-41 -8l-1 1q-3 -20 -3 -28q0 -2 -0.5 -10t-1 -18.5t-0.5 -21v-16.5zM50 -34q0 31 5.5 64
t14.5 65.5t21 62.5t26 55l249 447q2 6 5.5 15t9 16.5t13 13t18.5 5.5q4 0 11.5 -1.5t14 -6t10 -12.5t0.5 -20l-29 -75l-216 -361q-29 -48 -47 -106t-31 -112l-2 -16q-2 -18 -6.5 -41t-23.5 -45q-18 4 -26.5 10t-12.5 12.5t-4 13.5v13v3v0z" />
    <glyph glyph-name="Otilde" unicode="&#xd5;" horiz-adv-x="511" 
d="M6 336q0 39 4 82t16.5 83.5t35.5 77.5t61 64q7 1 27 2.5t38 3.5q17 2 31.5 3t22.5 1h10q66 0 110 -24.5t69.5 -65t36 -93t10.5 -109.5q0 -30 -6.5 -68t-19.5 -78t-32.5 -78.5t-46.5 -69t-60.5 -49t-74.5 -18.5q-69 0 -114 33t-71 82.5t-36.5 108.5t-10.5 112zM81 323
q0 -38 7 -81t24.5 -80t47 -61.5t73.5 -24.5q47 0 81 30.5t55.5 75t31.5 94.5t10 89q0 41 -7 79.5t-24.5 68t-47.5 47.5t-76 18q-41 0 -65.5 -7t-38 -25t-18.5 -47.5t-6 -74.5l-41 -8l-1 1q-3 -20 -3 -28q0 -2 -0.5 -10t-1 -18.5t-0.5 -21v-16.5zM288 723q-24 0 -38.5 6.5
t-23.5 17.5t-13.5 25.5t-8.5 29.5q-4 13 -9 24.5t-13 14.5q-26 -2 -44 -18.5t-37 -38.5v1q-2 -3 -5.5 -6.5l-6.5 -6.5q-12 -13 -31.5 -16t-44.5 -3q0 18 1.5 28t4.5 16t7 9t8 7l2 1q8 8 15 15.5t14 15.5q12 13 23 25t25 21t32.5 15.5t45.5 8.5q11 0 18.5 -1.5t14 -6
t13 -12.5t15.5 -20q3 -7 6 -18.5t6 -21.5q3 -17 9 -30t21 -11q14 -1 30.5 14t31.5 32q13 15 26.5 28t28.5 19.5t31 3.5t36 -19q0 -11 -4 -21q-2 -4 -3 -8q-50 -42 -83 -67t-53 -37t-30.5 -15t-16.5 -1zM280 726q2 -3 8 -3q-2 0 -4 1z" />
    <glyph glyph-name="Oslashacute" unicode="&#x1fe;" horiz-adv-x="511" 
d="M6 336q0 39 4 82t16.5 83.5t35.5 77.5t61 64q7 1 27 2.5t38 3.5q17 2 31.5 3t22.5 1h10q66 0 110 -24.5t69.5 -65t36 -93t10.5 -109.5q0 -30 -6.5 -68t-19.5 -78t-32.5 -78.5t-46.5 -69t-60.5 -49t-74.5 -18.5q-69 0 -114 33t-71 82.5t-36.5 108.5t-10.5 112zM81 323
q0 -38 7 -81t24.5 -80t47 -61.5t73.5 -24.5q47 0 81 30.5t55.5 75t31.5 94.5t10 89q0 41 -7 79.5t-24.5 68t-47.5 47.5t-76 18q-41 0 -65.5 -7t-38 -25t-18.5 -47.5t-6 -74.5l-41 -8l-1 1q-3 -20 -3 -28q0 -2 -0.5 -10t-1 -18.5t-0.5 -21v-16.5zM47 -59q0 31 5.5 64
t14.5 65.5t21 62.5t26 55l249 447q2 6 5.5 15t9 16.5t13 13t18.5 5.5q4 0 11.5 -1.5t14 -6t10 -12.5t0.5 -20l-29 -75l-216 -361q-29 -48 -47 -106t-31 -112l-2 -16q-2 -18 -6.5 -41t-23.5 -45q-18 4 -26.5 10t-12.5 12.5t-4 13.5v13v3v0zM190 731q-12 14 -15.5 23t-3.5 20
l1 -3q-1 3 -0.5 7t1.5 7q1 4 1 8l111 105q9 9 22.5 8.5t24.5 -7.5q11 -4 17 -10t-3 -23t-36.5 -49t-84.5 -88z" />
    <glyph glyph-name="Racute" unicode="&#x154;" horiz-adv-x="624" 
d="M27 499v10q0 8 -0.5 18.5t-0.5 16.5t0.5 17.5t0.5 20.5v10q1 13 6.5 33t13.5 35h-14l-46 45q30 9 53.5 13.5t42 6.5t34.5 2h32h21q21 0 52.5 -1t66 -6t69.5 -14t64.5 -24.5t49.5 -39t25 -56.5q2 -20 -8 -39.5t-27.5 -37t-40 -33t-44.5 -28t-40.5 -21.5t-28.5 -13
q-5 -3 -16.5 -7.5t-25.5 -9.5t-30 -11t-31 -11q12 -7 25.5 -14t26.5 -13.5l23 -11.5t15 -8l266 -223q17 -1 27.5 -13t10.5 -26q0 -5 -3 -13t-9 -14.5t-14.5 -9.5t-19.5 2l-36 17q-11 10 -37 32t-57.5 48.5t-64 53.5t-56.5 48q-11 10 -21.5 18.5t-15.5 13.5q-28 22 -66.5 44
t-75.5 29q1 -37 3.5 -65t4.5 -64q4 -38 6.5 -79.5t2.5 -84.5v-12.5t-3.5 -12t-12 -11t-24.5 -9.5l-26 26zM100 661v-18q0 -23 0.5 -50.5t1 -57.5t2 -60t4.5 -56q24 4 56.5 13t67.5 21t69 26.5t60.5 31t43 34t16.5 34.5q0 23 -22 38.5t-52 24.5t-61.5 13t-50.5 5
q-11 0 -38.5 0.5t-58.5 0.5h-38zM228 761q-12 14 -15.5 23t-3.5 20l1 -3q-1 3 -0.5 7t1.5 7q1 4 1 8l111 105q9 9 22.5 8.5t24.5 -7.5q11 -4 17 -10t-3 -23t-36.5 -49t-84.5 -88z" />
    <glyph glyph-name="Rcaron" unicode="&#x158;" horiz-adv-x="624" 
d="M27 499v10q0 8 -0.5 18.5t-0.5 16.5t0.5 17.5t0.5 20.5v10q1 13 6.5 33t13.5 35h-14l-46 45q30 9 53.5 13.5t42 6.5t34.5 2h32h21q21 0 52.5 -1t66 -6t69.5 -14t64.5 -24.5t49.5 -39t25 -56.5q2 -20 -8 -39.5t-27.5 -37t-40 -33t-44.5 -28t-40.5 -21.5t-28.5 -13
q-5 -3 -16.5 -7.5t-25.5 -9.5t-30 -11t-31 -11q12 -7 25.5 -14t26.5 -13.5l23 -11.5t15 -8l266 -223q17 -1 27.5 -13t10.5 -26q0 -5 -3 -13t-9 -14.5t-14.5 -9.5t-19.5 2l-36 17q-11 10 -37 32t-57.5 48.5t-64 53.5t-56.5 48q-11 10 -21.5 18.5t-15.5 13.5q-28 22 -66.5 44
t-75.5 29q1 -37 3.5 -65t4.5 -64q4 -38 6.5 -79.5t2.5 -84.5v-12.5t-3.5 -12t-12 -11t-24.5 -9.5l-26 26zM100 661v-18q0 -23 0.5 -50.5t1 -57.5t2 -60t4.5 -56q24 4 56.5 13t67.5 21t69 26.5t60.5 31t43 34t16.5 34.5q0 23 -22 38.5t-52 24.5t-61.5 13t-50.5 5
q-11 0 -38.5 0.5t-58.5 0.5h-38zM118 969l77 17q8 -10 13.5 -18.5t7.5 -12.5q17 -26 32 -47t32 -44q4 5 7.5 9t6.5 9q8 11 15.5 21.5t9.5 16.5l-1 -2q4 14 12 26q7 11 17.5 21t26.5 15q16 -19 21 -28t5 -20q0 -1 -0.5 -3t-0.5 -4q-1 -3 -1 -6l-74 -141q-4 -11 -14 -16
t-20 -5q-14 0 -20.5 4t-12.5 12z" />
    <glyph glyph-name="Rcommaaccent" unicode="&#x156;" horiz-adv-x="624" 
d="M27 499v10q0 8 -0.5 18.5t-0.5 16.5t0.5 17.5t0.5 20.5v10q1 13 6.5 33t13.5 35h-14l-46 45q30 9 53.5 13.5t42 6.5t34.5 2h32h21q21 0 52.5 -1t66 -6t69.5 -14t64.5 -24.5t49.5 -39t25 -56.5q2 -20 -8 -39.5t-27.5 -37t-40 -33t-44.5 -28t-40.5 -21.5t-28.5 -13
q-5 -3 -16.5 -7.5t-25.5 -9.5t-30 -11t-31 -11q12 -7 25.5 -14t26.5 -13.5l23 -11.5t15 -8l266 -223q17 -1 27.5 -13t10.5 -26q0 -5 -3 -13t-9 -14.5t-14.5 -9.5t-19.5 2l-36 17q-11 10 -37 32t-57.5 48.5t-64 53.5t-56.5 48q-11 10 -21.5 18.5t-15.5 13.5q-28 22 -66.5 44
t-75.5 29q1 -37 3.5 -65t4.5 -64q4 -38 6.5 -79.5t2.5 -84.5v-12.5t-3.5 -12t-12 -11t-24.5 -9.5l-26 26zM100 661v-18q0 -23 0.5 -50.5t1 -57.5t2 -60t4.5 -56q24 4 56.5 13t67.5 21t69 26.5t60.5 31t43 34t16.5 34.5q0 23 -22 38.5t-52 24.5t-61.5 13t-50.5 5
q-11 0 -38.5 0.5t-58.5 0.5h-38zM294 -84q0 11 -1.5 19t-3.5 16q-3 11 -4.5 24t-1.5 42q23 0 40.5 -7.5t29 -19t17.5 -26t6 -28.5q0 -12 -8 -44t-21.5 -65.5t-33 -59.5t-41.5 -26q-3 0 -13 2.5t-27 18.5q27 39 44.5 77t17.5 77z" />
    <glyph glyph-name="Sacute" unicode="&#x15a;" horiz-adv-x="560" 
d="M4 66q5 8 20.5 18t26.5 10h109l23 -18h48h30q5 0 22 2t37 5t39 6t27 5l-2 -1q6 1 16.5 4.5t21 8t18.5 9.5t8 10t-3 11q-6 7 -16.5 18t-21.5 22t-20 19t-11 10l-247 175q-68 48 -68 130q0 49 27.5 89.5t68.5 68.5t88.5 43.5t88.5 15.5q34 0 68 -6.5t61.5 -22.5t44.5 -44.5
t17 -71.5v-6q0 -11 -0.5 -20.5t-4.5 -17.5t-13 -12.5t-26 -4.5h-4h-7t-13.5 0.5t-14 0.5h-6.5q1 4 4 12t6.5 17t6.5 17.5t5 13.5v-3v3q0 1 0.5 2t0.5 2q-1 0 -1 -1v-3q-1 21 -14 36t-31.5 24t-41 13.5t-41.5 4.5q-27 0 -60.5 -11.5t-63 -31t-49 -45.5t-19.5 -56
q0 -31 14.5 -54.5t40.5 -41.5l256 -184l-1 1q8 -5 21 -17t25.5 -27.5t21.5 -32t9 -30.5q0 -32 -24 -54t-61.5 -36.5t-83 -22.5t-88.5 -12t-77.5 -5t-49.5 -1h-12h-33t-35.5 3.5t-32.5 12t-25 24.5zM215 731q-12 14 -15.5 23t-3.5 20l1 -3q-1 3 -0.5 7t1.5 7q1 4 1 8l111 105
q9 9 22.5 8.5t24.5 -7.5q11 -4 17 -10t-3 -23t-36.5 -49t-84.5 -88z" />
    <glyph glyph-name="Scedilla" unicode="&#x15e;" horiz-adv-x="560" 
d="M4 66q5 8 20.5 18t26.5 10h109l23 -18h48h30q5 0 22 2t37 5t39 6t27 5l-2 -1q6 1 16.5 4.5t21 8t18.5 9.5t8 10t-3 11q-6 7 -16.5 18t-21.5 22t-20 19t-11 10l-247 175q-68 48 -68 130q0 49 27.5 89.5t68.5 68.5t88.5 43.5t88.5 15.5q34 0 68 -6.5t61.5 -22.5t44.5 -44.5
t17 -71.5v-6q0 -11 -0.5 -20.5t-4.5 -17.5t-13 -12.5t-26 -4.5h-4h-7t-13.5 0.5t-14 0.5h-6.5q1 4 4 12t6.5 17t6.5 17.5t5 13.5v-3v3q0 1 0.5 2t0.5 2q-1 0 -1 -1v-3q-1 21 -14 36t-31.5 24t-41 13.5t-41.5 4.5q-27 0 -60.5 -11.5t-63 -31t-49 -45.5t-19.5 -56
q0 -31 14.5 -54.5t40.5 -41.5l256 -184l-1 1q8 -5 21 -17t25.5 -27.5t21.5 -32t9 -30.5q0 -32 -24 -54t-61.5 -36.5t-83 -22.5t-88.5 -12t-77.5 -5t-49.5 -1h-12h-33t-35.5 3.5t-32.5 12t-25 24.5zM192 -230q0 16 5.5 30t13.5 24t17.5 15.5t17.5 5.5q14 0 24.5 -9.5
t12.5 -29.5q3 0 4.5 -1t4.5 -1q14 -2 27 -4t19 -1q9 1 23 6t27.5 12.5t23 17.5t9.5 22q0 6 -19 7t-45 0q-29 0 -58.5 1t-53.5 11.5t-39.5 33t-15.5 65.5q0 52 10.5 72.5t27.5 20.5q8 0 16.5 -12.5t15 -30.5t9.5 -37t0 -32l4 6q0 -14 5.5 -21.5t15.5 -11t22.5 -3.5t26.5 1
q7 0 14.5 0.5t15.5 0.5q31 0 61.5 -9t59.5 -40v-22q0 -37 -23.5 -62.5t-56 -41.5t-68 -23t-59.5 -7h-4q-11 0 -26.5 0.5t-29.5 5t-24.5 14t-10.5 27.5z" />
    <glyph glyph-name="Scircumflex" unicode="&#x15c;" horiz-adv-x="560" 
d="M4 66q5 8 20.5 18t26.5 10h109l23 -18h48h30q5 0 22 2t37 5t39 6t27 5l-2 -1q6 1 16.5 4.5t21 8t18.5 9.5t8 10t-3 11q-6 7 -16.5 18t-21.5 22t-20 19t-11 10l-247 175q-68 48 -68 130q0 49 27.5 89.5t68.5 68.5t88.5 43.5t88.5 15.5q34 0 68 -6.5t61.5 -22.5t44.5 -44.5
t17 -71.5v-6q0 -11 -0.5 -20.5t-4.5 -17.5t-13 -12.5t-26 -4.5h-4h-7t-13.5 0.5t-14 0.5h-6.5q1 4 4 12t6.5 17t6.5 17.5t5 13.5v-3v3q0 1 0.5 2t0.5 2q-1 0 -1 -1v-3q-1 21 -14 36t-31.5 24t-41 13.5t-41.5 4.5q-27 0 -60.5 -11.5t-63 -31t-49 -45.5t-19.5 -56
q0 -31 14.5 -54.5t40.5 -41.5l256 -184l-1 1q8 -5 21 -17t25.5 -27.5t21.5 -32t9 -30.5q0 -32 -24 -54t-61.5 -36.5t-83 -22.5t-88.5 -12t-77.5 -5t-49.5 -1h-12h-33t-35.5 3.5t-32.5 12t-25 24.5zM291 963v-1q7 14 14.5 18t20.5 4t22 -4t13 -20q18 -37 37 -76.5t36 -74.5
q0 -2 0.5 -10t0.5 -10q-18 -23 -33.5 -24t-29 11t-25.5 33t-22 43q-2 4 -2 4.5v0.5v0.5t-3 4.5q-8 -12 -13.5 -22t-10.5 -18q-8 -11 -20.5 -31t-21.5 -33l-59 35z" />
    <glyph glyph-name="Scommaaccent" unicode="&#x218;" horiz-adv-x="560" 
d="M4 66q5 8 20.5 18t26.5 10h109l23 -18h48h30q5 0 22 2t37 5t39 6t27 5l-2 -1q6 1 16.5 4.5t21 8t18.5 9.5t8 10t-3 11q-6 7 -16.5 18t-21.5 22t-20 19t-11 10l-247 175q-68 48 -68 130q0 49 27.5 89.5t68.5 68.5t88.5 43.5t88.5 15.5q34 0 68 -6.5t61.5 -22.5t44.5 -44.5
t17 -71.5v-6q0 -11 -0.5 -20.5t-4.5 -17.5t-13 -12.5t-26 -4.5h-4h-7t-13.5 0.5t-14 0.5h-6.5q1 4 4 12t6.5 17t6.5 17.5t5 13.5v-3v3q0 1 0.5 2t0.5 2q-1 0 -1 -1v-3q-1 21 -14 36t-31.5 24t-41 13.5t-41.5 4.5q-27 0 -60.5 -11.5t-63 -31t-49 -45.5t-19.5 -56
q0 -31 14.5 -54.5t40.5 -41.5l256 -184l-1 1q8 -5 21 -17t25.5 -27.5t21.5 -32t9 -30.5q0 -32 -24 -54t-61.5 -36.5t-83 -22.5t-88.5 -12t-77.5 -5t-49.5 -1h-12h-33t-35.5 3.5t-32.5 12t-25 24.5zM262 -84q0 11 -1.5 19t-3.5 16q-3 11 -4.5 24t-1.5 42q23 0 40.5 -7.5
t29 -19t17.5 -26t6 -28.5q0 -12 -8 -44t-21.5 -65.5t-33 -59.5t-41.5 -26q-3 0 -13 2.5t-27 18.5q27 39 44.5 77t17.5 77z" />
    <glyph glyph-name="Tbar" unicode="&#x166;" horiz-adv-x="781" 
d="M15 632q60 34 124.5 53.5t132 29t135 12t133.5 2.5q8 0 28 -0.5t43 -1.5q22 -1 40.5 -1h25.5q4 0 15.5 -1.5t24 -7t22 -14.5t9.5 -24q0 -10 -7 -17.5t-17.5 -12.5t-23 -7.5t-24.5 -2.5q0 12 -3 15.5t-6 5.5q-9 0 -27.5 0.5t-39 1t-39 0.5h-26.5h-33t-41.5 -0.5t-36.5 -1
t-18 -0.5q-8 -1 -26 -4t-43 -7q8 -8 11 -19.5t5 -24.5q6 -35 9 -73t5 -75q1 -22 2 -46.5t3 -45.5q0 -2 1 -8.5t2 -15t2.5 -18t2.5 -16.5q0 -3 0.5 -6t0.5 -5v-6v-9q2 -15 6.5 -44t9.5 -62t10 -65t8 -53q1 -8 1.5 -15t2.5 -12q-8 -17 -17 -24t-22 -7l-24 1q-33 120 -47 245
t-22 237q-2 32 -4.5 65t-5.5 62v28l1 1q-36 -7 -69 -13t-49 -10q-5 -2 -20 -7.5t-31.5 -11.5t-31 -12t-17.5 -7h-17q-12 0 -22.5 3.5t-16.5 23.5zM184 526q19 4 39.5 5.5t43.5 1.5q17 0 33.5 -0.5t33.5 -1.5q11 0 27 -0.5t26 -0.5q28 0 49 3h8q5 0 11 -2h-1
q23 -6 30.5 -29.5t7.5 -57.5l-49 12q-48 -2 -93 -4t-93 -4q-6 -2 -11.5 0t-11.5 4q-2 0 -2.5 0.5t-1.5 0.5h-5q-8 2 -18 5t-19 8.5t-15 14t-7 21.5z" />
    <glyph glyph-name="Tcaron" unicode="&#x164;" horiz-adv-x="781" 
d="M15 632q60 34 124.5 53.5t132 29t135 12t133.5 2.5q8 0 28 -0.5t43 -1.5q22 -1 40.5 -1h25.5q4 0 15.5 -1.5t24 -7t22 -14.5t9.5 -24q0 -10 -7 -17.5t-17.5 -12.5t-23 -7.5t-24.5 -2.5q0 12 -3 15.5t-6 5.5q-9 0 -27.5 0.5t-39 1t-39 0.5h-26.5h-33t-41.5 -0.5t-36.5 -1
t-18 -0.5q-8 -1 -26 -4t-43 -7q8 -8 11 -19.5t5 -24.5q6 -35 9 -73t5 -75q1 -22 2 -46.5t3 -45.5q0 -2 1 -8.5t2 -15t2.5 -18t2.5 -16.5q0 -3 0.5 -6t0.5 -5v-6v-9q2 -15 6.5 -44t9.5 -62t10 -65t8 -53q1 -8 1.5 -15t2.5 -12q-8 -17 -17 -24t-22 -7l-24 1q-33 120 -47 245
t-22 237q-2 32 -4.5 65t-5.5 62v28l1 1q-36 -7 -69 -13t-49 -10q-5 -2 -20 -7.5t-31.5 -11.5t-31 -12t-17.5 -7h-17q-12 0 -22.5 3.5t-16.5 23.5zM171 970l77 17q8 -10 13.5 -18.5t7.5 -12.5q17 -26 32 -47t32 -44q4 5 7.5 9t6.5 9q8 11 15.5 21.5t9.5 16.5l-1 -2
q4 14 12 26q7 11 17.5 21t26.5 15q16 -19 21 -28t5 -20q0 -1 -0.5 -3t-0.5 -4q-1 -3 -1 -6l-74 -141q-4 -11 -14 -16t-20 -5q-14 0 -20.5 4t-12.5 12z" />
    <glyph glyph-name="Tcommaaccent" unicode="&#x162;" horiz-adv-x="781" 
d="M15 632q60 34 124.5 53.5t132 29t135 12t133.5 2.5q8 0 28 -0.5t43 -1.5q22 -1 40.5 -1h25.5q4 0 15.5 -1.5t24 -7t22 -14.5t9.5 -24q0 -10 -7 -17.5t-17.5 -12.5t-23 -7.5t-24.5 -2.5q0 12 -3 15.5t-6 5.5q-9 0 -27.5 0.5t-39 1t-39 0.5h-26.5h-33t-41.5 -0.5t-36.5 -1
t-18 -0.5q-8 -1 -26 -4t-43 -7q8 -8 11 -19.5t5 -24.5q6 -35 9 -73t5 -75q1 -22 2 -46.5t3 -45.5q0 -2 1 -8.5t2 -15t2.5 -18t2.5 -16.5q0 -3 0.5 -6t0.5 -5v-6v-9q2 -15 6.5 -44t9.5 -62t10 -65t8 -53q1 -8 1.5 -15t2.5 -12q-8 -17 -17 -24t-22 -7l-24 1q-33 120 -47 245
t-22 237q-2 32 -4.5 65t-5.5 62v28l1 1q-36 -7 -69 -13t-49 -10q-5 -2 -20 -7.5t-31.5 -11.5t-31 -12t-17.5 -7h-17q-12 0 -22.5 3.5t-16.5 23.5zM372 -84q0 11 -1.5 19t-3.5 16q-3 11 -4.5 24t-1.5 42q23 0 40.5 -7.5t29 -19t17.5 -26t6 -28.5q0 -12 -8 -44t-21.5 -65.5
t-33 -59.5t-41.5 -26q-3 0 -13 2.5t-27 18.5q27 39 44.5 77t17.5 77z" />
    <glyph glyph-name="Uacute" unicode="&#xda;" 
d="M13 288q0 48 5.5 94t10.5 93q6 46 11 95t5 111h39q11 0 18 -10.5t10.5 -24t4.5 -26.5t1 -18q0 -43 -5 -83t-10 -79q-6 -39 -10 -77.5t-4 -76.5v-42.5t3 -44.5t9.5 -42t18.5 -35v1q5 -5 12 -13t13 -15.5t10 -13t3 -5.5h45l4.5 6.5t12 15t15 18t13.5 15.5q42 46 73 112.5
t51.5 140t31.5 147t14 135.5q7 1 13 3q5 1 9.5 2t5.5 1q11 0 24.5 -8t13.5 -25v-85l-65 -261q0 -1 -0.5 -6.5t-0.5 -12.5v-14v-11q0 -33 8 -62t27 -50t51.5 -31.5t80.5 -5.5q-14 -26 -28 -40.5t-26.5 -21.5t-23.5 -9t-20 -2q-32 0 -54.5 11t-38 29t-26.5 41.5t-18 47.5
q-16 -25 -31.5 -48.5t-22.5 -32.5q-8 -11 -20.5 -24.5t-27.5 -25t-32.5 -19t-35.5 -7.5q-35 0 -61 15t-44.5 40t-30.5 56t-19 63t-9.5 62t-2.5 53zM230 731q-12 14 -15.5 23t-3.5 20l1 -3q-1 3 -0.5 7t1.5 7q1 4 1 8l111 105q9 9 22.5 8.5t24.5 -7.5q11 -4 17 -10t-3 -23
t-36.5 -49t-84.5 -88z" />
    <glyph glyph-name="Ubreve" unicode="&#x16c;" 
d="M13 288q0 48 5.5 94t10.5 93q6 46 11 95t5 111h39q11 0 18 -10.5t10.5 -24t4.5 -26.5t1 -18q0 -43 -5 -83t-10 -79q-6 -39 -10 -77.5t-4 -76.5v-42.5t3 -44.5t9.5 -42t18.5 -35v1q5 -5 12 -13t13 -15.5t10 -13t3 -5.5h45l4.5 6.5t12 15t15 18t13.5 15.5q42 46 73 112.5
t51.5 140t31.5 147t14 135.5q7 1 13 3q5 1 9.5 2t5.5 1q11 0 24.5 -8t13.5 -25v-85l-65 -261q0 -1 -0.5 -6.5t-0.5 -12.5v-14v-11q0 -33 8 -62t27 -50t51.5 -31.5t80.5 -5.5q-14 -26 -28 -40.5t-26.5 -21.5t-23.5 -9t-20 -2q-32 0 -54.5 11t-38 29t-26.5 41.5t-18 47.5
q-16 -25 -31.5 -48.5t-22.5 -32.5q-8 -11 -20.5 -24.5t-27.5 -25t-32.5 -19t-35.5 -7.5q-35 0 -61 15t-44.5 40t-30.5 56t-19 63t-9.5 62t-2.5 53zM218 911q12 -51 34.5 -79.5t45.5 -28.5q19 0 36.5 19.5t28.5 64.5q34 36 53 23.5t9 -61.5l1 3q-3 -24 -15 -46.5t-30.5 -40.5
t-41.5 -28.5t-48 -10.5q-40 0 -79.5 37.5t-67.5 130.5z" />
    <glyph glyph-name="Ucircumflex" unicode="&#xdb;" 
d="M13 288q0 48 5.5 94t10.5 93q6 46 11 95t5 111h39q11 0 18 -10.5t10.5 -24t4.5 -26.5t1 -18q0 -43 -5 -83t-10 -79q-6 -39 -10 -77.5t-4 -76.5v-42.5t3 -44.5t9.5 -42t18.5 -35v1q5 -5 12 -13t13 -15.5t10 -13t3 -5.5h45l4.5 6.5t12 15t15 18t13.5 15.5q42 46 73 112.5
t51.5 140t31.5 147t14 135.5q7 1 13 3q5 1 9.5 2t5.5 1q11 0 24.5 -8t13.5 -25v-85l-65 -261q0 -1 -0.5 -6.5t-0.5 -12.5v-14v-11q0 -33 8 -62t27 -50t51.5 -31.5t80.5 -5.5q-14 -26 -28 -40.5t-26.5 -21.5t-23.5 -9t-20 -2q-32 0 -54.5 11t-38 29t-26.5 41.5t-18 47.5
q-16 -25 -31.5 -48.5t-22.5 -32.5q-8 -11 -20.5 -24.5t-27.5 -25t-32.5 -19t-35.5 -7.5q-35 0 -61 15t-44.5 40t-30.5 56t-19 63t-9.5 62t-2.5 53zM260 884v-1q7 14 14.5 18t20.5 4t22 -4t13 -20q18 -37 37 -76.5t36 -74.5q0 -2 0.5 -10t0.5 -10q-18 -23 -33.5 -24t-29 11
t-25.5 33t-22 43q-2 4 -2 4.5v0.5v0.5t-3 4.5q-8 -12 -13.5 -22t-10.5 -18q-8 -11 -20.5 -31t-21.5 -33l-59 35z" />
    <glyph glyph-name="Udieresis" unicode="&#xdc;" 
d="M13 288q0 48 5.5 94t10.5 93q6 46 11 95t5 111h39q11 0 18 -10.5t10.5 -24t4.5 -26.5t1 -18q0 -43 -5 -83t-10 -79q-6 -39 -10 -77.5t-4 -76.5v-42.5t3 -44.5t9.5 -42t18.5 -35v1q5 -5 12 -13t13 -15.5t10 -13t3 -5.5h45l4.5 6.5t12 15t15 18t13.5 15.5q42 46 73 112.5
t51.5 140t31.5 147t14 135.5q7 1 13 3q5 1 9.5 2t5.5 1q11 0 24.5 -8t13.5 -25v-85l-65 -261q0 -1 -0.5 -6.5t-0.5 -12.5v-14v-11q0 -33 8 -62t27 -50t51.5 -31.5t80.5 -5.5q-14 -26 -28 -40.5t-26.5 -21.5t-23.5 -9t-20 -2q-32 0 -54.5 11t-38 29t-26.5 41.5t-18 47.5
q-16 -25 -31.5 -48.5t-22.5 -32.5q-8 -11 -20.5 -24.5t-27.5 -25t-32.5 -19t-35.5 -7.5q-35 0 -61 15t-44.5 40t-30.5 56t-19 63t-9.5 62t-2.5 53zM185 788q0 18 7.5 30t19.5 18.5t26.5 8t28.5 -0.5q23 -4 31 -20t8 -31q0 -11 -6.5 -21.5t-16.5 -19t-21 -14t-21 -5.5
q-23 0 -39.5 16t-16.5 39zM332 789q0 36 22.5 45.5t51.5 5.5q23 -4 31.5 -20t8.5 -31q0 -11 -6.5 -21.5t-16.5 -19t-21.5 -14t-20.5 -5.5q-23 0 -36 18.5t-13 41.5z" />
    <glyph glyph-name="Ugrave" unicode="&#xd9;" 
d="M13 288q0 48 5.5 94t10.5 93q6 46 11 95t5 111h39q11 0 18 -10.5t10.5 -24t4.5 -26.5t1 -18q0 -43 -5 -83t-10 -79q-6 -39 -10 -77.5t-4 -76.5v-42.5t3 -44.5t9.5 -42t18.5 -35v1q5 -5 12 -13t13 -15.5t10 -13t3 -5.5h45l4.5 6.5t12 15t15 18t13.5 15.5q42 46 73 112.5
t51.5 140t31.5 147t14 135.5q7 1 13 3q5 1 9.5 2t5.5 1q11 0 24.5 -8t13.5 -25v-85l-65 -261q0 -1 -0.5 -6.5t-0.5 -12.5v-14v-11q0 -33 8 -62t27 -50t51.5 -31.5t80.5 -5.5q-14 -26 -28 -40.5t-26.5 -21.5t-23.5 -9t-20 -2q-32 0 -54.5 11t-38 29t-26.5 41.5t-18 47.5
q-16 -25 -31.5 -48.5t-22.5 -32.5q-8 -11 -20.5 -24.5t-27.5 -25t-32.5 -19t-35.5 -7.5q-35 0 -61 15t-44.5 40t-30.5 56t-19 63t-9.5 62t-2.5 53zM330 680q-57 56 -84.5 88t-36.5 49t-3 23t17 10q12 7 25 8t23 -10l-1 1q26 -24 54.5 -53t54.5 -53q2 -6 3 -10q2 -10 2 -11
q0 -9 -4 -17.5t-15 -22.5z" />
    <glyph glyph-name="Uhungarumlaut" unicode="&#x170;" 
d="M13 288q0 48 5.5 94t10.5 93q6 46 11 95t5 111h39q11 0 18 -10.5t10.5 -24t4.5 -26.5t1 -18q0 -43 -5 -83t-10 -79q-6 -39 -10 -77.5t-4 -76.5v-42.5t3 -44.5t9.5 -42t18.5 -35v1q5 -5 12 -13t13 -15.5t10 -13t3 -5.5h45l4.5 6.5t12 15t15 18t13.5 15.5q42 46 73 112.5
t51.5 140t31.5 147t14 135.5q7 1 13 3q5 1 9.5 2t5.5 1q11 0 24.5 -8t13.5 -25v-85l-65 -261q0 -1 -0.5 -6.5t-0.5 -12.5v-14v-11q0 -33 8 -62t27 -50t51.5 -31.5t80.5 -5.5q-14 -26 -28 -40.5t-26.5 -21.5t-23.5 -9t-20 -2q-32 0 -54.5 11t-38 29t-26.5 41.5t-18 47.5
q-16 -25 -31.5 -48.5t-22.5 -32.5q-8 -11 -20.5 -24.5t-27.5 -25t-32.5 -19t-35.5 -7.5q-35 0 -61 15t-44.5 40t-30.5 56t-19 63t-9.5 62t-2.5 53zM154 741q-11 13 -15 22.5t-4 18.5q-1 5 0.5 9.5t3.5 12.5l110 104l-2 -5q8 13 22.5 13.5t27.5 -7.5q9 -5 14.5 -12t-3.5 -24
t-36.5 -48.5t-82.5 -85.5zM266 731q-14 14 -17.5 23t-3.5 19q0 3 3 5.5t7 5.5t7.5 6t3.5 6l93 103q10 8 23.5 7t23.5 -6t16 -11.5t-3 -23.5t-36.5 -49t-82.5 -86z" />
    <glyph glyph-name="Umacron" unicode="&#x16a;" 
d="M13 288q0 48 5.5 94t10.5 93q6 46 11 95t5 111h39q11 0 18 -10.5t10.5 -24t4.5 -26.5t1 -18q0 -43 -5 -83t-10 -79q-6 -39 -10 -77.5t-4 -76.5v-42.5t3 -44.5t9.5 -42t18.5 -35v1q5 -5 12 -13t13 -15.5t10 -13t3 -5.5h45l4.5 6.5t12 15t15 18t13.5 15.5q42 46 73 112.5
t51.5 140t31.5 147t14 135.5q7 1 13 3q5 1 9.5 2t5.5 1q11 0 24.5 -8t13.5 -25v-85l-65 -261q0 -1 -0.5 -6.5t-0.5 -12.5v-14v-11q0 -33 8 -62t27 -50t51.5 -31.5t80.5 -5.5q-14 -26 -28 -40.5t-26.5 -21.5t-23.5 -9t-20 -2q-32 0 -54.5 11t-38 29t-26.5 41.5t-18 47.5
q-16 -25 -31.5 -48.5t-22.5 -32.5q-8 -11 -20.5 -24.5t-27.5 -25t-32.5 -19t-35.5 -7.5q-35 0 -61 15t-44.5 40t-30.5 56t-19 63t-9.5 62t-2.5 53zM146 811q19 4 39.5 5.5t43.5 1.5q17 0 33.5 -0.5t33.5 -1.5q11 0 27 -0.5t26 -0.5q28 0 49 3h8q5 0 11 -2h-1
q23 -6 30.5 -29.5t7.5 -57.5l-49 12q-48 -2 -93 -4t-93 -4q-6 -2 -11.5 0t-11.5 4q-2 0 -2.5 0.5t-1.5 0.5h-5q-8 2 -18 5t-19 8.5t-15 14t-7 21.5z" />
    <glyph glyph-name="Uogonek" unicode="&#x172;" 
d="M13 288q0 48 5.5 94t10.5 93q6 46 11 95t5 111h39q11 0 18 -10.5t10.5 -24t4.5 -26.5t1 -18q0 -43 -5 -83t-10 -79q-6 -39 -10 -77.5t-4 -76.5v-42.5t3 -44.5t9.5 -42t18.5 -35v1q5 -5 12 -13t13 -15.5t10 -13t3 -5.5h45l4.5 6.5t12 15t15 18t13.5 15.5q42 46 73 112.5
t51.5 140t31.5 147t14 135.5q7 1 13 3q5 1 9.5 2t5.5 1q11 0 24.5 -8t13.5 -25v-85l-65 -261q0 -1 -0.5 -6.5t-0.5 -12.5v-14v-11q0 -33 8 -62t27 -50t51.5 -31.5t80.5 -5.5q-14 -26 -28 -40.5t-26.5 -21.5t-23.5 -9t-20 -2q-32 0 -54.5 11t-38 29t-26.5 41.5t-18 47.5
q-16 -25 -31.5 -48.5t-22.5 -32.5q-8 -11 -20.5 -24.5t-27.5 -25t-32.5 -19t-35.5 -7.5q-35 0 -61 15t-44.5 40t-30.5 56t-19 63t-9.5 62t-2.5 53zM560 -188q-27 1 -53 8t-45.5 18.5t-31.5 27t-12 35.5t10 42t26 45t36.5 46t41.5 46l4 -61q-10 -11 -18 -26.5t-13.5 -31
t-9 -29.5t-3.5 -23q1 -26 66 -26z" />
    <glyph glyph-name="Uring" unicode="&#x16e;" 
d="M13 288q0 48 5.5 94t10.5 93q6 46 11 95t5 111h39q11 0 18 -10.5t10.5 -24t4.5 -26.5t1 -18q0 -43 -5 -83t-10 -79q-6 -39 -10 -77.5t-4 -76.5v-42.5t3 -44.5t9.5 -42t18.5 -35v1q5 -5 12 -13t13 -15.5t10 -13t3 -5.5h45l4.5 6.5t12 15t15 18t13.5 15.5q42 46 73 112.5
t51.5 140t31.5 147t14 135.5q7 1 13 3q5 1 9.5 2t5.5 1q11 0 24.5 -8t13.5 -25v-85l-65 -261q0 -1 -0.5 -6.5t-0.5 -12.5v-14v-11q0 -33 8 -62t27 -50t51.5 -31.5t80.5 -5.5q-14 -26 -28 -40.5t-26.5 -21.5t-23.5 -9t-20 -2q-32 0 -54.5 11t-38 29t-26.5 41.5t-18 47.5
q-16 -25 -31.5 -48.5t-22.5 -32.5q-8 -11 -20.5 -24.5t-27.5 -25t-32.5 -19t-35.5 -7.5q-35 0 -61 15t-44.5 40t-30.5 56t-19 63t-9.5 62t-2.5 53zM168 815q0 29 13 55.5t32 49.5q-11 11 -11 24q0 14 11.5 28.5t28.5 21.5q1 0 6.5 0.5t10.5 0.5h10q50 0 87.5 -24t54.5 -65
q0 -2 0.5 -7t0.5 -10v-21q0 -25 -4.5 -50t-17 -45.5t-36.5 -33t-63 -12.5q-24 0 -46 6t-39 17.5t-27.5 28t-10.5 36.5zM242 821q1 -26 45 -26q19 0 30 6t17 15.5t7.5 22t1.5 24.5q0 20 -8.5 39t-28.5 27q-10 -10 -21 -23.5t-20.5 -28.5t-16 -29.5t-6.5 -26.5z" />
    <glyph glyph-name="Utilde" unicode="&#x168;" 
d="M13 288q0 48 5.5 94t10.5 93q6 46 11 95t5 111h39q11 0 18 -10.5t10.5 -24t4.5 -26.5t1 -18q0 -43 -5 -83t-10 -79q-6 -39 -10 -77.5t-4 -76.5v-42.5t3 -44.5t9.5 -42t18.5 -35v1q5 -5 12 -13t13 -15.5t10 -13t3 -5.5h45l4.5 6.5t12 15t15 18t13.5 15.5q42 46 73 112.5
t51.5 140t31.5 147t14 135.5q7 1 13 3q5 1 9.5 2t5.5 1q11 0 24.5 -8t13.5 -25v-85l-65 -261q0 -1 -0.5 -6.5t-0.5 -12.5v-14v-11q0 -33 8 -62t27 -50t51.5 -31.5t80.5 -5.5q-14 -26 -28 -40.5t-26.5 -21.5t-23.5 -9t-20 -2q-32 0 -54.5 11t-38 29t-26.5 41.5t-18 47.5
q-16 -25 -31.5 -48.5t-22.5 -32.5q-8 -11 -20.5 -24.5t-27.5 -25t-32.5 -19t-35.5 -7.5q-35 0 -61 15t-44.5 40t-30.5 56t-19 63t-9.5 62t-2.5 53zM326 723q-24 0 -38.5 6.5t-23.5 17.5t-13.5 25.5t-8.5 29.5q-4 13 -9 24.5t-13 14.5q-26 -2 -44 -18.5t-37 -38.5v1
q-2 -3 -5.5 -6.5l-6.5 -6.5q-12 -13 -31.5 -16t-44.5 -3q0 18 1.5 28t4.5 16t7 9t8 7l2 1q8 8 15 15.5t14 15.5q12 13 23 25t25 21t32.5 15.5t45.5 8.5q11 0 18.5 -1.5t14 -6t13 -12.5t15.5 -20q3 -7 6 -18.5t6 -21.5q3 -17 9 -30t21 -11q14 -1 30.5 14t31.5 32
q13 15 26.5 28t28.5 19.5t31 3.5t36 -19q0 -11 -4 -21q-2 -4 -3 -8q-50 -42 -83 -67t-53 -37t-30.5 -15t-16.5 -1zM318 726q2 -3 8 -3q-2 0 -4 1z" />
    <glyph glyph-name="Wacute" unicode="&#x1e82;" horiz-adv-x="835" 
d="M41 553q2 8 -2 18t-9 21q-6 13 -12.5 30t-6.5 52q24 0 41 -10t28.5 -23.5t17.5 -29t8 -25.5q2 -8 6.5 -30.5t11.5 -53.5q8 -35 17 -75.5t16.5 -77t13.5 -63.5l8 -36q1 -5 5 -17t9.5 -28t12 -34t12.5 -35q28 102 54 203.5t53 204.5v-6q1 4 6 15.5t12.5 23.5t17 21.5
t19.5 9.5q3 0 9 -2q3 -1 5 -1q27 -19 39 -45.5t18 -50.5l3 -11q2 -6 4.5 -15t4.5 -20q7 -28 17 -65.5t19.5 -74t17.5 -66.5t11 -43l-1 2q3 -9 8 -22t11 -26t13 -23.5t14 -13.5l19 33q4 6 14 34.5t21.5 64.5t21.5 71t15 54q3 11 7.5 35.5t10 56t12 67t11.5 68l9 58.5l6 39
q7 1 12 3q5 1 9 2t6 1q11 0 20 -8.5t15 -19.5t9 -22t2 -17l1 2q-1 -5 -8 -19t-12 -23q-18 -90 -36.5 -177t-36.5 -177l1 1q0 -2 -5.5 -18.5t-13 -37.5t-15.5 -42.5t-13 -34.5v1q-5 -11 -10.5 -24t-14 -23.5t-20.5 -17.5t-28 -7q-20 0 -41 20.5t-40 47t-32 52.5t-16 37v-1
q-16 62 -33 126.5t-33 126.5q1 5 1 19t-2 26l-116 -461q-3 -11 -15 -27t-26 -25q-18 11 -31.5 28t-23 34t-15 31t-7.5 19v-1q-3 7 -8.5 23t-11.5 34l-11.5 34.5t-6.5 22.5q-4 14 -10 40.5t-13.5 58.5t-15.5 66.5t-15 65t-12.5 55t-7.5 36.5zM352 731q-12 14 -15.5 23
t-3.5 20l1 -3q-1 3 -0.5 7t1.5 7q1 4 1 8l111 105q9 9 22.5 8.5t24.5 -7.5q11 -4 17 -10t-3 -23t-36.5 -49t-84.5 -88z" />
    <glyph glyph-name="Wcircumflex" unicode="&#x174;" horiz-adv-x="835" 
d="M41 553q2 8 -2 18t-9 21q-6 13 -12.5 30t-6.5 52q24 0 41 -10t28.5 -23.5t17.5 -29t8 -25.5q2 -8 6.5 -30.5t11.5 -53.5q8 -35 17 -75.5t16.5 -77t13.5 -63.5l8 -36q1 -5 5 -17t9.5 -28t12 -34t12.5 -35q28 102 54 203.5t53 204.5v-6q1 4 6 15.5t12.5 23.5t17 21.5
t19.5 9.5q3 0 9 -2q3 -1 5 -1q27 -19 39 -45.5t18 -50.5l3 -11q2 -6 4.5 -15t4.5 -20q7 -28 17 -65.5t19.5 -74t17.5 -66.5t11 -43l-1 2q3 -9 8 -22t11 -26t13 -23.5t14 -13.5l19 33q4 6 14 34.5t21.5 64.5t21.5 71t15 54q3 11 7.5 35.5t10 56t12 67t11.5 68l9 58.5l6 39
q7 1 12 3q5 1 9 2t6 1q11 0 20 -8.5t15 -19.5t9 -22t2 -17l1 2q-1 -5 -8 -19t-12 -23q-18 -90 -36.5 -177t-36.5 -177l1 1q0 -2 -5.5 -18.5t-13 -37.5t-15.5 -42.5t-13 -34.5v1q-5 -11 -10.5 -24t-14 -23.5t-20.5 -17.5t-28 -7q-20 0 -41 20.5t-40 47t-32 52.5t-16 37v-1
q-16 62 -33 126.5t-33 126.5q1 5 1 19t-2 26l-116 -461q-3 -11 -15 -27t-26 -25q-18 11 -31.5 28t-23 34t-15 31t-7.5 19v-1q-3 7 -8.5 23t-11.5 34l-11.5 34.5t-6.5 22.5q-4 14 -10 40.5t-13.5 58.5t-15.5 66.5t-15 65t-12.5 55t-7.5 36.5zM383 884v-1q7 14 14.5 18t20.5 4
t22 -4t13 -20q18 -37 37 -76.5t36 -74.5q0 -2 0.5 -10t0.5 -10q-18 -23 -33.5 -24t-29 11t-25.5 33t-22 43q-2 4 -2 4.5v0.5v0.5t-3 4.5q-8 -12 -13.5 -22t-10.5 -18q-8 -11 -20.5 -31t-21.5 -33l-59 35z" />
    <glyph glyph-name="Wdieresis" unicode="&#x1e84;" horiz-adv-x="835" 
d="M41 553q2 8 -2 18t-9 21q-6 13 -12.5 30t-6.5 52q24 0 41 -10t28.5 -23.5t17.5 -29t8 -25.5q2 -8 6.5 -30.5t11.5 -53.5q8 -35 17 -75.5t16.5 -77t13.5 -63.5l8 -36q1 -5 5 -17t9.5 -28t12 -34t12.5 -35q28 102 54 203.5t53 204.5v-6q1 4 6 15.5t12.5 23.5t17 21.5
t19.5 9.5q3 0 9 -2q3 -1 5 -1q27 -19 39 -45.5t18 -50.5l3 -11q2 -6 4.5 -15t4.5 -20q7 -28 17 -65.5t19.5 -74t17.5 -66.5t11 -43l-1 2q3 -9 8 -22t11 -26t13 -23.5t14 -13.5l19 33q4 6 14 34.5t21.5 64.5t21.5 71t15 54q3 11 7.5 35.5t10 56t12 67t11.5 68l9 58.5l6 39
q7 1 12 3q5 1 9 2t6 1q11 0 20 -8.5t15 -19.5t9 -22t2 -17l1 2q-1 -5 -8 -19t-12 -23q-18 -90 -36.5 -177t-36.5 -177l1 1q0 -2 -5.5 -18.5t-13 -37.5t-15.5 -42.5t-13 -34.5v1q-5 -11 -10.5 -24t-14 -23.5t-20.5 -17.5t-28 -7q-20 0 -41 20.5t-40 47t-32 52.5t-16 37v-1
q-16 62 -33 126.5t-33 126.5q1 5 1 19t-2 26l-116 -461q-3 -11 -15 -27t-26 -25q-18 11 -31.5 28t-23 34t-15 31t-7.5 19v-1q-3 7 -8.5 23t-11.5 34l-11.5 34.5t-6.5 22.5q-4 14 -10 40.5t-13.5 58.5t-15.5 66.5t-15 65t-12.5 55t-7.5 36.5zM308 788q0 18 7.5 30t19.5 18.5
t26.5 8t28.5 -0.5q23 -4 31 -20t8 -31q0 -11 -6.5 -21.5t-16.5 -19t-21 -14t-21 -5.5q-23 0 -39.5 16t-16.5 39zM455 789q0 36 22.5 45.5t51.5 5.5q23 -4 31.5 -20t8.5 -31q0 -11 -6.5 -21.5t-16.5 -19t-21.5 -14t-20.5 -5.5q-23 0 -36 18.5t-13 41.5z" />
    <glyph glyph-name="Wgrave" unicode="&#x1e80;" horiz-adv-x="835" 
d="M41 553q2 8 -2 18t-9 21q-6 13 -12.5 30t-6.5 52q24 0 41 -10t28.5 -23.5t17.5 -29t8 -25.5q2 -8 6.5 -30.5t11.5 -53.5q8 -35 17 -75.5t16.5 -77t13.5 -63.5l8 -36q1 -5 5 -17t9.5 -28t12 -34t12.5 -35q28 102 54 203.5t53 204.5v-6q1 4 6 15.5t12.5 23.5t17 21.5
t19.5 9.5q3 0 9 -2q3 -1 5 -1q27 -19 39 -45.5t18 -50.5l3 -11q2 -6 4.5 -15t4.5 -20q7 -28 17 -65.5t19.5 -74t17.5 -66.5t11 -43l-1 2q3 -9 8 -22t11 -26t13 -23.5t14 -13.5l19 33q4 6 14 34.5t21.5 64.5t21.5 71t15 54q3 11 7.5 35.5t10 56t12 67t11.5 68l9 58.5l6 39
q7 1 12 3q5 1 9 2t6 1q11 0 20 -8.5t15 -19.5t9 -22t2 -17l1 2q-1 -5 -8 -19t-12 -23q-18 -90 -36.5 -177t-36.5 -177l1 1q0 -2 -5.5 -18.5t-13 -37.5t-15.5 -42.5t-13 -34.5v1q-5 -11 -10.5 -24t-14 -23.5t-20.5 -17.5t-28 -7q-20 0 -41 20.5t-40 47t-32 52.5t-16 37v-1
q-16 62 -33 126.5t-33 126.5q1 5 1 19t-2 26l-116 -461q-3 -11 -15 -27t-26 -25q-18 11 -31.5 28t-23 34t-15 31t-7.5 19v-1q-3 7 -8.5 23t-11.5 34l-11.5 34.5t-6.5 22.5q-4 14 -10 40.5t-13.5 58.5t-15.5 66.5t-15 65t-12.5 55t-7.5 36.5zM452 680q-57 56 -84.5 88
t-36.5 49t-3 23t17 10q12 7 25 8t23 -10l-1 1q26 -24 54.5 -53t54.5 -53q2 -6 3 -10q2 -10 2 -11q0 -9 -4 -17.5t-15 -22.5z" />
    <glyph glyph-name="Yacute" unicode="&#xdd;" horiz-adv-x="403" 
d="M-5 645q6 7 14.5 8t11.5 1q18 0 27 -6.5t20 -24.5l120 -202q2 -2 4.5 -5.5t5.5 -6.5q5 26 10 59t11 70q8 52 17.5 107.5t24 105t34.5 89t49 58.5l62 -63q-16 -4 -34 -9.5t-20 -7.5q-20 -57 -30.5 -120.5t-18.5 -125.5q-6 -54 -14 -111t-25 -111q-4 -14 -11 -20t-16 -8
q2 -15 6 -33.5t6 -38.5q3 -24 6.5 -49t7 -46.5t6 -37.5t4.5 -22q3 -11 14 -25.5t29 -27.5q-11 -23 -21 -33t-23 -10q-17 0 -31 11.5t-24.5 27.5t-17 33.5t-9.5 28.5q-5 20 -10 58t-9 77t-7 71.5t-4 41.5q-29 25 -56.5 64t-51 79.5t-40 75.5t-23.5 52zM76 736
q-12 14 -15.5 23t-3.5 20l1 -3q-1 3 -0.5 7t1.5 7q1 4 1 8l111 105q9 9 22.5 8.5t24.5 -7.5q11 -4 17 -10t-3 -23t-36.5 -49t-84.5 -88z" />
    <glyph glyph-name="Ycircumflex" unicode="&#x176;" horiz-adv-x="403" 
d="M-5 645q6 7 14.5 8t11.5 1q18 0 27 -6.5t20 -24.5l120 -202q2 -2 4.5 -5.5t5.5 -6.5q5 26 10 59t11 70q8 52 17.5 107.5t24 105t34.5 89t49 58.5l62 -63q-16 -4 -34 -9.5t-20 -7.5q-20 -57 -30.5 -120.5t-18.5 -125.5q-6 -54 -14 -111t-25 -111q-4 -14 -11 -20t-16 -8
q2 -15 6 -33.5t6 -38.5q3 -24 6.5 -49t7 -46.5t6 -37.5t4.5 -22q3 -11 14 -25.5t29 -27.5q-11 -23 -21 -33t-23 -10q-17 0 -31 11.5t-24.5 27.5t-17 33.5t-9.5 28.5q-5 20 -10 58t-9 77t-7 71.5t-4 41.5q-29 25 -56.5 64t-51 79.5t-40 75.5t-23.5 52zM90 931v-1
q7 14 14.5 18t20.5 4t22 -4t13 -20q18 -37 37 -76.5t36 -74.5q0 -2 0.5 -10t0.5 -10q-18 -23 -33.5 -24t-29 11t-25.5 33t-22 43q-2 4 -2 4.5v0.5v0.5t-3 4.5q-8 -12 -13.5 -22t-10.5 -18q-8 -11 -20.5 -31t-21.5 -33l-59 35z" />
    <glyph glyph-name="Ygrave" unicode="&#x1ef2;" horiz-adv-x="403" 
d="M-5 645q6 7 14.5 8t11.5 1q18 0 27 -6.5t20 -24.5l120 -202q2 -2 4.5 -5.5t5.5 -6.5q5 26 10 59t11 70q8 52 17.5 107.5t24 105t34.5 89t49 58.5l62 -63q-16 -4 -34 -9.5t-20 -7.5q-20 -57 -30.5 -120.5t-18.5 -125.5q-6 -54 -14 -111t-25 -111q-4 -14 -11 -20t-16 -8
q2 -15 6 -33.5t6 -38.5q3 -24 6.5 -49t7 -46.5t6 -37.5t4.5 -22q3 -11 14 -25.5t29 -27.5q-11 -23 -21 -33t-23 -10q-17 0 -31 11.5t-24.5 27.5t-17 33.5t-9.5 28.5q-5 20 -10 58t-9 77t-7 71.5t-4 41.5q-29 25 -56.5 64t-51 79.5t-40 75.5t-23.5 52zM163 727
q-57 56 -84.5 88t-36.5 49t-3 23t17 10q12 7 25 8t23 -10l-1 1q26 -24 54.5 -53t54.5 -53q2 -6 3 -10q2 -10 2 -11q0 -9 -4 -17.5t-15 -22.5z" />
    <glyph glyph-name="Zacute" unicode="&#x179;" horiz-adv-x="668" 
d="M208 -2q0 165 46 300q-14 -2 -27 -5t-27 -6q-24 -6 -51.5 -10.5t-69.5 -4.5v66q7 1 26.5 5.5t43 9.5l47 10t40.5 9q9 2 16.5 4t11.5 3l-1 -1q25 6 38 31q6 16 16.5 42t20.5 52t17.5 46t9.5 24l-1 -1q7 21 12.5 41t5.5 39q0 5 -8 8h-21q-8 0 -15 0.5t-10 0.5
q-71 0 -135 -20t-130 -55h-9h-6q-7 0 -13 0.5t-12 5t-11 14t-10 26.5q42 22 82.5 41t81 33.5t82 22.5t85.5 8q22 0 44 -2.5t40 -11.5t29.5 -27t11.5 -49q0 -2 -0.5 -5.5t-0.5 -7.5v-10l-75 -217q23 2 44 6.5t43 9.5q32 8 64 14t65 6h54q-9 -21 -18.5 -33.5t-18.5 -19.5
t-17 -10t-14 -4q-12 -3 -42.5 -9t-62.5 -14q-36 -8 -66.5 -14.5t-38.5 -8.5v1q-27 -6 -42 -34t-22.5 -65t-9.5 -77t-2 -70h1q13 5 42 15.5t60.5 22t59 21.5l38.5 14q2 0 14.5 2.5t28 5.5t31.5 6t25 4q2 0 5 0.5t4 0.5t2 -0.5t3 -0.5h62l-59 -59q-1 0 -13.5 -4.5t-29 -10.5
t-34.5 -11.5t-29 -8.5h-8q-10 -5 -20.5 -9.5t-20.5 -9.5h1q-27 -12 -55 -23.5t-58 -21t-64.5 -15t-75.5 -5.5zM217 778q-12 14 -15.5 23t-3.5 20l1 -3q-1 3 -0.5 7t1.5 7q1 4 1 8l111 105q9 9 22.5 8.5t24.5 -7.5q11 -4 17 -10t-3 -23t-36.5 -49t-84.5 -88z" />
    <glyph glyph-name="Zdotaccent" unicode="&#x17b;" horiz-adv-x="668" 
d="M208 -2q0 165 46 300q-14 -2 -27 -5t-27 -6q-24 -6 -51.5 -10.5t-69.5 -4.5v66q7 1 26.5 5.5t43 9.5l47 10t40.5 9q9 2 16.5 4t11.5 3l-1 -1q25 6 38 31q6 16 16.5 42t20.5 52t17.5 46t9.5 24l-1 -1q7 21 12.5 41t5.5 39q0 5 -8 8h-21q-8 0 -15 0.5t-10 0.5
q-71 0 -135 -20t-130 -55h-9h-6q-7 0 -13 0.5t-12 5t-11 14t-10 26.5q42 22 82.5 41t81 33.5t82 22.5t85.5 8q22 0 44 -2.5t40 -11.5t29.5 -27t11.5 -49q0 -2 -0.5 -5.5t-0.5 -7.5v-10l-75 -217q23 2 44 6.5t43 9.5q32 8 64 14t65 6h54q-9 -21 -18.5 -33.5t-18.5 -19.5
t-17 -10t-14 -4q-12 -3 -42.5 -9t-62.5 -14q-36 -8 -66.5 -14.5t-38.5 -8.5v1q-27 -6 -42 -34t-22.5 -65t-9.5 -77t-2 -70h1q13 5 42 15.5t60.5 22t59 21.5l38.5 14q2 0 14.5 2.5t28 5.5t31.5 6t25 4q2 0 5 0.5t4 0.5t2 -0.5t3 -0.5h62l-59 -59q-1 0 -13.5 -4.5t-29 -10.5
t-34.5 -11.5t-29 -8.5h-8q-10 -5 -20.5 -9.5t-20.5 -9.5h1q-27 -12 -55 -23.5t-58 -21t-64.5 -15t-75.5 -5.5zM150 844q0 18 7.5 29.5t19.5 17.5t26.5 7.5t28.5 0.5q23 -5 31.5 -20.5t8.5 -30.5q0 -11 -6.5 -21.5t-16.5 -19.5t-21.5 -14.5t-20.5 -5.5q-23 0 -40 17t-17 40z
" />
    <glyph glyph-name="aacute" unicode="&#xe1;" horiz-adv-x="503" 
d="M10 78q0 18 8.5 51.5t23.5 73t35.5 80.5t44.5 74.5t50.5 55t53.5 21.5q26 0 39.5 -6.5t19.5 -18.5t6.5 -28.5t0.5 -36.5t-1.5 -32t-3.5 -25t-3 -26t-1 -25q-10 -36 -10 -66q0 -37 19 -61t64 -26q17 1 39 10t46 23t48 32t45 38v-14v-17.5t0.5 -15.5l0.5 -7v-3q0 -1 1 -1
q0 -27 -23 -47.5t-54 -35t-62.5 -21.5t-47.5 -7h-8h-18.5t-21.5 1.5t-21 4.5t-17 9q-7 5 -21.5 19t-27.5 27q-12 -13 -27 -27t-31.5 -25.5t-34.5 -19t-37 -7.5q-37 0 -55.5 22t-18.5 57zM85 81q0 -2 -0.5 -4t-0.5 -3q23 0 42.5 16t35 41t28 55.5t20.5 61t12.5 57t4.5 42.5
q0 14 -5 14q-16 0 -32.5 -16.5t-32 -42.5t-28.5 -58.5t-23 -63.5t-15.5 -57.5t-5.5 -41.5zM186 564q-12 14 -15.5 23t-3.5 20l1 -3q-1 3 -0.5 7t1.5 7q1 4 1 8l111 105q9 9 22.5 8.5t24.5 -7.5q11 -4 17 -10t-3 -23t-36.5 -49t-84.5 -88z" />
    <glyph glyph-name="abreve" unicode="&#x103;" horiz-adv-x="503" 
d="M10 78q0 18 8.5 51.5t23.5 73t35.5 80.5t44.5 74.5t50.5 55t53.5 21.5q26 0 39.5 -6.5t19.5 -18.5t6.5 -28.5t0.5 -36.5t-1.5 -32t-3.5 -25t-3 -26t-1 -25q-10 -36 -10 -66q0 -37 19 -61t64 -26q17 1 39 10t46 23t48 32t45 38v-14v-17.5t0.5 -15.5l0.5 -7v-3q0 -1 1 -1
q0 -27 -23 -47.5t-54 -35t-62.5 -21.5t-47.5 -7h-8h-18.5t-21.5 1.5t-21 4.5t-17 9q-7 5 -21.5 19t-27.5 27q-12 -13 -27 -27t-31.5 -25.5t-34.5 -19t-37 -7.5q-37 0 -55.5 22t-18.5 57zM85 81q0 -2 -0.5 -4t-0.5 -3q23 0 42.5 16t35 41t28 55.5t20.5 61t12.5 57t4.5 42.5
q0 14 -5 14q-16 0 -32.5 -16.5t-32 -42.5t-28.5 -58.5t-23 -63.5t-15.5 -57.5t-5.5 -41.5zM175 744q12 -51 34.5 -79.5t45.5 -28.5q19 0 36.5 19.5t28.5 64.5q34 36 53 23.5t9 -61.5l1 3q-3 -24 -15 -46.5t-30.5 -40.5t-41.5 -28.5t-48 -10.5q-40 0 -79.5 37.5t-67.5 130.5z
" />
    <glyph glyph-name="acircumflex" unicode="&#xe2;" horiz-adv-x="503" 
d="M10 78q0 18 8.5 51.5t23.5 73t35.5 80.5t44.5 74.5t50.5 55t53.5 21.5q26 0 39.5 -6.5t19.5 -18.5t6.5 -28.5t0.5 -36.5t-1.5 -32t-3.5 -25t-3 -26t-1 -25q-10 -36 -10 -66q0 -37 19 -61t64 -26q17 1 39 10t46 23t48 32t45 38v-14v-17.5t0.5 -15.5l0.5 -7v-3q0 -1 1 -1
q0 -27 -23 -47.5t-54 -35t-62.5 -21.5t-47.5 -7h-8h-18.5t-21.5 1.5t-21 4.5t-17 9q-7 5 -21.5 19t-27.5 27q-12 -13 -27 -27t-31.5 -25.5t-34.5 -19t-37 -7.5q-37 0 -55.5 22t-18.5 57zM85 81q0 -2 -0.5 -4t-0.5 -3q23 0 42.5 16t35 41t28 55.5t20.5 61t12.5 57t4.5 42.5
q0 14 -5 14q-16 0 -32.5 -16.5t-32 -42.5t-28.5 -58.5t-23 -63.5t-15.5 -57.5t-5.5 -41.5zM217 717v-1q7 14 14.5 18t20.5 4t22 -4t13 -20q18 -37 37 -76.5t36 -74.5q0 -2 0.5 -10t0.5 -10q-18 -23 -33.5 -24t-29 11t-25.5 33t-22 43q-2 4 -2 4.5v0.5v0.5t-3 4.5
q-8 -12 -13.5 -22t-10.5 -18q-8 -11 -20.5 -31t-21.5 -33l-59 35z" />
    <glyph glyph-name="adieresis" unicode="&#xe4;" horiz-adv-x="503" 
d="M10 78q0 18 8.5 51.5t23.5 73t35.5 80.5t44.5 74.5t50.5 55t53.5 21.5q26 0 39.5 -6.5t19.5 -18.5t6.5 -28.5t0.5 -36.5t-1.5 -32t-3.5 -25t-3 -26t-1 -25q-10 -36 -10 -66q0 -37 19 -61t64 -26q17 1 39 10t46 23t48 32t45 38v-14v-17.5t0.5 -15.5l0.5 -7v-3q0 -1 1 -1
q0 -27 -23 -47.5t-54 -35t-62.5 -21.5t-47.5 -7h-8h-18.5t-21.5 1.5t-21 4.5t-17 9q-7 5 -21.5 19t-27.5 27q-12 -13 -27 -27t-31.5 -25.5t-34.5 -19t-37 -7.5q-37 0 -55.5 22t-18.5 57zM85 81q0 -2 -0.5 -4t-0.5 -3q23 0 42.5 16t35 41t28 55.5t20.5 61t12.5 57t4.5 42.5
q0 14 -5 14q-16 0 -32.5 -16.5t-32 -42.5t-28.5 -58.5t-23 -63.5t-15.5 -57.5t-5.5 -41.5zM142 621q0 18 7.5 30t19.5 18.5t26.5 8t28.5 -0.5q23 -4 31 -20t8 -31q0 -11 -6.5 -21.5t-16.5 -19t-21 -14t-21 -5.5q-23 0 -39.5 16t-16.5 39zM289 622q0 36 22.5 45.5t51.5 5.5
q23 -4 31.5 -20t8.5 -31q0 -11 -6.5 -21.5t-16.5 -19t-21.5 -14t-20.5 -5.5q-23 0 -36 18.5t-13 41.5z" />
    <glyph glyph-name="agrave" unicode="&#xe0;" horiz-adv-x="503" 
d="M10 78q0 18 8.5 51.5t23.5 73t35.5 80.5t44.5 74.5t50.5 55t53.5 21.5q26 0 39.5 -6.5t19.5 -18.5t6.5 -28.5t0.5 -36.5t-1.5 -32t-3.5 -25t-3 -26t-1 -25q-10 -36 -10 -66q0 -37 19 -61t64 -26q17 1 39 10t46 23t48 32t45 38v-14v-17.5t0.5 -15.5l0.5 -7v-3q0 -1 1 -1
q0 -27 -23 -47.5t-54 -35t-62.5 -21.5t-47.5 -7h-8h-18.5t-21.5 1.5t-21 4.5t-17 9q-7 5 -21.5 19t-27.5 27q-12 -13 -27 -27t-31.5 -25.5t-34.5 -19t-37 -7.5q-37 0 -55.5 22t-18.5 57zM85 81q0 -2 -0.5 -4t-0.5 -3q23 0 42.5 16t35 41t28 55.5t20.5 61t12.5 57t4.5 42.5
q0 14 -5 14q-16 0 -32.5 -16.5t-32 -42.5t-28.5 -58.5t-23 -63.5t-15.5 -57.5t-5.5 -41.5zM286 513q-57 56 -84.5 88t-36.5 49t-3 23t17 10q12 7 25 8t23 -10l-1 1q26 -24 54.5 -53t54.5 -53q2 -6 3 -10q2 -10 2 -11q0 -9 -4 -17.5t-15 -22.5z" />
    <glyph glyph-name="amacron" unicode="&#x101;" horiz-adv-x="503" 
d="M10 78q0 18 8.5 51.5t23.5 73t35.5 80.5t44.5 74.5t50.5 55t53.5 21.5q26 0 39.5 -6.5t19.5 -18.5t6.5 -28.5t0.5 -36.5t-1.5 -32t-3.5 -25t-3 -26t-1 -25q-10 -36 -10 -66q0 -37 19 -61t64 -26q17 1 39 10t46 23t48 32t45 38v-14v-17.5t0.5 -15.5l0.5 -7v-3q0 -1 1 -1
q0 -27 -23 -47.5t-54 -35t-62.5 -21.5t-47.5 -7h-8h-18.5t-21.5 1.5t-21 4.5t-17 9q-7 5 -21.5 19t-27.5 27q-12 -13 -27 -27t-31.5 -25.5t-34.5 -19t-37 -7.5q-37 0 -55.5 22t-18.5 57zM85 81q0 -2 -0.5 -4t-0.5 -3q23 0 42.5 16t35 41t28 55.5t20.5 61t12.5 57t4.5 42.5
q0 14 -5 14q-16 0 -32.5 -16.5t-32 -42.5t-28.5 -58.5t-23 -63.5t-15.5 -57.5t-5.5 -41.5zM103 644q19 4 39.5 5.5t43.5 1.5q17 0 33.5 -0.5t33.5 -1.5q11 0 27 -0.5t26 -0.5q28 0 49 3h8q5 0 11 -2h-1q23 -6 30.5 -29.5t7.5 -57.5l-49 12q-48 -2 -93 -4t-93 -4
q-6 -2 -11.5 0t-11.5 4q-2 0 -2.5 0.5t-1.5 0.5h-5q-8 2 -18 5t-19 8.5t-15 14t-7 21.5z" />
    <glyph glyph-name="aogonek" unicode="&#x105;" horiz-adv-x="503" 
d="M10 78q0 18 8.5 51.5t23.5 73t35.5 80.5t44.5 74.5t50.5 55t53.5 21.5q26 0 39.5 -6.5t19.5 -18.5t6.5 -28.5t0.5 -36.5t-1.5 -32t-3.5 -25t-3 -26t-1 -25q-10 -36 -10 -66q0 -37 19 -61t64 -26q17 1 39 10t46 23t48 32t45 38v-14v-17.5t0.5 -15.5l0.5 -7v-3q0 -1 1 -1
q0 -27 -23 -47.5t-54 -35t-62.5 -21.5t-47.5 -7h-8h-18.5t-21.5 1.5t-21 4.5t-17 9q-7 5 -21.5 19t-27.5 27q-12 -13 -27 -27t-31.5 -25.5t-34.5 -19t-37 -7.5q-37 0 -55.5 22t-18.5 57zM85 81q0 -2 -0.5 -4t-0.5 -3q23 0 42.5 16t35 41t28 55.5t20.5 61t12.5 57t4.5 42.5
q0 14 -5 14q-16 0 -32.5 -16.5t-32 -42.5t-28.5 -58.5t-23 -63.5t-15.5 -57.5t-5.5 -41.5zM395 -203q-27 1 -53 8t-45.5 18.5t-31.5 27t-12 35.5t10 42t26 45t36.5 46t41.5 46l4 -61q-10 -11 -18 -26.5t-13.5 -31t-9 -29.5t-3.5 -23q1 -26 66 -26z" />
    <glyph glyph-name="aring" unicode="&#xe5;" horiz-adv-x="503" 
d="M10 78q0 18 8.5 51.5t23.5 73t35.5 80.5t44.5 74.5t50.5 55t53.5 21.5q26 0 39.5 -6.5t19.5 -18.5t6.5 -28.5t0.5 -36.5t-1.5 -32t-3.5 -25t-3 -26t-1 -25q-10 -36 -10 -66q0 -37 19 -61t64 -26q17 1 39 10t46 23t48 32t45 38v-14v-17.5t0.5 -15.5l0.5 -7v-3q0 -1 1 -1
q0 -27 -23 -47.5t-54 -35t-62.5 -21.5t-47.5 -7h-8h-18.5t-21.5 1.5t-21 4.5t-17 9q-7 5 -21.5 19t-27.5 27q-12 -13 -27 -27t-31.5 -25.5t-34.5 -19t-37 -7.5q-37 0 -55.5 22t-18.5 57zM85 81q0 -2 -0.5 -4t-0.5 -3q23 0 42.5 16t35 41t28 55.5t20.5 61t12.5 57t4.5 42.5
q0 14 -5 14q-16 0 -32.5 -16.5t-32 -42.5t-28.5 -58.5t-23 -63.5t-15.5 -57.5t-5.5 -41.5zM124 648q0 29 13 55.5t32 49.5q-11 11 -11 24q0 14 11.5 28.5t28.5 21.5q1 0 6.5 0.5t10.5 0.5h10q50 0 87.5 -24t54.5 -65q0 -2 0.5 -7t0.5 -10v-21q0 -25 -4.5 -50t-17 -45.5
t-36.5 -33t-63 -12.5q-24 0 -46 6t-39 17.5t-27.5 28t-10.5 36.5zM198 654q1 -26 45 -26q19 0 30 6t17 15.5t7.5 22t1.5 24.5q0 20 -8.5 39t-28.5 27q-10 -10 -21 -23.5t-20.5 -28.5t-16 -29.5t-6.5 -26.5z" />
    <glyph glyph-name="atilde" unicode="&#xe3;" horiz-adv-x="503" 
d="M10 78q0 18 8.5 51.5t23.5 73t35.5 80.5t44.5 74.5t50.5 55t53.5 21.5q26 0 39.5 -6.5t19.5 -18.5t6.5 -28.5t0.5 -36.5t-1.5 -32t-3.5 -25t-3 -26t-1 -25q-10 -36 -10 -66q0 -37 19 -61t64 -26q17 1 39 10t46 23t48 32t45 38v-14v-17.5t0.5 -15.5l0.5 -7v-3q0 -1 1 -1
q0 -27 -23 -47.5t-54 -35t-62.5 -21.5t-47.5 -7h-8h-18.5t-21.5 1.5t-21 4.5t-17 9q-7 5 -21.5 19t-27.5 27q-12 -13 -27 -27t-31.5 -25.5t-34.5 -19t-37 -7.5q-37 0 -55.5 22t-18.5 57zM85 81q0 -2 -0.5 -4t-0.5 -3q23 0 42.5 16t35 41t28 55.5t20.5 61t12.5 57t4.5 42.5
q0 14 -5 14q-16 0 -32.5 -16.5t-32 -42.5t-28.5 -58.5t-23 -63.5t-15.5 -57.5t-5.5 -41.5zM284 556q-24 0 -38.5 6.5t-23.5 17.5t-13.5 25.5t-8.5 29.5q-4 13 -9 24.5t-13 14.5q-26 -2 -44 -18.5t-37 -38.5v1q-2 -3 -5.5 -6.5l-6.5 -6.5q-12 -13 -31.5 -16t-44.5 -3
q0 18 1.5 28t4.5 16t7 9t8 7l2 1q8 8 15 15.5t14 15.5q12 13 23 25t25 21t32.5 15.5t45.5 8.5q11 0 18.5 -1.5t14 -6t13 -12.5t15.5 -20q3 -7 6 -18.5t6 -21.5q3 -17 9 -30t21 -11q14 -1 30.5 14t31.5 32q13 15 26.5 28t28.5 19.5t31 3.5t36 -19q0 -11 -4 -21q-2 -4 -3 -8
q-50 -42 -83 -67t-53 -37t-30.5 -15t-16.5 -1zM276 559q2 -3 8 -3q-2 0 -4 1z" />
    <glyph glyph-name="ae" unicode="&#xe6;" horiz-adv-x="538" 
d="M10 78q0 18 8.5 51.5t23.5 73t35.5 80.5t44.5 74.5t50.5 55t53.5 21.5q14 0 25 -3t19 -8q17 20 40 37.5t46 17.5q10 0 29.5 -7.5t39.5 -18.5t35 -23.5t17 -23.5v1q3 -31 -5.5 -54t-24.5 -41t-37 -32t-43 -27q-25 -12 -39 -25q-9 -9 -18.5 -17t-17.5 -13t-12.5 -10
t-4.5 -19q0 -29 10 -50v1q13 -28 33 -40t43 -12q18 0 40 11t45 31t45.5 47t42.5 59v-21.5v-27t0.5 -24l0.5 -10.5v-3q0 -1 1 -1q0 -11 -1.5 -17t-3.5 -11l-2 -9q0 -21 -20.5 -39.5t-47.5 -32t-54.5 -21t-41.5 -7.5q-37 0 -65.5 14t-47.5 37q-8 7 -18.5 17t-19.5 19
q-12 -13 -27 -27t-31.5 -25.5t-34.5 -19t-37 -7.5q-37 0 -55.5 22t-18.5 57zM85 81q0 -2 -0.5 -4t-0.5 -3q32 0 56.5 30t41.5 72.5t28 89.5t17 80v1q0 14 -5 14q-16 0 -32.5 -16.5t-32 -42.5t-28.5 -58.5t-23 -63.5t-15.5 -57.5t-5.5 -41.5zM362 404q-14 0 -26 -10.5
t-21.5 -27t-16.5 -35.5t-11 -37l1 2q-1 -4 -1.5 -6.5t-0.5 -6.5q5 4 10.5 6.5t10.5 6.5q19 10 36.5 21t31 23.5t22 27.5t8.5 33q0 1 -5.5 1.5t-12.5 1t-14 0.5h-11zM246 259l39 -20v28v5.5t1 7.5h-1v1q0 1 1 2q-12 -7 -23 -13t-17 -11z" />
    <glyph glyph-name="aeacute" unicode="&#x1fd;" horiz-adv-x="538" 
d="M10 78q0 18 8.5 51.5t23.5 73t35.5 80.5t44.5 74.5t50.5 55t53.5 21.5q14 0 25 -3t19 -8q17 20 40 37.5t46 17.5q10 0 29.5 -7.5t39.5 -18.5t35 -23.5t17 -23.5v1q3 -31 -5.5 -54t-24.5 -41t-37 -32t-43 -27q-25 -12 -39 -25q-9 -9 -18.5 -17t-17.5 -13t-12.5 -10
t-4.5 -19q0 -29 10 -50v1q13 -28 33 -40t43 -12q18 0 40 11t45 31t45.5 47t42.5 59v-21.5v-27t0.5 -24l0.5 -10.5v-3q0 -1 1 -1q0 -11 -1.5 -17t-3.5 -11l-2 -9q0 -21 -20.5 -39.5t-47.5 -32t-54.5 -21t-41.5 -7.5q-37 0 -65.5 14t-47.5 37q-8 7 -18.5 17t-19.5 19
q-12 -13 -27 -27t-31.5 -25.5t-34.5 -19t-37 -7.5q-37 0 -55.5 22t-18.5 57zM85 81q0 -2 -0.5 -4t-0.5 -3q32 0 56.5 30t41.5 72.5t28 89.5t17 80v1q0 14 -5 14q-16 0 -32.5 -16.5t-32 -42.5t-28.5 -58.5t-23 -63.5t-15.5 -57.5t-5.5 -41.5zM362 404q-14 0 -26 -10.5
t-21.5 -27t-16.5 -35.5t-11 -37l1 2q-1 -4 -1.5 -6.5t-0.5 -6.5q5 4 10.5 6.5t10.5 6.5q19 10 36.5 21t31 23.5t22 27.5t8.5 33q0 1 -5.5 1.5t-12.5 1t-14 0.5h-11zM246 259l39 -20v28v5.5t1 7.5h-1v1q0 1 1 2q-12 -7 -23 -13t-17 -11zM259 480q-12 14 -15.5 23t-3.5 20
l1 -3q-1 3 -0.5 7t1.5 7q1 4 1 8l111 105q9 9 22.5 8.5t24.5 -7.5q11 -4 17 -10t-3 -23t-36.5 -49t-84.5 -88z" />
    <glyph glyph-name="cacute" unicode="&#x107;" horiz-adv-x="438" 
d="M8 149q0 23 7 52.5t20 60t31.5 60t41 52t49 36.5t55.5 14q16 0 32 -6.5t28.5 -17.5t20 -26t7.5 -32q0 -15 -13.5 -31.5t-51.5 -16.5q0 7 -1 17t-2.5 19t-4.5 15t-6 6q-32 0 -57.5 -22t-43.5 -54t-27.5 -67.5t-9.5 -62.5q0 -20 8.5 -34t22 -22.5t31 -12t34.5 -3.5
q31 0 64.5 8.5t68 22.5t70 31.5t69.5 36.5l1 -45q0 -11 -16.5 -25t-43 -28.5t-58 -28t-62 -23.5t-55 -16.5t-36.5 -6.5q-31 0 -62 10t-55.5 29t-40 47t-15.5 64zM154 564q-12 14 -15.5 23t-3.5 20l1 -3q-1 3 -0.5 7t1.5 7q1 4 1 8l111 105q9 9 22.5 8.5t24.5 -7.5
q11 -4 17 -10t-3 -23t-36.5 -49t-84.5 -88z" />
    <glyph glyph-name="ccaron" unicode="&#x10d;" horiz-adv-x="438" 
d="M8 149q0 23 7 52.5t20 60t31.5 60t41 52t49 36.5t55.5 14q16 0 32 -6.5t28.5 -17.5t20 -26t7.5 -32q0 -15 -13.5 -31.5t-51.5 -16.5q0 7 -1 17t-2.5 19t-4.5 15t-6 6q-32 0 -57.5 -22t-43.5 -54t-27.5 -67.5t-9.5 -62.5q0 -20 8.5 -34t22 -22.5t31 -12t34.5 -3.5
q31 0 64.5 8.5t68 22.5t70 31.5t69.5 36.5l1 -45q0 -11 -16.5 -25t-43 -28.5t-58 -28t-62 -23.5t-55 -16.5t-36.5 -6.5q-31 0 -62 10t-55.5 29t-40 47t-15.5 64zM80 775l77 17q8 -10 13.5 -18.5t7.5 -12.5q17 -26 32 -47t32 -44q4 5 7.5 9t6.5 9q8 11 15.5 21.5t9.5 16.5
l-1 -2q4 14 12 26q7 11 17.5 21t26.5 15q16 -19 21 -28t5 -20q0 -1 -0.5 -3t-0.5 -4q-1 -3 -1 -6l-74 -141q-4 -11 -14 -16t-20 -5q-14 0 -20.5 4t-12.5 12z" />
    <glyph glyph-name="ccedilla" unicode="&#xe7;" horiz-adv-x="438" 
d="M8 149q0 23 7 52.5t20 60t31.5 60t41 52t49 36.5t55.5 14q16 0 32 -6.5t28.5 -17.5t20 -26t7.5 -32q0 -15 -13.5 -31.5t-51.5 -16.5q0 7 -1 17t-2.5 19t-4.5 15t-6 6q-32 0 -57.5 -22t-43.5 -54t-27.5 -67.5t-9.5 -62.5q0 -20 8.5 -34t22 -22.5t31 -12t34.5 -3.5
q31 0 64.5 8.5t68 22.5t70 31.5t69.5 36.5l1 -45q0 -11 -16.5 -25t-43 -28.5t-58 -28t-62 -23.5t-55 -16.5t-36.5 -6.5q-31 0 -62 10t-55.5 29t-40 47t-15.5 64zM111 -224q0 16 5.5 30t13.5 24t17.5 15.5t17.5 5.5q14 0 24.5 -9.5t12.5 -29.5q3 0 4.5 -1t4.5 -1q14 -2 27 -4
t19 -1q9 1 23 6t27.5 12.5t23 17.5t9.5 22q0 6 -19 7t-45 0q-29 0 -58.5 1t-53.5 11.5t-39.5 33t-15.5 65.5q0 52 10.5 72.5t27.5 20.5q8 0 16.5 -12.5t15 -30.5t9.5 -37t0 -32l4 6q0 -14 5.5 -21.5t15.5 -11t22.5 -3.5t26.5 1q7 0 14.5 0.5t15.5 0.5q31 0 61.5 -9t59.5 -40
v-22q0 -37 -23.5 -62.5t-56 -41.5t-68 -23t-59.5 -7h-4q-11 0 -26.5 0.5t-29.5 5t-24.5 14t-10.5 27.5z" />
    <glyph glyph-name="ccircumflex" unicode="&#x109;" horiz-adv-x="438" 
d="M8 149q0 23 7 52.5t20 60t31.5 60t41 52t49 36.5t55.5 14q16 0 32 -6.5t28.5 -17.5t20 -26t7.5 -32q0 -15 -13.5 -31.5t-51.5 -16.5q0 7 -1 17t-2.5 19t-4.5 15t-6 6q-32 0 -57.5 -22t-43.5 -54t-27.5 -67.5t-9.5 -62.5q0 -20 8.5 -34t22 -22.5t31 -12t34.5 -3.5
q31 0 64.5 8.5t68 22.5t70 31.5t69.5 36.5l1 -45q0 -11 -16.5 -25t-43 -28.5t-58 -28t-62 -23.5t-55 -16.5t-36.5 -6.5q-31 0 -62 10t-55.5 29t-40 47t-15.5 64zM184 717v-1q7 14 14.5 18t20.5 4t22 -4t13 -20q18 -37 37 -76.5t36 -74.5q0 -2 0.5 -10t0.5 -10
q-18 -23 -33.5 -24t-29 11t-25.5 33t-22 43q-2 4 -2 4.5v0.5v0.5t-3 4.5q-8 -12 -13.5 -22t-10.5 -18q-8 -11 -20.5 -31t-21.5 -33l-59 35z" />
    <glyph glyph-name="cdotaccent" unicode="&#x10b;" horiz-adv-x="438" 
d="M8 149q0 23 7 52.5t20 60t31.5 60t41 52t49 36.5t55.5 14q16 0 32 -6.5t28.5 -17.5t20 -26t7.5 -32q0 -15 -13.5 -31.5t-51.5 -16.5q0 7 -1 17t-2.5 19t-4.5 15t-6 6q-32 0 -57.5 -22t-43.5 -54t-27.5 -67.5t-9.5 -62.5q0 -20 8.5 -34t22 -22.5t31 -12t34.5 -3.5
q31 0 64.5 8.5t68 22.5t70 31.5t69.5 36.5l1 -45q0 -11 -16.5 -25t-43 -28.5t-58 -28t-62 -23.5t-55 -16.5t-36.5 -6.5q-31 0 -62 10t-55.5 29t-40 47t-15.5 64zM160 617q0 18 7.5 29.5t19.5 17.5t26.5 7.5t28.5 0.5q23 -5 31.5 -20.5t8.5 -30.5q0 -11 -6.5 -21.5
t-16.5 -19.5t-21.5 -14.5t-20.5 -5.5q-23 0 -40 17t-17 40z" />
    <glyph glyph-name="dcaron" unicode="&#x10f;" horiz-adv-x="563" 
d="M258 382q26 0 42 -10t25 -26t12 -35t3 -38q2 14 4 32t5 38v-1q6 48 14 102.5t20.5 100t29.5 75.5t41 30q22 0 33.5 -12.5t17 -29.5t6 -35t0.5 -28v-3q0 -38 -8.5 -75t-21.5 -72.5t-29.5 -69t-31.5 -64.5q-1 -5 -1.5 -18t-0.5 -17q0 -37 15 -63.5t43 -44t68.5 -27.5
t91.5 -14q-33 -19 -55 -29.5t-36.5 -15t-23.5 -5.5t-18 -1h-4q-32 0 -55.5 11t-41.5 30t-30.5 43.5t-22.5 50.5q-10 -10 -18.5 -19.5t-17.5 -19.5q-20 -23 -41 -45t-44.5 -39t-52 -28t-63.5 -11q-9 0 -25 3.5t-32.5 11t-28.5 19t-12 26.5v82q0 2 9.5 18t23 37t28 42t25.5 33
q12 15 29 34.5t38 36.5t44 28.5t47 11.5zM228 122q11 9 23 20.5t26 24.5v56q0 21 -2 43.5t-9 38.5q-3 0 -5 0.5t-3 0.5q-18 0 -38 -11t-40 -29t-38.5 -40.5t-32.5 -45.5t-22.5 -44t-8.5 -36q0 -13 12 -25q3 0 7 -0.5t6 -0.5q5 0 9 -0.5t6 -0.5q18 0 31.5 2.5t25.5 8.5
t24.5 15t28.5 23zM396 314q7 -4 16 17.5t17.5 54.5t16 71.5t11 69.5t3 48t-7.5 7q3 8 -0.5 -8.5t-11 -45.5t-17 -65.5t-17 -68.5t-11 -55t0.5 -25zM571 640q20 0 30.5 -9.5t15 -23t4.5 -29v-27.5v-8q0 -21 -0.5 -39t-2 -38t-4 -44.5t-7.5 -57.5q-8 5 -18.5 14t-19.5 19
t-15.5 18.5t-6.5 13.5v187z" />
    <glyph glyph-name="dcroat" unicode="&#x111;" horiz-adv-x="563" 
d="M258 382q26 0 42 -10t25 -26t12 -35t3 -38q2 14 4 32t5 38v-1q6 48 14 102.5t20.5 100t29.5 75.5t41 30q22 0 33.5 -12.5t17 -29.5t6 -35t0.5 -28v-3q0 -38 -8.5 -75t-21.5 -72.5t-29.5 -69t-31.5 -64.5q-1 -5 -1.5 -18t-0.5 -17q0 -37 15 -63.5t43 -44t68.5 -27.5
t91.5 -14q-33 -19 -55 -29.5t-36.5 -15t-23.5 -5.5t-18 -1h-4q-32 0 -55.5 11t-41.5 30t-30.5 43.5t-22.5 50.5q-10 -10 -18.5 -19.5t-17.5 -19.5q-20 -23 -41 -45t-44.5 -39t-52 -28t-63.5 -11q-9 0 -25 3.5t-32.5 11t-28.5 19t-12 26.5v82q0 2 9.5 18t23 37t28 42t25.5 33
q12 15 29 34.5t38 36.5t44 28.5t47 11.5zM228 122q11 9 23 20.5t26 24.5v56q0 21 -2 43.5t-9 38.5q-3 0 -5 0.5t-3 0.5q-18 0 -38 -11t-40 -29t-38.5 -40.5t-32.5 -45.5t-22.5 -44t-8.5 -36q0 -13 12 -25q3 0 7 -0.5t6 -0.5q5 0 9 -0.5t6 -0.5q18 0 31.5 2.5t25.5 8.5
t24.5 15t28.5 23zM396 314q7 -4 16 17.5t17.5 54.5t16 71.5t11 69.5t3 48t-7.5 7q3 8 -0.5 -8.5t-11 -45.5t-17 -65.5t-17 -68.5t-11 -55t0.5 -25zM229.583 448.046q0 10.6885 19.835 15.5879q19.8359 4.89941 46.4238 8.0166q26.5869 3.11816 54.0195 4.89941
q27.4316 1.78125 42.624 5.34473q5.06445 3.5625 10.1289 4.89844t12.6611 2.67285q7.59668 1.33594 18.9912 3.5625q11.3945 2.22754 29.1201 7.57129q9.28418 2.67285 19.4131 5.34473q10.1279 2.67188 18.9912 5.34473q8.8623 2.67188 15.1924 4.45312
q6.33105 1.78223 8.86328 2.67285h7.59668q21.9453 0 29.541 -19.1514q7.59668 -19.1514 7.59668 -47.6553h-35.4502q-26.166 -8.0166 -54.8633 -11.5791q-28.6982 -3.56348 -58.2402 -6.23535q-29.542 -2.67285 -58.2393 -6.23535q-28.6982 -3.5625 -54.8643 -11.5801
q-5.9082 -0.890625 -13.9268 -1.33594t-12.2383 -0.445312h-3.37695q-7.5957 -0.890625 -16.0361 -0.445312q-8.44141 0.445312 -16.0371 3.56348q-7.59668 3.11719 -12.6611 10.2432t-5.06445 20.4873z" />
    <glyph glyph-name="eacute" unicode="&#xe9;" horiz-adv-x="337" 
d="M195 8q-39 0 -68 15t-48.5 39.5t-30.5 56t-15 65.5q-9 -2 -17.5 -3.5t-15.5 -0.5q-4 2 -9.5 6.5t-10 10t-8 10.5t-3.5 8q6 24 26 35.5t40 13.5l1.5 7.5l1.5 7.5q4 32 10.5 62t26.5 60q6 13 18 29.5t27 30.5t32 24t34 10q10 0 29.5 -7.5t39 -18.5t35 -23.5t17.5 -23.5v1
q3 -31 -5.5 -54t-24.5 -41t-37 -32t-43 -26q-12 -7 -22.5 -13.5t-17.5 -11.5q-19 -20 -35 -30q-8 -6 -12.5 -11t-4.5 -19q0 -47 27 -79.5t73 -32.5q2 0 7.5 1t18 7t35.5 19t60 37q24 0 28 -10t4 -18q0 -22 -20.5 -40.5t-47.5 -32t-54 -21t-41 -7.5zM192 421q-16 0 -29 -12.5
t-22.5 -30.5t-16 -39t-9.5 -38q6 2 11.5 5.5t10.5 6.5l36 22t31.5 23t22 27t8.5 33q0 1 -5.5 1.5t-12.5 1t-14 0.5h-11zM103 564q-12 14 -15.5 23t-3.5 20l1 -3q-1 3 -0.5 7t1.5 7q1 4 1 8l111 105q9 9 22.5 8.5t24.5 -7.5q11 -4 17 -10t-3 -23t-36.5 -49t-84.5 -88z" />
    <glyph glyph-name="ebreve" unicode="&#x115;" horiz-adv-x="337" 
d="M195 8q-39 0 -68 15t-48.5 39.5t-30.5 56t-15 65.5q-9 -2 -17.5 -3.5t-15.5 -0.5q-4 2 -9.5 6.5t-10 10t-8 10.5t-3.5 8q6 24 26 35.5t40 13.5l1.5 7.5l1.5 7.5q4 32 10.5 62t26.5 60q6 13 18 29.5t27 30.5t32 24t34 10q10 0 29.5 -7.5t39 -18.5t35 -23.5t17.5 -23.5v1
q3 -31 -5.5 -54t-24.5 -41t-37 -32t-43 -26q-12 -7 -22.5 -13.5t-17.5 -11.5q-19 -20 -35 -30q-8 -6 -12.5 -11t-4.5 -19q0 -47 27 -79.5t73 -32.5q2 0 7.5 1t18 7t35.5 19t60 37q24 0 28 -10t4 -18q0 -22 -20.5 -40.5t-47.5 -32t-54 -21t-41 -7.5zM192 421q-16 0 -29 -12.5
t-22.5 -30.5t-16 -39t-9.5 -38q6 2 11.5 5.5t10.5 6.5l36 22t31.5 23t22 27t8.5 33q0 1 -5.5 1.5t-12.5 1t-14 0.5h-11zM92 744q12 -51 34.5 -79.5t45.5 -28.5q19 0 36.5 19.5t28.5 64.5q34 36 53 23.5t9 -61.5l1 3q-3 -24 -15 -46.5t-30.5 -40.5t-41.5 -28.5t-48 -10.5
q-40 0 -79.5 37.5t-67.5 130.5z" />
    </font>
</defs>
</svg>
