<?xml version="1.0" standalone="no"?>
<!DOCTYPE svg PUBLIC "-//W3C//DTD SVG 1.1//EN" "http://www.w3.org/Graphics/SVG/1.1/DTD/svg11.dtd" >
<svg xmlns="http://www.w3.org/2000/svg" xmlns:xlink="http://www.w3.org/1999/xlink" version="1.1">
<metadata>
Created by FontForge 20141024 at Tue Mar 24 17:58:31 2015
 By System Administrator
Copyright (c) 2012 by Kimberly Geswein. All rights reserved.
</metadata>
<defs>
<font id="YouWontBringMeDown" horiz-adv-x="590" >
  <font-face 
    font-family="You Wont Bring Me Down"
    font-weight="400"
    font-stretch="normal"
    units-per-em="1024"
    panose-1="2 0 5 6 0 0 0 2 0 4"
    ascent="819"
    descent="-205"
    x-height="442"
    cap-height="629"
    bbox="-123 -668 1337 1189"
    underline-thickness="39"
    underline-position="-40"
    unicode-range="U+0020-FB02"
  />
<missing-glyph horiz-adv-x="391" 
 />
    <glyph glyph-name=".notdef" horiz-adv-x="391" 
 />
    <glyph glyph-name=".null" horiz-adv-x="0" 
 />
    <glyph glyph-name="nonmarkingreturn" horiz-adv-x="391" 
 />
    <glyph glyph-name="space" unicode=" " horiz-adv-x="391" 
 />
    <glyph glyph-name="space" unicode="&#xa0;" horiz-adv-x="391" 
 />
    <glyph glyph-name="numbersign" unicode="#" horiz-adv-x="550" 
d="M162 137q-16 -3 -32 -9t-31.5 -13t-32 -12t-32.5 -5q-8 0 -14 3.5t-6 12.5q0 4 1 4l147 59l10 147l-10 30q-5 -2 -19 -6.5t-29.5 -9t-29.5 -9t-20 -5.5q-1 0 -4.5 -0.5t-5.5 -0.5q-8 0 -14 3.5t-6 13.5q0 8 5.5 9t14.5 5q7 2 24 7.5t35.5 12t35.5 12t23 7.5
q1 19 3.5 47.5t4 60t3 62.5t1.5 56h18q1 0 2 -6.5t2.5 -16t3 -19.5t2.5 -17v-157l108 29q10 3 14.5 14t5 24t0 25t-0.5 16q0 6 1.5 21.5t3 32.5t3 32.5t2.5 21.5h20v-167h137q11 0 18.5 -8t7.5 -19q-5 0 -17 -0.5t-25.5 -0.5t-26 -0.5t-16.5 -0.5q-5 0 -15 -1.5t-21 -3
t-20.5 -3.5t-12.5 -3q-2 0 -5.5 -3.5t-3.5 -5.5q-1 -7 -2.5 -24t-3 -35.5t-3 -35.5t-1.5 -23v-10t0.5 -15t0.5 -14.5v-9.5h156q6 0 8.5 -5t2.5 -10q0 -1 -0.5 -1.5t-0.5 -1.5v-2q-11 0 -31 -1.5t-43 -4t-45.5 -6t-37.5 -7.5q-4 -2 -9.5 -5.5t-5.5 -4.5v-162q-9 0 -19.5 7.5
t-10.5 16.5v135q-1 0 -7 1.5t-8 1.5q-10 -3 -26.5 -7.5t-32 -9.5t-27 -8.5t-11.5 -4.5l-10 -9v-138q0 -5 -6 -8t-10 -3t-4 1zM191 225q0 -11 4 -20t15 -9q27 0 57 6.5t53 23.5q7 44 9.5 85t2.5 85q-51 0 -79.5 -9t-42 -29.5t-16.5 -53t-3 -79.5z" />
    <glyph glyph-name="dollar" unicode="$" horiz-adv-x="462" 
d="M285 105q-2 0 -12 2t-13 1q-8 -2 -19.5 -5t-22.5 -6t-19 -5.5t-8 -3.5v-19l21 10q-3 -15 -9 -37t-21 -32q-9 6 -14 15.5t-8.5 21t-5 22.5t-2.5 19q-26 -3 -43 -3t-36 13l-5.5 5.5t-3.5 4.5q0 9 5 21.5t13 23t17.5 18t18.5 7.5q0 -1 1 -1h2h2q-2 -2 -5 -7.5t-6 -12
t-5.5 -12t-3.5 -8.5q-1 -2 1 -9.5t2 -9.5h46v30q0 10 -1.5 35t-3 53t-3 53t-1.5 35q-10 3 -31.5 10.5t-43 19.5t-38 28t-16.5 36q0 23 14.5 44.5t35 39.5t42.5 33t37 25v52q6 0 12.5 -5t12.5 -11t10 -11l4 -5l64 19v92q2 -1 5 -1q2 -1 4.5 -1t4.5 -1t6 -4.5t4 -5.5
q1 -4 3 -13.5t3.5 -20.5t2.5 -21t1 -14q20 0 44 -3t45.5 -11t37.5 -24t20 -41q2 -12 -11 -20.5t-23 -8.5q-1 0 -2.5 0.5t-2.5 0.5q7 8 9 14.5t2 15.5q0 19 -14.5 28t-33.5 13t-38.5 4h-29.5q0 -5 -0.5 -15.5t-1.5 -22.5t-1 -22.5v-14.5q1 -10 3.5 -35.5t5.5 -53.5t6 -53.5
t5 -35.5q14 -6 37 -17t45.5 -25.5t39 -32.5t16.5 -38q0 -21 -15.5 -33.5t-36 -21t-40 -17t-26.5 -21.5q0 -5 1.5 -21.5t0.5 -36t-5.5 -37t-16.5 -23.5l-15 10v95zM181 231q0 -5 -1 -22t0 -35t6 -32.5t18 -14.5h25.5t25 3.5t18.5 11.5t7 25q0 6 -1 23t-2.5 35.5t-3.5 35.5
t-3 24q-9 19 -30 24.5t-40 5.5q-8 0 -13.5 -3t-4.5 -17q0 -4 -0.5 -13t-0.5 -19v-19v-13zM309 154q12 0 29 4.5t32.5 13t27 19.5t11.5 25q0 11 -11.5 23t-27 22.5t-31.5 17t-24 6.5h-6v-131zM181 477v-16.5t0.5 -21t0.5 -18.5v-9q0 -7 1.5 -18.5t3 -22.5t3 -19l1.5 -8
l69 -10q0 2 0.5 12t0.5 13q0 51 -6.5 102t-13.5 99q-2 0 -7.5 0.5t-7.5 0.5q-13 0 -25 -4.5t-19 -15.5v-13t-0.5 -19t-0.5 -19v-13zM52 422q0 -17 10.5 -29t26 -19.5t33 -11t31.5 -3.5q0 18 -1.5 41t-3 45.5t-3 43t-2.5 32.5q-15 -5 -31.5 -14.5t-29.5 -22.5t-21.5 -29
t-8.5 -33z" />
    <glyph glyph-name="percent" unicode="%" horiz-adv-x="452" 
d="M103 20q3 14 8 37t9.5 44.5t8 38t4.5 17.5l216 580q2 5 11.5 13.5t17.5 8.5v-22q0 -4 -9 -34t-21.5 -69.5t-25.5 -79t-22 -63.5q-5 -12 -15.5 -38t-24 -58t-28 -67t-28.5 -67t-25 -57t-17 -37l-29 -147l-20 -20q-7 4 -8.5 6.5t-1.5 7.5v6zM309 142q0 16 4 33t12 30.5
t20 22.5t28 9q30 0 43 -19.5t13 -48.5q0 -31 -14.5 -56.5t-49.5 -25.5q-26 0 -41 14.5t-15 40.5zM384 207q-16 0 -25 -12.5t-13 -28.5t-5 -31.5t-1 -22.5q28 0 43.5 9.5t15.5 38.5v11t-1 16t-4 14t-10 6zM34 502q1 6 6.5 21.5t12 32.5t12 32t8.5 21h-2q-1 0 -2 1
q-12 0 -18 -8t-10.5 -18t-10.5 -18t-18 -8q0 15 4.5 29.5t13.5 26.5t21.5 19t28.5 7q20 0 32.5 -13.5t19 -32t9 -39t2.5 -34.5q0 -17 -2.5 -36t-9.5 -35.5t-20 -27.5t-35 -11q-29 0 -35.5 18t-6.5 44v29zM103 590q-14 -6 -23 -25.5t-14 -43t-6.5 -46.5t-1.5 -36q20 0 31.5 5
t17 15t6.5 24.5t1 32.5q0 21 -1 37t-10 37z" />
    <glyph glyph-name="ampersand" unicode="&#x26;" horiz-adv-x="315" 
d="M191 -133q0 57 9.5 110.5t9.5 109.5q-23 0 -43.5 -9t-43.5 -9q-8 0 -18.5 2t-19.5 7t-15.5 12.5t-6.5 18.5q0 14 14 29.5t33 29.5t37 26.5t26 21.5q-15 -1 -41.5 -2t-52.5 4t-45 18.5t-19 40.5q0 9 7 16.5t16.5 14t19.5 10.5t16 6q9 2 33 6.5t50.5 9.5t50.5 9t33 5
q14 -1 17.5 5t3.5 14v5.5t-1 5.5q-14 43 -25.5 78.5t-19.5 69.5t-12.5 69.5t-4.5 78.5q8 0 13.5 -2t9.5 -9q5 -80 28 -161.5t51 -153.5l-20 -20q-8 -1 -27.5 -3.5t-41.5 -5.5t-41.5 -6t-26.5 -4l-70 -20q-6 -2 -17.5 -8.5t-11.5 -16.5q0 -8 11.5 -16t17.5 -8h181
q0 -14 -11 -25t-27 -21t-35 -20t-35 -21.5t-27 -25.5t-11 -32q31 0 59.5 9t58.5 9q12 0 18.5 -3.5t6.5 -16.5q0 -34 -6.5 -67t-14 -66t-13.5 -66t-6 -67q0 -3 1.5 -14.5t3 -25t3.5 -24.5t2 -14q0 -2 0.5 -6t0.5 -6q0 -8 -2.5 -13.5t-18.5 -4.5q-6 15 -8 33.5t-3 37.5
t-0.5 37.5t0.5 33.5z" />
    <glyph glyph-name="quotesingle" unicode="'" horiz-adv-x="93" 
d="M41 621q14 0 20 -9.5t8 -22.5t1.5 -26.5t-0.5 -21.5q0 -21 -0.5 -39t-1.5 -35t-3 -36.5t-5 -43.5q-5 3 -12 13.5t-7 15.5v205v0z" />
    <glyph glyph-name="parenleft" unicode="(" horiz-adv-x="260" 
d="M14 269q0 21 11.5 60t30.5 84.5t42.5 93t47.5 86.5t46.5 63.5t38.5 24.5v-22q-33 -43 -66.5 -91.5t-60 -101t-43.5 -108.5t-17 -113q0 -32 12 -63t30 -58t39.5 -50t39.5 -40t30 -26.5t12 -10.5q-48 0 -84 27.5t-60 68.5t-36.5 88.5t-12.5 87.5z" />
    <glyph glyph-name="parenright" unicode=")" horiz-adv-x="251" 
d="M69 20q27 33 52.5 68t44.5 72.5t30.5 78.5t11.5 85q0 51 -16.5 95.5t-42 85.5t-57 78.5t-62.5 75.5q0 1 -0.5 4t-0.5 5q0 7 1 12t9 8l157 -207q26 -33 33.5 -75.5t7.5 -82.5q0 -76 -30.5 -145.5t-79.5 -128.5q-4 -6 -12 -14t-15.5 -16t-14 -13.5t-7.5 -5.5h-9v20v0z" />
    <glyph glyph-name="asterisk" unicode="*" horiz-adv-x="359" 
d="M196 270q-1 0 -2.5 0.5t-2.5 0.5q-15 0 -25 -15.5t-19.5 -34t-19.5 -34t-25 -15.5q-3 0 -10 2t-5 8l40 78h-98v20l108 20q1 0 4.5 7t5.5 12v2q0 1 0.5 1.5t0.5 1.5q0 8 -3 12.5t-8 12.5q-3 4 -9.5 13.5t-14.5 20.5t-15.5 21l-10.5 14v19h11l88 -88q0 8 1 26.5t3.5 40.5
t6 44t8.5 36q3 6 9 9t12 3v-111q1 3 5.5 10t9 15t8.5 15t6 10q1 2 4.5 5.5t5.5 4.5q8 -2 9.5 -8t1.5 -13q0 -1 -0.5 -4.5t-1.5 -4.5l-56 -113h116q0 -2 -4.5 -7.5t-6.5 -6.5q-3 -2 -12.5 -5t-20.5 -6.5t-21 -6t-14 -2.5q5 -7 14 -16t19 -16.5t21 -12.5t20 -5q8 0 10.5 4.5
t4.5 15.5q6 -2 8.5 -8.5t3.5 -14.5t0.5 -15t-0.5 -8q-32 0 -63.5 14t-57.5 32v-10q0 -17 5 -34t5 -35q0 -7 -1 -12t-9 -7q-11 4 -17.5 19.5t-11 34t-7 36.5t-3.5 28zM166 314q-3 0 -3 -5t3 -5q4 0 4 5t-4 5z" />
    <glyph glyph-name="plus" unicode="+" horiz-adv-x="384" 
d="M41 319q-6 0 -8.5 5t-2.5 9v3q0 1 1 2l152 20v159q2 0 7 -0.5t10 -2t9 -3.5t4 -5v-139h162v-19l-157 -20q-3 0 -5.5 -5t-3.5 -11t-1.5 -12.5t-0.5 -10.5q0 -35 10.5 -69t10.5 -70q0 -6 0.5 -16t-10.5 -12q-20 47 -32 96.5t-18 100.5h-127z" />
    <glyph glyph-name="comma" unicode="," horiz-adv-x="98" 
d="M36 57q0 23 -6 42.5t-6 42.5q25 0 37.5 -20t12.5 -43q0 -12 -6.5 -42.5t-18.5 -63t-28 -57.5t-35 -25h-5.5t-4.5 1q26 38 43 78t17 87z" />
    <glyph glyph-name="hyphen" unicode="-" horiz-adv-x="489" 
d="M79 349q1 3 12.5 5.5t28 4.5t36 3t36 1.5t28 1l11.5 0.5q6 0 23.5 0.5t40 2t46.5 2.5t43 1h4q2 0 3 -0.5t3 -0.5q14 -2 16 -11.5t-1 -22.5l-22 5l-243 -20q-2 -1 -12 0.5t-15 3.5q-4 1 -11 2t-14 3.5t-11 6.5t-2 12z" />
    <glyph glyph-name="period" unicode="." horiz-adv-x="133" 
d="M23 34q0 24 19.5 31t40.5 4q12 -2 16.5 -11.5t4.5 -18.5q0 -7 -4.5 -14t-11.5 -13t-14.5 -9.5t-14.5 -3.5q-14 0 -25 10.5t-11 24.5z" />
    <glyph glyph-name="slash" unicode="/" horiz-adv-x="408" 
d="M9 28q0 31 5.5 65.5t15 68.5t22.5 65.5t27 57.5l275 492q0 3 1.5 9.5t4.5 13t8 11.5t11 5q3 0 10 -2t5 -9l-30 -78l-236 -393q-16 -27 -29 -57.5t-24 -62.5t-19.5 -64t-15.5 -62q-2 -5 -2.5 -16.5t-2.5 -25t-5.5 -26.5t-9.5 -20q-11 2 -11 12v16z" />
    <glyph glyph-name="zero" unicode="0" horiz-adv-x="339" 
d="M23 194q0 50 11.5 112.5t29.5 124.5t39.5 117.5t41.5 91.5v28q-18 -4 -24.5 -8.5t-9.5 -12t-5.5 -19t-10.5 -28.5q-1 -1 -2 -1q-1 -1 -2 -1q-8 0 -11.5 11t-3.5 19q0 19 9 38.5t20 29.5q4 0 17 0.5t18 0.5q61 0 106.5 -48t65.5 -131v-17.5t0.5 -27t0.5 -27.5v-18
q0 -35 -3 -80t-10.5 -91.5t-19.5 -91t-29.5 -79.5t-41 -56t-54.5 -21q-28 0 -52 14.5t-42 40t-28 59t-10 71.5zM53 208q0 -73 29.5 -116t81.5 -43q26 0 45.5 20.5t34 53.5t23.5 75t14.5 85.5t8 83.5t2.5 70q0 38 -6.5 73t-20 64t-34 50t-47.5 32q-22 -32 -39 -72t-31 -83.5
t-25.5 -87t-22.5 -82.5q0 -2 -2 -20.5t-4.5 -40.5t-4.5 -41t-2 -21z" />
    <glyph glyph-name="one" unicode="1" horiz-adv-x="93" 
d="M23 48q0 35 1.5 85.5t3 108.5t4 120t4 120t2 108t-0.5 86l9 9q8 -5 13 -12.5t7 -15.5v-25t-0.5 -53t-0.5 -66.5t-0.5 -66.5t-0.5 -52.5v-24.5v-46t-0.5 -69.5t-2 -79.5t-5 -77t-9 -62.5t-13.5 -34.5l-10 10q0 1 -0.5 15.5t-0.5 22.5z" />
    <glyph glyph-name="two" unicode="2" horiz-adv-x="412" 
d="M39 0q-12 6 -17.5 16.5t8.5 22.5l291 572q6 10 11 21t5.5 19t-6.5 11t-25 -1q-35 0 -66.5 -15.5t-58 -34.5t-46 -34.5t-30.5 -15.5q-2 0 -6 4t-4 6t4 9.5t6 9.5q44 45 93.5 72.5t112.5 27.5q17 5 31 0t21.5 -15.5t7 -25.5t-10.5 -29l-272 -541l-19 -40q40 -6 79.5 0
t78.5 15t77.5 18t78.5 10v-23l-265 -59h-79v0z" />
    <glyph glyph-name="three" unicode="3" horiz-adv-x="366" 
d="M33 29q21 2 51 11t62.5 24t64 36.5t56.5 49.5t40.5 62t15.5 74q0 25 -8.5 39t-21 20.5t-27.5 7.5t-28 1q-20 0 -39.5 -5t-39 -11t-38.5 -11t-39 -5v17q8 7 24 23.5t36 37.5t42 44.5t41.5 44.5t35 38t23.5 26q13 14 25.5 33.5t12.5 45.5q0 7 -4.5 12t-11 9t-12.5 6t-9 2
q-35 0 -64 -10t-56 -27t-54 -39t-57 -46h-19q17 37 45 64.5t61.5 46t68.5 27.5t65 9q10 0 22 -2.5t22 -9t16.5 -18t6.5 -29.5q0 -2 -0.5 -4t-0.5 -3q-1 -3 -3.5 -11t-5.5 -16.5t-6 -16t-4 -9.5q-6 -8 -22.5 -27t-35 -40.5t-35 -41t-22.5 -26.5q-2 -2 -6 -7.5t-8.5 -12
t-9 -12t-5.5 -7.5q24 2 53 1.5t53.5 -11.5t41 -36t16.5 -70q0 -62 -31 -113t-75 -87t-92.5 -56t-84.5 -20q-2 0 -7.5 -1t-11.5 0t-11 4.5t-6 11.5z" />
    <glyph glyph-name="four" unicode="4" horiz-adv-x="427" 
d="M272 338q-25 -8 -43.5 -13t-35 -8t-33.5 -4.5t-38 -1.5q-13 0 -23 0.5t-19 4.5t-17 12.5t-16 24.5q11 28 24.5 67t25.5 82.5t19.5 88t5.5 83.5h2q1 0 1.5 0.5t1.5 0.5q4 0 9 -3.5t5 -11.5v-107l-57 -187l10 -13q1 0 6 -1t12 -1.5t13.5 -1t9.5 -0.5q6 0 15.5 0.5t19.5 1
t17.5 1.5t8.5 1q10 1 24 4.5t27.5 7.5t23 8t9.5 6v325q9 0 14.5 -8t8.5 -19t4.5 -23t1.5 -20q1 -9 1.5 -28t1.5 -43t2 -50t2 -50t1.5 -43t0.5 -28h19q24 0 41 6.5t43 20.5v-12q-9 -23 -19 -29t-22 -8.5t-27 -7.5t-35 -24q-3 -18 -6 -45.5t-6 -59.5t-5 -66.5t-4 -66t-3 -58
t-1 -42.5h-16q2 42 3 78q1 31 1.5 59.5t-1.5 39.5v28q0 7 -1 26.5t-2.5 40.5t-3 40t-1.5 26z" />
    <glyph glyph-name="five" unicode="5" horiz-adv-x="502" 
d="M105 62q0 14 10 20q46 -6 100 4t102 34.5t84 63.5t46 90q-1 35 -20 60.5t-45 42.5t-54.5 25t-47.5 8q-28 0 -54.5 -4.5t-53 -9.5t-52.5 -9.5t-53 -4.5h-16.5t-12.5 14q0 4 -0.5 16t-0.5 25.5v26v17.5v53.5t4.5 54t16.5 44t37 23.5q5 0 22.5 2t37 4t36.5 4t21 3
q16 2 31.5 10.5t31 18t30.5 17t30 7.5q7 0 14 -15q-24 -29 -57 -46.5t-69 -26.5t-72 -12.5t-65 -4.5q-6 -6 -12 -18.5t-6 -20.5v-143q0 -11 6.5 -13t10.5 -2q23 0 45.5 4.5t45 9.5t45 9.5t45.5 4.5q24 0 59.5 -9.5t68.5 -30.5t57 -55t24 -83q0 -30 -14 -60.5t-34.5 -56
t-44 -45t-43.5 -26.5q-6 -2 -29.5 -9t-51 -15t-54.5 -16t-41 -12q-1 0 -4.5 -0.5t-5.5 -0.5q-14 0 -23 6.5t-25 21.5v5z" />
    <glyph glyph-name="six" unicode="6" horiz-adv-x="388" 
d="M43 271q0 5 1 18t2.5 28t3.5 28.5t3 19.5q3 15 11 43.5t17.5 62t20 69t19.5 64l15 47.5t7 21l19 27q1 -3 1 -13.5v-13.5q0 -45 -14.5 -99t-31.5 -110.5t-31.5 -111.5t-14.5 -101q0 -6 1.5 -24.5t5 -38.5t10 -36t16.5 -16h4q20 26 41 51t43.5 44t47 30.5t52.5 11.5
q10 0 25 -5t29 -15.5t23.5 -25.5t9.5 -36q0 -36 -19.5 -64.5t-47 -47.5t-56.5 -29t-48 -10q-25 0 -49 6.5t-48 6.5q0 -11 1.5 -17t3 -11.5l3 -11t1.5 -15.5q-17 0 -22.5 6t-6 17.5t0.5 27t-3 34.5q-5 29 -12.5 49t-15 39t-13 42t-5.5 59zM289 243q-24 0 -51 -15t-46 -39
q-6 -8 -15.5 -21t-18 -26t-15 -22.5t-6.5 -10.5v-13q0 -2 14 -7.5t23 -6.5q1 0 6.5 -0.5t13 -0.5t15 -0.5t11.5 -0.5q15 0 37 5t43 16.5t36 29.5t15 45q0 15 -6.5 27t-15.5 21t-20 14t-20 5z" />
    <glyph glyph-name="seven" unicode="7" horiz-adv-x="555" 
d="M287 29q2 7 5.5 28t8 48.5t9.5 58.5t9.5 58.5t7.5 48t4 27.5q1 5 -0.5 19.5t-1.5 19.5q-26 0 -51 -6.5t-49.5 -14t-49 -13.5t-48.5 -6q-6 0 -17 0.5t-13 14.5l10 14l25.5 6.5t60.5 15t72.5 17.5t61.5 15h10q1 12 3.5 41t5.5 61.5t6 61.5t4 41q0 4 -0.5 14t-1 20.5t-1 20
t-0.5 13.5q-39 0 -78 -4.5t-78.5 -10t-79 -10t-79.5 -4.5q0 23 13 30q11 2 34.5 5t54 7t63.5 8.5t63.5 8.5t54.5 7t35 5q1 0 7 0.5t9 0.5q8 0 15 -3t7 -18q0 -71 -8 -140t-8 -141h170l-11 -14q-17 -2 -33 -5q-14 -2 -28.5 -4.5t-23.5 -4.5q-9 -1 -23 0.5t-27 0.5t-23.5 -6.5
t-12.5 -20.5l-55 -339q0 -2 -2 -2.5t-4 -0.5q-9 0 -16 7.5t-6 23.5z" />
    <glyph glyph-name="eight" unicode="8" horiz-adv-x="442" 
d="M66 68q0 3 -0.5 9.5t-0.5 14t-0.5 14.5t-0.5 10q0 42 12 87t30 79q-16 10 -30 18.5t-24.5 19.5t-17 27.5t-6.5 42.5q0 39 14.5 77t38 73t54 64t62.5 51t63.5 34t56.5 12q39 0 68.5 -28t29.5 -89q0 -32 -9.5 -58.5t-23.5 -50.5t-31.5 -45t-32.5 -40q12 -21 24 -33t22 -24
t16.5 -29t6.5 -48q5 -57 -15.5 -104t-53.5 -81.5t-73 -53t-73 -18.5q-65 0 -106 69zM94 114q0 -27 7 -42t19 -22.5t26.5 -9t29.5 -1.5q26 0 59 11.5t62 34.5t49 57.5t20 79.5q0 18 -6.5 40.5t-16.5 42t-23 33t-26 13.5q-35 9 -72 -7.5t-67 -49.5t-47.5 -80t-13.5 -100z
M56 389q0 -15 5 -28.5t13 -22.5t18.5 -13.5t22.5 -1.5q1 0 4 4t6.5 8.5t6 9t3.5 4.5q20 15 43 19.5l46 9t44.5 12t39.5 28.5q21 24 35.5 41t24.5 34.5t14.5 38.5t4.5 52v10t-0.5 14.5t-1 14t-0.5 9.5q-11 19 -22.5 28.5t-24.5 13t-28 3.5h-32q0 -23 12 -45q-25 4 -43 4
t-33 -5.5t-29 -18t-31 -33.5q-14 -18 -31 -38.5t-32 -44t-25 -50t-10 -57.5z" />
    <glyph glyph-name="nine" unicode="9" horiz-adv-x="354" 
d="M295 411q-12 0 -31 -13.5t-42.5 -29t-49 -29t-50.5 -13.5q-17 0 -34 6.5t-30.5 19t-21.5 32t-8 45.5q0 46 21.5 93t53.5 85.5t69 63t69 24.5q5 0 19 -1t19 -1q18 -19 27.5 -52.5t14 -71.5t5 -76t0.5 -66v-16t-0.5 -20t-0.5 -17.5v-8.5q-2 -26 -5.5 -62t-7 -75t-7.5 -77.5
t-7.5 -69t-6 -49.5t-3.5 -19l-18 -13q0 3 -0.5 10.5t-0.5 15.5v15v9q0 46 4 91t9 90t9 90t4 90zM55 432q0 -23 3.5 -39t25.5 -28q3 0 8.5 -0.5t12.5 -0.5h12.5h8.5q34 0 64 14t51.5 41t34 66t12.5 89q0 19 -2 36t-7 30.5t-15 21.5t-26 8q-26 0 -58 -23.5t-60 -58.5
t-46.5 -77t-18.5 -79z" />
    <glyph glyph-name="colon" unicode=":" horiz-adv-x="152" 
d="M28 110q0 2 0.5 5t1.5 3l58 49q1 1 4.5 1.5t5.5 0.5q15 0 23 -11t8 -25t-8.5 -24t-21 -17t-26.5 -10.5t-25 -3.5q-13 0 -16.5 10.5t-3.5 21.5zM78 403q5 1 10 -2t9.5 -8t7.5 -10.5t3 -9.5q0 -15 -10 -26t-24.5 -18t-30 -10t-26.5 -3q0 32 12.5 56.5t48.5 30.5z" />
    <glyph glyph-name="semicolon" unicode=";" horiz-adv-x="169" 
d="M55 -59q1 0 2.5 0.5t2.5 0.5q9 0 15 -11q0 -3 0.5 -9.5t1 -14.5t0.5 -15v-10v-12.5t-0.5 -15t-1 -13.5t-0.5 -7q-1 -3 -5.5 -13t-11 -23l-12.5 -25t-10 -18q-3 -6 -9.5 -14.5t-12.5 -16.5t-11 -13.5t-6 -5.5h-10q18 37 30 63.5t20 51.5t12 53t6 68zM109 248q14 0 25 -8
t11 -23q0 -17 -8 -26t-20.5 -13t-27 -4.5t-27.5 -0.5q0 10 3 23t9 24.5t15 19.5t20 8z" />
    <glyph glyph-name="less" unicode="&#x3c;" horiz-adv-x="462" 
d="M10 167q11 7 37.5 26.5t56.5 41.5t56.5 42t36.5 28q20 16 44.5 39t51 48t54.5 48.5t56 40.5q7 5 14.5 8.5t15.5 3.5v-12l-374 -324q5 -2 19.5 -10t19.5 -10q12 -4 36 -12.5t54 -19t63 -22.5t63 -22.5t54 -18.5t35 -12q10 -5 10 -15q0 -16 -15 -16l-4 1q-39 21 -96 38.5
t-114 35.5t-105 40t-69 53z" />
    <glyph glyph-name="equal" unicode="=" horiz-adv-x="477" 
d="M45 275q51 8 100.5 19t99.5 20.5t100 16t102 6.5v-13l-344 -58h-58v9zM13 371l2 2l363 69h69v-10l-413 -78q-5 -1 -13.5 3.5t-8.5 12.5z" />
    <glyph glyph-name="greater" unicode="&#x3e;" horiz-adv-x="437" 
d="M387 315q-6 9 -18.5 16.5t-20.5 12.5q-13 5 -45 17.5t-68 26.5t-68 26.5t-44 17.5q-32 13 -55.5 27t-43.5 43q6 10 15 10q1 0 1.5 -0.5t1.5 -0.5h2q1 -1 7 -5t12.5 -9.5t12 -10t7.5 -5.5q6 -3 20.5 -10.5t30.5 -15.5t29.5 -14.5t17.5 -8.5t18.5 -6t31 -9t31 -9t18.5 -5
q36 -14 71 -30t66 -39q6 -5 8 -7t2 -7v-5q-2 -3 -9 -10.5t-14.5 -15t-15 -14.5t-10.5 -9q-45 -36 -85 -64t-75.5 -56t-66.5 -60t-58 -76q-7 -11 -15 -12t-20 -1q0 27 20.5 56t52 58.5t70 58t75 54.5t66.5 49t45 42z" />
    <glyph glyph-name="question" unicode="?" horiz-adv-x="344" 
d="M58 203q0 2 4.5 20.5t10.5 41.5l16 60q60 69 97.5 120.5t58 89.5t26.5 64.5t2 44.5q0 11 -11.5 17.5t-27.5 10t-31.5 4.5t-24.5 1q-16 0 -31.5 -4.5t-31 -10.5t-30.5 -10.5t-30 -4.5q-11 0 -16.5 3.5t-12.5 16.5l10 9q8 8 26 12t39.5 6t42 2.5t32.5 0.5q13 0 34.5 -1
t42 -6t35.5 -16t15 -32q4 -22 -3 -50t-21 -58.5t-33 -61t-40 -58.5t-41.5 -51t-36.5 -38l-30 -159q-17 0 -28.5 10t-11.5 27zM127 96q14 0 25 -7.5t11 -22.5q0 -17 -6 -25t-16 -10t-22 -1t-25 1q0 10 1 21t4.5 21t10 16.5t17.5 6.5z" />
    <glyph glyph-name="at" unicode="@" horiz-adv-x="723" 
d="M24 245q0 45 16 89.5t43.5 85t65 75.5t79.5 60.5t86.5 40t87.5 14.5q56 0 107 -13t90 -41t62 -70.5t23 -101.5q0 -33 -9.5 -71.5t-29 -71t-49.5 -54t-70 -21.5h-12t-9 1q-1 0 -6.5 3.5t-12 7t-12.5 6.5t-8 3t-6 -4.5t-8.5 -10t-9 -10l-5.5 -5.5q-2 -1 -6 -2t-5 -1
q0 12 3 22t8 21q-23 -2 -44.5 -4t-38 1.5t-26.5 15.5t-10 37q0 26 17 55.5t43 54t56 41t57 16.5q3 0 8 0.5t11 -0.5t10.5 -3t5.5 -8v-34q0 -20 -4 -37.5t-9 -35t-10 -34.5t-7 -36q-2 -12 6.5 -25.5t23.5 -13.5q36 0 62 19.5t43 49t25 63t8 61.5q0 55 -20 95t-55 65.5
t-82 37.5t-100 12q-62 0 -125 -31t-114 -80.5t-83 -112t-32 -125.5t34 -105.5t84.5 -68t109 -36.5t106.5 -11q53 0 106.5 12t95.5 38.5t68.5 69.5t25.5 105q6 -1 8.5 -6.5t3 -12t0 -12.5t-0.5 -7q0 -60 -31.5 -100t-78.5 -64t-102.5 -34t-103.5 -10q-53 0 -115 14t-115 43.5
t-88.5 76t-35.5 112.5zM347 241q0 -17 10.5 -21t24.5 -4q28 0 51.5 13.5t39.5 35t25 48t9 52.5q0 13 -3.5 21t-17.5 8q-21 0 -45.5 -16.5t-45.5 -40.5t-34.5 -50.5t-13.5 -45.5z" />
    <glyph glyph-name="A" unicode="A" 
d="M15 10q38 42 65.5 88.5t52.5 98.5q6 11 14 30.5t16 38t13.5 33t5.5 16.5v14h-52v6q0 6 3 9q3 7 12 12t20 8.5t21.5 5.5t15.5 3l137 325l20 19q7 -5 12 -13t7 -16q12 -38 20.5 -70.5t15.5 -64.5t12.5 -66.5t10.5 -74.5h15q24 0 46.5 5.5t46.5 5.5h30l-128 -39
q-7 -3 -8.5 -6.5t-1.5 -8.5q0 -35 12 -67t27 -63.5t27 -64.5t12 -69q-11 0 -23 16.5t-23 42t-21.5 57t-18.5 61t-13.5 54t-7.5 37.5h-2h-2q-1 0 -1 1q-1 0 -1.5 -0.5t-1.5 -0.5h-2q-13 -3 -38.5 -8.5t-52 -12t-48.5 -12t-28 -6.5q-3 -1 -10 -4.5t-9 -5.5q-15 -34 -34 -77
t-41.5 -87.5t-48.5 -86t-54 -73.5l-4 -1q-10 0 -15 11zM231 373q5 -10 14 -10q17 0 37.5 1.5t41.5 6t40 12.5t34 20q0 2 0.5 11.5t0.5 12.5q0 5 -0.5 14.5t-0.5 10.5q-3 23 -9.5 58.5t-12.5 68.5t-11 56.5t-6 23.5h-10q-1 0 -5.5 -9l-11 -22l-13 -26t-10.5 -22
q-5 -12 -16 -41t-23.5 -62t-23.5 -62.5t-15 -41.5z" />
    <glyph glyph-name="B" unicode="B" horiz-adv-x="653" 
d="M152 15q0 9 10 15q56 3 117.5 10.5t120 25.5t109.5 49.5t86 81.5q5 14 7.5 24.5t2.5 24.5q0 20 -13.5 34t-32 23t-39 14t-33.5 7q-7 1 -22.5 3t-33 3.5t-32.5 2.5t-21 1q-3 0 -16 -1.5t-28 -3t-28 -3.5t-16 -2h-7.5t-15 -0.5t-17.5 -0.5h-14h-11t-16.5 0.5t-16 0.5h-10.5
q-10 5 -10 15v5q8 4 25 13t38.5 20.5t45 24.5t44.5 24.5t38 21t25 14.5q12 7 33.5 20.5t43 31.5t37 37.5t15.5 38.5q0 25 -21.5 37.5t-50.5 17.5t-57.5 4.5t-42.5 -0.5q-30 0 -66.5 0.5t-66.5 -10.5q-10 -3 -34 -13t-50.5 -21t-50 -21t-32.5 -14h-23q0 13 12 20q47 21 85 37
t75 27.5t76.5 17.5t88.5 6q18 0 49 -2.5t62 -11.5t53.5 -25.5t22.5 -43.5q0 -23 -16 -47.5t-34 -36.5l-245 -157q10 0 36.5 0.5t56.5 0.5t56 -0.5t37 -0.5q28 -1 61 -6.5t61.5 -19t47 -36.5t18.5 -58q0 -41 -25 -75t-65.5 -60t-90.5 -45t-100 -31t-94.5 -18t-73.5 -6
q-8 0 -16 2.5t-8 13.5zM101 553q16 0 25.5 -16t15 -36.5t8 -40.5t2.5 -28q3 -45 2.5 -91t-0.5 -91.5t3 -91t15 -89.5l-10 -10q-17 8 -22 25t-7 34q-1 7 -3 24t-3.5 36t-2.5 35.5t-1 22.5v21v37v45v45v37v21q-1 15 -4.5 28.5t-7.5 27t-7 27t-3 28.5z" />
    <glyph glyph-name="C" unicode="C" horiz-adv-x="521" 
d="M23 270q0 55 7 103t24.5 90.5t46 81t71.5 74.5q14 12 38.5 21t44.5 9q30 0 47 -16.5t25.5 -40t10.5 -50t2 -46.5v-12.5t-0.5 -19.5t-0.5 -19.5v-12.5q-7 -10 -16 -10q-7 0 -10 6.5t-4 15t-0.5 16.5t0.5 11q0 20 5.5 35.5t5.5 34.5q0 32 -18.5 55.5t-50.5 23.5
q-37 0 -65.5 -16t-51 -42.5t-38 -60t-25.5 -69t-14.5 -69.5t-4.5 -61q0 -47 6.5 -95.5t26 -88t55.5 -65t94 -25.5q41 0 79 18.5t71 46t61.5 60.5t50.5 63q0 -2 1 -7t1 -7q0 -19 -14 -41t-36.5 -45t-50.5 -44t-57 -37t-56 -26t-47 -10q-59 0 -99.5 23.5t-66 62t-37 87
t-11.5 98.5z" />
    <glyph glyph-name="D" unicode="D" horiz-adv-x="536" 
d="M127 30q52 18 115.5 45t119 66t93 91t37.5 118q0 54 -33 99.5t-82.5 78.5t-106.5 51.5t-105 18.5q0 -14 0.5 -48.5t1 -73.5t0.5 -73.5v-48.5q0 -13 -1.5 -46.5t-3 -71.5t-3 -71.5t-2.5 -46.5q-1 0 -2.5 -0.5t-2.5 -0.5q-10 0 -12 6.5t-3 13.5q0 4 -1.5 20t-3 34.5t-3 34
t-2.5 19.5v6q0 51 5.5 99.5t5.5 101.5v27.5v41.5t-0.5 41.5t-0.5 27.5q-7 21 -25.5 28t-38 11t-35 11t-18.5 28q3 1 14.5 1.5t14.5 0.5q35 0 66.5 -8.5t62 -20.5t62 -26t65.5 -25q8 4 11 -1.5t8 -8.5q31 -20 64.5 -41t61 -46.5t45 -57t17.5 -73.5q0 -43 -14 -78.5
t-36.5 -66.5t-51 -60t-56.5 -59h69v-10q-10 -2 -34 -9t-50.5 -14.5t-50.5 -15t-33 -10.5q-22 -7 -36 -14t-25.5 -13t-23 -9.5t-27.5 -3.5q-11 0 -18.5 1.5t-16.5 9.5z" />
    <glyph glyph-name="E" unicode="E" horiz-adv-x="530" 
d="M23 69q0 5 0.5 16t0.5 13l69 590v29h24v-77l360 68h5q9 0 19 -6t15 -14l-393 -69q-3 0 -6.5 -4.5t-6.5 -9.5t-5 -9.5t-2 -5.5q-2 -16 -6.5 -55t-9 -83t-9 -83t-5.5 -54v-20v-20q44 4 93.5 17.5t97.5 35t90.5 50.5t72.5 64v-5q0 -24 -22 -46t-51 -39t-59 -29l-45 -18
q-10 -4 -35 -12.5t-53 -18t-53.5 -18t-35.5 -11.5q-2 0 -5.5 -3.5t-4.5 -5.5q-9 -34 -10 -67.5t-1 -66.5v-13.5t0.5 -17t1 -15t0.5 -7.5l9 -19h49q53 20 98 37.5t87.5 32.5t86 27t93.5 21h10q6 0 11 -1.5t7 -9.5l-9 -9q-50 -7 -94.5 -20t-88 -28.5t-87.5 -33.5t-94 -36
q-19 -7 -31 -9t-30 -2q-15 0 -24 6.5t-14.5 16.5t-7.5 22.5t-2 24.5z" />
    <glyph glyph-name="F" unicode="F" horiz-adv-x="536" 
d="M27 552q14 0 19 5.5t7 13.5t4.5 15.5t11.5 12.5q4 1 15 2.5t24 3t24 3t16 1.5h10q13 1 40.5 3.5t62.5 5.5t73.5 6t73 6t62.5 5.5t41 3.5q8 -2 14.5 -4.5t6.5 -10.5q0 -9 -7.5 -14.5t-13.5 -10.5l-9 10q-17 -2 -59 -6t-89 -8.5t-89 -9t-59 -5.5h-9q-14 -2 -33.5 -3
t-38.5 -3q-22 -2 -46 -4l-10 -29l-10 -217q0 -6 5.5 -8t9.5 -2q1 0 2.5 0.5t2.5 0.5q12 3 42.5 10t65 14.5t65.5 14.5t43 9q1 1 11 2t22.5 2.5l25 3t19.5 2.5h6q12 0 30 -3t24 -16q-94 -1 -185.5 -23t-178.5 -56q-6 -1 -8.5 -6t-2.5 -11t0.5 -11.5t0.5 -7.5q0 -23 4 -53.5
t8.5 -61.5t7.5 -58.5t0 -45.5q-1 -4 -8 -11.5t-12 -8.5q-20 57 -27.5 128.5t-8.5 146.5t1.5 147t2.5 130z" />
    <glyph glyph-name="G" unicode="G" horiz-adv-x="565" 
d="M450 -76q0 4 -0.5 17t-0.5 18q0 31 10 59.5t10 60.5q-18 0 -43.5 -12t-56.5 -26.5t-65.5 -26.5t-69.5 -12q-46 0 -82.5 15t-62 42.5t-39 65t-13.5 82.5q0 70 28 137t71.5 128t95.5 113.5t100 94.5q14 13 25.5 21.5t22 12.5t22.5 5.5t27 1.5q14 0 29.5 -3t29 -10
t22.5 -18.5t9 -28.5q0 -6 -7 -15.5t-13 -14.5q6 14 0 26.5t-17 22t-25.5 15t-26.5 5.5q-11 0 -24.5 -5t-27.5 -12.5t-26 -16t-20 -15.5q-48 -45 -95.5 -95t-85.5 -106.5t-61.5 -119t-23.5 -131.5v-11.5v-18t0.5 -18t0.5 -11.5q5 -18 15.5 -35.5t25 -32t32 -25.5t35.5 -15
q3 0 11.5 -0.5t18 -1t18 -0.5h11.5q45 0 94 12t89.5 36.5t66.5 63.5t26 93q0 12 -5.5 27t-24.5 15h-295l-10 10q7 6 20.5 10t27 6.5t25 3t15.5 0.5q2 0 19 0.5t39 0.5h44h36h27.5h41.5t41.5 -0.5t27.5 -0.5q2 -2 10 -9.5t10 -10.5v-4q0 -48 -12.5 -93.5t-28.5 -90.5
t-30.5 -91t-17.5 -94q-1 -1 -2 -1h-3q-10 0 -15 11z" />
    <glyph glyph-name="H" unicode="H" horiz-adv-x="432" 
d="M34 245l39 345l4 1q11 0 16 -11q0 -3 0.5 -10.5t0.5 -16.5v-16.5v-10.5q0 -36 -4.5 -72t-10 -72t-10 -72t-4.5 -72q3 0 11 -0.5t17 -1t17.5 -0.5h12.5q9 0 31 3t47 6t47.5 6t31.5 4q19 33 21.5 78.5t0.5 93.5t-3 93.5t10 78.5l10 30q14 -2 17 -4t3 -10v-6
q-1 -8 -2.5 -33.5t-3.5 -60t-4 -73t-4 -73t-4 -60.5t-2 -34v-7q0 -3 1 -6q5 0 16.5 2t24.5 2.5t26 -1.5t21 -10q-5 0 -16.5 -2.5t-24 -5.5t-23.5 -6t-15 -5q-5 -2 -12.5 -9.5t-7.5 -10.5v-198q-5 0 -15 3.5t-10 8.5v193q-3 0 -16.5 2t-17.5 1l-52.5 -7.5t-61 -9t-51 -8.5
t-22.5 -4l-15 -20v-177q-12 2 -18 16t-6 23v187z" />
    <glyph glyph-name="I" unicode="I" horiz-adv-x="624" 
d="M15 30q2 6 9.5 9.5t15.5 5.5t15 3t9 1t10 -5t10 -5q1 0 14.5 -0.5t21.5 -0.5q6 0 18.5 0.5t13.5 0.5q4 1 19.5 4.5t34 8.5t37 9.5t27.5 7.5q12 3 17.5 7.5t8 11t3 16.5t1.5 24v107v84t-1 74.5t-3 76.5t-6 90h-160q0 5 3.5 12t9.5 8l344 49h32q0 -13 -11.5 -19.5
t-20.5 -10.5l-30 -10t-44.5 -15t-44.5 -14.5t-29 -9.5l-9 -78v-383q42 0 82.5 5t83.5 5h17.5t27 -0.5t27 -0.5h17.5q2 0 10 -4t10 -6l2.5 -2.5t1.5 -3.5h-61t-49.5 -1t-47 -3.5t-53.5 -8.5q-41 -8 -80.5 -18.5t-79 -20t-80 -16.5t-83.5 -7q-4 0 -10.5 0.5l-13 1t-11.5 1
t-6 0.5l-19 20v0z" />
    <glyph glyph-name="J" unicode="J" horiz-adv-x="609" 
d="M45 98q32 -17 57.5 -30t49.5 -22t50.5 -13.5t59.5 -4.5q17 0 37 3t36.5 12t26.5 24.5t7 40.5l-49 403h-217q-4 0 -11 1t-14.5 3t-14 5.5t-9.5 9.5q0 2 -1 2.5t-1 1.5q10 0 32 0.5t49 1t57.5 1t58 1.5t49 1.5t32.5 1.5q32 1 64 6.5t64.5 11t64.5 10t64 4.5
q0 -6 -2.5 -13.5t-9.5 -9.5l-206 -59q-6 -2 -8 -10.5t-2.5 -18.5t0 -18.5l0.5 -8.5q0 -41 4.5 -81t10.5 -80.5t10.5 -80.5t4.5 -80q0 -57 -33 -85.5t-90 -28.5q-12 0 -35.5 4t-52 11.5t-58 17t-53.5 20.5t-39.5 22.5t-15.5 23.5h33z" />
    <glyph glyph-name="K" unicode="K" horiz-adv-x="462" 
d="M98 30h-29v137q-3 2 -9.5 7.5t-13.5 11.5t-13.5 11.5t-8.5 8.5q-1 1 -1 2v3q0 14 6.5 25.5t14 22.5t14 23.5t6.5 29.5q0 79 -5.5 158t-5.5 157q0 9 1 20.5t15 11.5h4q9 -89 11 -177t9 -177l266 285l3 1q3 0 11.5 -3t4.5 -8l-19 -30q-9 -10 -27.5 -29.5t-42 -44.5t-49 -53
t-49 -53t-42 -45t-26.5 -30q-12 -13 -18.5 -20t-9.5 -13t-3.5 -13.5t-0.5 -21.5q0 -17 1.5 -29.5t19.5 -20.5l325 -147q2 -2 6 -5.5t4 -4.5q0 -3 -4 -10.5t-6 -9.5q-39 19 -79.5 42.5t-83 44t-87 34t-89.5 13.5v-104zM63 216q-4 2 -4 -4.5t4 -5.5q5 2 5 5.5t-5 4.5z" />
    <glyph glyph-name="L" unicode="L" horiz-adv-x="609" 
d="M23 149q0 70 11 140t28 139.5t38 137t42 132.5h5q6 0 10.5 -4t4.5 -10v-6l-99 -363q-4 -16 -6.5 -36t-3.5 -40.5t-1 -40.5v-36q0 -38 1.5 -67.5t19.5 -64.5l256 88l6 0.5t14 0.5h16h13h38t31 -1t31.5 -3.5t37.5 -6.5q9 -2 22 -5t26 -6.5t22 -6l9 -2.5v-21
q-25 0 -49.5 3.5t-48.5 8t-48.5 8t-49.5 3.5h-18.5t-22.5 -0.5t-19.5 -1t-9.5 -0.5q-4 0 -18.5 -4.5t-31 -9.5t-31 -9.5t-18.5 -5.5h-9l-148 -59q-2 -1 -4 -1h-6q-18 0 -26.5 19.5t-11.5 45t-2.5 50t0.5 35.5z" />
    <glyph glyph-name="M" unicode="M" horiz-adv-x="584" 
d="M24 717q4 10 20 10q2 -2 8 -7.5t12 -11.5l11.5 -11.5t7.5 -8.5q4 -10 16.5 -35.5t27 -53.5t27 -53t18.5 -35q8 -15 21 -35.5t29.5 -39t36 -31t40.5 -12.5q9 0 15 1.5t15 8.5q4 6 14.5 22.5t21.5 35.5t20.5 36t12.5 24q12 26 20.5 52.5t17 54t18 55t23.5 54.5q0 2 3.5 5.5
t5.5 4.5q6 -5 12.5 -14t6.5 -16l30 -540q4 -25 9.5 -50t10.5 -54v-4q-1 -2 -4.5 -10t-5.5 -10q-15 12 -23 26.5t-11 31t-4 34.5l-2 36q-4 69 -7.5 131t-7 122t-7 121t-6.5 127q-3 -10 -11.5 -33.5t-18 -50t-18 -50.5t-12.5 -33q-11 -27 -21 -52t-23 -44t-32.5 -30.5
t-49.5 -11.5q-20 0 -39 9t-36 23.5t-30.5 32t-23.5 34.5q-5 9 -18 32.5t-27 50t-26.5 50.5t-17.5 34v-44q0 -68 4.5 -136t10.5 -136t10.5 -135.5t4.5 -135.5q0 -3 0.5 -11.5t-0.5 -18t-4.5 -17t-11.5 -7.5q-4 0 -4 2l-10 39q0 2 -1.5 33t-5 80t-7.5 111t-8.5 125.5t-9 124
t-8 107t-6 73.5t-3.5 24z" />
    <glyph glyph-name="N" unicode="N" horiz-adv-x="619" 
d="M29 262v23.5t0.5 29t0.5 26v13.5q1 36 0 83t-0.5 96.5t4.5 97.5t15 86q1 0 2.5 0.5t2.5 0.5q9 0 14.5 -7t10.5 -13q6 -12 19.5 -38t30.5 -58t36.5 -67.5t37 -67.5t31.5 -57t21 -37q4 -6 21.5 -30t39.5 -53.5t43.5 -58.5t33.5 -44q3 -4 12 -13.5t20 -20t22.5 -18.5
t19.5 -8q5 0 9 2.5t6 7.5l78 551l20 69h2q1 0 1 0.5t1 0.5q14 0 15.5 -10.5t1.5 -20.5q0 -20 -9 -34.5t-12 -33.5l-69 -522q-1 -7 -2 -15.5t-4 -16t-8.5 -12.5t-14.5 -5h-10q-5 3 -16 11.5t-23.5 18t-24 18t-15.5 12.5q-2 2 -10 9.5t-10 9.5q-15 20 -40 54.5l-50 69
t-44.5 61.5t-22.5 32q-19 30 -34.5 61.5l-31 63t-32.5 62t-39 58.5q0 -17 -1 -52.5t-2 -80t-2 -93.5t-2 -93.5t-2 -80t-1 -52.5v-167l-10 -10q-7 3 -12.5 20.5t-8.5 43.5t-5 56.5t-3 59t-1 50.5v32z" />
    <glyph glyph-name="O" unicode="O" horiz-adv-x="511" 
d="M23 334q0 40 4 83t15.5 83.5t33 76.5t56.5 62q7 0 24 1.5t35.5 3t35.5 3t23 1.5h11q64 0 105.5 -24t66.5 -63.5t35 -91.5t10 -108q0 -30 -6 -68t-19 -78t-32 -78.5t-44.5 -69t-58.5 -49t-72 -18.5q-66 0 -109 32.5t-68.5 82t-35.5 108.5t-10 111zM52 320q0 -44 9 -95
t30.5 -94.5t58 -72.5t91.5 -29q38 0 69 16.5t55 44t41.5 62.5t29 72.5t17 74.5t5.5 67q0 49 -9 94.5t-31 81t-59 57t-93 21.5q-52 0 -83 -8.5t-48 -29t-23.5 -54.5t-8.5 -86l-20 39q0 2 -4 2q-8 0 -11 -7.5t-5 -13.5q-1 -4 -2.5 -14t-3 -21t-2.5 -21t-1 -13q0 -2 -0.5 -11
t-1 -20.5t-0.5 -23v-18.5z" />
    <glyph glyph-name="P" unicode="P" horiz-adv-x="541" 
d="M148 384q-19 -3 -25 2t-6 16q0 14 9 20t22 10q-1 7 -1.5 25.5t-0.5 39t0.5 38.5t1.5 25q0 7 1 19t2.5 23t3 19t2.5 8h16q0 -45 2.5 -93.5t11.5 -93.5q18 -7 30.5 -9t29.5 -2q14 0 38 6t51 16t55 24.5t50.5 32t36.5 36.5t14 40t-15 37t-39 27t-53.5 19t-58 12t-52.5 6
t-38 2h-32.5t-28 -0.5t-27.5 -3t-30 -7.5q-3 -1 -14.5 -5t-25 -9.5t-25 -10t-14.5 -5.5h-5q-10 0 -14 11q45 35 99 47t109 12q19 0 47.5 -3t61.5 -10t66 -17.5t59.5 -26t43 -35.5t16.5 -46q0 -2 -0.5 -10t-0.5 -10q-33 -37 -69 -62t-75 -43t-82 -32.5t-89 -29.5
q-6 -2 -12 -5q-4 -2 -7 -4v-364q0 -8 -3.5 -14.5t-11.5 -6.5h-3t-2 1q-11 96 -12.5 191.5t-6.5 192.5z" />
    <glyph glyph-name="Q" unicode="Q" horiz-adv-x="663" 
d="M23 259q0 16 8.5 57.5t23.5 94.5t35.5 110.5t44.5 105.5t51 79t55 31q8 0 14 -3t6 -12q0 -5 -1 -5q-49 -33 -82 -78.5t-56 -98.5t-39 -110.5t-29 -114.5v-11t-0.5 -16.5t-0.5 -16.5v-11q0 -45 12 -88t37 -76.5t63 -54.5t90 -21q33 0 71 12t72.5 33t61 49.5t36.5 62.5
q-27 18 -54 36.5t-50 39.5t-42 45.5t-31 55.5h20q5 -6 19 -20t29.5 -30t29.5 -29.5t20 -19.5q6 -5 14 -11.5t17 -12.5t18.5 -10.5t18.5 -4.5h11q8 20 12 36t6 31t2 31v36q0 50 -9.5 106.5t-33 104t-63.5 78.5t-101 31q-5 0 -20 -1t-19 -1q-15 -10 -24.5 -26.5t-15.5 -32.5
q0 2 -1 12t-1 13q0 28 23.5 46t52.5 18q64 0 108 -33t71.5 -82.5t40 -108t12.5 -110.5v-44t-1.5 -41t-6 -40.5t-13.5 -41.5q6 -10 22.5 -17.5t33.5 -14.5t30 -14.5t13 -17.5t-11 -15q-5 2 -19 8t-29.5 12t-29.5 11.5t-19 7.5q-1 0 -3 0.5t-3 0.5q-4 0 -20 -17.5t-37.5 -40
t-44 -43.5t-40.5 -27q-29 -11 -60.5 -21t-63.5 -10q-55 0 -98 22t-72.5 58.5t-45 83t-15.5 96.5z" />
    <glyph glyph-name="R" unicode="R" horiz-adv-x="624" 
d="M44 511v6.5t-0.5 13t-0.5 15v11.5v13t0.5 16.5t0.5 15v7.5q0 8 1.5 19.5t3 22.5t3 19t2.5 8h16v-65t1 -74.5t4 -76.5t8 -69q23 2 60 11.5t79.5 24.5t86 34t79 40.5t57.5 45t22 46.5q0 34 -26.5 55.5t-63.5 34t-75 17.5t-61 6q-12 0 -41.5 0.5t-62.5 0.5t-62 -0.5
t-41 -0.5l-10 9q35 11 73 11h74q21 0 52.5 -1t66 -5.5t69.5 -12.5t64 -22.5t49 -36t24 -51.5q3 -25 -20 -50.5t-55.5 -47t-64.5 -37.5t-47 -22q-9 -4 -31 -12.5t-47 -17.5t-47.5 -17t-31.5 -11q1 -2 4.5 -6t5.5 -5q7 -4 25 -14t38.5 -20.5t38.5 -20t26 -13.5l294 -246
q8 4 14.5 -1.5t6.5 -12.5q0 -4 -2.5 -11t-7.5 -4l-40 19q-10 9 -30.5 26.5t-46.5 40t-55 47t-55 46.5t-47 39.5t-31 26.5q-18 15 -41.5 30.5t-50 28t-53 20.5t-50.5 8q0 -86 9 -169.5t9 -170.5q0 -6 -0.5 -13t-9.5 -9l-10 10z" />
    <glyph glyph-name="S" unicode="S" horiz-adv-x="560" 
d="M15 30q4 5 14 12t16 7h107l20 -15h-88q10 -1 36.5 -2t56.5 -2t56 -1t37 1q6 0 25 2.5t41 5.5t42.5 6t29.5 5q7 2 22 7t30 12.5t26 17.5t11 22q0 9 -2 15.5t-8 13.5t-18.5 20t-25 25.5t-23 22t-12.5 11.5l-265 187q-61 43 -61 118q0 47 26.5 85.5t66.5 65.5t86.5 41.5
t86.5 14.5q32 0 64 -5.5t57.5 -20.5t41.5 -40t16 -64q0 -14 -1.5 -26.5t-19.5 -12.5q-1 0 -4.5 0.5t-5.5 0.5q2 4 5.5 15t4.5 15v2q0 1 0.5 1.5t0.5 1.5q0 31 -16 52.5t-40 35t-53 19.5t-54 6q-33 0 -73.5 -14.5t-75.5 -39t-59 -57.5t-24 -70q0 -41 18.5 -71t51.5 -53
l275 -197q7 -5 19 -15.5t23.5 -24t19.5 -27.5t8 -26q0 -28 -24 -47t-62 -32t-83.5 -20t-88.5 -10.5t-77.5 -4t-50.5 -0.5q-14 0 -32 -0.5t-36 2t-33.5 9t-24.5 20.5z" />
    <glyph glyph-name="T" unicode="T" horiz-adv-x="781" 
d="M309 657q18 0 23 -11.5t7 -26.5q11 -63 12.5 -127.5t7.5 -128.5q0 -3 1.5 -14.5t3 -24.5t3.5 -24.5t2 -14.5v-10q2 -15 7.5 -52.5t11.5 -80t12 -80t8 -52.5q-6 -11 -15 -11q-1 0 -2.5 0.5t-2.5 0.5q-20 74 -32.5 154.5t-20.5 162t-13.5 161t-12.5 151.5v28zM15 629
q62 35 129.5 55.5t138 30.5t142 12.5t140.5 2.5q8 0 29 -0.5t44.5 -1t44.5 -1t29 -0.5q3 0 11 -1t17 -3.5t15.5 -7.5t6.5 -13t-8.5 -12.5t-16.5 -4.5q0 13 -12 17t-22 6q-8 0 -28.5 0.5t-43 1t-43 0.5h-28.5h-36.5t-45 -0.5t-40 -1t-20.5 -0.5q-7 -1 -26 -4t-44 -7.5
t-54 -10t-56 -10.5t-50 -9.5t-36 -7.5q-4 -1 -20 -7t-34 -12.5t-33.5 -13t-19.5 -7.5h-11q-6 0 -11.5 1t-7.5 9z" />
    <glyph glyph-name="U" unicode="U" 
d="M29 283q0 49 5.5 98.5t11.5 98.5t11.5 98.5t5.5 99.5h16q3 0 5 -7.5t3 -17.5t1.5 -19.5t0.5 -13.5q0 -43 -5 -85t-10.5 -84.5t-10.5 -84.5t-5 -85q0 -23 0.5 -49t4 -52t11.5 -50t24 -42q6 -6 15.5 -16t19 -19.5t17 -16t8.5 -6.5h48q1 0 9.5 7.5t19.5 18.5t22 22.5
t18 19.5q46 51 80.5 122t57 149t34.5 156t15 143h2q1 0 1.5 0.5t1.5 0.5q5 0 10 -2.5t5 -7.5v-89l-69 -275q0 -1 -0.5 -8t-1 -15.5t-0.5 -17v-13.5q0 -41 7.5 -78t26 -64t49 -41t76.5 -9q-8 -14 -26.5 -17t-32.5 -3q-36 0 -59.5 17.5t-38.5 44t-24 57.5t-16 58
q-4 -8 -16 -28t-26.5 -41.5t-27 -41t-18.5 -26.5q-8 -11 -19 -23t-24.5 -22.5t-29 -17.5t-30.5 -7q-32 0 -55.5 15t-40.5 39t-28 54.5t-17.5 62t-9 61.5t-2.5 52z" />
    <glyph glyph-name="V" unicode="V" horiz-adv-x="516" 
d="M20 632q6 0 16 -2t13 -11q3 -14 9.5 -43.5t15.5 -66t18.5 -77.5t18 -77.5t15.5 -66t11 -43.5l7.5 -22.5t12 -35.5t12 -35.5t8.5 -23.5q3 -9 9.5 -22.5t12.5 -26t11 -21.5t6 -9h10q5 17 16 51.5t25 78.5t30 92t31 91.5t27 78t18 50.5q3 9 11.5 27t18.5 40.5t22 47t23 46.5
t19.5 39.5t13.5 25.5q8 -1 14.5 -4t6.5 -11v-2q0 -1 -1 -2q-45 -76 -83 -160t-69.5 -171t-57 -175t-46.5 -172q-5 -8 -10 -14.5t-14 -6.5q-5 0 -11 5.5t-11 13t-8.5 13.5t-3.5 8q-6 13 -15.5 36t-19 47t-17 42.5t-8.5 22.5l-107 432v13z" />
    <glyph glyph-name="W" unicode="W" horiz-adv-x="835" 
d="M54 560q4 14 -0.5 27.5t-11 27.5l-13 28t-6.5 28q11 0 19.5 -8t15 -19.5t10 -23.5t5.5 -21t8 -37t14 -65t17 -79.5t17 -79.5t14.5 -65t8.5 -37q1 -3 8 -23t16.5 -47l19 -54t15.5 -43q1 -2 4.5 -10t5.5 -10l9 10l129 491q0 1 3 9t7.5 17t10.5 16.5t13 7.5q1 0 1.5 -0.5
t1.5 -0.5h2q12 -8 19.5 -19.5t13 -25t9.5 -27t7 -25.5q3 -11 9.5 -35t14 -54t16.5 -63.5t16.5 -63.5l13.5 -54t9 -35q4 -12 11.5 -30.5t17.5 -36.5t22.5 -30.5t27.5 -12.5q2 0 5 0.5t4 0.5l29 49q3 4 9 20t13.5 39t16 49.5t16.5 52.5t14.5 49t9.5 37q3 12 8 38t11 59
t12.5 69t12 69t9.5 59l6 39h2q1 0 1.5 0.5t1.5 0.5q6 0 11 -5t8 -11.5t4.5 -13.5t0.5 -10q0 -3 -2.5 -8.5t-5.5 -11.5t-6.5 -11.5t-4.5 -7.5l-79 -384q0 -3 -6 -20t-13.5 -38.5t-16 -43.5t-13.5 -35q-3 -9 -8 -19.5t-11.5 -19.5t-15 -15t-19.5 -6q-17 0 -35.5 19t-35 44.5
t-28 49.5t-14.5 35l-69 266q1 4 -1.5 18.5t-7.5 30.5t-11.5 28t-13.5 12q-8 0 -10.5 -6.5t-4.5 -13.5l-128 -511q-2 -8 -7.5 -16.5t-12.5 -13.5q-11 6 -20.5 20.5t-17 30t-13 29t-7.5 18.5q-3 7 -9 24t-12.5 36t-12 35.5t-6.5 22.5q-3 13 -9.5 39.5t-14.5 60.5t-16.5 71.5
t-16 71.5t-13.5 61t-8 40z" />
    <glyph glyph-name="X" unicode="X" horiz-adv-x="462" 
d="M206 295q-2 -2 -8 -24t-14 -52t-15.5 -61t-11.5 -50q-1 -2 -1.5 -15t-0.5 -20q0 -4 0.5 -16.5t1.5 -17.5q11 -6 11 -15t-9 -12t-17 -3q-14 0 -19.5 11.5t-5.5 22.5v9t1 7l73 295l-171 344v12q20 0 30 -12.5t19 -29.5q5 -9 15 -29l22.5 -45l26.5 -53t26.5 -53.5t22 -45.5
t14.5 -30l10 -9l89 275q8 26 31.5 44t50.5 18q0 -10 -8.5 -22t-19.5 -24t-21.5 -24t-13.5 -22l-88 -275v-29q0 -2 12.5 -25.5t29.5 -55t35.5 -63.5t30.5 -52q2 -4 9.5 -14.5t17 -23t18.5 -24t14 -17.5q9 -11 16.5 -16t13 -9.5t8.5 -9.5t3 -14q0 -6 -1.5 -12t-9.5 -8
q-33 27 -63 64t-56 78.5t-48 83.5t-40 79z" />
    <glyph glyph-name="Y" unicode="Y" horiz-adv-x="403" 
d="M190 367q10 0 20 -6t10 -19q2 -8 5 -29.5t6.5 -49t7.5 -58.5t8 -58.5t7 -48.5t6 -29q5 -16 15 -32.5t24 -26.5q-6 -11 -15 -11q-12 0 -22.5 10t-18.5 24.5t-13.5 29.5t-8.5 25q-4 15 -7.5 40t-7 54.5t-6.5 59t-5 54t-3.5 40t-1.5 16.5v15zM5 648q1 1 4.5 1h5.5
q11 0 16 -4t13 -16l128 -217q6 -9 20.5 -22t28.5 -17q9 28 16.5 74.5t16 101t18 111.5t21.5 106.5t28 86.5t38 51l19 -20q-8 -2 -16.5 -7t-13.5 -12q-23 -63 -34 -127t-19 -128t-17 -128.5t-28 -127.5q-2 -10 -10 -10h-13q-20 0 -43 18.5t-46 47.5t-44.5 65t-39 69.5
t-30.5 61.5t-19 42z" />
    <glyph glyph-name="Z" unicode="Z" horiz-adv-x="668" 
d="M295 323q-25 0 -49.5 -5t-49 -10.5t-49 -10.5t-49.5 -5v23q10 2 35 7.5t53.5 11.5t53.5 12t35 8q23 5 36.5 16t22.5 33q6 16 17 44l22 56t19.5 50.5t10.5 26.5q8 23 14 46t6 47q0 17 -8 23.5t-22 11.5h-10.5t-16.5 0.5t-16.5 0.5h-10.5q-79 0 -149 -21t-141 -59
q-1 0 -4.5 -0.5t-5.5 -0.5q-7 0 -12 1.5t-7 9.5q40 21 79 39t78.5 31.5t81 21t86.5 7.5q19 0 38 -2t34.5 -9t25.5 -21t10 -38q0 -4 -0.5 -11t-0.5 -9l-89 -255v-9q34 0 67 6t66 13.5t66 13.5t67 6h19q-5 -11 -18 -14.5t-21 -5.5t-41.5 -9t-71.5 -15.5t-71.5 -15.5t-41.5 -9
q-27 -6 -45 -26t-29 -48.5t-17 -62t-8.5 -66t-2.5 -62.5v-50h33q8 3 25 9.5t38 14.5t45 16.5t45 16.5t38 13.5t25 8.5q3 1 15.5 3.5t28 5.5l31 6t24.5 4q1 0 4 0.5t5 0.5t5.5 -0.5t4.5 -0.5l-19 -19l-11.5 -4t-27.5 -8.5t-32.5 -9.5t-27.5 -8h-9q-35 -15 -69.5 -31t-70 -29
t-71.5 -21.5t-74 -8.5q0 161 59 317v8z" />
    <glyph glyph-name="bracketleft" unicode="[" horiz-adv-x="472" 
d="M30 639v157l9 9q111 11 208 43t195 86h10v-20q0 -1 -19 -10.5t-45.5 -22t-55 -25.5t-47.5 -21q-23 -9 -50.5 -17t-56 -14t-57 -10.5t-52.5 -7.5l-10 -9v-118q3 -15 9.5 -46.5t14.5 -71.5t16.5 -84t16 -84t13 -71.5t8.5 -46.5q2 -12 5 -41t6.5 -62t6 -62t2.5 -41
q-1 -14 5 -17t14 -3q2 0 6 0.5t5 0.5q67 14 133 28t135 14q0 -11 -8.5 -17t-20.5 -9t-24 -4.5t-19 -2.5q-8 -2 -36.5 -7.5t-61.5 -12.5t-62 -12.5t-36 -6.5q-2 0 -9.5 -0.5t-11.5 -0.5q-26 0 -37 20t-14 47t-1 55.5t4 45.5z" />
    <glyph glyph-name="backslash" unicode="\" horiz-adv-x="545" 
d="M10 662q6 0 12.5 -5t12.5 -11t10 -11.5l4 -5.5q51 -108 118 -206.5t148 -186.5q6 -7 26 -27.5t43.5 -44t45.5 -45t32 -31.5q8 -8 20 -14t23 -13.5t19 -17t8 -23.5q0 -7 -1.5 -12.5t-9.5 -7.5q-41 35 -86.5 77.5t-90 88t-85.5 93.5t-72 95q-13 20 -31.5 48.5t-38 60.5
l-39 64t-34.5 58t-24.5 43.5t-9.5 19.5v14v0z" />
    <glyph glyph-name="bracketright" unicode="]" horiz-adv-x="487" 
d="M40 30q4 -1 15.5 -1.5t23.5 -0.5t23 0.5t16 1.5q6 1 23 3.5t40 6t50 7.5t52.5 8.5t46.5 8t34 5.5q5 1 16.5 4.5t13.5 5.5v4q0 38 -6.5 75t-15 74.5t-15 76t-6.5 77.5q0 8 0.5 21.5l1 27t1 24.5t0.5 13l69 314v11q0 10 -7 14t-16 5t-18.5 0.5t-14.5 -0.5q-38 0 -82 -2
t-78 -9q-6 -1 -31 -6.5t-53 -12.5t-52.5 -13t-30.5 -7h-10q-7 0 -12.5 1.5t-7.5 9.5l10 9q1 1 21.5 6t48.5 11t58 12.5t49 10.5q50 9 91.5 10t94.5 1h17.5t22.5 -0.5t19.5 -1t9.5 -0.5l10 -9q-16 -64 -30 -122t-25 -114.5t-17.5 -114t-6.5 -120.5q0 -36 6.5 -71.5t14 -70.5
t14 -70t6.5 -71q0 -8 -0.5 -11.5t-3.5 -5.5t-9 -3t-17 -3q-16 -3 -55 -10t-83 -15t-83.5 -14.5t-54.5 -9.5q-3 -1 -14.5 -1h-14.5q-17 0 -32.5 2.5t-26.5 18.5z" />
    <glyph glyph-name="asciicircum" unicode="^" horiz-adv-x="421" 
d="M184 412q4 10 14 10q12 0 15 -10l78 -158q0 -1 0.5 -4.5t0.5 -5.5q-12 -15 -25 -4.5t-25.5 32.5t-24.5 48t-23 42q-16 -24 -26.5 -40.5t-19.5 -30t-17 -27t-19 -29.5l-21 13z" />
    <glyph glyph-name="underscore" unicode="_" 
d="M17 26q51 0 101.5 7t100.5 15.5t101 15.5t103 7h23t35.5 -0.5t35.5 -1t24 -0.5q8 -2 14 -4.5t6 -9.5q0 -11 -11 -16q-10 1 -31.5 1.5t-49 1t-57 0.5t-57 -0.5t-49 -1t-31.5 -1.5q-5 -1 -21 -3.5t-37 -6.5t-45 -8.5t-45 -9t-37 -7.5t-21 -4h-5q-5 0 -12.5 1.5t-15.5 4.5
t-13.5 8t-5.5 12z" />
    <glyph glyph-name="a" unicode="a" horiz-adv-x="503" 
d="M23 59q0 19 8.5 53t23 74.5t35 82.5t44 76t49 56t51.5 22q18 0 27.5 -5.5t13.5 -15t4.5 -23t0.5 -29.5q0 -29 -5 -57.5t-5 -57.5q-11 -41 -11 -76t13 -61.5t39 -42t67 -16.5q43 4 89 27t78 52q0 -2 1 -5.5t1 -4.5q0 -22 -22 -38.5t-51.5 -28t-59.5 -17t-46 -5.5
q-6 0 -16.5 -0.5t-22 0.5t-22 3t-17.5 8q-5 3 -15 12.5t-21 20.5t-20.5 21t-12.5 14q-12 -13 -28 -30t-34.5 -32.5t-39 -26t-41.5 -10.5q-27 0 -41 17t-14 43zM54 63q0 -8 7 -21t17 -13q29 0 54 18.5t45.5 48.5t36 66.5t26 73t16 68t5.5 50.5t-4.5 30t-26.5 11
q-21 0 -42 -19.5t-41 -51t-36.5 -69.5t-29.5 -75t-20 -68.5t-7 -48.5z" />
    <glyph glyph-name="b" unicode="b" horiz-adv-x="354" 
d="M29 219q0 75 3.5 150t8 149.5t8.5 149.5t4 150q5 0 9.5 -5t6.5 -8v-24t0.5 -36.5t0.5 -37v-24.5q0 -130 -4.5 -258t-4.5 -258h8q7 27 16.5 56.5t25.5 54t38.5 41t55.5 16.5q30 0 56 -13t44.5 -34.5t29 -49.5t10.5 -58q0 -31 -14 -51.5t-36.5 -33t-51 -19t-57 -8.5
t-54.5 -1t-44 2l-4.5 -4.5t-4.5 -5.5q-1 -3 -2.5 -10t-3 -14.5t-3 -14.5t-1.5 -10h-20l-2.5 19t-5.5 45.5t-6.5 55t-4.5 47.5v6t-0.5 11.5t-0.5 13.5v11zM128 98q0 -3 8 -5t18 -3t20 -1.5t14 -0.5q59 0 93.5 28t34.5 85q0 48 -32 76.5t-79 28.5q-31 0 -51 -19.5t-33 -47.5
t-20.5 -58.5t-12.5 -52.5q-1 -3 -1 -9v-6z" />
    <glyph glyph-name="c" unicode="c" horiz-adv-x="438" 
d="M23 137q0 23 7 52.5t19.5 60t30.5 60t40 52t47.5 36.5t53.5 14q13 0 25.5 -5t22.5 -13.5t16 -20.5t6 -25q0 -8 -4 -17t-15 -9q0 8 -3 19t-8 20.5t-13 16t-17 6.5q-41 0 -74 -27t-56 -66t-35 -82t-12 -76q0 -29 11.5 -49t30 -32.5t42 -18t47.5 -5.5q36 0 71 7.5t69.5 20.5
t67 29t63.5 33q0 -1 0.5 -2.5t0.5 -2.5q0 -10 -16.5 -22.5t-43 -25t-58 -24.5t-61.5 -21.5t-54.5 -15t-36.5 -5.5q-29 0 -58.5 9t-53 27t-38 43.5t-14.5 58.5z" />
    <glyph glyph-name="d" unicode="d" horiz-adv-x="563" 
d="M266 366q21 0 34 -9.5t19.5 -24t8.5 -32t2 -34.5v-40q-1 -6 -2.5 -16t-3 -19.5t-3 -16.5l-1.5 -7h-7q0 14 0.5 36.5t-1 46.5t-6.5 46.5t-16 37.5q-2 0 -11.5 0.5t-12.5 0.5q-33 0 -71.5 -29t-72.5 -69.5t-56.5 -83t-22.5 -69.5q0 -17 8 -30t22 -24q3 0 8.5 -0.5t12 -0.5
t12 -0.5t7.5 -0.5q23 0 40.5 3t32.5 10.5t30 18.5t35 28q13 12 29 27.5t32 32t31 34t26 34.5q5 8 11 44t12.5 85t14.5 104.5t18.5 102t24 77t31.5 30.5q15 0 22.5 -12t10.5 -27.5t3 -31v-21.5q0 -39 -9.5 -78.5t-23.5 -78t-32 -75t-34 -69.5q0 -3 -0.5 -9t-1 -13.5
t-0.5 -13.5v-9q0 -47 12 -80t35.5 -54.5t56.5 -32.5t75 -15q-16 -9 -32 -10t-33 -1q-33 0 -57.5 15.5t-42.5 40.5t-30.5 54.5t-21.5 58.5q-32 -27 -60.5 -61.5t-59 -64.5t-67 -51t-84.5 -21q-8 0 -21.5 2.5t-27 7.5t-23.5 12.5t-10 17.5v89q0 2 10 17.5t24 36t29 41t25 32.5
q12 15 29 34t37 36.5t42 29t45 11.5zM489 630q-1 0 -2 -1q-11 -11 -19.5 -28.5t-14.5 -36.5t-10 -36t-6 -26q0 -3 -3.5 -27t-8 -55.5t-9.5 -63.5t-8 -51v-5v-5q2 1 5 4.5t5 5.5l32 62t29 63.5t20.5 67t7.5 70.5q0 1 0.5 10.5t-0.5 21t-4.5 21t-11.5 9.5h-2z" />
    <glyph glyph-name="e" unicode="e" horiz-adv-x="337" 
d="M52 204q-3 0 -11.5 -1.5t-18 -3t-17.5 -2.5t-11 0q-2 0 -6 3.5t-4 5.5q3 11 12 18t19.5 10.5t21 4t17.5 -1.5q4 24 6.5 45t6.5 41.5t11 39.5t20 39q5 12 15.5 27t24 28.5t28.5 23t29 9.5q9 0 27 -5.5t36 -14t31 -18.5t13 -18q4 -36 -11 -61.5t-39.5 -44.5t-53.5 -34.5
t-53 -33.5q-13 -15 -24.5 -22.5t-20.5 -14.5t-14 -16.5t-5 -29.5q0 -31 9.5 -58t27 -47.5t42.5 -32t56 -11.5q3 0 10.5 1t22.5 8t41 21t67 40q1 0 1 -5q0 -18 -19 -33.5t-44.5 -26.5t-51 -17.5t-38.5 -6.5q-40 0 -68.5 17t-46.5 45t-27.5 62.5t-10.5 70.5zM202 461
q-25 0 -45.5 -20t-35 -47.5t-22.5 -57.5t-8 -51v-30q28 21 60.5 38t60 36.5t45.5 43.5t18 59q0 6 -9 11.5t-21 9t-24.5 6t-18.5 2.5z" />
    <glyph glyph-name="f" unicode="f" horiz-adv-x="407" 
d="M162 226q-26 -9 -50.5 -10t-51.5 -1q-6 0 -20 0.5t-15 0.5l-10 10l10 10q12 1 28.5 2t34 3.5t34 5.5t30.5 8q0 4 0.5 17t0.5 18q0 56 -5.5 110.5t-5.5 111.5q0 40 2.5 75.5t9 69t18 67.5t30.5 72q6 5 11 7.5t13 2.5q14 0 38 -11.5t47.5 -29t41 -38.5t17.5 -39
q0 -1 -0.5 -4.5t-0.5 -5.5q-11 13 -26.5 30t-34.5 32.5t-39 26t-38 10.5q-10 0 -19 -16.5t-15.5 -41.5t-11.5 -56t-8 -60.5t-4.5 -53.5t-1.5 -35q0 -60 2.5 -120t17.5 -119h11q29 0 59 4.5t60 10.5t60.5 10.5t60.5 4.5h5l-10 -10q-12 -3 -41 -9.5t-62 -14.5t-62 -15.5
t-41 -10.5q-14 -3 -22 -3t-8 -10q0 -2 0.5 -3.5t0.5 -2.5l49 -187q1 -1 1 -6.5v-8.5q0 -6 -1 -14t-10 -10q-12 4 -17 14t-7.5 22t-3 23.5t-1.5 19.5q-4 15 -10.5 38t-12.5 44.5t-11 37.5t-6 17l-10 10v0z" />
    <glyph glyph-name="g" unicode="g" horiz-adv-x="459" 
d="M191 -284q0 49 14 96.5t36.5 91.5t50.5 85.5t56 79.5q0 1 0.5 4.5t0.5 5.5q0 5 -6 28.5t-14 50t-17.5 48t-16.5 21.5q-24 -12 -44 -40.5t-42 -61.5t-50 -63t-68 -43q-23 0 -36 14t-20.5 34.5t-9.5 42.5t-2 38q0 20 6 54.5t17.5 75t28 82.5t36.5 75.5t44 55t51 21.5
q19 0 32.5 -11t22 -27.5t13 -35.5t6.5 -35q1 -7 2.5 -25t3 -38.5t3 -39t1.5 -25.5q22 -16 33.5 -37.5t19 -45.5t14.5 -48.5t21 -45.5l118 89h5q8 0 11.5 -6.5t3.5 -14.5t-1.5 -9.5t-5 -1.5t-9 -1t-14.5 -6q-11 -7 -25 -18.5t-27.5 -24t-25.5 -25t-21 -21.5v-5v-5
q1 -6 5.5 -30.5t9.5 -52.5t9.5 -53t5.5 -31v-4q0 -20 -2 -48t-8 -58t-16 -60t-26 -53.5t-38 -38t-52 -14.5q-23 0 -39 10t-26 25.5t-14.5 35t-4.5 39.5zM221 -334q8 -22 22.5 -27t31.5 -5q38 0 60.5 29.5t34 69.5t15 81.5t3.5 65.5q0 6 -0.5 18.5t-0.5 13.5q-1 7 -4.5 23.5
t-8 35.5t-9 35.5t-6.5 23.5q-34 -26 -60 -62.5t-43.5 -77.5t-26.5 -85t-9 -85v-10.5t0.5 -16.5t0.5 -16.5v-10.5zM52 159v-29.5t3 -36.5t11.5 -31.5t26.5 -13.5q9 0 19 5.5t19.5 13t17.5 16.5t13 15q6 9 20 31t29.5 47t29.5 47.5t19 31.5q0 4 0.5 14t0.5 21v20.5v13.5v40
t-4.5 53t-16.5 46t-35 20q-21 0 -40.5 -19.5t-36.5 -50t-31 -68t-24 -73.5t-15.5 -66.5t-5.5 -46.5z" />
    <glyph glyph-name="h" unicode="h" horiz-adv-x="485" 
d="M24 727q2 0 5.5 0.5t4.5 0.5q6 0 11.5 -1.5t8.5 -9.5q13 -68 21 -133t14 -129.5t11 -130.5t12 -137q1 -10 3 -25t3.5 -29.5t3 -24.5l1.5 -10h9q3 7 11 22.5t17.5 32.5t18 32t12.5 21q10 15 18.5 27.5t17 22t19 16.5t24.5 13q6 2 17 6t12 4q3 -1 7.5 -4.5t9.5 -8.5
t8.5 -9.5t4.5 -6.5q2 -9 7.5 -30t11.5 -44.5t12 -44.5t8 -29q3 -10 10.5 -20t16 -19t17.5 -17t15 -13q2 -1 5 -1h5q12 0 25 5t25 11.5t22.5 13.5t16.5 10l1 -4q0 -14 -11 -24t-26.5 -17.5t-32 -11t-26.5 -3.5q-30 0 -49.5 17.5t-31.5 44t-19.5 57.5t-13 57.5t-11.5 44
t-16 17.5q-22 0 -41 -19t-35.5 -47.5t-30.5 -62t-25.5 -62t-21.5 -47.5t-19 -19q-1 0 -2.5 0.5t-2.5 0.5q-11 29 -15.5 58t-7 58.5t-3 59t-3.5 59.5q-5 60 -8 121.5t-8 122.5t-15 121t-28 117z" />
    <glyph glyph-name="i" unicode="i" horiz-adv-x="208" 
d="M84 363l29 -245q1 -12 6.5 -27.5t13.5 -29.5t19 -23.5t25 -9.5q20 0 31 10t23 31v-5q0 -11 -6.5 -22.5t-17 -20.5t-22.5 -15t-23 -6q-12 0 -23 9t-20.5 21.5t-16 26t-8.5 22.5q-20 72 -23 140t-3 144h16zM13 586q20 0 26.5 -12.5t6.5 -28.5q-20 0 -26.5 12t-6.5 29z" />
    <glyph glyph-name="j" unicode="j" horiz-adv-x="345" 
d="M78 -281q0 38 11.5 75.5t28.5 73t38 69t41 63.5v20l-192 422h25l177 -383q5 -11 14 -11q2 0 3.5 0.5t2.5 0.5q46 56 97.5 108.5t108.5 97.5q11 -5 11 -14q0 -1 -0.5 -1.5t-0.5 -1.5q-1 -1 -1 -2l-176 -177q-1 0 -3.5 -4t-5.5 -8.5l-6 -9l-5 -7.5q-2 -4 -6 -11.5t-4 -8.5
q0 -35 17 -69t37.5 -69t37.5 -72t17 -77q0 -28 -11.5 -49.5t-30.5 -36.5t-44 -23t-51 -8t-49.5 7.5t-41.5 22t-28.5 35.5t-10.5 48zM98 -280q0 -23 9 -39t24 -26.5t34 -15t39 -4.5q25 0 45.5 5t35.5 16t23 29t8 45q0 31 -9 61t-22.5 58.5t-29 56t-28.5 55.5q-5 10 -15 10
q-11 0 -23.5 -14.5t-25 -38t-24.5 -52t-21 -56t-14.5 -52t-5.5 -38.5zM59 688q5 10 15 10q13 0 15 -12t2 -20q-11 0 -18 6.5t-14 15.5z" />
    <glyph glyph-name="k" unicode="k" horiz-adv-x="481" 
d="M24 708v18q15 0 23.5 -12t6.5 -26q2 -17 7.5 -51.5t12 -78t14 -91.5t14.5 -92t12.5 -78.5t8.5 -51.5q0 -2 1 -7.5t2.5 -11.5l3 -12t2.5 -8q4 3 15.5 14.5t14.5 15.5q7 9 22.5 29t35 45t41 53t41 53t35 45t22.5 30h9v-29l-187 -246l-9 -19q7 -5 26.5 -15t41 -21
t41.5 -20.5t28 -12.5q16 -7 44.5 -17t57 -19.5t50.5 -16t25 -6.5h42q0 -9 -4.5 -13.5t-11 -6t-14.5 -1.5h-14q-46 0 -88.5 16.5t-83.5 37t-82 37t-85 16.5q0 -1 -1 -16t-1.5 -33t1.5 -32.5t8 -14.5q12 -14 10 -33.5t-20 -25.5l-10 30z" />
    <glyph glyph-name="l" unicode="l" horiz-adv-x="282" 
d="M24 202q0 52 6 104.5t13.5 104.5t14 104t6.5 105q0 45 -5.5 88t-5.5 88h20q1 0 3 -5.5t3.5 -13.5t2.5 -16t1 -14q0 -2 0.5 -16.5t0.5 -33v-37v-29.5q0 -48 -5 -96t-11 -95.5t-11 -95.5t-5 -97v-34t2 -45.5t7 -49t15 -44.5t26 -32.5t40 -12.5q15 0 30.5 6t28.5 14
q7 5 25 17.5t38.5 26.5t38.5 26.5t26 17.5h33q0 -4 -12.5 -15.5t-32.5 -26.5t-44.5 -32t-49 -31t-46 -23.5t-35.5 -9.5q-37 0 -60 21.5t-36 53t-17.5 66.5t-4.5 62z" />
    <glyph glyph-name="m" unicode="m" horiz-adv-x="663" 
d="M580 324q-2 8 -7.5 9.5t-12.5 1.5q-14 0 -31 -12.5t-32.5 -29.5t-28 -33.5t-16.5 -23.5q-7 -11 -22.5 -40t-32.5 -62t-32 -62.5t-20 -41.5l-21 -20q-6 1 -8 5t-2.5 9t0 9.5t0.5 7.5q0 51 5 100t5 100q0 13 0.5 28t-2 27.5t-9.5 20.5t-22 8q-27 0 -50 -19.5t-35 -39.5
l-137 -246l-20 -10q0 13 0.5 45t0.5 68t-0.5 68t-0.5 45q0 4 -1 16t-2.5 26.5t-3 27t-2.5 18.5q0 1 -2 5.5t-3.5 9.5t-3 9.5t-1.5 5.5q0 2 4 5.5t6 3.5q10 -4 15.5 -12.5t8 -18t3.5 -19.5t2 -18q1 -11 2.5 -39t3 -59.5t3 -59.5t1.5 -39q4 8 15 28t23.5 42t24 41t16.5 27
q11 18 25 39t31.5 39t38 29.5t44.5 11.5q20 0 34 -14.5t14 -35.5v-207q12 7 26 29.5t29.5 52.5t33 62.5t38 59.5t44 45t50.5 18q20 0 30.5 -16.5t12.5 -33.5q1 -11 2.5 -34.5t3.5 -52.5t4.5 -61t4.5 -61t3 -52t2 -34q0 -3 0.5 -11.5t0.5 -10.5q-14 0 -22 19.5t-13 50.5
t-6.5 69t-2.5 74t-2 66.5t-4 46.5z" />
    <glyph glyph-name="n" unicode="n" horiz-adv-x="479" 
d="M69 393v-265q13 30 37 66t54.5 67.5t66.5 52.5t75 21q18 0 30.5 -16t12.5 -34v-206q0 -6 2.5 -14.5t7 -16.5t10.5 -13.5t14 -5.5q22 0 45 24.5t44.5 54.5t41 54.5t35.5 24.5h6q-6 -8 -21.5 -29t-33 -44.5t-33 -44.5t-21.5 -30q-10 -14 -30.5 -27t-38.5 -13
q-17 0 -28 10.5t-17.5 26t-9.5 32.5t-3 30q0 11 -0.5 39t-0.5 59.5t0.5 59.5t0.5 39q-2 9 -10.5 9.5t-14.5 0.5q-36 0 -64 -18t-50 -46.5t-40 -63.5t-34.5 -68.5t-34 -63t-37.5 -45.5v10q0 40 2.5 90.5t5.5 103t6 102t5 87.5h20z" />
    <glyph glyph-name="o" unicode="o" horiz-adv-x="318" 
d="M23 70q0 31 12.5 71t29.5 81t36 78.5t31 62.5q0 2 0.5 7.5t0.5 7.5q0 14 -5.5 25.5t-5.5 24.5q0 5 1.5 9.5t8.5 4.5q21 0 33.5 -12.5t25 -27t30.5 -27t49 -12.5t53 8.5t45 31.5q1 -1 1.5 -4.5t0.5 -5.5q0 -23 -19.5 -35t-45.5 -16.5t-52 -4.5h-39q0 -8 1.5 -29.5t3 -45.5
t2.5 -45.5t0 -29.5q-2 -24 -14.5 -56t-32.5 -61.5t-46 -50t-55 -20.5q-15 0 -24.5 6.5t-15 16.5t-8 23t-2.5 25zM52 69q0 -5 0.5 -12t2.5 -13.5t6 -11t12 -4.5t15 2t15 9q55 47 77 99t22 123q0 10 0.5 26t-2 31t-10 25.5t-24.5 10.5h-4q-5 -11 -18 -39t-27 -59.5
t-26.5 -59.5t-17.5 -39q-11 -28 -16 -45.5t-5 -42.5z" />
    <glyph glyph-name="p" unicode="p" horiz-adv-x="496" 
d="M-45 -284q5 122 40.5 236.5t88.5 224.5q17 14 35 37.5t38.5 51t43 55.5t47.5 50.5t52.5 37t58.5 14.5q27 0 47 -11.5t33.5 -30t20.5 -42t7 -46.5q0 -38 -16.5 -73.5t-44 -66t-63.5 -55.5t-75.5 -41.5t-80 -24t-75.5 -2.5l-58 -344q-2 -9 -6.5 -25.5t-11.5 -33t-15 -28.5
t-16 -12q-15 0 -24.5 18t-15 41t-8 44t-2.5 26zM-15 -334q2 -8 6 -21t14 -18q16 23 28 58t20.5 75.5t13.5 85t7.5 87t2 80.5t-3.5 66q8 8 9.5 14t1.5 16v9q-51 -85 -75.5 -182.5t-24.5 -195.5v-14.5v-22.5t0.5 -22.5t0.5 -14.5zM112 69q1 -6 6 -8t10.5 -2.5t11 0t7.5 0.5
q41 0 93.5 16.5t98.5 45.5t77.5 70t31.5 89q0 23 -5 44t-16.5 36.5t-29.5 25t-44 9.5q-27 0 -55.5 -13.5t-55.5 -35.5t-50.5 -51t-41.5 -60t-28.5 -61.5t-10.5 -55.5v-9.5t0.5 -14.5t0.5 -15v-10z" />
    <glyph glyph-name="q" unicode="q" horiz-adv-x="266" 
d="M117 -421q0 47 6 93.5t13.5 93t13.5 92.5t6 93h-22q0 17 8.5 25.5t24.5 14.5q1 3 2 11.5t2.5 17.5t3 17.5t2.5 11.5v6v4q-9 -11 -19.5 -23t-22 -22.5t-24.5 -17t-29 -6.5q-19 0 -31 13.5t-19 32.5t-9.5 39.5t-2.5 33.5q0 17 3.5 49t11.5 70.5t20 78t29 72t38.5 53.5
t49.5 21t41 -17.5t23 -42.5v-13.5t0.5 -20.5t0.5 -21v-14v-17t-0.5 -22t-0.5 -20v-10q-1 -11 -3.5 -40.5t-5.5 -62.5t-6.5 -62t-4.5 -41q-7 -3 -11 -9.5t-6 -14.5t-2.5 -16t-0.5 -14v-4q60 -8 98.5 -40.5t60.5 -78t30.5 -98.5t8.5 -102q0 -19 -3 -52t-10 -70.5t-18.5 -76.5
t-29.5 -70t-42 -51t-55 -20q-45 0 -69 28t-35.5 67.5t-13 81.5t-1.5 70zM148 -520q1 -17 7 -37.5t17 -38.5t27 -30.5t37 -12.5q27 0 47.5 19t36 49.5t26 67.5t16.5 73t9 67t3 48q0 38 -8.5 84.5t-28 87t-52.5 68t-82 27.5q-11 0 -15 -0.5t-5.5 -4.5t-2 -12t-3.5 -23
q-3 -19 -8 -50.5t-9.5 -63t-8 -55.5t-3.5 -27q0 -2 -0.5 -17t-1 -33.5t-1 -37.5t-0.5 -30q0 -7 0.5 -24t1 -35.5t1 -35.5t0.5 -23zM48 125v-23.5t3.5 -41t12 -37.5t24.5 -13q26 5 45 26t33.5 51t24 66t15 70.5t8 64.5t2.5 49q0 10 -1.5 25t-6 28.5t-13 23t-23.5 9.5
q-23 0 -41 -17.5t-31.5 -45t-23.5 -61.5t-16 -67.5t-9 -62t-3 -44.5z" />
    <glyph glyph-name="r" unicode="r" horiz-adv-x="369" 
d="M24 403q5 11 15 11q7 0 11.5 -19.5t7.5 -46l6 -53t9 -40.5q8 36 27 73t46.5 67t62.5 48.5t75 18.5q20 0 42 -5t33 -25q-63 5 -109 -9t-78 -42.5t-51.5 -69t-30 -88t-14 -99.5t-3.5 -104l-19 -20q-6 10 -8 18t-2.5 15t0 15.5t0.5 20.5q-1 12 -2.5 38.5t-3.5 59.5t-4 69
t-4 69t-3.5 59t-2.5 39z" />
    <glyph glyph-name="s" unicode="s" horiz-adv-x="373" 
d="M29 24q0 32 24 52.5t57.5 32t69 16t57.5 4.5q6 0 13.5 0.5t16 -0.5t16 -3t12.5 -8l-10 -10q-7 0 -24 -1t-35.5 -2.5t-35.5 -3.5t-23 -3q-14 -2 -30 -7.5t-29.5 -14t-23 -18.5t-9.5 -21q6 0 19 -1.5t27 -3t27 -2.5t19 0q12 2 36.5 9.5t49.5 19.5t44 28.5t19 35.5
q0 22 -22 39.5t-55 34.5t-71.5 36t-71.5 43t-55 55t-22 73q0 26 20.5 48t49.5 37.5t60 24t53 8.5q13 0 26 -1.5t23.5 -7t17.5 -15t7 -25.5q0 -20 -7 -33.5t-24 -27.5v11q0 11 5.5 22t5.5 22q0 10 -7.5 15t-17.5 7t-20.5 2.5t-15.5 0.5q-20 0 -44 -7.5t-45 -21t-35 -32.5
t-14 -41q0 -32 16 -56.5t41 -45.5t57 -38.5l64 -35t60.5 -36.5t48.5 -41q1 -1 1 -6.5v-7.5q0 -22 -13.5 -40t-34.5 -31.5t-47.5 -23.5t-52.5 -16.5t-50 -9.5t-39 -3h-20.5t-26.5 2t-22.5 7t-9.5 16z" />
    <glyph glyph-name="t" unicode="t" horiz-adv-x="432" 
d="M170 344l-176 -49q-6 -2 -8.5 4.5t-2.5 9.5q0 10 14.5 17t36.5 13t48 11t49 10t39.5 11t19.5 13q6 10 8 24t2 29t-0.5 29t0.5 25q0 6 1.5 29t3 49.5t3 49.5t1.5 29q1 9 1.5 31.5t1 47.5t0.5 47v31h17v-412q9 2 31.5 6.5t47.5 9t47.5 8.5t31.5 6h9h10q-5 -8 -13 -13
t-16 -7t-27.5 -8t-41.5 -12t-42 -12t-27 -8l-10 -9v-10.5t-0.5 -19.5t-0.5 -22v-18v-26t0.5 -34t0.5 -30.5v-16.5q0 -13 4.5 -38t13.5 -49.5t22.5 -42.5t32.5 -18q2 0 3.5 0.5t2.5 0.5q3 1 10.5 4t8.5 5l138 148q0 -1 0.5 -2.5t0.5 -2.5q0 -11 -9.5 -29t-25 -38.5t-34.5 -41
t-37.5 -37t-35 -27t-26.5 -10.5q-11 0 -22 5.5t-20.5 14t-16.5 19t-10 21.5q-3 10 -8 28.5t-9.5 37.5t-8 34t-3.5 18q-2 9 -3.5 33t-3 50.5t-2.5 50.5t-1 33h-20z" />
    <glyph glyph-name="u" unicode="u" horiz-adv-x="545" 
d="M40 432q-4 11 -7.5 25t-3.5 27q1 0 6.5 -0.5t12 -1.5t11.5 -3.5t5 -6.5v-324q0 -11 6 -31.5t16 -40t23 -34t28 -14.5q19 0 36 14t31.5 36.5t26.5 49.5t21 53.5t14.5 49t8.5 35.5q2 10 6.5 36.5t9.5 56t9 56t5 37.5q5 12 22 12q0 -44 -6.5 -86t-6.5 -86q0 -15 6.5 -44.5
t19.5 -58t31.5 -50t41.5 -21.5h118q-19 -17 -36.5 -18.5t-39.5 -1.5q-59 0 -97.5 27t-62.5 81h-10q-7 -20 -20.5 -54.5t-32.5 -68.5t-43 -59t-52 -25q-17 0 -32.5 11.5t-27 28t-19 35.5t-9.5 34q-5 39 -7 80t-3 83t-0.5 82.5t1.5 78.5z" />
    <glyph glyph-name="v" unicode="v" horiz-adv-x="403" 
d="M34 442q1 -8 5 -27.5t9 -41.5t9.5 -41.5t6.5 -26.5q2 -8 9 -28t15 -42t15 -41.5t10 -26.5q1 -3 9 -17t17.5 -31t18.5 -34t14 -26q1 -2 4.5 -5.5t5.5 -4.5l9 10q3 11 9.5 33.5t15.5 50.5t18.5 59t18.5 59t16 50t11 33q6 15 16.5 41t21.5 51t20 44t11 22l20 19
q8 -3 9.5 -8.5t1.5 -11.5q0 -11 -4 -17t-17 -12q-54 -111 -92.5 -226.5t-64.5 -235.5l-11 -10q-39 34 -71.5 88.5t-56.5 116.5t-37 124.5t-13 112.5h21z" />
    <glyph glyph-name="w" unicode="w" horiz-adv-x="619" 
d="M20 442q1 1 4.5 1.5t5.5 0.5q8 0 14 -4t5 -17q1 -24 3 -55t5.5 -63.5t8.5 -63t12 -54.5q4 -14 11.5 -36.5t15.5 -44.5l14 -38.5t8 -18.5l10 -10q21 46 34 93.5t25 95t27.5 94t41.5 90.5q2 2 7.5 2.5t7.5 0.5q13 0 25.5 -29t25.5 -71.5t28.5 -92t34.5 -90t42.5 -65
t54.5 -18.5q9 2 16.5 14t12.5 26.5t7.5 26t2.5 12.5q12 49 18 93.5t9.5 89t6 91t6.5 100.5v8t0.5 4t2.5 5t7 11q10 -2 10 -11v-15v-23q-1 -11 -2.5 -34t-3.5 -52t-4 -61t-4 -61t-3.5 -52t-2.5 -34q-4 -17 -8.5 -44t-13.5 -52.5t-24.5 -43.5t-42.5 -18q-38 0 -63.5 23.5
t-44 60t-31 80t-22.5 83t-20.5 69t-24.5 39.5l-20 -40l-88 -305q-7 -23 -30 -39q-25 20 -42 52t-28 67.5t-17.5 71.5t-10.5 64q-2 11 -5 37.5t-6 56.5t-5.5 56t-2.5 37z" />
    <glyph glyph-name="x" unicode="x" horiz-adv-x="423" 
d="M172 216q-6 0 -8 -2t-7 -8q-8 -11 -23.5 -32t-31 -43t-28 -40t-15.5 -22q-2 -2 -6 -12t-4 -12h29q-7 -12 -14.5 -14.5t-18.5 -2.5q-7 0 -15 1t-10 10q6 33 24 61t39.5 54t42 53t31.5 59q-3 12 -11 42.5t-17.5 65t-18 65t-12.5 42.5q-1 4 -5 14t-8.5 21t-9 21t-6.5 13h19
q1 0 5 -6.5t9 -16t9.5 -19.5t6.5 -17q4 -11 12.5 -38.5t18 -59t17.5 -59.5t11 -39l10 10q7 11 25 37.5t38 56t38.5 56t25.5 36.5q4 6 12 14.5t16 16.5t14 13.5t7 5.5h27l-184 -256q-7 -10 -8.5 -15t-1.5 -14q0 -11 7.5 -32t19.5 -46.5t28 -52t34 -48t36 -35.5t34 -14
q9 0 13.5 6t7.5 14.5l6 17t11 13.5q0 -2 -1 -15.5t-5 -28.5t-11.5 -26t-21.5 -9q-32 5 -59.5 31.5t-50 60t-40 68t-27.5 56.5h-5z" />
    <glyph glyph-name="y" unicode="y" horiz-adv-x="635" 
d="M264 -294q0 46 18.5 86.5t46.5 76.5t61 68.5t62 62.5l-68 393h-11l-157 -295q-6 -12 -16.5 -26t-23.5 -25.5t-27.5 -19.5t-29.5 -8q-33 0 -51.5 30.5t-26.5 70t-9.5 77.5t-1.5 53q0 6 1 27.5t3.5 49.5t6.5 60t10 58t13.5 43.5t17.5 17.5q0 -33 -4 -65.5t-8.5 -65t-8 -65
t-3.5 -65.5v-23t0.5 -28t0.5 -25v-12q1 -10 4.5 -28.5t10.5 -36.5t18 -31t26 -13t30 9.5t28 23t23.5 29t16.5 27.5l157 305q1 0 4.5 1t5.5 1q7 0 12 -6t9 -14.5t6 -17t3 -13.5l59 -354l10 -19q13 8 38.5 27.5t54 41.5t54 41t39.5 27q17 12 17.5 7t-1.5 -16l-200 -168
q0 -59 9 -119.5t9 -119.5q0 -27 -4 -60.5t-16 -63t-34.5 -49.5t-59.5 -20q-36 0 -60 13.5t-38 36t-20 50.5t-6 58zM284 -303q0 -24 6 -45.5t18 -38.5t31 -27t45 -10q21 0 34 5t22 14.5t16 24.5t16 35v19t0.5 28t0.5 28.5v18.5q0 53 -2 106.5t-19 104.5q-3 0 -10 -3.5
t-9 -5.5q-29 -26 -56 -54t-47.5 -59t-33 -66t-12.5 -75z" />
    <glyph glyph-name="z" unicode="z" horiz-adv-x="599" 
d="M166 70q0 27 10 52.5t23.5 51t26.5 50.5t19 51q-28 -5 -49.5 -9t-41 -6.5t-38.5 -3.5t-43 -1h-34q-11 6 -11 16q0 4 2 4l225 30q10 1 21 13t22 29.5t21.5 39.5t18.5 42.5t12.5 37.5t4.5 26q0 21 -12.5 31t-30.5 14t-37.5 3.5t-33.5 -0.5q-22 0 -45 -0.5t-45.5 -4.5
t-43 -11.5t-38.5 -22.5q-1 -2 -5.5 -6.5l-9.5 -9.5l-9.5 -9.5t-5.5 -4.5q-2 -1 -9.5 2.5t-9.5 6.5q-1 1 -1 2v3q0 25 27.5 41t64 26t72.5 14t53 4q16 0 41 -1t49 -7t41 -20t17 -41q0 -21 -7 -45t-17.5 -47.5t-23 -45.5t-22.5 -40q2 0 5.5 -0.5t4.5 -0.5q22 0 43.5 5
t42.5 10.5t42.5 10.5t43.5 5h15q-1 -2 -4.5 -5.5t-5.5 -4.5q-44 -17 -81 -23.5t-68.5 -16.5t-58 -31t-48.5 -67q-2 -4 -7.5 -17t-11.5 -29t-12 -30.5t-8 -21.5l-3 -9t-3.5 -12.5t-2.5 -11.5t-1 -6q0 -11 4.5 -17t11 -9t14.5 -4t15 -1q12 0 21.5 0.5t18.5 3t19 6.5t24 11
q9 4 26.5 13.5t40 21t47 24t46.5 24.5t39.5 21t26.5 14h20v-10l-246 -137q-26 -15 -46.5 -18t-47.5 -3h-16t-18 1q-15 9 -22.5 25t-7.5 35z" />
    <glyph glyph-name="braceleft" unicode="{" horiz-adv-x="384" 
d="M131 -127q0 32 14.5 62t37 59t48 58t48 59t37 62t14.5 68t-16.5 58.5t-42.5 34.5t-57.5 16t-61.5 4q-10 6 -10 16q0 7 13 13t33 11.5t43 11t43 13.5t33 18t13 25t-7 22t-23 18l-217 147q-23 16 -40.5 44.5t-17.5 58.5q0 28 18.5 60.5t47.5 65.5t66 63.5t74.5 54t71 37.5
t57.5 14q0 -10 -2 -22t-7.5 -20t-15 -10t-25.5 7q-34 -14 -78.5 -38.5t-84 -57.5t-66.5 -73.5t-27 -84.5q0 -32 22.5 -59t56.5 -51t73.5 -46t73.5 -44t56.5 -44.5t22.5 -46.5q0 -15 -13 -28t-30 -22.5t-33 -15.5t-22 -7q11 -18 29 -28.5t35.5 -22.5t30.5 -31.5t13 -55.5
q0 -17 -5 -34t-12.5 -33.5t-16 -32t-16.5 -28.5q-4 -7 -22.5 -34.5t-40 -59t-40.5 -59t-24 -34.5q-7 -11 -13.5 -26t-6.5 -28q0 -10 5 -15t12 -7.5t15 -2.5h14q41 0 80 6.5t81 6.5v-12l-9 -3t-22 -6l-26 -6t-22 -4q-21 -5 -46 -8t-49 -3t-44 11.5t-20 38.5z" />
    <glyph glyph-name="bar" unicode="|" horiz-adv-x="88" 
d="M41 751l11 10l9 -10v-14q0 -6 0.5 -11.5t0.5 -9.5q0 -196 -3.5 -390t-3.5 -391h8q0 -36 -31 -58l-10 19z" />
    <glyph glyph-name="asciitilde" unicode="~" horiz-adv-x="535" 
d="M321 202q-23 0 -35 8.5t-19.5 22.5t-11 30t-9 30.5t-14.5 25t-26 12.5q-22 0 -38.5 -8t-30.5 -20t-27 -27l-26 -30q-8 -7 -17.5 -9t-21.5 -2q0 10 5 12.5t13 10.5q20 20 33.5 37.5t28.5 31t35.5 22.5t54.5 12q16 0 23 -5.5t19 -22.5q7 -15 10.5 -34t9.5 -35.5t17.5 -27
t34.5 -7.5q16 -1 32 9.5t31 25t29.5 30.5t28 27t26.5 14t26 -8l-1 -3q-46 -38 -76 -62t-49 -37.5t-28.5 -18.5t-14.5 -6t-7 0.5t-5 1.5z" />
    <glyph glyph-name="braceright" unicode="}" horiz-adv-x="403" 
d="M354 69q0 19 -17 34t-42 29.5t-54.5 31t-54.5 37t-42 47.5t-17 64q0 35 15 68t36 64.5t42.5 62.5t34.5 63q-26 0 -56.5 3t-57.5 14t-45 31.5t-18 54.5q0 11 0.5 22.5t10.5 21.5q6 7 19.5 22.5t30 35t34.5 40.5t34.5 40.5t29 35t18.5 22.5q10 12 22 28.5t22.5 35.5t18 38
t7.5 36q0 32 -17.5 53t-44 33.5t-56.5 17.5t-54 5q-29 0 -58.5 -10t-54.5 -10q-1 0 -6 0.5t-10.5 2t-10 4.5t-4.5 8v2q0 2 1 2q34 14 75 22t77 8q31 0 63.5 -8.5t59 -25.5t43.5 -43t17 -61q0 -29 -13.5 -60.5t-34.5 -63.5t-47.5 -64t-52.5 -61.5t-49.5 -56t-38.5 -47.5
q-1 -3 -2 -12.5t-1 -12.5q0 -20 10.5 -34.5t27 -23.5t36 -13t36.5 -3q4 0 21.5 3t37.5 6.5t37.5 6.5t21.5 4q2 0 6.5 0.5t6.5 0.5q0 -15 -14 -34.5t-35.5 -42t-46 -49t-46 -55.5t-35.5 -60.5t-14 -64.5q0 -36 16 -59t40.5 -40t53 -30.5t53 -29.5t40.5 -38t16 -56
q0 -27 -14 -56.5t-36.5 -58.5t-52 -55t-60.5 -46t-61.5 -31.5t-55.5 -11.5q0 13 19 27t48 30.5t62.5 37t62.5 45.5t48 56.5t19 70.5z" />
    <glyph glyph-name="exclam" unicode="!" horiz-adv-x="172" 
d="M91 10q3 8 8.5 10t12.5 2q0 -15 -12 -22l-20 20zM83 575q0 34 -3.5 68t-8 67.5t-8 67.5t-3.5 68h22q1 0 4.5 -23.5t8.5 -56.5t9.5 -68t7.5 -58v-34v-35q2 -34 2.5 -87t-0.5 -110t-4 -111t-8 -91t-12.5 -49t-16.5 15v17t-0.5 25t-0.5 25v17q0 89 5.5 176.5t5.5 176.5z" />
    <glyph glyph-name="quotedbl" unicode="&#x22;" horiz-adv-x="226" 
d="M164 459v12t-0.5 19t-0.5 19v13q0 44 3.5 87t17.5 85h2q1 0 1.5 0.5t1.5 0.5q8 0 11.5 -6t3.5 -13q0 -29 -4 -58t-8.5 -57.5t-8 -57t-3.5 -57.5q-5 0 -9.5 5t-6.5 8zM27 704q-1 5 5 8t10 3l2 -1h2l10 -40v-215h-10z" />
    <glyph glyph-name="glyph97" horiz-adv-x="0" 
 />
    <glyph glyph-name="quotedblleft" unicode="&#x201c;" horiz-adv-x="226" 
d="M164 459v12t-0.5 19t-0.5 19v13q0 44 3.5 87t17.5 85h2q1 0 1.5 0.5t1.5 0.5q8 0 11.5 -6t3.5 -13q0 -29 -4 -58t-8.5 -57.5t-8 -57t-3.5 -57.5q-5 0 -9.5 5t-6.5 8zM27 704q-1 5 5 8t10 3l2 -1h2l10 -40v-215h-10z" />
    <glyph glyph-name="quotedblright" unicode="&#x201d;" horiz-adv-x="226" 
d="M164 459v12t-0.5 19t-0.5 19v13q0 44 3.5 87t17.5 85h2q1 0 1.5 0.5t1.5 0.5q8 0 11.5 -6t3.5 -13q0 -29 -4 -58t-8.5 -57.5t-8 -57t-3.5 -57.5q-5 0 -9.5 5t-6.5 8zM27 704q-1 5 5 8t10 3l2 -1h2l10 -40v-215h-10z" />
    <glyph glyph-name="quoteright" unicode="&#x2019;" horiz-adv-x="93" 
d="M41 621q14 0 20 -9.5t8 -22.5t1.5 -26.5t-0.5 -21.5q0 -21 -0.5 -39t-1.5 -35t-3 -36.5t-5 -43.5q-5 3 -12 13.5t-7 15.5v205v0z" />
    <glyph glyph-name="quoteleft" unicode="&#x2018;" horiz-adv-x="93" 
d="M41 621q14 0 20 -9.5t8 -22.5t1.5 -26.5t-0.5 -21.5q0 -21 -0.5 -39t-1.5 -35t-3 -36.5t-5 -43.5q-5 3 -12 13.5t-7 15.5v205v0z" />
    <glyph glyph-name="caron" unicode="&#x2c7;" horiz-adv-x="287" 
d="M17 746l29 7q14 -21 26.5 -40t25.5 -37t27 -36t31 -37q4 10 12.5 22.5t18 26t18 26t12.5 22.5l8 20q4 8 9 15.5t12 9.5q6 -7 8 -11t2 -11q0 -1 -0.5 -2t-0.5 -3v-3l-80 -150q-3 -8 -14 -8q-6 0 -9 2t-6 6z" />
    <glyph glyph-name="grave" unicode="`" horiz-adv-x="202" 
d="M162 555q-52 51 -79 79.5t-38 42t-10.5 17t4.5 5.5q6 4 12.5 5.5t8.5 -2.5l117 -110v-3v-4q0 -7 -2.5 -13t-12.5 -17z" />
    <glyph glyph-name="acute" unicode="&#xb4;" horiz-adv-x="198" 
d="M40 555q-10 11 -12.5 17t-2.5 13v4v3l117 110q2 4 8.5 2.5t12.5 -5.5q4 -2 4.5 -5.5t-10.5 -17t-38 -42t-79 -79.5z" />
    <glyph glyph-name="fraction" unicode="&#x2044;" horiz-adv-x="408" 
d="M9 28q0 31 5.5 65.5t15 68.5t22.5 65.5t27 57.5l275 492q0 3 1.5 9.5t4.5 13t8 11.5t11 5q3 0 10 -2t5 -9l-30 -78l-236 -393q-16 -27 -29 -57.5t-24 -62.5t-19.5 -64t-15.5 -62q-2 -5 -2.5 -16.5t-2.5 -25t-5.5 -26.5t-9.5 -20q-11 2 -11 12v16z" />
    <glyph glyph-name="fi" unicode="&#xfb01;" horiz-adv-x="615" 
d="M162 226q-26 -9 -50.5 -10t-51.5 -1q-6 0 -20 0.5t-15 0.5l-10 10l10 10q12 1 28.5 2t34 3.5t34 5.5t30.5 8q0 4 0.5 17t0.5 18q0 56 -5.5 110.5t-5.5 111.5q0 40 2.5 75.5t9 69t18 67.5t30.5 72q6 5 11 7.5t13 2.5q14 0 38 -11.5t47.5 -29t41 -38.5t17.5 -39
q0 -1 -0.5 -4.5t-0.5 -5.5q-11 13 -26.5 30t-34.5 32.5t-39 26t-38 10.5q-10 0 -19 -16.5t-15.5 -41.5t-11.5 -56t-8 -60.5t-4.5 -53.5t-1.5 -35q0 -60 2.5 -120t17.5 -119h11q29 0 59 4.5t60 10.5t60.5 10.5t60.5 4.5h5l-10 -10q-12 -3 -41 -9.5t-62 -14.5t-62 -15.5
t-41 -10.5q-14 -3 -22 -3t-8 -10q0 -2 0.5 -3.5t0.5 -2.5l49 -187q1 -1 1 -6.5v-8.5q0 -6 -1 -14t-10 -10q-12 4 -17 14t-7.5 22t-3 23.5t-1.5 19.5q-4 15 -10.5 38t-12.5 44.5t-11 37.5t-6 17l-10 10v0zM439 348l29 -245q1 -12 6.5 -27.5t13.5 -29.5t19 -23.5t25 -9.5
q20 0 31 10t23 31v-5q0 -11 -6.5 -22.5t-17 -20.5t-22.5 -15t-23 -6q-12 0 -23 9t-20.5 21.5t-16 26t-8.5 22.5q-20 72 -23 140t-3 144h16zM368 571q20 0 26.5 -12.5t6.5 -28.5q-20 0 -26.5 12t-6.5 29z" />
    <glyph glyph-name="fl" unicode="&#xfb02;" horiz-adv-x="698" 
d="M162 226q-26 -9 -50.5 -10t-51.5 -1q-6 0 -20 0.5t-15 0.5l-10 10l10 10q12 1 28.5 2t34 3.5t34 5.5t30.5 8q0 4 0.5 17t0.5 18q0 56 -5.5 110.5t-5.5 111.5q0 40 2.5 75.5t9 69t18 67.5t30.5 72q6 5 11 7.5t13 2.5q14 0 38 -11.5t47.5 -29t41 -38.5t17.5 -39
q0 -1 -0.5 -4.5t-0.5 -5.5q-11 13 -26.5 30t-34.5 32.5t-39 26t-38 10.5q-10 0 -19 -16.5t-15.5 -41.5t-11.5 -56t-8 -60.5t-4.5 -53.5t-1.5 -35q0 -60 2.5 -120t17.5 -119h11q29 0 59 4.5t60 10.5t60.5 10.5t60.5 4.5h5l-10 -10q-12 -3 -41 -9.5t-62 -14.5t-62 -15.5
t-41 -10.5q-14 -3 -22 -3t-8 -10q0 -2 0.5 -3.5t0.5 -2.5l49 -187q1 -1 1 -6.5v-8.5q0 -6 -1 -14t-10 -10q-12 4 -17 14t-7.5 22t-3 23.5t-1.5 19.5q-4 15 -10.5 38t-12.5 44.5t-11 37.5t-6 17l-10 10v0zM415 187q0 52 6 104.5t13.5 104.5t14 104t6.5 105q0 45 -5.5 88
t-5.5 88h20q1 0 3 -5.5t3.5 -13.5t2.5 -16t1 -14q0 -2 0.5 -16.5t0.5 -33v-37v-29.5q0 -48 -5 -96t-11 -95.5t-11 -95.5t-5 -97v-34t2 -45.5t7 -49t15 -44.5t26 -32.5t40 -12.5q15 0 30.5 6t28.5 14q7 5 25 17.5t38.5 26.5t38.5 26.5t26 17.5h33q0 -4 -12.5 -15.5
t-32.5 -26.5t-44.5 -32t-49 -31t-46 -23.5t-35.5 -9.5q-37 0 -60 21.5t-36 53t-17.5 66.5t-4.5 62z" />
    <glyph glyph-name="Lslash" unicode="&#x141;" horiz-adv-x="609" 
d="M23 149q0 70 11 140t28 139.5t38 137t42 132.5h5q6 0 10.5 -4t4.5 -10v-6l-99 -363q-4 -16 -6.5 -36t-3.5 -40.5t-1 -40.5v-36q0 -38 1.5 -67.5t19.5 -64.5l256 88l6 0.5t14 0.5h16h13h38t31 -1t31.5 -3.5t37.5 -6.5q9 -2 22 -5t26 -6.5t22 -6l9 -2.5v-21
q-25 0 -49.5 3.5t-48.5 8t-48.5 8t-49.5 3.5h-18.5t-22.5 -0.5t-19.5 -1t-9.5 -0.5q-4 0 -18.5 -4.5t-31 -9.5t-31 -9.5t-18.5 -5.5h-9l-148 -59q-2 -1 -4 -1h-6q-18 0 -26.5 19.5t-11.5 45t-2.5 50t0.5 35.5zM-15 338q1 3 12.5 5.5t28 4.5t36 3t36 1.5t28 1l11.5 0.5
q6 0 23.5 0.5t40 2t46.5 2.5t43 1h4q2 0 3 -0.5t3 -0.5q14 -2 16 -11.5t-1 -22.5l-22 5l-243 -20q-2 -1 -12 0.5t-15 3.5q-4 1 -11 2t-14 3.5t-11 6.5t-2 12z" />
    <glyph glyph-name="lslash" unicode="&#x142;" horiz-adv-x="282" 
d="M24 202q0 52 6 104.5t13.5 104.5t14 104t6.5 105q0 45 -5.5 88t-5.5 88h20q1 0 3 -5.5t3.5 -13.5t2.5 -16t1 -14q0 -2 0.5 -16.5t0.5 -33v-37v-29.5q0 -48 -5 -96t-11 -95.5t-11 -95.5t-5 -97v-34t2 -45.5t7 -49t15 -44.5t26 -32.5t40 -12.5q15 0 30.5 6t28.5 14
q7 5 25 17.5t38.5 26.5t38.5 26.5t26 17.5h33q0 -4 -12.5 -15.5t-32.5 -26.5t-44.5 -32t-49 -31t-46 -23.5t-35.5 -9.5q-37 0 -60 21.5t-36 53t-17.5 66.5t-4.5 62zM-6.76367 329.216q0.615234 3.01953 7.68555 5.53711q7.07129 2.5166 17.2168 4.53027t22.1348 3.02051
q11.9902 1.00684 22.1357 1.50977q10.1455 0.503906 17.2158 1.00684l7.07129 0.503906q3.68945 0 14.4492 0.50293q10.7607 0.50293 24.5947 2.01367q13.835 1.50977 28.5918 2.5166t26.4395 1.00684h2.45898q1.23047 0 1.84473 -0.50293
q0.615234 -0.503906 1.84473 -0.503906q8.6084 -2.01367 9.83789 -11.5781q1.22949 -9.56348 -0.615234 -22.6523l-13.5264 5.03418l-149.413 -20.1357q-1.23047 -1.00684 -7.37891 0.503906q-6.14844 1.50977 -9.22266 3.52344q-2.45996 1.00684 -6.76367 2.01367
t-8.6084 3.52344q-4.30371 2.51758 -6.76367 6.54395q-2.45898 4.02734 -1.22949 12.082z" />
    <glyph glyph-name="Zcaron" unicode="&#x17d;" horiz-adv-x="668" 
d="M295 323q-25 0 -49.5 -5t-49 -10.5t-49 -10.5t-49.5 -5v23q10 2 35 7.5t53.5 11.5t53.5 12t35 8q23 5 36.5 16t22.5 33q6 16 17 44l22 56t19.5 50.5t10.5 26.5q8 23 14 46t6 47q0 17 -8 23.5t-22 11.5h-10.5t-16.5 0.5t-16.5 0.5h-10.5q-79 0 -149 -21t-141 -59
q-1 0 -4.5 -0.5t-5.5 -0.5q-7 0 -12 1.5t-7 9.5q40 21 79 39t78.5 31.5t81 21t86.5 7.5q19 0 38 -2t34.5 -9t25.5 -21t10 -38q0 -4 -0.5 -11t-0.5 -9l-89 -255v-9q34 0 67 6t66 13.5t66 13.5t67 6h19q-5 -11 -18 -14.5t-21 -5.5t-41.5 -9t-71.5 -15.5t-71.5 -15.5t-41.5 -9
q-27 -6 -45 -26t-29 -48.5t-17 -62t-8.5 -66t-2.5 -62.5v-50h33q8 3 25 9.5t38 14.5t45 16.5t45 16.5t38 13.5t25 8.5q3 1 15.5 3.5t28 5.5l31 6t24.5 4q1 0 4 0.5t5 0.5t5.5 -0.5t4.5 -0.5l-19 -19l-11.5 -4t-27.5 -8.5t-32.5 -9.5t-27.5 -8h-9q-35 -15 -69.5 -31t-70 -29
t-71.5 -21.5t-74 -8.5q0 161 59 317v8zM69 966l29 7q14 -21 26.5 -40t25.5 -37t27 -36t31 -37q4 10 12.5 22.5t18 26t18 26t12.5 22.5l8 20q4 8 9 15.5t12 9.5q6 -7 8 -11t2 -11q0 -1 -0.5 -2t-0.5 -3v-3l-80 -150q-3 -8 -14 -8q-6 0 -9 2t-6 6z" />
    <glyph glyph-name="zcaron" unicode="&#x17e;" horiz-adv-x="599" 
d="M166 70q0 27 10 52.5t23.5 51t26.5 50.5t19 51q-28 -5 -49.5 -9t-41 -6.5t-38.5 -3.5t-43 -1h-34q-11 6 -11 16q0 4 2 4l225 30q10 1 21 13t22 29.5t21.5 39.5t18.5 42.5t12.5 37.5t4.5 26q0 21 -12.5 31t-30.5 14t-37.5 3.5t-33.5 -0.5q-22 0 -45 -0.5t-45.5 -4.5
t-43 -11.5t-38.5 -22.5q-1 -2 -5.5 -6.5l-9.5 -9.5l-9.5 -9.5t-5.5 -4.5q-2 -1 -9.5 2.5t-9.5 6.5q-1 1 -1 2v3q0 25 27.5 41t64 26t72.5 14t53 4q16 0 41 -1t49 -7t41 -20t17 -41q0 -21 -7 -45t-17.5 -47.5t-23 -45.5t-22.5 -40q2 0 5.5 -0.5t4.5 -0.5q22 0 43.5 5
t42.5 10.5t42.5 10.5t43.5 5h15q-1 -2 -4.5 -5.5t-5.5 -4.5q-44 -17 -81 -23.5t-68.5 -16.5t-58 -31t-48.5 -67q-2 -4 -7.5 -17t-11.5 -29t-12 -30.5t-8 -21.5l-3 -9t-3.5 -12.5t-2.5 -11.5t-1 -6q0 -11 4.5 -17t11 -9t14.5 -4t15 -1q12 0 21.5 0.5t18.5 3t19 6.5t24 11
q9 4 26.5 13.5t40 21t47 24t46.5 24.5t39.5 21t26.5 14h20v-10l-246 -137q-26 -15 -46.5 -18t-47.5 -3h-16t-18 1q-15 9 -22.5 25t-7.5 35zM-37 822l29 7q14 -21 26.5 -40t25.5 -37t27 -36t31 -37q4 10 12.5 22.5t18 26t18 26t12.5 22.5l8 20q4 8 9 15.5t12 9.5q6 -7 8 -11
t2 -11q0 -1 -0.5 -2t-0.5 -3v-3l-80 -150q-3 -8 -14 -8q-6 0 -9 2t-6 6z" />
    <glyph glyph-name="Euro" unicode="&#x20ac;" horiz-adv-x="645" 
d="M16 346q0 4 2 4l138 26q7 43 20.5 85.5t33 81.5t45.5 74t59 62q15 12 39.5 21t44.5 9q104 7 145 3t33 -11t-57.5 -14t-125.5 -7q-44 -15 -79 -48.5t-60.5 -75.5t-42.5 -88t-26 -87l196 38h69v-10l-270 -52q-2 -16 -3.5 -30t-0.5 -25v-26q68 14 135.5 25.5t138.5 11.5v-12
l-273 -47q3 -42 12 -82.5t29.5 -72.5t54.5 -51.5t85 -19.5q41 0 79.5 -1t72.5 4.5t63 19.5t51 44q0 -2 1 -7.5t1 -7.5q0 -28 -30.5 -44t-73 -24.5t-87.5 -10.5t-75 -2q-56 0 -95 21.5t-64.5 56.5t-38.5 80t-15 92l-41 -7h-58v10q49 7 99 18q0 20 1.5 40.5t3.5 41.5l-115 -22
q-5 0 -13 4t-8 12z" />
    <glyph glyph-name="ellipsis" unicode="&#x2026;" horiz-adv-x="398" 
d="M23 34q0 24 19.5 31t40.5 4q12 -2 16.5 -11.5t4.5 -18.5q0 -7 -4.5 -14t-11.5 -13t-14.5 -9.5t-14.5 -3.5q-14 0 -25 10.5t-11 24.5zM156 34q0 24 19.5 31t40.5 4q12 -2 16.5 -11.5t4.5 -18.5q0 -7 -4.5 -14t-11.5 -13t-15 -9.5t-15 -3.5q-14 0 -24.5 10.5t-10.5 24.5z
M289 34q0 24 19.5 31t39.5 4q13 -2 17.5 -11.5t4.5 -18.5q0 -7 -4.5 -14t-11.5 -13t-15 -9.5t-15 -3.5q-14 0 -24.5 10.5t-10.5 24.5z" />
    <glyph glyph-name="dieresis" unicode="&#xa8;" horiz-adv-x="269" 
d="M32 606q0 23 19.5 30.5t39.5 4.5q12 -2 16.5 -11.5t4.5 -18.5q0 -7 -4.5 -14t-11.5 -13t-14.5 -9.5t-14.5 -3.5q-14 0 -24.5 10.5t-10.5 24.5zM164 606q0 23 19.5 30.5t40.5 4.5q12 -2 16.5 -11.5t4.5 -18.5q0 -7 -4.5 -14t-11.5 -13t-14.5 -9.5t-14.5 -3.5
q-14 0 -25 10.5t-11 24.5z" />
    <glyph glyph-name="florin" unicode="&#x192;" horiz-adv-x="407" 
d="M162 226q-26 -9 -50.5 -10t-51.5 -1q-6 0 -20 0.5t-15 0.5l-10 10l10 10q12 1 28.5 2t34 3.5t34 5.5t30.5 8q0 4 0.5 17t0.5 18q0 56 -5.5 110.5t-5.5 111.5q0 40 2.5 75.5t9 69t18 67.5t30.5 72q6 5 11 7.5t13 2.5q14 0 38 -11.5t47.5 -29t41 -38.5t17.5 -39
q0 -1 -0.5 -4.5t-0.5 -5.5q-11 13 -26.5 30t-34.5 32.5t-39 26t-38 10.5q-10 0 -19 -16.5t-15.5 -41.5t-11.5 -56t-8 -60.5t-4.5 -53.5t-1.5 -35q0 -60 2.5 -120t17.5 -119h11q29 0 59 4.5t60 10.5t60.5 10.5t60.5 4.5h5l-10 -10q-12 -3 -41 -9.5t-62 -14.5t-62 -15.5
t-41 -10.5q-14 -3 -22 -3t-8 -10q0 -2 0.5 -3.5t0.5 -2.5l41 -421q1 -1 1 -6.5v-8.5q0 -6 -4.5 -6t-13.5 -2q-80 26 -109 41t-23 21.5t37.5 6t72.5 -5.5q-2 10 -5.5 41t-7 72t-6.5 86.5t-6 83.5t-5 62.5t-2 25.5l-10 10v0z" />
    <glyph glyph-name="quotesinglbase" unicode="&#x201a;" horiz-adv-x="93" 
d="M32 151q14 0 20.5 -9.5t8.5 -22.5t1.5 -26.5t-0.5 -21.5q0 -22 -0.5 -39.5t-1.5 -35t-3 -36.5t-5 -44q-5 4 -12.5 14t-7.5 16v205v0z" />
    <glyph glyph-name="quotedblbase" unicode="&#x201e;" horiz-adv-x="226" 
d="M167 -52v13t-0.5 19t-0.5 19v13q0 44 4 87t17 85h5q8 0 11.5 -5.5t3.5 -12.5q0 -29 -3.5 -58t-8 -57.5t-8 -57t-3.5 -57.5q-5 0 -10 5zM30 194q-1 5 5 8t10 3l2 -1h2l10 -40v-216h-10z" />
    <glyph glyph-name="Scaron" unicode="&#x160;" horiz-adv-x="560" 
d="M15 30q4 5 14 12t16 7h107l20 -15h-88q10 -1 36.5 -2t56.5 -2t56 -1t37 1q6 0 25 2.5t41 5.5t42.5 6t29.5 5q7 2 22 7t30 12.5t26 17.5t11 22q0 9 -2 15.5t-8 13.5t-18.5 20t-25 25.5t-23 22t-12.5 11.5l-265 187q-61 43 -61 118q0 47 26.5 85.5t66.5 65.5t86.5 41.5
t86.5 14.5q32 0 64 -5.5t57.5 -20.5t41.5 -40t16 -64q0 -14 -1.5 -26.5t-19.5 -12.5q-1 0 -4.5 0.5t-5.5 0.5q2 4 5.5 15t4.5 15v2q0 1 0.5 1.5t0.5 1.5q0 31 -16 52.5t-40 35t-53 19.5t-54 6q-33 0 -73.5 -14.5t-75.5 -39t-59 -57.5t-24 -70q0 -41 18.5 -71t51.5 -53
l275 -197q7 -5 19 -15.5t23.5 -24t19.5 -27.5t8 -26q0 -28 -24 -47t-62 -32t-83.5 -20t-88.5 -10.5t-77.5 -4t-50.5 -0.5q-14 0 -32 -0.5t-36 2t-33.5 9t-24.5 20.5zM47 938l29 7q14 -21 26.5 -40t25.5 -37t27 -36t31 -37q4 10 12.5 22.5t18 26t18 26t12.5 22.5l8 20
q4 8 9 15.5t12 9.5q6 -7 8 -11t2 -11q0 -1 -0.5 -2t-0.5 -3v-3l-80 -150q-3 -8 -14 -8q-6 0 -9 2t-6 6z" />
    <glyph glyph-name="OE" unicode="&#x152;" horiz-adv-x="945" 
d="M23 334q0 40 4 83t15.5 83.5t33 76.5t56.5 62q7 0 24 1.5t35.5 3t35.5 3t23 1.5h11q64 0 105.5 -24t66.5 -63.5t35 -91.5t10 -108q0 -30 -6 -68t-19 -78t-32 -78.5t-44.5 -69t-58.5 -49t-72 -18.5q-66 0 -109 32.5t-68.5 82t-35.5 108.5t-10 111zM52 320q0 -44 9 -95
t30.5 -94.5t58 -72.5t91.5 -29q38 0 69 16.5t55 44t41.5 62.5t29 72.5t17 74.5t5.5 67q0 49 -9 94.5t-31 81t-59 57t-93 21.5q-52 0 -83 -8.5t-48 -29t-23.5 -54.5t-8.5 -86l-20 39q0 2 -4 2q-8 0 -11 -7.5t-5 -13.5q-1 -4 -2.5 -14t-3 -21t-2.5 -21t-1 -13q0 -2 -0.5 -11
t-1 -20.5t-0.5 -23v-18.5zM431 69q0 5 0.5 16t0.5 13l69 590v29h24v-77l360 68h5q9 0 19 -6t15 -14l-393 -69q-3 0 -6.5 -4.5t-6.5 -9.5t-5 -9.5t-2 -5.5q-2 -16 -6.5 -55t-9 -83t-9 -83t-5.5 -54v-20v-20q44 4 93.5 17.5t97.5 35t90.5 50.5t72.5 64v-5q0 -24 -22 -46
t-51 -39t-59 -29l-45 -18q-10 -4 -35 -12.5t-53 -18t-53.5 -18t-35.5 -11.5q-2 0 -5.5 -3.5t-4.5 -5.5q-9 -34 -10 -67.5t-1 -66.5v-13.5t0.5 -17t1 -15t0.5 -7.5l9 -19h49q53 20 98 37.5t87.5 32.5t86 27t93.5 21h10q6 0 11 -1.5t7 -9.5l-9 -9q-50 -7 -94.5 -20t-88 -28.5
t-87.5 -33.5t-94 -36q-19 -7 -31 -9t-30 -2q-15 0 -24 6.5t-14.5 16.5t-7.5 22.5t-2 24.5z" />
    <glyph glyph-name="trademark" unicode="&#x2122;" horiz-adv-x="1366" 
d="M309 657q18 0 23 -11.5t7 -26.5q11 -63 12.5 -127.5t7.5 -128.5q0 -3 1.5 -14.5t3 -24.5t3.5 -24.5t2 -14.5v-10q2 -15 7.5 -52.5t11.5 -80t12 -80t8 -52.5q-6 -11 -15 -11q-1 0 -2.5 0.5t-2.5 0.5q-20 74 -32.5 154.5t-20.5 162t-13.5 161t-12.5 151.5v28zM15 629
q62 35 129.5 55.5t138 30.5t142 12.5t140.5 2.5q8 0 29 -0.5t44.5 -1t44.5 -1t29 -0.5q3 0 11 -1t17 -3.5t15.5 -7.5t6.5 -13t-8.5 -12.5t-16.5 -4.5q0 13 -12 17t-22 6q-8 0 -28.5 0.5t-43 1t-43 0.5h-28.5h-36.5t-45 -0.5t-40 -1t-20.5 -0.5q-7 -1 -26 -4t-44 -7.5
t-54 -10t-56 -10.5t-50 -9.5t-36 -7.5q-4 -1 -20 -7t-34 -12.5t-33.5 -13t-19.5 -7.5h-11q-6 0 -11.5 1t-7.5 9zM805 717q5 10 15 10h5q2 -2 8 -7.5t12 -11.5l11.5 -11.5t7.5 -8.5q5 -10 17.5 -35.5t26.5 -53.5l26.5 -53t18.5 -35q8 -15 21 -35.5t29.5 -39t36 -31
t40.5 -12.5q9 0 15 1.5t15 8.5q4 6 14.5 22.5t21.5 35.5t20.5 36t12.5 24q12 26 20.5 52.5t17 54t18 55t23.5 54.5q1 2 4.5 5.5l4.5 4.5q6 -5 13 -14t7 -16l29 -540q1 -6 4.5 -20t6.5 -29.5t5.5 -29.5t3.5 -19q0 -1 0.5 -2.5t0.5 -3.5q0 -1 -0.5 -1t-0.5 -1v-2
q-1 -2 -4.5 -10t-4.5 -10q-16 12 -23.5 26.5t-11 31t-4 34.5t-1.5 36q-4 69 -8 131t-7.5 122t-7 121t-6.5 127q-3 -10 -11 -33.5t-17.5 -50t-18.5 -50.5t-13 -33q-11 -27 -20.5 -52t-23 -44t-32.5 -30.5t-49 -11.5q-21 0 -40 9t-35.5 23.5t-30.5 32t-24 34.5q-5 9 -18 32.5
t-27 50t-26.5 50.5t-16.5 34v-9t-0.5 -13t-0.5 -13v-9q0 -68 4.5 -136t10.5 -136t10.5 -135.5t4.5 -135.5q0 -3 0.5 -11.5t0 -18t-4 -17t-11.5 -7.5q-5 0 -5 2l-9 39l-1.5 17.5t-3 44.5t-3.5 61.5t-4.5 69.5t-4.5 67t-3 55v19q-1 13 -3.5 40t-5.5 61t-6 71.5t-6 71.5
t-5.5 60.5t-3.5 39.5z" />
    <glyph glyph-name="scaron" unicode="&#x161;" horiz-adv-x="373" 
d="M29 24q0 32 24 52.5t57.5 32t69 16t57.5 4.5q6 0 13.5 0.5t16 -0.5t16 -3t12.5 -8l-10 -10q-7 0 -24 -1t-35.5 -2.5t-35.5 -3.5t-23 -3q-14 -2 -30 -7.5t-29.5 -14t-23 -18.5t-9.5 -21q6 0 19 -1.5t27 -3t27 -2.5t19 0q12 2 36.5 9.5t49.5 19.5t44 28.5t19 35.5
q0 22 -22 39.5t-55 34.5t-71.5 36t-71.5 43t-55 55t-22 73q0 26 20.5 48t49.5 37.5t60 24t53 8.5q13 0 26 -1.5t23.5 -7t17.5 -15t7 -25.5q0 -20 -7 -33.5t-24 -27.5v11q0 11 5.5 22t5.5 22q0 10 -7.5 15t-17.5 7t-20.5 2.5t-15.5 0.5q-20 0 -44 -7.5t-45 -21t-35 -32.5
t-14 -41q0 -32 16 -56.5t41 -45.5t57 -38.5l64 -35t60.5 -36.5t48.5 -41q1 -1 1 -6.5v-7.5q0 -22 -13.5 -40t-34.5 -31.5t-47.5 -23.5t-52.5 -16.5t-50 -9.5t-39 -3h-20.5t-26.5 2t-22.5 7t-9.5 16zM-45 746l29 7q14 -21 26.5 -40t25.5 -37t27 -36t31 -37q4 10 12.5 22.5
t18 26t18 26t12.5 22.5l8 20q4 8 9 15.5t12 9.5q6 -7 8 -11t2 -11q0 -1 -0.5 -2t-0.5 -3v-3l-80 -150q-3 -8 -14 -8q-6 0 -9 2t-6 6z" />
    <glyph glyph-name="oe" unicode="&#x153;" horiz-adv-x="655" 
d="M23 70q0 31 12.5 71t29.5 81t36 78.5t31 62.5q0 2 0.5 7.5t0.5 7.5q0 14 -5.5 25.5t-5.5 24.5q0 5 1.5 9.5t8.5 4.5q21 0 33.5 -12.5t25 -27t30.5 -27t49 -12.5t53 8.5t45 31.5q1 -1 1.5 -4.5t0.5 -5.5q0 -23 -19.5 -35t-45.5 -16.5t-52 -4.5h-39q0 -8 1.5 -29.5t3 -45.5
t2.5 -45.5t0 -29.5q-2 -24 -14.5 -56t-32.5 -61.5t-46 -50t-55 -20.5q-15 0 -24.5 6.5t-15 16.5t-8 23t-2.5 25zM52 69q0 -5 0.5 -12t2.5 -13.5t6 -11t12 -4.5t15 2t15 9q55 47 77 99t22 123q0 10 0.5 26t-2 31t-10 25.5t-24.5 10.5h-4q-5 -11 -18 -39t-27 -59.5
t-26.5 -59.5t-17.5 -39q-11 -28 -16 -45.5t-5 -42.5zM286 182q-3 0 -11.5 -1.5t-18 -3t-17.5 -2.5t-11 0q-2 0 -6 3.5t-4 5.5q3 11 12 18t19.5 10.5t21 4t17.5 -1.5q4 24 6.5 45t6.5 41.5t11 39.5t20 39q5 12 15.5 27t24 28.5t28.5 23t29 9.5q9 0 27 -5.5t36 -14t31 -18.5
t13 -18q4 -36 -11 -61.5t-39.5 -44.5t-53.5 -34.5t-53 -33.5q-13 -15 -24.5 -22.5t-20.5 -14.5t-14 -16.5t-5 -29.5q0 -31 9.5 -58t27 -47.5t42.5 -32t56 -11.5q3 0 10.5 1t22.5 8t41 21t67 40q1 0 1 -5q0 -18 -19 -33.5t-44.5 -26.5t-51 -17.5t-38.5 -6.5q-40 0 -68.5 17
t-46.5 45t-27.5 62.5t-10.5 70.5zM436 439q-25 0 -45.5 -20t-35 -47.5t-22.5 -57.5t-8 -51v-30q28 21 60.5 38t60 36.5t45.5 43.5t18 59q0 6 -9 11.5t-21 9t-24.5 6t-18.5 2.5z" />
    <glyph glyph-name="Ydieresis" unicode="&#x178;" horiz-adv-x="403" 
d="M190 367q10 0 20 -6t10 -19q2 -8 5 -29.5t6.5 -49t7.5 -58.5t8 -58.5t7 -48.5t6 -29q5 -16 15 -32.5t24 -26.5q-6 -11 -15 -11q-12 0 -22.5 10t-18.5 24.5t-13.5 29.5t-8.5 25q-4 15 -7.5 40t-7 54.5t-6.5 59t-5 54t-3.5 40t-1.5 16.5v15zM5 648q1 1 4.5 1h5.5
q11 0 16 -4t13 -16l128 -217q6 -9 20.5 -22t28.5 -17q9 28 16.5 74.5t16 101t18 111.5t21.5 106.5t28 86.5t38 51l19 -20q-8 -2 -16.5 -7t-13.5 -12q-23 -63 -34 -127t-19 -128t-17 -128.5t-28 -127.5q-2 -10 -10 -10h-13q-20 0 -43 18.5t-46 47.5t-44.5 65t-39 69.5
t-30.5 61.5t-19 42zM-79 826q0 23 19.5 30.5t39.5 4.5q12 -2 16.5 -11.5t4.5 -18.5q0 -7 -4.5 -14t-11.5 -13t-14.5 -9.5t-14.5 -3.5q-14 0 -24.5 10.5t-10.5 24.5zM53 826q0 23 19.5 30.5t40.5 4.5q12 -2 16.5 -11.5t4.5 -18.5q0 -7 -4.5 -14t-11.5 -13t-14.5 -9.5
t-14.5 -3.5q-14 0 -25 10.5t-11 24.5z" />
    <glyph glyph-name="exclamdown" unicode="&#xa1;" horiz-adv-x="172" 
d="M94.8594 407.157q3.42871 -5.54004 9.71484 -6.9248q6.28516 -1.38477 14.2852 -1.38477q0 10.3867 -13.7139 15.2334l-22.8584 -13.8486zM85.7158 15.9258q0 -23.543 -4 -47.0859t-9.14258 -46.7402q-5.14355 -23.1963 -9.14355 -46.7393t-4 -47.0869h25.1436
q1.14258 0 5.14355 16.2725q4 16.2725 9.71387 39.124q5.71484 22.8506 10.8574 47.0859q5.14355 24.2354 8.57129 40.1611v23.5439v24.2354q2.28613 23.543 2.85742 60.2422t-0.571289 76.1689t-4.57129 76.8613t-9.14355 63.0127q-5.71387 25.6201 -14.2861 33.9297
q-8.57129 8.30859 -18.8574 -10.3867v-11.7715q0 -8.30957 -0.571289 -17.3115t-0.571289 -17.3105v-11.7715q0 -61.6279 6.28613 -122.217q6.28516 -60.5889 6.28516 -122.217z" />
    <glyph glyph-name="cent" unicode="&#xa2;" horiz-adv-x="438" 
d="M23 137q0 23 7 52.5t19.5 60t30.5 60t40 52t47.5 36.5t53.5 14q13 0 25.5 -5t22.5 -13.5t16 -20.5t6 -25q0 -8 -4 -17t-15 -9q0 8 -3 19t-8 20.5t-13 16t-17 6.5q-41 0 -74 -27t-56 -66t-35 -82t-12 -76q0 -29 11.5 -49t30 -32.5t42 -18t47.5 -5.5q36 0 71 7.5t69.5 20.5
t67 29t63.5 33q0 -1 0.5 -2.5t0.5 -2.5q0 -10 -16.5 -22.5t-43 -25t-58 -24.5t-61.5 -21.5t-54.5 -15t-36.5 -5.5q-29 0 -58.5 9t-53 27t-38 43.5t-14.5 58.5zM215 524l10 10l9 -10v-14q0 -5 0.5 -11t0.5 -9q0 -65 -0.5 -113.5t-0.5 -88t-1 -75.5t-1 -76t-0.5 -88.5
t-0.5 -113.5h9q0 -18 -8.5 -32.5t-22.5 -25.5l-11 19z" />
    <glyph glyph-name="yen" unicode="&#xa5;" horiz-adv-x="482" 
d="M190 367q10 0 20 -6t10 -19q2 -8 5 -29.5t6.5 -49t7.5 -58.5t8 -58.5t7 -48.5t6 -29q5 -16 15 -32.5t24 -26.5q-6 -11 -15 -11q-12 0 -22.5 10t-18.5 24.5t-13.5 29.5t-8.5 25q-4 15 -7.5 40t-7 54.5t-6.5 59t-5 54t-3.5 40t-1.5 16.5v15zM5 648q1 1 4.5 1h5.5
q11 0 16 -4t13 -16l128 -217q6 -9 20.5 -22t28.5 -17q9 28 16.5 74.5t16 101t18 111.5t21.5 106.5t28 86.5t38 51l19 -20q-8 -2 -16.5 -7t-13.5 -12q-23 -63 -34 -127t-19 -128t-17 -128.5t-28 -127.5q-2 -10 -10 -10h-13q-20 0 -43 18.5t-46 47.5t-44.5 65t-39 69.5
t-30.5 61.5t-19 42zM46 196q51 8 100.5 19t99.5 20.5t100 16t102 6.5v-13l-343 -58h-59v9zM16 295l364 68h68v-10l-412 -78q-5 -1 -13.5 3.5t-8.5 12.5z" />
    <glyph glyph-name="sterling" unicode="&#xa3;" horiz-adv-x="681" 
d="M10 420q0 4 15 9.5t37.5 11.5t48 12.5t46.5 11.5q-5 38 -8 74.5t0 67.5t15 55.5t37 38.5t66 16.5t103 -9.5q6 0 5 -11.5t-1 -17.5q-88 20 -130.5 13t-57 -35.5t-10 -76t11.5 -108.5q2 0 3.5 0.5t3.5 0.5t3 1q6 1 27.5 7t46.5 12.5t46.5 12.5t27.5 7h4q2 0 3 0.5t3 0.5
q14 0 18 -8.5t4 -21.5h-23l-164 -47q3 -33 2 -85.5t-6.5 -110.5t-15.5 -114.5t-26 -96.5l256 88q46 6 86.5 -4.5t75 -26.5t62 -30.5t45.5 -15.5v-21q-31 4 -60 18t-60 27.5t-67 22t-82 0.5q-12 -1 -27 -5.5t-42.5 -14t-71.5 -26.5t-115 -42q-2 -1 -4 -1h-6q-12 0 -15 14.5
t-1 37t8 49.5t12 52t11 44.5t5 26.5q0 12 1.5 41t2.5 61.5t1.5 61.5t-0.5 41l-80 -23q-2 0 -12 -0.5t-15 -0.5q-4 0 -11.5 -0.5t-14.5 0.5t-12 4.5t-5 11.5z" />
    <glyph glyph-name="twosuperior" unicode="&#xb2;" horiz-adv-x="315" 
d="M29.7432 115.678q-7.93164 2.9043 -11.5674 7.98633q-3.63477 5.08203 5.61816 10.8906l192.337 276.853q3.96582 4.84082 7.27051 10.1641q3.30469 5.32422 3.63477 9.19629q0.331055 3.87207 -4.2959 5.32422t-16.5234 -0.484375q-23.1338 0 -43.9541 -7.50195
q-20.8193 -7.50195 -38.335 -16.6982q-17.5146 -9.19629 -30.4033 -16.6982t-20.1592 -7.50195q-1.32129 0 -3.96582 1.93555q-2.64355 1.93652 -2.64355 2.9043q0 0.96875 2.64355 4.59863q2.64453 3.62988 3.96582 4.59766q29.082 21.7803 61.7988 35.0908
t74.3574 13.3105q11.2354 2.41992 20.4893 0q9.25293 -2.41992 14.21 -7.50293q4.95703 -5.08203 4.62695 -12.3418t-6.94043 -14.0361l-179.778 -261.849l-12.5576 -19.3604q26.4375 -2.9043 52.5459 0q26.1074 2.9043 51.8838 7.25977q25.7773 4.35645 51.2236 8.71191
q25.4473 4.35645 51.8848 4.84082v-11.1328l-175.151 -28.5566h-52.2148v0z" />
    <glyph glyph-name="threesuperior" unicode="&#xb3;" horiz-adv-x="263" 
d="M23.9336 132.787q13.2256 1.07422 32.1201 5.91309q18.8955 4.83887 39.3643 12.9023t40.3086 19.6221t35.585 26.6113t25.5078 33.3311t9.7627 39.7822q0 13.4395 -5.35352 20.9668q-5.35352 7.52539 -13.2266 11.0205q-7.87305 3.49414 -17.3203 4.03223
q-9.44727 0.537109 -17.6348 0.537109q-12.5967 0 -24.8779 -2.6875q-12.2822 -2.68848 -24.5635 -5.91406t-24.248 -5.91406q-11.9668 -2.6875 -24.5625 -2.6875v9.13867q5.03809 3.76367 15.1152 12.6338t22.6738 20.1602t26.4521 23.9229
q13.8564 12.6338 26.1377 23.9238q12.2812 11.2891 22.0439 20.4277q9.76172 9.13965 14.8008 13.9785q8.1875 7.52539 16.0605 18.0088t7.87305 24.4609q0 3.7627 -2.83496 6.45117q-2.83398 2.68848 -6.92773 4.83887t-7.87305 3.22461q-3.77832 1.07617 -5.66797 1.07617
q-22.0439 0 -40.3086 -5.37695q-18.2646 -5.375 -35.2705 -14.5146q-17.0049 -9.13965 -34.0098 -20.9658q-17.0059 -11.8281 -35.9004 -24.7305h-11.9658q10.7061 19.8916 28.3418 34.6758q17.6348 14.7832 38.7334 24.7295q21.0996 9.94531 43.1436 14.7842
q22.043 4.83789 40.9375 4.83789q6.29883 0 13.8564 -1.34375t13.8564 -4.83887q6.29785 -3.49414 10.3916 -9.67676q4.09375 -6.18164 4.09375 -15.8594q0 -1.07422 -0.314453 -2.15039q-0.31543 -1.07422 -0.31543 -1.6123q-0.629883 -1.6123 -2.2041 -5.91309
t-3.46387 -8.87109q-1.88965 -4.56934 -3.7793 -8.60156q-1.88867 -4.03125 -2.51855 -5.10742q-3.7793 -4.30078 -14.1719 -14.5146q-10.3916 -10.2139 -22.043 -21.7725q-11.6523 -11.5586 -22.0439 -22.042q-10.3926 -10.4834 -14.1709 -14.2461
q-1.25977 -1.0752 -3.7793 -4.03223t-5.35352 -6.45117t-5.66797 -6.45117q-2.83496 -2.95703 -3.46387 -4.03125q15.1152 1.07422 33.3799 0.805664t33.6953 -6.18262q15.4307 -5.91309 25.8232 -19.3535q10.3916 -13.4395 10.3916 -37.6309q0 -33.332 -19.5244 -60.749
t-47.2363 -46.7705t-58.2588 -30.1055q-30.5459 -10.752 -53.2197 -10.752q-1.25977 0 -4.72363 -0.538086t-7.24316 0q-3.77832 0.538086 -6.92773 2.41895q-3.14941 1.88184 -3.7793 6.18262z" />
    <glyph glyph-name="cedilla" unicode="&#xb8;" horiz-adv-x="446" 
d="M108 -270q0 20 9 35t18.5 19.5t16 -4.5t2.5 -36q6 0 19 -1.5t27 -3t27 -3t19 -0.5q12 2 31 9t37 18.5t31.5 27t13.5 34.5q0 22 -18.5 28t-47 6.5t-61 -0.5t-61 6t-47 27t-18.5 62q0 43 5 59.5t11.5 16.5t13.5 -12.5t11.5 -28.5t4.5 -30.5t-7 -18.5q0 -31 12.5 -45
t33 -17.5t46.5 -1.5t52.5 1t52 -8t45.5 -29v-15q0 -33 -22.5 -56t-54.5 -37t-66 -20.5t-57 -6.5h-20.5t-26.5 2t-22.5 7t-9.5 16z" />
    <glyph glyph-name="onesuperior" unicode="&#xb9;" horiz-adv-x="93" 
d="M22.6611 144.385q0 20.7969 1.25879 50.8027t2.51758 64.4678q1.25879 34.4629 3.35742 71.3018t3.35742 71.3008q1.25879 34.4629 1.67871 64.1709q0.418945 29.709 -0.419922 51.0996l7.55371 5.34766q6.71387 -2.9707 10.9111 -7.42676
q4.19629 -4.45703 5.875 -9.20996v-14.8545q0 -13.0723 -0.419922 -31.4912q-0.419922 -18.4199 -0.419922 -39.5127q0 -21.0938 -0.419922 -39.5137q-0.418945 -18.4189 -0.418945 -31.1943v-14.5566v-27.332q0 -18.4199 -0.419922 -41.2959t-1.67871 -47.2373
q-1.25879 -24.3604 -4.19629 -45.751t-7.55371 -37.1367q-4.61621 -15.7451 -11.3301 -20.499l-8.39355 5.94238q0 0.59375 -0.418945 9.20898q-0.419922 8.61621 -0.419922 13.3691z" />
    <glyph glyph-name="ring" unicode="&#x2da;" horiz-adv-x="510" 
d="M30 626q0 21 8.5 40.5t21 38t28.5 36t31 32.5v11q-13 -2 -18 -3.5t-7 -4.5t-3.5 -8t-7.5 -12h-4q-5 0 -8 4t-3 7q0 8 6.5 16.5t15.5 12.5q3 0 13 0.5t12 0.5q46 0 80.5 -20.5t48.5 -55.5q0 -4 1 -18t1 -19q0 -23 -4 -45.5t-15 -41t-32.5 -30t-55.5 -11.5q-21 0 -40.5 5
t-35 14t-24.5 22t-9 29zM59 635q0 -31 18.5 -43.5t57.5 -12.5q29 0 46.5 8.5t26.5 23t11.5 32.5t2.5 36q0 16 -3.5 32t-12.5 29.5t-23 23.5t-35 15q-12 -10 -27 -27.5t-28.5 -38t-23 -41.5t-10.5 -37z" />
    <glyph glyph-name="onequarter" unicode="&#xbc;" horiz-adv-x="649" 
d="M33.4297 266.917q0 25.4561 1.39258 62.1836q1.39258 36.7285 2.78516 78.9121q1.39355 42.1826 3.71484 87.2754q2.32129 45.0918 3.71387 87.2754q1.39355 42.1826 1.85742 78.5479q0.464844 36.3643 -0.463867 62.5469l8.35742 6.5459
q7.42871 -3.63672 12.0713 -9.09082q4.64258 -5.45508 6.5 -11.2734v-18.1826q0 -16 -0.463867 -38.5459q-0.464844 -22.5469 -0.464844 -48.3652q0 -25.8193 -0.463867 -48.3652q-0.464844 -22.5469 -0.464844 -38.1836v-17.8184v-33.4551q0 -22.5469 -0.463867 -50.5479
q-0.464844 -28.001 -1.85742 -57.8193q-1.39258 -29.8193 -4.64258 -56.002t-8.35742 -45.4561t-12.5361 -25.0918l-9.28613 7.27344q0 0.727539 -0.463867 11.2725q-0.463867 10.5459 -0.463867 16.3643zM0 -47q0 31 5.5 65.5t15 68.5t22.5 65.5t27 57.5l275 492
q0 3 1.5 9.5t4.5 13t8 11.5t11 5q3 0 10 -2t5 -9l-30 -78l-236 -393q-16 -27 -29 -57.5t-24 -62.5t-19.5 -64t-15.5 -62q-2 -5 -2.5 -16.5t-2.5 -25t-5.5 -26.5t-9.5 -20q-11 2 -11 12v16zM470 323q-25 -8 -43.5 -13t-35 -8t-33.5 -4.5t-38 -1.5q-13 0 -23 0.5t-19 4.5
t-17 12.5t-16 24.5q11 28 24.5 67t25.5 82.5t19.5 88t5.5 83.5h2q1 0 1.5 0.5t1.5 0.5q4 0 9 -3.5t5 -11.5v-107l-57 -187l10 -13q1 0 6 -1t12 -1.5t13.5 -1t9.5 -0.5q6 0 15.5 0.5t19.5 1t17.5 1.5t8.5 1q10 1 24 4.5t27.5 7.5t23 8t9.5 6v325q9 0 14.5 -8t8.5 -19t4.5 -23
t1.5 -20q1 -9 1.5 -28t1.5 -43t2 -50t2 -50t1.5 -43t0.5 -28h19q24 0 41 6.5t43 20.5v-12q-9 -23 -19 -29t-22 -8.5t-27 -7.5t-35 -24q-3 -18 -6 -45.5t-6 -59.5t-5 -66.5t-4 -66t-3 -58t-1 -42.5h-16q2 42 3 78q1 31 1.5 59.5t-1.5 39.5v28q0 7 -1 26.5t-2.5 40.5t-3 40
t-1.5 26z" />
    <glyph glyph-name="onehalf" unicode="&#xbd;" horiz-adv-x="649" 
d="M51 323q0 35 1.5 85.5t3 108.5t4 120t4 120t2 108t-0.5 86l9 9q8 -5 13 -12.5t7 -15.5v-25t-0.5 -53t-0.5 -66.5t-0.5 -66.5t-0.5 -52.5v-24.5v-46t-0.5 -69.5t-2 -79.5t-5 -77t-9 -62.5t-13.5 -34.5l-10 10q0 1 -0.5 15.5t-0.5 22.5zM34 -39q0 31 5.5 65.5t15 68.5
t22.5 65.5t27 57.5l275 492q0 3 1.5 9.5t4.5 13t8 11.5t11 5q3 0 10 -2t5 -9l-30 -78l-236 -393q-16 -27 -29 -57.5t-24 -62.5t-19.5 -64t-15.5 -62q-2 -5 -2.5 -16.5t-2.5 -25t-5.5 -26.5t-9.5 -20q-11 2 -11 12v16zM265 -11q-12 6 -17.5 16.5t8.5 22.5l291 572q6 10 11 21
t5.5 19t-6.5 11t-25 -1q-35 0 -66.5 -15.5t-58 -34.5t-46 -34.5t-30.5 -15.5q-2 0 -6 4t-4 6t4 9.5t6 9.5q44 45 93.5 72.5t112.5 27.5q17 5 31 0t21.5 -15.5t7 -25.5t-10.5 -29l-272 -541l-19 -40q40 -6 79.5 0t78.5 15t77.5 18t78.5 10v-23l-265 -59h-79v0z" />
    <glyph glyph-name="threequarters" unicode="&#xbe;" horiz-adv-x="857" 
d="M60 280q21 2 51 11t62.5 24t64 36.5t56.5 49.5t40.5 62t15.5 74q0 25 -8.5 39t-21 20.5t-27.5 7.5t-28 1q-20 0 -39.5 -5t-39 -11t-38.5 -11t-39 -5v17q8 7 24 23.5t36 37.5t42 44.5t41.5 44.5t35 38t23.5 26q13 14 25.5 33.5t12.5 45.5q0 7 -4.5 12t-11 9t-12.5 6t-9 2
q-35 0 -64 -10t-56 -27t-54 -39t-57 -46h-19q17 37 45 64.5t61.5 46t68.5 27.5t65 9q10 0 22 -2.5t22 -9t16.5 -18t6.5 -29.5q0 -2 -0.5 -4t-0.5 -3q-1 -3 -3.5 -11t-5.5 -16.5t-6 -16t-4 -9.5q-6 -8 -22.5 -27t-35 -40.5t-35 -41t-22.5 -26.5q-2 -2 -6 -7.5t-8.5 -12
t-9 -12t-5.5 -7.5q24 2 53 1.5t53.5 -11.5t41 -36t16.5 -70q0 -62 -31 -113t-75 -87t-92.5 -56t-84.5 -20q-2 0 -7.5 -1t-11.5 0t-11 4.5t-6 11.5zM214 -102q0 31 5.5 65.5t15 68.5t22.5 65.5t27 57.5l275 492q0 3 1.5 9.5t4.5 13t8 11.5t11 5q3 0 10 -2t5 -9l-30 -78
l-236 -393q-16 -27 -29 -57.5t-24 -62.5t-19.5 -64t-15.5 -62q-2 -5 -2.5 -16.5t-2.5 -25t-5.5 -26.5t-9.5 -20q-11 2 -11 12v16zM690 295q-25 -8 -43.5 -13t-35 -8t-33.5 -4.5t-38 -1.5q-13 0 -23 0.5t-19 4.5t-17 12.5t-16 24.5q11 28 24.5 67t25.5 82.5t19.5 88t5.5 83.5
h2q1 0 1.5 0.5t1.5 0.5q4 0 9 -3.5t5 -11.5v-107l-57 -187l10 -13q1 0 6 -1t12 -1.5t13.5 -1t9.5 -0.5q6 0 15.5 0.5t19.5 1t17.5 1.5t8.5 1q10 1 24 4.5t27.5 7.5t23 8t9.5 6v325q9 0 14.5 -8t8.5 -19t4.5 -23t1.5 -20q1 -9 1.5 -28t1.5 -43t2 -50t2 -50t1.5 -43t0.5 -28
h19q24 0 41 6.5t43 20.5v-12q-9 -23 -19 -29t-22 -8.5t-27 -7.5t-35 -24q-3 -18 -6 -45.5t-6 -59.5t-5 -66.5t-4 -66t-3 -58t-1 -42.5h-16q2 42 3 78q1 31 1.5 59.5t-1.5 39.5v28q0 7 -1 26.5t-2.5 40.5t-3 40t-1.5 26z" />
    <glyph glyph-name="questiondown" unicode="&#xbf;" horiz-adv-x="363" 
d="M327.945 798.095q0 -2.45215 -4.79102 -25.1318q-4.79199 -22.6797 -11.1797 -50.877l-17.0361 -73.5576q-63.8857 -84.5908 -103.814 -147.727q-39.9287 -63.1367 -61.7559 -109.723q-21.8271 -46.5869 -28.2158 -79.0742t-2.12988 -54.5547
q0 -13.4854 12.2451 -21.4541q12.2441 -7.96875 29.2803 -12.2598t33.54 -5.5166q16.5039 -1.22656 26.0869 -1.22656q17.0361 0 33.54 5.51758q16.5029 5.5166 33.0068 12.8721t32.4756 12.8721q15.9707 5.51758 31.9424 5.51758q11.7129 0 17.5684 -4.29102
q5.85645 -4.29102 13.3096 -20.2285l-10.6475 -11.0332q-8.51758 -9.80762 -27.6836 -14.7119q-19.166 -4.90332 -42.0576 -7.35547q-22.8926 -2.45215 -44.7197 -3.06445q-21.8281 -0.613281 -34.6055 -0.613281q-13.8418 0 -36.7334 1.22559
q-22.8926 1.22656 -44.7207 7.35645q-21.8271 6.12891 -37.7988 19.6152q-15.9707 13.4854 -15.9707 39.2305q-4.25977 26.9707 3.19434 61.2969q7.45312 34.3271 22.3594 71.7188q14.9072 37.3916 35.1377 74.7832q20.2295 37.3906 42.5898 71.7178t44.1875 62.5234
q21.8271 28.1973 38.8633 46.5859l31.9434 194.927q18.1006 0 30.3457 -12.2598q12.2441 -12.2598 12.2441 -33.1006zM254.478 929.271q-14.9072 0 -26.6191 9.19531q-11.7129 9.19434 -11.7129 27.584q0 20.8408 6.38867 30.6484t17.0361 12.2598
q10.6475 2.45117 23.4248 1.22559t26.6191 -1.22559q0 -12.2598 -1.06445 -25.7451q-1.06543 -13.4854 -4.79199 -25.7451t-10.6475 -20.2285t-18.6328 -7.96875z" />
    <glyph glyph-name="germandbls" unicode="&#xdf;" horiz-adv-x="651" 
d="M219 111q0 9 11 15q55 3 106 -4.5t96.5 -7.5t86.5 16.5t76 66.5q5 14 7.5 24.5t2.5 24.5q0 20 -13.5 34t-32 23t-39 14t-33.5 7q-7 1 -22.5 3t-33 3.5t-32.5 2.5t-21 1l-120 19q-10 5 -10 15v5q12 6 31 18t39 25.5t39 26t31 19.5t33.5 20.5t43 31.5t37 37.5t15.5 38.5
q0 25 -21.5 37.5t-50.5 17.5t-57.5 4.5t-42.5 -0.5q-30 0 -66.5 0.5t-66.5 -10.5q-10 -3 -34 -13t-50.5 -21t-50 -21t-32.5 -14h-23q0 13 12 20q47 21 85 37t75 27.5t76.5 17.5t88.5 6q18 0 49 -2.5t62 -11.5t53.5 -25.5t22.5 -43.5q0 -23 -16 -47.5t-34 -36.5l-169 -128
q10 0 25 -4t30 -9.5t29.5 -10.5t25.5 -5q28 -1 61 -6.5t61.5 -19t47 -36.5t18.5 -58q0 -41 -20 -67.5t-53 -42t-74.5 -22t-84 -8t-82 -0.5t-68.5 1q-8 0 -16 2.5t-8 13.5zM101 553q16 0 25.5 -16t15 -36.5t8 -40.5t2.5 -28q3 -45 3 -109.5t0.5 -133t4 -133t15.5 -108.5
l-9 -10q-17 9 -22.5 26t-7.5 34q-1 5 -2 23t-2.5 43.5t-3 54t-2.5 53t-2 42.5t-1 22v21v37v45v45v37v21q-1 15 -4.5 28.5t-7.5 27t-7 27t-3 28.5z" />
    <glyph glyph-name="Thorn" unicode="&#xde;" horiz-adv-x="386" 
d="M45 341q0 50 -0.5 75t-2 38t-2.5 19t-2.5 19t-2 38t-0.5 75q2 0 8 -0.5t12 -2t11 -3t5 -2.5v-66.5v-37.5v-19v-11.5v-14t0.5 -26.5t2 -49.5t3.5 -82.5h7q7 27 17 56.5t26 54t38.5 41t54.5 16.5q31 0 56.5 -13t44 -34.5t29 -49.5t10.5 -58q0 -31 -14 -51.5t-36.5 -33.5
t-51 -19t-57 -8t-54 -1.5t-43.5 1.5q-2 0 -5.5 -4t-3.5 -6q-1 -2 -1 -19v-42t0.5 -53.5t0.5 -53.5v-42v-19h-19q-1 0 -3 22t-5 56.5t-6.5 76t-7 80t-6 69t-3.5 43.5v42zM144 221q0 -3 8 -5t18 -3t20 -1.5t14 -0.5q58 0 93 27.5t35 84.5q0 24 -8.5 43.5t-23.5 33.5
t-35.5 21.5t-44.5 7.5q-30 0 -50.5 -19.5t-33.5 -47.5t-20.5 -58.5t-11.5 -52.5q-1 -3 -1 -9v-6z" />
    <glyph glyph-name="thorn" unicode="&#xfe;" horiz-adv-x="374" 
d="M45 341q0 50 -0.5 75t-2 38t-2.5 19t-2.5 19t-2 38t-0.5 75q2 0 8 -0.5t12 -2t11 -3t5 -2.5v-81.5v-37t0.5 -16.5t1.5 -20.5t3.5 -49.5l7.5 -102q7 27 19.5 61t30.5 65t43 52t58 21q30 0 56 -13t44.5 -34.5t29 -49.5t10.5 -58q-10 -45 -30 -74.5t-45.5 -47.5t-54 -26
t-55 -9t-49.5 3.5t-37 10.5q-2 0 -5.5 -4t-3.5 -6q-1 -2 -1 -19v-42t0.5 -53.5t0.5 -53.5v-42v-19h-19q-1 0 -3 22t-5 56.5t-6.5 76t-7 80t-6 69t-3.5 43.5v42zM155 205q48 1 85.5 12t63 31t37 47t6.5 60q0 48 -32 76.5t-80 28.5q-30 0 -53 -24.5t-38.5 -58t-25.5 -69
t-14 -57.5q-1 -3 -1 -9v-6z" />
    <glyph glyph-name="tilde" unicode="&#x2dc;" horiz-adv-x="535" 
d="M312 566q-23 -1 -35 8t-19.5 22.5t-11 29.5t-9 30.5t-14.5 25t-26 13.5q-22 -1 -39 -8.5t-31 -19.5t-27 -27.5t-26 -30.5q-7 -7 -16.5 -8.5t-21.5 -1.5q0 10 5 12t13 10q20 20 33.5 37.5t28.5 31t35.5 22.5t54.5 12q16 0 23 -5.5t19 -22.5q7 -15 10.5 -34t9.5 -35.5
t17.5 -27t34.5 -7.5q16 -1 31.5 9.5t30.5 25t29.5 30.5t28.5 27.5t27 14.5t26 -8q0 -1 -0.5 -1t-0.5 -1v-1q-46 -38 -76 -62t-49 -37.5t-28.5 -19t-14.5 -6t-7 1t-5 1.5z" />
    <glyph glyph-name="circumflex" unicode="&#x2c6;" horiz-adv-x="248" 
d="M119 746q5 10 15 10q12 0 15 -10l78 -158q0 -1 0.5 -4.5t0.5 -5.5q-12 -15 -25 -4.5t-25.5 32.5t-24.5 48.5t-23 42.5q-16 -24 -26.5 -40.5t-19.5 -30.5t-17 -27.5t-19 -29.5l-21 14z" />
    <glyph glyph-name="breve" unicode="&#x2d8;" horiz-adv-x="285" 
d="M17 701l29 7q11 -50 38.5 -79.5t58.5 -33.5t60 20.5t43 83.5q12 13 18.5 5.5t1.5 -27.5q-3 -26 -18 -50t-37 -40.5t-49 -22t-53.5 5.5t-50.5 42.5t-41 88.5z" />
    <glyph glyph-name="dotaccent" unicode="&#x2d9;" horiz-adv-x="154" 
d="M44 599q0 23 19.5 30t40.5 4q12 -2 16.5 -11.5t4.5 -18.5q0 -14 -15.5 -27t-29.5 -13t-25 11t-11 25z" />
    <glyph glyph-name="hungarumlaut" unicode="&#x2dd;" horiz-adv-x="325" 
d="M56 575q-10 11 -12.5 17.5t-2.5 12.5q-1 2 0 4.5t1 3.5l116 109q2 4 8.5 3t12.5 -5q4 -2 4.5 -5.5t-10.5 -17.5t-38 -42.5t-79 -79.5zM177 565q-11 11 -13.5 17t-2.5 13q-1 2 0 4.5t1 3.5l116 109q2 4 9 2.5t12 -4.5q4 -2 5 -5.5t-10 -17.5t-38 -42.5t-79 -79.5z" />
    <glyph glyph-name="ogonek" unicode="&#x2db;" horiz-adv-x="162" 
d="M129 -154q-20 1 -38.5 6t-33 14t-23 22t-8.5 28q0 37 22.5 69.5t49.5 61.5v-20q-21 -25 -31.5 -51.5t-11.5 -49.5q0 -31 17.5 -43.5t55.5 -12.5z" />
    <glyph glyph-name="dotlessi" unicode="&#x131;" horiz-adv-x="208" 
d="M84 363l29 -245q1 -12 6.5 -27.5t13.5 -29.5t19 -23.5t25 -9.5q20 0 31 10t23 31v-5q0 -11 -6.5 -22.5t-17 -20.5t-22.5 -15t-23 -6q-12 0 -23 9t-20.5 21.5t-16 26t-8.5 22.5q-20 72 -23 140t-3 144h16z" />
    <glyph glyph-name="commaaccent" horiz-adv-x="199" 
d="M118 -118q0 23 -6 42.5t-6 42.5q25 0 37.5 -20t12.5 -43q0 -12 -6.5 -42.5t-18.5 -63t-28 -57.5t-35 -25h-5.5t-4.5 1q26 38 43 78t17 87z" />
    <glyph glyph-name="macron" unicode="&#xaf;" horiz-adv-x="355" 
d="M25 602q27 6 64.5 6.5t76.5 -0.5t74 -2t58 3h4q2 0 3 -0.5t3 -0.5q14 -4 18 -13.5t4 -23.5l-24 6l-210 -9q-2 -1 -12 1.5t-15 3.5q-4 1 -11.5 2.5t-14.5 4.5t-12.5 8.5t-5.5 13.5z" />
    <glyph glyph-name="Aacute" unicode="&#xc1;" 
d="M15 10q38 42 65.5 88.5t52.5 98.5q6 11 14 30.5t16 38t13.5 33t5.5 16.5v14h-52v6q0 6 3 9q3 7 12 12t20 8.5t21.5 5.5t15.5 3l137 325l20 19q7 -5 12 -13t7 -16q12 -38 20.5 -70.5t15.5 -64.5t12.5 -66.5t10.5 -74.5h15q24 0 46.5 5.5t46.5 5.5h30l-128 -39
q-7 -3 -8.5 -6.5t-1.5 -8.5q0 -35 12 -67t27 -63.5t27 -64.5t12 -69q-11 0 -23 16.5t-23 42t-21.5 57t-18.5 61t-13.5 54t-7.5 37.5h-2h-2q-1 0 -1 1q-1 0 -1.5 -0.5t-1.5 -0.5h-2q-13 -3 -38.5 -8.5t-52 -12t-48.5 -12t-28 -6.5q-3 -1 -10 -4.5t-9 -5.5q-15 -34 -34 -77
t-41.5 -87.5t-48.5 -86t-54 -73.5l-4 -1q-10 0 -15 11zM231 373q5 -10 14 -10q17 0 37.5 1.5t41.5 6t40 12.5t34 20q0 2 0.5 11.5t0.5 12.5q0 5 -0.5 14.5t-0.5 10.5q-3 23 -9.5 58.5t-12.5 68.5t-11 56.5t-6 23.5h-10q-1 0 -5.5 -9l-11 -22l-13 -26t-10.5 -22
q-5 -12 -16 -41t-23.5 -62t-23.5 -62.5t-15 -41.5zM234 722q-10 11 -12.5 17t-2.5 13v4v3l117 110q2 4 8.5 2.5t12.5 -5.5q4 -2 4.5 -5.5t-10.5 -17t-38 -42t-79 -79.5z" />
    <glyph glyph-name="Abreve" unicode="&#x102;" 
d="M15 10q38 42 65.5 88.5t52.5 98.5q6 11 14 30.5t16 38t13.5 33t5.5 16.5v14h-52v6q0 6 3 9q3 7 12 12t20 8.5t21.5 5.5t15.5 3l137 325l20 19q7 -5 12 -13t7 -16q12 -38 20.5 -70.5t15.5 -64.5t12.5 -66.5t10.5 -74.5h15q24 0 46.5 5.5t46.5 5.5h30l-128 -39
q-7 -3 -8.5 -6.5t-1.5 -8.5q0 -35 12 -67t27 -63.5t27 -64.5t12 -69q-11 0 -23 16.5t-23 42t-21.5 57t-18.5 61t-13.5 54t-7.5 37.5h-2h-2q-1 0 -1 1q-1 0 -1.5 -0.5t-1.5 -0.5h-2q-13 -3 -38.5 -8.5t-52 -12t-48.5 -12t-28 -6.5q-3 -1 -10 -4.5t-9 -5.5q-15 -34 -34 -77
t-41.5 -87.5t-48.5 -86t-54 -73.5l-4 -1q-10 0 -15 11zM231 373q5 -10 14 -10q17 0 37.5 1.5t41.5 6t40 12.5t34 20q0 2 0.5 11.5t0.5 12.5q0 5 -0.5 14.5t-0.5 10.5q-3 23 -9.5 58.5t-12.5 68.5t-11 56.5t-6 23.5h-10q-1 0 -5.5 -9l-11 -22l-13 -26t-10.5 -22
q-5 -12 -16 -41t-23.5 -62t-23.5 -62.5t-15 -41.5zM167 868l29 7q11 -50 38.5 -79.5t58.5 -33.5t60 20.5t43 83.5q12 13 18.5 5.5t1.5 -27.5q-3 -26 -18 -50t-37 -40.5t-49 -22t-53.5 5.5t-50.5 42.5t-41 88.5z" />
    <glyph glyph-name="Acircumflex" unicode="&#xc2;" 
d="M15 10q38 42 65.5 88.5t52.5 98.5q6 11 14 30.5t16 38t13.5 33t5.5 16.5v14h-52v6q0 6 3 9q3 7 12 12t20 8.5t21.5 5.5t15.5 3l137 325l20 19q7 -5 12 -13t7 -16q12 -38 20.5 -70.5t15.5 -64.5t12.5 -66.5t10.5 -74.5h15q24 0 46.5 5.5t46.5 5.5h30l-128 -39
q-7 -3 -8.5 -6.5t-1.5 -8.5q0 -35 12 -67t27 -63.5t27 -64.5t12 -69q-11 0 -23 16.5t-23 42t-21.5 57t-18.5 61t-13.5 54t-7.5 37.5h-2h-2q-1 0 -1 1q-1 0 -1.5 -0.5t-1.5 -0.5h-2q-13 -3 -38.5 -8.5t-52 -12t-48.5 -12t-28 -6.5q-3 -1 -10 -4.5t-9 -5.5q-15 -34 -34 -77
t-41.5 -87.5t-48.5 -86t-54 -73.5l-4 -1q-10 0 -15 11zM231 373q5 -10 14 -10q17 0 37.5 1.5t41.5 6t40 12.5t34 20q0 2 0.5 11.5t0.5 12.5q0 5 -0.5 14.5t-0.5 10.5q-3 23 -9.5 58.5t-12.5 68.5t-11 56.5t-6 23.5h-10q-1 0 -5.5 -9l-11 -22l-13 -26t-10.5 -22
q-5 -12 -16 -41t-23.5 -62t-23.5 -62.5t-15 -41.5zM349 916q5 10 15 10q12 0 15 -10l78 -158q0 -1 0.5 -4.5t0.5 -5.5q-12 -15 -25 -4.5t-25.5 32.5t-24.5 48.5t-23 42.5q-16 -24 -26.5 -40.5t-19.5 -30.5t-17 -27.5t-19 -29.5l-21 14z" />
    <glyph glyph-name="Agrave" unicode="&#xc0;" 
d="M15 10q38 42 65.5 88.5t52.5 98.5q6 11 14 30.5t16 38t13.5 33t5.5 16.5v14h-52v6q0 6 3 9q3 7 12 12t20 8.5t21.5 5.5t15.5 3l137 325l20 19q7 -5 12 -13t7 -16q12 -38 20.5 -70.5t15.5 -64.5t12.5 -66.5t10.5 -74.5h15q24 0 46.5 5.5t46.5 5.5h30l-128 -39
q-7 -3 -8.5 -6.5t-1.5 -8.5q0 -35 12 -67t27 -63.5t27 -64.5t12 -69q-11 0 -23 16.5t-23 42t-21.5 57t-18.5 61t-13.5 54t-7.5 37.5h-2h-2q-1 0 -1 1q-1 0 -1.5 -0.5t-1.5 -0.5h-2q-13 -3 -38.5 -8.5t-52 -12t-48.5 -12t-28 -6.5q-3 -1 -10 -4.5t-9 -5.5q-15 -34 -34 -77
t-41.5 -87.5t-48.5 -86t-54 -73.5l-4 -1q-10 0 -15 11zM231 373q5 -10 14 -10q17 0 37.5 1.5t41.5 6t40 12.5t34 20q0 2 0.5 11.5t0.5 12.5q0 5 -0.5 14.5t-0.5 10.5q-3 23 -9.5 58.5t-12.5 68.5t-11 56.5t-6 23.5h-10q-1 0 -5.5 -9l-11 -22l-13 -26t-10.5 -22
q-5 -12 -16 -41t-23.5 -62t-23.5 -62.5t-15 -41.5zM438 725q-52 51 -79 79.5t-38 42t-10.5 17t4.5 5.5q6 4 12.5 5.5t8.5 -2.5l117 -110v-3v-4q0 -7 -2.5 -13t-12.5 -17z" />
    <glyph glyph-name="Adieresis" unicode="&#xc4;" 
d="M15 10q38 42 65.5 88.5t52.5 98.5q6 11 14 30.5t16 38t13.5 33t5.5 16.5v14h-52v6q0 6 3 9q3 7 12 12t20 8.5t21.5 5.5t15.5 3l137 325l20 19q7 -5 12 -13t7 -16q12 -38 20.5 -70.5t15.5 -64.5t12.5 -66.5t10.5 -74.5h15q24 0 46.5 5.5t46.5 5.5h30l-128 -39
q-7 -3 -8.5 -6.5t-1.5 -8.5q0 -35 12 -67t27 -63.5t27 -64.5t12 -69q-11 0 -23 16.5t-23 42t-21.5 57t-18.5 61t-13.5 54t-7.5 37.5h-2h-2q-1 0 -1 1q-1 0 -1.5 -0.5t-1.5 -0.5h-2q-13 -3 -38.5 -8.5t-52 -12t-48.5 -12t-28 -6.5q-3 -1 -10 -4.5t-9 -5.5q-15 -34 -34 -77
t-41.5 -87.5t-48.5 -86t-54 -73.5l-4 -1q-10 0 -15 11zM231 373q5 -10 14 -10q17 0 37.5 1.5t41.5 6t40 12.5t34 20q0 2 0.5 11.5t0.5 12.5q0 5 -0.5 14.5t-0.5 10.5q-3 23 -9.5 58.5t-12.5 68.5t-11 56.5t-6 23.5h-10q-1 0 -5.5 -9l-11 -22l-13 -26t-10.5 -22
q-5 -12 -16 -41t-23.5 -62t-23.5 -62.5t-15 -41.5zM242 776q0 23 19.5 30.5t39.5 4.5q12 -2 16.5 -11.5t4.5 -18.5q0 -7 -4.5 -14t-11.5 -13t-14.5 -9.5t-14.5 -3.5q-14 0 -24.5 10.5t-10.5 24.5zM374 776q0 23 19.5 30.5t40.5 4.5q12 -2 16.5 -11.5t4.5 -18.5
q0 -7 -4.5 -14t-11.5 -13t-14.5 -9.5t-14.5 -3.5q-14 0 -25 10.5t-11 24.5z" />
    <glyph glyph-name="Amacron" unicode="&#x100;" 
d="M15 10q38 42 65.5 88.5t52.5 98.5q6 11 14 30.5t16 38t13.5 33t5.5 16.5v14h-52v6q0 6 3 9q3 7 12 12t20 8.5t21.5 5.5t15.5 3l137 325l20 19q7 -5 12 -13t7 -16q12 -38 20.5 -70.5t15.5 -64.5t12.5 -66.5t10.5 -74.5h15q24 0 46.5 5.5t46.5 5.5h30l-128 -39
q-7 -3 -8.5 -6.5t-1.5 -8.5q0 -35 12 -67t27 -63.5t27 -64.5t12 -69q-11 0 -23 16.5t-23 42t-21.5 57t-18.5 61t-13.5 54t-7.5 37.5h-2h-2q-1 0 -1 1q-1 0 -1.5 -0.5t-1.5 -0.5h-2q-13 -3 -38.5 -8.5t-52 -12t-48.5 -12t-28 -6.5q-3 -1 -10 -4.5t-9 -5.5q-15 -34 -34 -77
t-41.5 -87.5t-48.5 -86t-54 -73.5l-4 -1q-10 0 -15 11zM231 373q5 -10 14 -10q17 0 37.5 1.5t41.5 6t40 12.5t34 20q0 2 0.5 11.5t0.5 12.5q0 5 -0.5 14.5t-0.5 10.5q-3 23 -9.5 58.5t-12.5 68.5t-11 56.5t-6 23.5h-10q-1 0 -5.5 -9l-11 -22l-13 -26t-10.5 -22
q-5 -12 -16 -41t-23.5 -62t-23.5 -62.5t-15 -41.5zM204 785q27 6 64.5 6.5t76.5 -0.5t74 -2t58 3h4q2 0 3 -0.5t3 -0.5q14 -4 18 -13.5t4 -23.5l-24 6l-210 -9q-2 -1 -12 1.5t-15 3.5q-4 1 -11.5 2.5t-14.5 4.5t-12.5 8.5t-5.5 13.5z" />
    <glyph glyph-name="Aogonek" unicode="&#x104;" 
d="M15 10q38 42 65.5 88.5t52.5 98.5q6 11 14 30.5t16 38t13.5 33t5.5 16.5v14h-52v6q0 6 3 9q3 7 12 12t20 8.5t21.5 5.5t15.5 3l137 325l20 19q7 -5 12 -13t7 -16q12 -38 20.5 -70.5t15.5 -64.5t12.5 -66.5t10.5 -74.5h15q24 0 46.5 5.5t46.5 5.5h30l-128 -39
q-7 -3 -8.5 -6.5t-1.5 -8.5q0 -35 12 -67t27 -63.5t27 -64.5t12 -69q-11 0 -23 16.5t-23 42t-21.5 57t-18.5 61t-13.5 54t-7.5 37.5h-2h-2q-1 0 -1 1q-1 0 -1.5 -0.5t-1.5 -0.5h-2q-13 -3 -38.5 -8.5t-52 -12t-48.5 -12t-28 -6.5q-3 -1 -10 -4.5t-9 -5.5q-15 -34 -34 -77
t-41.5 -87.5t-48.5 -86t-54 -73.5l-4 -1q-10 0 -15 11zM231 373q5 -10 14 -10q17 0 37.5 1.5t41.5 6t40 12.5t34 20q0 2 0.5 11.5t0.5 12.5q0 5 -0.5 14.5t-0.5 10.5q-3 23 -9.5 58.5t-12.5 68.5t-11 56.5t-6 23.5h-10q-1 0 -5.5 -9l-11 -22l-13 -26t-10.5 -22
q-5 -12 -16 -41t-23.5 -62t-23.5 -62.5t-15 -41.5zM523 -44q-20 1 -38.5 6t-33 14t-23 22t-8.5 28q0 37 22.5 69.5t49.5 61.5v-20q-21 -25 -31.5 -51.5t-11.5 -49.5q0 -31 17.5 -43.5t55.5 -12.5z" />
    <glyph glyph-name="Aring" unicode="&#xc5;" 
d="M15 10q38 42 65.5 88.5t52.5 98.5q6 11 14 30.5t16 38t13.5 33t5.5 16.5v14h-52v6q0 6 3 9q3 7 12 12t20 8.5t21.5 5.5t15.5 3l137 325l20 19q7 -5 12 -13t7 -16q12 -38 20.5 -70.5t15.5 -64.5t12.5 -66.5t10.5 -74.5h15q24 0 46.5 5.5t46.5 5.5h30l-128 -39
q-7 -3 -8.5 -6.5t-1.5 -8.5q0 -35 12 -67t27 -63.5t27 -64.5t12 -69q-11 0 -23 16.5t-23 42t-21.5 57t-18.5 61t-13.5 54t-7.5 37.5h-2h-2q-1 0 -1 1q-1 0 -1.5 -0.5t-1.5 -0.5h-2q-13 -3 -38.5 -8.5t-52 -12t-48.5 -12t-28 -6.5q-3 -1 -10 -4.5t-9 -5.5q-15 -34 -34 -77
t-41.5 -87.5t-48.5 -86t-54 -73.5l-4 -1q-10 0 -15 11zM231 373q5 -10 14 -10q17 0 37.5 1.5t41.5 6t40 12.5t34 20q0 2 0.5 11.5t0.5 12.5q0 5 -0.5 14.5t-0.5 10.5q-3 23 -9.5 58.5t-12.5 68.5t-11 56.5t-6 23.5h-10q-1 0 -5.5 -9l-11 -22l-13 -26t-10.5 -22
q-5 -12 -16 -41t-23.5 -62t-23.5 -62.5t-15 -41.5zM187 793q0 21 8.5 40.5t21 38t28.5 36t31 32.5v11q-13 -2 -18 -3.5t-7 -4.5t-3.5 -8t-7.5 -12h-4q-5 0 -8 4t-3 7q0 8 6.5 16.5t15.5 12.5q3 0 13 0.5t12 0.5q46 0 80.5 -20.5t48.5 -55.5q0 -4 1 -18t1 -19q0 -23 -4 -45.5
t-15 -41t-32.5 -30t-55.5 -11.5q-21 0 -40.5 5t-35 14t-24.5 22t-9 29zM216 802q0 -31 18.5 -43.5t57.5 -12.5q29 0 46.5 8.5t26.5 23t11.5 32.5t2.5 36q0 16 -3.5 32t-12.5 29.5t-23 23.5t-35 15q-12 -10 -27 -27.5t-28.5 -38t-23 -41.5t-10.5 -37z" />
    <glyph glyph-name="Atilde" unicode="&#xc3;" 
d="M15 10q38 42 65.5 88.5t52.5 98.5q6 11 14 30.5t16 38t13.5 33t5.5 16.5v14h-52v6q0 6 3 9q3 7 12 12t20 8.5t21.5 5.5t15.5 3l137 325l20 19q7 -5 12 -13t7 -16q12 -38 20.5 -70.5t15.5 -64.5t12.5 -66.5t10.5 -74.5h15q24 0 46.5 5.5t46.5 5.5h30l-128 -39
q-7 -3 -8.5 -6.5t-1.5 -8.5q0 -35 12 -67t27 -63.5t27 -64.5t12 -69q-11 0 -23 16.5t-23 42t-21.5 57t-18.5 61t-13.5 54t-7.5 37.5h-2h-2q-1 0 -1 1q-1 0 -1.5 -0.5t-1.5 -0.5h-2q-13 -3 -38.5 -8.5t-52 -12t-48.5 -12t-28 -6.5q-3 -1 -10 -4.5t-9 -5.5q-15 -34 -34 -77
t-41.5 -87.5t-48.5 -86t-54 -73.5l-4 -1q-10 0 -15 11zM231 373q5 -10 14 -10q17 0 37.5 1.5t41.5 6t40 12.5t34 20q0 2 0.5 11.5t0.5 12.5q0 5 -0.5 14.5t-0.5 10.5q-3 23 -9.5 58.5t-12.5 68.5t-11 56.5t-6 23.5h-10q-1 0 -5.5 -9l-11 -22l-13 -26t-10.5 -22
q-5 -12 -16 -41t-23.5 -62t-23.5 -62.5t-15 -41.5zM459 723q-23 -1 -35 8t-19.5 22.5t-11 29.5t-9 30.5t-14.5 25t-26 13.5q-22 -1 -39 -8.5t-31 -19.5t-27 -27.5t-26 -30.5q-7 -7 -16.5 -8.5t-21.5 -1.5q0 10 5 12t13 10q20 20 33.5 37.5t28.5 31t35.5 22.5t54.5 12
q16 0 23 -5.5t19 -22.5q7 -15 10.5 -34t9.5 -35.5t17.5 -27t34.5 -7.5q16 -1 31.5 9.5t30.5 25t29.5 30.5t28.5 27.5t27 14.5t26 -8q0 -1 -0.5 -1t-0.5 -1v-1q-46 -38 -76 -62t-49 -37.5t-28.5 -19t-14.5 -6t-7 1t-5 1.5z" />
    <glyph glyph-name="AE" unicode="&#xc6;" horiz-adv-x="964" 
d="M445 71v10.5t1 12.5q0 30 2.5 64.5t6 66.5t6.5 58t3 38q-1 1 -2 1q-3 0 -3 1q-1 0 -1.5 -0.5t-1.5 -0.5h-2q-13 -1 -39.5 -3t-54.5 -4t-51 -4t-29 -3q-3 0 -10.5 -2.5t-9.5 -4.5q-21 -32 -47.5 -72t-56.5 -81t-62.5 -78.5t-65.5 -64.5l-5 -1q-9 1 -13 14q45 35 80.5 77.5
t68.5 90.5q7 10 19 28t23 36t19 31.5t8 15.5l2 14l-52 7q0 3 1 6q2 6 5 9q4 7 14 10.5t21.5 5.5t22.5 2.5t16 0.5l192 304l23 16q6 -5 10 -14.5t5 -17.5q1 -13 3 -23t5 -8t7.5 20t11.5 61v29h24v-77l360 68h5q9 0 19 -6t15 -14l-393 -69q-22 -4 -33 -23.5t-15 -49t-3 -65
t3 -72.5t2.5 -72t-4.5 -62q44 4 93.5 17.5t97.5 35t90.5 50.5t72.5 64v-5q0 -24 -22 -46t-51 -39t-59 -29l-45 -18q-10 -4 -35 -12.5t-53 -18t-53.5 -18t-35.5 -11.5q-2 0 -5.5 -3.5t-4.5 -5.5q-2 -6 -2 -9q-3 -38 -4 -78t-5 -79q1 -8 1 -14t1 -7l9 -19h49q53 20 98 37.5
t87.5 32.5t86 27t93.5 21h10q6 0 11 -1.5t7 -9.5l-9 -9q-50 -7 -94.5 -20t-88 -28.5t-87.5 -33.5t-94 -36q-19 -7 -31 -9t-30 -2q-15 0 -24 6.5t-14.5 16.5t-7.5 22.5t-2 24.5zM287 347q4 -11 12 -12q17 -3 38 -4t42.5 0.5t42 6t37.5 14.5q1 2 2.5 11.5t2.5 12.5q1 5 2 14.5
t1 10.5q1 24 1 60.5t-1 70t-1.5 58t-1.5 24.5l-10 2q-1 0 -7.5 -8.5t-15 -20t-17 -24t-14.5 -20.5q-6 -11 -22.5 -39t-34.5 -59t-34 -58.5t-22 -39.5z" />
    <glyph glyph-name="AEacute" unicode="&#x1fc;" horiz-adv-x="964" 
d="M445 71v10.5t1 12.5q0 30 2.5 64.5t6 66.5t6.5 58t3 38q-1 1 -2 1q-3 0 -3 1q-1 0 -1.5 -0.5t-1.5 -0.5h-2q-13 -1 -39.5 -3t-54.5 -4t-51 -4t-29 -3q-3 0 -10.5 -2.5t-9.5 -4.5q-21 -32 -47.5 -72t-56.5 -81t-62.5 -78.5t-65.5 -64.5l-5 -1q-9 1 -13 14q45 35 80.5 77.5
t68.5 90.5q7 10 19 28t23 36t19 31.5t8 15.5l2 14l-52 7q0 3 1 6q2 6 5 9q4 7 14 10.5t21.5 5.5t22.5 2.5t16 0.5l192 304l23 16q6 -5 10 -14.5t5 -17.5q1 -13 3 -23t5 -8t7.5 20t11.5 61v29h24v-77l360 68h5q9 0 19 -6t15 -14l-393 -69q-22 -4 -33 -23.5t-15 -49t-3 -65
t3 -72.5t2.5 -72t-4.5 -62q44 4 93.5 17.5t97.5 35t90.5 50.5t72.5 64v-5q0 -24 -22 -46t-51 -39t-59 -29l-45 -18q-10 -4 -35 -12.5t-53 -18t-53.5 -18t-35.5 -11.5q-2 0 -5.5 -3.5t-4.5 -5.5q-2 -6 -2 -9q-3 -38 -4 -78t-5 -79q1 -8 1 -14t1 -7l9 -19h49q53 20 98 37.5
t87.5 32.5t86 27t93.5 21h10q6 0 11 -1.5t7 -9.5l-9 -9q-50 -7 -94.5 -20t-88 -28.5t-87.5 -33.5t-94 -36q-19 -7 -31 -9t-30 -2q-15 0 -24 6.5t-14.5 16.5t-7.5 22.5t-2 24.5zM287 347q4 -11 12 -12q17 -3 38 -4t42.5 0.5t42 6t37.5 14.5q1 2 2.5 11.5t2.5 12.5q1 5 2 14.5
t1 10.5q1 24 1 60.5t-1 70t-1.5 58t-1.5 24.5l-10 2q-1 0 -7.5 -8.5t-15 -20t-17 -24t-14.5 -20.5q-6 -11 -22.5 -39t-34.5 -59t-34 -58.5t-22 -39.5zM421 722q-10 11 -12.5 17t-2.5 13v4v3l117 110q2 4 8.5 2.5t12.5 -5.5q4 -2 4.5 -5.5t-10.5 -17t-38 -42t-79 -79.5z" />
    <glyph glyph-name="Cacute" unicode="&#x106;" horiz-adv-x="521" 
d="M23 270q0 55 7 103t24.5 90.5t46 81t71.5 74.5q14 12 38.5 21t44.5 9q30 0 47 -16.5t25.5 -40t10.5 -50t2 -46.5v-12.5t-0.5 -19.5t-0.5 -19.5v-12.5q-7 -10 -16 -10q-7 0 -10 6.5t-4 15t-0.5 16.5t0.5 11q0 20 5.5 35.5t5.5 34.5q0 32 -18.5 55.5t-50.5 23.5
q-37 0 -65.5 -16t-51 -42.5t-38 -60t-25.5 -69t-14.5 -69.5t-4.5 -61q0 -47 6.5 -95.5t26 -88t55.5 -65t94 -25.5q41 0 79 18.5t71 46t61.5 60.5t50.5 63q0 -2 1 -7t1 -7q0 -19 -14 -41t-36.5 -45t-50.5 -44t-57 -37t-56 -26t-47 -10q-59 0 -99.5 23.5t-66 62t-37 87
t-11.5 98.5zM199 722q-10 11 -12.5 17t-2.5 13v4v3l117 110q2 4 8.5 2.5t12.5 -5.5q4 -2 4.5 -5.5t-10.5 -17t-38 -42t-79 -79.5z" />
    <glyph glyph-name="Ccaron" unicode="&#x10c;" horiz-adv-x="521" 
d="M23 270q0 55 7 103t24.5 90.5t46 81t71.5 74.5q14 12 38.5 21t44.5 9q30 0 47 -16.5t25.5 -40t10.5 -50t2 -46.5v-12.5t-0.5 -19.5t-0.5 -19.5v-12.5q-7 -10 -16 -10q-7 0 -10 6.5t-4 15t-0.5 16.5t0.5 11q0 20 5.5 35.5t5.5 34.5q0 32 -18.5 55.5t-50.5 23.5
q-37 0 -65.5 -16t-51 -42.5t-38 -60t-25.5 -69t-14.5 -69.5t-4.5 -61q0 -47 6.5 -95.5t26 -88t55.5 -65t94 -25.5q41 0 79 18.5t71 46t61.5 60.5t50.5 63q0 -2 1 -7t1 -7q0 -19 -14 -41t-36.5 -45t-50.5 -44t-57 -37t-56 -26t-47 -10q-59 0 -99.5 23.5t-66 62t-37 87
t-11.5 98.5zM141 913l29 7q14 -21 26.5 -40t25.5 -37t27 -36t31 -37q4 10 12.5 22.5t18 26t18 26t12.5 22.5l8 20q4 8 9 15.5t12 9.5q6 -7 8 -11t2 -11q0 -1 -0.5 -2t-0.5 -3v-3l-80 -150q-3 -8 -14 -8q-6 0 -9 2t-6 6z" />
    <glyph glyph-name="Ccedilla" unicode="&#xc7;" horiz-adv-x="521" 
d="M23 270q0 55 7 103t24.5 90.5t46 81t71.5 74.5q14 12 38.5 21t44.5 9q30 0 47 -16.5t25.5 -40t10.5 -50t2 -46.5v-12.5t-0.5 -19.5t-0.5 -19.5v-12.5q-7 -10 -16 -10q-7 0 -10 6.5t-4 15t-0.5 16.5t0.5 11q0 20 5.5 35.5t5.5 34.5q0 32 -18.5 55.5t-50.5 23.5
q-37 0 -65.5 -16t-51 -42.5t-38 -60t-25.5 -69t-14.5 -69.5t-4.5 -61q0 -47 6.5 -95.5t26 -88t55.5 -65t94 -25.5q41 0 79 18.5t71 46t61.5 60.5t50.5 63q0 -2 1 -7t1 -7q0 -19 -14 -41t-36.5 -45t-50.5 -44t-57 -37t-56 -26t-47 -10q-59 0 -99.5 23.5t-66 62t-37 87
t-11.5 98.5zM204 -272q0 20 9 35t18.5 19.5t16 -4.5t2.5 -36q6 0 19 -1.5t27 -3t27 -3t19 -0.5q12 2 31 9t37 18.5t31.5 27t13.5 34.5q0 22 -18.5 28t-47 6.5t-61 -0.5t-61 6t-47 27t-18.5 62q0 43 5 59.5t11.5 16.5t13.5 -12.5t11.5 -28.5t4.5 -30.5t-7 -18.5
q0 -31 12.5 -45t33 -17.5t46.5 -1.5t52.5 1t52 -8t45.5 -29v-15q0 -33 -22.5 -56t-54.5 -37t-66 -20.5t-57 -6.5h-20.5t-26.5 2t-22.5 7t-9.5 16z" />
    <glyph glyph-name="Ccircumflex" unicode="&#x108;" horiz-adv-x="521" 
d="M23 270q0 55 7 103t24.5 90.5t46 81t71.5 74.5q14 12 38.5 21t44.5 9q30 0 47 -16.5t25.5 -40t10.5 -50t2 -46.5v-12.5t-0.5 -19.5t-0.5 -19.5v-12.5q-7 -10 -16 -10q-7 0 -10 6.5t-4 15t-0.5 16.5t0.5 11q0 20 5.5 35.5t5.5 34.5q0 32 -18.5 55.5t-50.5 23.5
q-37 0 -65.5 -16t-51 -42.5t-38 -60t-25.5 -69t-14.5 -69.5t-4.5 -61q0 -47 6.5 -95.5t26 -88t55.5 -65t94 -25.5q41 0 79 18.5t71 46t61.5 60.5t50.5 63q0 -2 1 -7t1 -7q0 -19 -14 -41t-36.5 -45t-50.5 -44t-57 -37t-56 -26t-47 -10q-59 0 -99.5 23.5t-66 62t-37 87
t-11.5 98.5zM252 913q5 10 15 10q12 0 15 -10l78 -158q0 -1 0.5 -4.5t0.5 -5.5q-12 -15 -25 -4.5t-25.5 32.5t-24.5 48.5t-23 42.5q-16 -24 -26.5 -40.5t-19.5 -30.5t-17 -27.5t-19 -29.5l-21 14z" />
    <glyph glyph-name="Cdotaccent" unicode="&#x10a;" horiz-adv-x="521" 
d="M23 270q0 55 7 103t24.5 90.5t46 81t71.5 74.5q14 12 38.5 21t44.5 9q30 0 47 -16.5t25.5 -40t10.5 -50t2 -46.5v-12.5t-0.5 -19.5t-0.5 -19.5v-12.5q-7 -10 -16 -10q-7 0 -10 6.5t-4 15t-0.5 16.5t0.5 11q0 20 5.5 35.5t5.5 34.5q0 32 -18.5 55.5t-50.5 23.5
q-37 0 -65.5 -16t-51 -42.5t-38 -60t-25.5 -69t-14.5 -69.5t-4.5 -61q0 -47 6.5 -95.5t26 -88t55.5 -65t94 -25.5q41 0 79 18.5t71 46t61.5 60.5t50.5 63q0 -2 1 -7t1 -7q0 -19 -14 -41t-36.5 -45t-50.5 -44t-57 -37t-56 -26t-47 -10q-59 0 -99.5 23.5t-66 62t-37 87
t-11.5 98.5zM220 766q0 23 19.5 30t40.5 4q12 -2 16.5 -11.5t4.5 -18.5q0 -14 -15.5 -27t-29.5 -13t-25 11t-11 25z" />
    <glyph glyph-name="Dcaron" unicode="&#x10e;" horiz-adv-x="536" 
d="M127 30q52 18 115.5 45t119 66t93 91t37.5 118q0 54 -33 99.5t-82.5 78.5t-106.5 51.5t-105 18.5q0 -14 0.5 -48.5t1 -73.5t0.5 -73.5v-48.5q0 -13 -1.5 -46.5t-3 -71.5t-3 -71.5t-2.5 -46.5q-1 0 -2.5 -0.5t-2.5 -0.5q-10 0 -12 6.5t-3 13.5q0 4 -1.5 20t-3 34.5t-3 34
t-2.5 19.5v6q0 51 5.5 99.5t5.5 101.5v27.5v41.5t-0.5 41.5t-0.5 27.5q-7 21 -25.5 28t-38 11t-35 11t-18.5 28q3 1 14.5 1.5t14.5 0.5q35 0 66.5 -8.5t62 -20.5t62 -26t65.5 -25q8 4 11 -1.5t8 -8.5q31 -20 64.5 -41t61 -46.5t45 -57t17.5 -73.5q0 -43 -14 -78.5
t-36.5 -66.5t-51 -60t-56.5 -59h69v-10q-10 -2 -34 -9t-50.5 -14.5t-50.5 -15t-33 -10.5q-22 -7 -36 -14t-25.5 -13t-23 -9.5t-27.5 -3.5q-11 0 -18.5 1.5t-16.5 9.5zM148 913l29 7q14 -21 26.5 -40t25.5 -37t27 -36t31 -37q4 10 12.5 22.5t18 26t18 26t12.5 22.5l8 20
q4 8 9 15.5t12 9.5q6 -7 8 -11t2 -11q0 -1 -0.5 -2t-0.5 -3v-3l-80 -150q-3 -8 -14 -8q-6 0 -9 2t-6 6z" />
    <glyph glyph-name="Dcroat" unicode="&#x110;" horiz-adv-x="536" 
d="M127 30q52 18 115.5 45t119 66t93 91t37.5 118q0 54 -33 99.5t-82.5 78.5t-106.5 51.5t-105 18.5q0 -14 0.5 -48.5t1 -73.5t0.5 -73.5v-48.5q0 -13 -1.5 -46.5t-3 -71.5t-3 -71.5t-2.5 -46.5q-1 0 -2.5 -0.5t-2.5 -0.5q-10 0 -12 6.5t-3 13.5q0 4 -1.5 20t-3 34.5t-3 34
t-2.5 19.5v6q0 51 5.5 99.5t5.5 101.5v27.5v41.5t-0.5 41.5t-0.5 27.5q-7 21 -25.5 28t-38 11t-35 11t-18.5 28q3 1 14.5 1.5t14.5 0.5q35 0 66.5 -8.5t62 -20.5t62 -26t65.5 -25q8 4 11 -1.5t8 -8.5q31 -20 64.5 -41t61 -46.5t45 -57t17.5 -73.5q0 -43 -14 -78.5
t-36.5 -66.5t-51 -60t-56.5 -59h69v-10q-10 -2 -34 -9t-50.5 -14.5t-50.5 -15t-33 -10.5q-22 -7 -36 -14t-25.5 -13t-23 -9.5t-27.5 -3.5q-11 0 -18.5 1.5t-16.5 9.5zM18 344q27 6 64.5 6.5t76.5 -0.5t74 -2t58 3h4q2 0 3 -0.5t3 -0.5q14 -4 18 -13.5t4 -23.5l-24 6l-210 -9
q-2 -1 -12 1.5t-15 3.5q-4 1 -11.5 2.5t-14.5 4.5t-12.5 8.5t-5.5 13.5z" />
    <glyph glyph-name="Eacute" unicode="&#xc9;" horiz-adv-x="530" 
d="M23 69q0 5 0.5 16t0.5 13l69 590v29h24v-77l360 68h5q9 0 19 -6t15 -14l-393 -69q-3 0 -6.5 -4.5t-6.5 -9.5t-5 -9.5t-2 -5.5q-2 -16 -6.5 -55t-9 -83t-9 -83t-5.5 -54v-20v-20q44 4 93.5 17.5t97.5 35t90.5 50.5t72.5 64v-5q0 -24 -22 -46t-51 -39t-59 -29l-45 -18
q-10 -4 -35 -12.5t-53 -18t-53.5 -18t-35.5 -11.5q-2 0 -5.5 -3.5t-4.5 -5.5q-9 -34 -10 -67.5t-1 -66.5v-13.5t0.5 -17t1 -15t0.5 -7.5l9 -19h49q53 20 98 37.5t87.5 32.5t86 27t93.5 21h10q6 0 11 -1.5t7 -9.5l-9 -9q-50 -7 -94.5 -20t-88 -28.5t-87.5 -33.5t-94 -36
q-19 -7 -31 -9t-30 -2q-15 0 -24 6.5t-14.5 16.5t-7.5 22.5t-2 24.5zM204 722q-10 11 -12.5 17t-2.5 13v4v3l117 110q2 4 8.5 2.5t12.5 -5.5q4 -2 4.5 -5.5t-10.5 -17t-38 -42t-79 -79.5z" />
    <glyph glyph-name="Ebreve" unicode="&#x114;" horiz-adv-x="530" 
d="M23 69q0 5 0.5 16t0.5 13l69 590v29h24v-77l360 68h5q9 0 19 -6t15 -14l-393 -69q-3 0 -6.5 -4.5t-6.5 -9.5t-5 -9.5t-2 -5.5q-2 -16 -6.5 -55t-9 -83t-9 -83t-5.5 -54v-20v-20q44 4 93.5 17.5t97.5 35t90.5 50.5t72.5 64v-5q0 -24 -22 -46t-51 -39t-59 -29l-45 -18
q-10 -4 -35 -12.5t-53 -18t-53.5 -18t-35.5 -11.5q-2 0 -5.5 -3.5t-4.5 -5.5q-9 -34 -10 -67.5t-1 -66.5v-13.5t0.5 -17t1 -15t0.5 -7.5l9 -19h49q53 20 98 37.5t87.5 32.5t86 27t93.5 21h10q6 0 11 -1.5t7 -9.5l-9 -9q-50 -7 -94.5 -20t-88 -28.5t-87.5 -33.5t-94 -36
q-19 -7 -31 -9t-30 -2q-15 0 -24 6.5t-14.5 16.5t-7.5 22.5t-2 24.5zM137 868l29 7q11 -50 38.5 -79.5t58.5 -33.5t60 20.5t43 83.5q12 13 18.5 5.5t1.5 -27.5q-3 -26 -18 -50t-37 -40.5t-49 -22t-53.5 5.5t-50.5 42.5t-41 88.5z" />
    <glyph glyph-name="Ecaron" unicode="&#x11a;" horiz-adv-x="530" 
d="M23 69q0 5 0.5 16t0.5 13l69 590v29h24v-77l360 68h5q9 0 19 -6t15 -14l-393 -69q-3 0 -6.5 -4.5t-6.5 -9.5t-5 -9.5t-2 -5.5q-2 -16 -6.5 -55t-9 -83t-9 -83t-5.5 -54v-20v-20q44 4 93.5 17.5t97.5 35t90.5 50.5t72.5 64v-5q0 -24 -22 -46t-51 -39t-59 -29l-45 -18
q-10 -4 -35 -12.5t-53 -18t-53.5 -18t-35.5 -11.5q-2 0 -5.5 -3.5t-4.5 -5.5q-9 -34 -10 -67.5t-1 -66.5v-13.5t0.5 -17t1 -15t0.5 -7.5l9 -19h49q53 20 98 37.5t87.5 32.5t86 27t93.5 21h10q6 0 11 -1.5t7 -9.5l-9 -9q-50 -7 -94.5 -20t-88 -28.5t-87.5 -33.5t-94 -36
q-19 -7 -31 -9t-30 -2q-15 0 -24 6.5t-14.5 16.5t-7.5 22.5t-2 24.5zM145 913l29 7q14 -21 26.5 -40t25.5 -37t27 -36t31 -37q4 10 12.5 22.5t18 26t18 26t12.5 22.5l8 20q4 8 9 15.5t12 9.5q6 -7 8 -11t2 -11q0 -1 -0.5 -2t-0.5 -3v-3l-80 -150q-3 -8 -14 -8q-6 0 -9 2
t-6 6z" />
    <glyph glyph-name="Ecircumflex" unicode="&#xca;" horiz-adv-x="530" 
d="M23 69q0 5 0.5 16t0.5 13l69 590v29h24v-77l360 68h5q9 0 19 -6t15 -14l-393 -69q-3 0 -6.5 -4.5t-6.5 -9.5t-5 -9.5t-2 -5.5q-2 -16 -6.5 -55t-9 -83t-9 -83t-5.5 -54v-20v-20q44 4 93.5 17.5t97.5 35t90.5 50.5t72.5 64v-5q0 -24 -22 -46t-51 -39t-59 -29l-45 -18
q-10 -4 -35 -12.5t-53 -18t-53.5 -18t-35.5 -11.5q-2 0 -5.5 -3.5t-4.5 -5.5q-9 -34 -10 -67.5t-1 -66.5v-13.5t0.5 -17t1 -15t0.5 -7.5l9 -19h49q53 20 98 37.5t87.5 32.5t86 27t93.5 21h10q6 0 11 -1.5t7 -9.5l-9 -9q-50 -7 -94.5 -20t-88 -28.5t-87.5 -33.5t-94 -36
q-19 -7 -31 -9t-30 -2q-15 0 -24 6.5t-14.5 16.5t-7.5 22.5t-2 24.5zM256 913q5 10 15 10q12 0 15 -10l78 -158q0 -1 0.5 -4.5t0.5 -5.5q-12 -15 -25 -4.5t-25.5 32.5t-24.5 48.5t-23 42.5q-16 -24 -26.5 -40.5t-19.5 -30.5t-17 -27.5t-19 -29.5l-21 14z" />
    <glyph glyph-name="Edotaccent" unicode="&#x116;" horiz-adv-x="530" 
d="M23 69q0 5 0.5 16t0.5 13l69 590v29h24v-77l360 68h5q9 0 19 -6t15 -14l-393 -69q-3 0 -6.5 -4.5t-6.5 -9.5t-5 -9.5t-2 -5.5q-2 -16 -6.5 -55t-9 -83t-9 -83t-5.5 -54v-20v-20q44 4 93.5 17.5t97.5 35t90.5 50.5t72.5 64v-5q0 -24 -22 -46t-51 -39t-59 -29l-45 -18
q-10 -4 -35 -12.5t-53 -18t-53.5 -18t-35.5 -11.5q-2 0 -5.5 -3.5t-4.5 -5.5q-9 -34 -10 -67.5t-1 -66.5v-13.5t0.5 -17t1 -15t0.5 -7.5l9 -19h49q53 20 98 37.5t87.5 32.5t86 27t93.5 21h10q6 0 11 -1.5t7 -9.5l-9 -9q-50 -7 -94.5 -20t-88 -28.5t-87.5 -33.5t-94 -36
q-19 -7 -31 -9t-30 -2q-15 0 -24 6.5t-14.5 16.5t-7.5 22.5t-2 24.5zM224 766q0 23 19.5 30t40.5 4q12 -2 16.5 -11.5t4.5 -18.5q0 -14 -15.5 -27t-29.5 -13t-25 11t-11 25z" />
    <glyph glyph-name="Edieresis" unicode="&#xcb;" horiz-adv-x="530" 
d="M23 69q0 5 0.5 16t0.5 13l69 590v29h24v-77l360 68h5q9 0 19 -6t15 -14l-393 -69q-3 0 -6.5 -4.5t-6.5 -9.5t-5 -9.5t-2 -5.5q-2 -16 -6.5 -55t-9 -83t-9 -83t-5.5 -54v-20v-20q44 4 93.5 17.5t97.5 35t90.5 50.5t72.5 64v-5q0 -24 -22 -46t-51 -39t-59 -29l-45 -18
q-10 -4 -35 -12.5t-53 -18t-53.5 -18t-35.5 -11.5q-2 0 -5.5 -3.5t-4.5 -5.5q-9 -34 -10 -67.5t-1 -66.5v-13.5t0.5 -17t1 -15t0.5 -7.5l9 -19h49q53 20 98 37.5t87.5 32.5t86 27t93.5 21h10q6 0 11 -1.5t7 -9.5l-9 -9q-50 -7 -94.5 -20t-88 -28.5t-87.5 -33.5t-94 -36
q-19 -7 -31 -9t-30 -2q-15 0 -24 6.5t-14.5 16.5t-7.5 22.5t-2 24.5zM158 773q0 23 19.5 30.5t39.5 4.5q12 -2 16.5 -11.5t4.5 -18.5q0 -7 -4.5 -14t-11.5 -13t-14.5 -9.5t-14.5 -3.5q-14 0 -24.5 10.5t-10.5 24.5zM290 773q0 23 19.5 30.5t40.5 4.5q12 -2 16.5 -11.5
t4.5 -18.5q0 -7 -4.5 -14t-11.5 -13t-14.5 -9.5t-14.5 -3.5q-14 0 -25 10.5t-11 24.5z" />
    <glyph glyph-name="Egrave" unicode="&#xc8;" horiz-adv-x="530" 
d="M23 69q0 5 0.5 16t0.5 13l69 590v29h24v-77l360 68h5q9 0 19 -6t15 -14l-393 -69q-3 0 -6.5 -4.5t-6.5 -9.5t-5 -9.5t-2 -5.5q-2 -16 -6.5 -55t-9 -83t-9 -83t-5.5 -54v-20v-20q44 4 93.5 17.5t97.5 35t90.5 50.5t72.5 64v-5q0 -24 -22 -46t-51 -39t-59 -29l-45 -18
q-10 -4 -35 -12.5t-53 -18t-53.5 -18t-35.5 -11.5q-2 0 -5.5 -3.5t-4.5 -5.5q-9 -34 -10 -67.5t-1 -66.5v-13.5t0.5 -17t1 -15t0.5 -7.5l9 -19h49q53 20 98 37.5t87.5 32.5t86 27t93.5 21h10q6 0 11 -1.5t7 -9.5l-9 -9q-50 -7 -94.5 -20t-88 -28.5t-87.5 -33.5t-94 -36
q-19 -7 -31 -9t-30 -2q-15 0 -24 6.5t-14.5 16.5t-7.5 22.5t-2 24.5zM326 722q-52 51 -79 79.5t-38 42t-10.5 17t4.5 5.5q6 4 12.5 5.5t8.5 -2.5l117 -110v-3v-4q0 -7 -2.5 -13t-12.5 -17z" />
    <glyph glyph-name="Emacron" unicode="&#x112;" horiz-adv-x="530" 
d="M23 69q0 5 0.5 16t0.5 13l69 590v29h24v-77l360 68h5q9 0 19 -6t15 -14l-393 -69q-3 0 -6.5 -4.5t-6.5 -9.5t-5 -9.5t-2 -5.5q-2 -16 -6.5 -55t-9 -83t-9 -83t-5.5 -54v-20v-20q44 4 93.5 17.5t97.5 35t90.5 50.5t72.5 64v-5q0 -24 -22 -46t-51 -39t-59 -29l-45 -18
q-10 -4 -35 -12.5t-53 -18t-53.5 -18t-35.5 -11.5q-2 0 -5.5 -3.5t-4.5 -5.5q-9 -34 -10 -67.5t-1 -66.5v-13.5t0.5 -17t1 -15t0.5 -7.5l9 -19h49q53 20 98 37.5t87.5 32.5t86 27t93.5 21h10q6 0 11 -1.5t7 -9.5l-9 -9q-50 -7 -94.5 -20t-88 -28.5t-87.5 -33.5t-94 -36
q-19 -7 -31 -9t-30 -2q-15 0 -24 6.5t-14.5 16.5t-7.5 22.5t-2 24.5zM112 769q27 6 64.5 6.5t76.5 -0.5t74 -2t58 3h4q2 0 3 -0.5t3 -0.5q14 -4 18 -13.5t4 -23.5l-24 6l-210 -9q-2 -1 -12 1.5t-15 3.5q-4 1 -11.5 2.5t-14.5 4.5t-12.5 8.5t-5.5 13.5z" />
    <glyph glyph-name="Eogonek" unicode="&#x118;" horiz-adv-x="530" 
d="M23 69q0 5 0.5 16t0.5 13l69 590v29h24v-77l360 68h5q9 0 19 -6t15 -14l-393 -69q-3 0 -6.5 -4.5t-6.5 -9.5t-5 -9.5t-2 -5.5q-2 -16 -6.5 -55t-9 -83t-9 -83t-5.5 -54v-20v-20q44 4 93.5 17.5t97.5 35t90.5 50.5t72.5 64v-5q0 -24 -22 -46t-51 -39t-59 -29l-45 -18
q-10 -4 -35 -12.5t-53 -18t-53.5 -18t-35.5 -11.5q-2 0 -5.5 -3.5t-4.5 -5.5q-9 -34 -10 -67.5t-1 -66.5v-13.5t0.5 -17t1 -15t0.5 -7.5l9 -19h49q53 20 98 37.5t87.5 32.5t86 27t93.5 21h10q6 0 11 -1.5t7 -9.5l-9 -9q-50 -7 -94.5 -20t-88 -28.5t-87.5 -33.5t-94 -36
q-19 -7 -31 -9t-30 -2q-15 0 -24 6.5t-14.5 16.5t-7.5 22.5t-2 24.5zM484 -63q-20 1 -38.5 6t-33 14t-23 22t-8.5 28q0 37 22.5 69.5t49.5 61.5v-20q-21 -25 -31.5 -51.5t-11.5 -49.5q0 -31 17.5 -43.5t55.5 -12.5z" />
    <glyph glyph-name="Gbreve" unicode="&#x11e;" horiz-adv-x="565" 
d="M450 -76q0 4 -0.5 17t-0.5 18q0 31 10 59.5t10 60.5q-18 0 -43.5 -12t-56.5 -26.5t-65.5 -26.5t-69.5 -12q-46 0 -82.5 15t-62 42.5t-39 65t-13.5 82.5q0 70 28 137t71.5 128t95.5 113.5t100 94.5q14 13 25.5 21.5t22 12.5t22.5 5.5t27 1.5q14 0 29.5 -3t29 -10
t22.5 -18.5t9 -28.5q0 -6 -7 -15.5t-13 -14.5q6 14 0 26.5t-17 22t-25.5 15t-26.5 5.5q-11 0 -24.5 -5t-27.5 -12.5t-26 -16t-20 -15.5q-48 -45 -95.5 -95t-85.5 -106.5t-61.5 -119t-23.5 -131.5v-11.5v-18t0.5 -18t0.5 -11.5q5 -18 15.5 -35.5t25 -32t32 -25.5t35.5 -15
q3 0 11.5 -0.5t18 -1t18 -0.5h11.5q45 0 94 12t89.5 36.5t66.5 63.5t26 93q0 12 -5.5 27t-24.5 15h-295l-10 10q7 6 20.5 10t27 6.5t25 3t15.5 0.5q2 0 19 0.5t39 0.5h44h36h27.5h41.5t41.5 -0.5t27.5 -0.5q2 -2 10 -9.5t10 -10.5v-4q0 -48 -12.5 -93.5t-28.5 -90.5
t-30.5 -91t-17.5 -94q-1 -1 -2 -1h-3q-10 0 -15 11zM226 890l29 7q11 -50 38.5 -79.5t58.5 -33.5t60 20.5t43 83.5q12 13 18.5 5.5t1.5 -27.5q-3 -26 -18 -50t-37 -40.5t-49 -22t-53.5 5.5t-50.5 42.5t-41 88.5z" />
    <glyph glyph-name="Gcircumflex" unicode="&#x11c;" horiz-adv-x="565" 
d="M450 -76q0 4 -0.5 17t-0.5 18q0 31 10 59.5t10 60.5q-18 0 -43.5 -12t-56.5 -26.5t-65.5 -26.5t-69.5 -12q-46 0 -82.5 15t-62 42.5t-39 65t-13.5 82.5q0 70 28 137t71.5 128t95.5 113.5t100 94.5q14 13 25.5 21.5t22 12.5t22.5 5.5t27 1.5q14 0 29.5 -3t29 -10
t22.5 -18.5t9 -28.5q0 -6 -7 -15.5t-13 -14.5q6 14 0 26.5t-17 22t-25.5 15t-26.5 5.5q-11 0 -24.5 -5t-27.5 -12.5t-26 -16t-20 -15.5q-48 -45 -95.5 -95t-85.5 -106.5t-61.5 -119t-23.5 -131.5v-11.5v-18t0.5 -18t0.5 -11.5q5 -18 15.5 -35.5t25 -32t32 -25.5t35.5 -15
q3 0 11.5 -0.5t18 -1t18 -0.5h11.5q45 0 94 12t89.5 36.5t66.5 63.5t26 93q0 12 -5.5 27t-24.5 15h-295l-10 10q7 6 20.5 10t27 6.5t25 3t15.5 0.5q2 0 19 0.5t39 0.5h44h36h27.5h41.5t41.5 -0.5t27.5 -0.5q2 -2 10 -9.5t10 -10.5v-4q0 -48 -12.5 -93.5t-28.5 -90.5
t-30.5 -91t-17.5 -94q-1 -1 -2 -1h-3q-10 0 -15 11zM427 911q5 10 15 10q12 0 15 -10l78 -158q0 -1 0.5 -4.5t0.5 -5.5q-12 -15 -25 -4.5t-25.5 32.5t-24.5 48.5t-23 42.5q-16 -24 -26.5 -40.5t-19.5 -30.5t-17 -27.5t-19 -29.5l-21 14z" />
    <glyph glyph-name="Gcommaaccent" unicode="&#x122;" horiz-adv-x="565" 
d="M450 -76q0 4 -0.5 17t-0.5 18q0 31 10 59.5t10 60.5q-18 0 -43.5 -12t-56.5 -26.5t-65.5 -26.5t-69.5 -12q-46 0 -82.5 15t-62 42.5t-39 65t-13.5 82.5q0 70 28 137t71.5 128t95.5 113.5t100 94.5q14 13 25.5 21.5t22 12.5t22.5 5.5t27 1.5q14 0 29.5 -3t29 -10
t22.5 -18.5t9 -28.5q0 -6 -7 -15.5t-13 -14.5q6 14 0 26.5t-17 22t-25.5 15t-26.5 5.5q-11 0 -24.5 -5t-27.5 -12.5t-26 -16t-20 -15.5q-48 -45 -95.5 -95t-85.5 -106.5t-61.5 -119t-23.5 -131.5v-11.5v-18t0.5 -18t0.5 -11.5q5 -18 15.5 -35.5t25 -32t32 -25.5t35.5 -15
q3 0 11.5 -0.5t18 -1t18 -0.5h11.5q45 0 94 12t89.5 36.5t66.5 63.5t26 93q0 12 -5.5 27t-24.5 15h-295l-10 10q7 6 20.5 10t27 6.5t25 3t15.5 0.5q2 0 19 0.5t39 0.5h44h36h27.5h41.5t41.5 -0.5t27.5 -0.5q2 -2 10 -9.5t10 -10.5v-4q0 -48 -12.5 -93.5t-28.5 -90.5
t-30.5 -91t-17.5 -94q-1 -1 -2 -1h-3q-10 0 -15 11zM293 -118q0 23 -6 42.5t-6 42.5q25 0 37.5 -20t12.5 -43q0 -12 -6.5 -42.5t-18.5 -63t-28 -57.5t-35 -25h-5.5t-4.5 1q26 38 43 78t17 87z" />
    <glyph glyph-name="Gdotaccent" unicode="&#x120;" horiz-adv-x="565" 
d="M450 -76q0 4 -0.5 17t-0.5 18q0 31 10 59.5t10 60.5q-18 0 -43.5 -12t-56.5 -26.5t-65.5 -26.5t-69.5 -12q-46 0 -82.5 15t-62 42.5t-39 65t-13.5 82.5q0 70 28 137t71.5 128t95.5 113.5t100 94.5q14 13 25.5 21.5t22 12.5t22.5 5.5t27 1.5q14 0 29.5 -3t29 -10
t22.5 -18.5t9 -28.5q0 -6 -7 -15.5t-13 -14.5q6 14 0 26.5t-17 22t-25.5 15t-26.5 5.5q-11 0 -24.5 -5t-27.5 -12.5t-26 -16t-20 -15.5q-48 -45 -95.5 -95t-85.5 -106.5t-61.5 -119t-23.5 -131.5v-11.5v-18t0.5 -18t0.5 -11.5q5 -18 15.5 -35.5t25 -32t32 -25.5t35.5 -15
q3 0 11.5 -0.5t18 -1t18 -0.5h11.5q45 0 94 12t89.5 36.5t66.5 63.5t26 93q0 12 -5.5 27t-24.5 15h-295l-10 10q7 6 20.5 10t27 6.5t25 3t15.5 0.5q2 0 19 0.5t39 0.5h44h36h27.5h41.5t41.5 -0.5t27.5 -0.5q2 -2 10 -9.5t10 -10.5v-4q0 -48 -12.5 -93.5t-28.5 -90.5
t-30.5 -91t-17.5 -94q-1 -1 -2 -1h-3q-10 0 -15 11zM373 783q0 23 19.5 30t40.5 4q12 -2 16.5 -11.5t4.5 -18.5q0 -14 -15.5 -27t-29.5 -13t-25 11t-11 25z" />
    <glyph glyph-name="Hbar" unicode="&#x126;" horiz-adv-x="432" 
d="M34 245l39 345l4 1q11 0 16 -11q0 -3 0.5 -10.5t0.5 -16.5v-16.5v-10.5q0 -36 -4.5 -72t-10 -72t-10 -72t-4.5 -72q3 0 11 -0.5t17 -1t17.5 -0.5h12.5q9 0 31 3t47 6t47.5 6t31.5 4q19 33 21.5 78.5t0.5 93.5t-3 93.5t10 78.5l10 30q14 -2 17 -4t3 -10v-6
q-1 -8 -2.5 -33.5t-3.5 -60t-4 -73t-4 -73t-4 -60.5t-2 -34v-7q0 -3 1 -6q5 0 16.5 2t24.5 2.5t26 -1.5t21 -10q-5 0 -16.5 -2.5t-24 -5.5t-23.5 -6t-15 -5q-5 -2 -12.5 -9.5t-7.5 -10.5v-198q-5 0 -15 3.5t-10 8.5v193q-3 0 -16.5 2t-17.5 1l-52.5 -7.5t-61 -9t-51 -8.5
t-22.5 -4l-15 -20v-177q-12 2 -18 16t-6 23v187zM25 421q27 6 64.5 6.5t76.5 -0.5t74 -2t58 3h4q2 0 3 -0.5t3 -0.5q14 -4 18 -13.5t4 -23.5l-24 6l-210 -9q-2 -1 -12 1.5t-15 3.5q-4 1 -11.5 2.5t-14.5 4.5t-12.5 8.5t-5.5 13.5z" />
    <glyph glyph-name="Hcircumflex" unicode="&#x124;" horiz-adv-x="432" 
d="M34 245l39 345l4 1q11 0 16 -11q0 -3 0.5 -10.5t0.5 -16.5v-16.5v-10.5q0 -36 -4.5 -72t-10 -72t-10 -72t-4.5 -72q3 0 11 -0.5t17 -1t17.5 -0.5h12.5q9 0 31 3t47 6t47.5 6t31.5 4q19 33 21.5 78.5t0.5 93.5t-3 93.5t10 78.5l10 30q14 -2 17 -4t3 -10v-6
q-1 -8 -2.5 -33.5t-3.5 -60t-4 -73t-4 -73t-4 -60.5t-2 -34v-7q0 -3 1 -6q5 0 16.5 2t24.5 2.5t26 -1.5t21 -10q-5 0 -16.5 -2.5t-24 -5.5t-23.5 -6t-15 -5q-5 -2 -12.5 -9.5t-7.5 -10.5v-198q-5 0 -15 3.5t-10 8.5v193q-3 0 -16.5 2t-17.5 1l-52.5 -7.5t-61 -9t-51 -8.5
t-22.5 -4l-15 -20v-177q-12 2 -18 16t-6 23v187zM198 832q5 10 15 10q12 0 15 -10l78 -158q0 -1 0.5 -4.5t0.5 -5.5q-12 -15 -25 -4.5t-25.5 32.5t-24.5 48.5t-23 42.5q-16 -24 -26.5 -40.5t-19.5 -30.5t-17 -27.5t-19 -29.5l-21 14z" />
    <glyph glyph-name="Iacute" unicode="&#xcd;" horiz-adv-x="624" 
d="M15 30q2 6 9.5 9.5t15.5 5.5t15 3t9 1t10 -5t10 -5q1 0 14.5 -0.5t21.5 -0.5q6 0 18.5 0.5t13.5 0.5q4 1 19.5 4.5t34 8.5t37 9.5t27.5 7.5q12 3 17.5 7.5t8 11t3 16.5t1.5 24v107v84t-1 74.5t-3 76.5t-6 90h-160q0 5 3.5 12t9.5 8l344 49h32q0 -13 -11.5 -19.5
t-20.5 -10.5l-30 -10t-44.5 -15t-44.5 -14.5t-29 -9.5l-9 -78v-383q42 0 82.5 5t83.5 5h17.5t27 -0.5t27 -0.5h17.5q2 0 10 -4t10 -6l2.5 -2.5t1.5 -3.5h-61t-49.5 -1t-47 -3.5t-53.5 -8.5q-41 -8 -80.5 -18.5t-79 -20t-80 -16.5t-83.5 -7q-4 0 -10.5 0.5l-13 1t-11.5 1
t-6 0.5l-19 20v0zM251 722q-10 11 -12.5 17t-2.5 13v4v3l117 110q2 4 8.5 2.5t12.5 -5.5q4 -2 4.5 -5.5t-10.5 -17t-38 -42t-79 -79.5z" />
    <glyph glyph-name="Ibreve" unicode="&#x12c;" horiz-adv-x="624" 
d="M15 30q2 6 9.5 9.5t15.5 5.5t15 3t9 1t10 -5t10 -5q1 0 14.5 -0.5t21.5 -0.5q6 0 18.5 0.5t13.5 0.5q4 1 19.5 4.5t34 8.5t37 9.5t27.5 7.5q12 3 17.5 7.5t8 11t3 16.5t1.5 24v107v84t-1 74.5t-3 76.5t-6 90h-160q0 5 3.5 12t9.5 8l344 49h32q0 -13 -11.5 -19.5
t-20.5 -10.5l-30 -10t-44.5 -15t-44.5 -14.5t-29 -9.5l-9 -78v-383q42 0 82.5 5t83.5 5h17.5t27 -0.5t27 -0.5h17.5q2 0 10 -4t10 -6l2.5 -2.5t1.5 -3.5h-61t-49.5 -1t-47 -3.5t-53.5 -8.5q-41 -8 -80.5 -18.5t-79 -20t-80 -16.5t-83.5 -7q-4 0 -10.5 0.5l-13 1t-11.5 1
t-6 0.5l-19 20v0zM184 868l29 7q11 -50 38.5 -79.5t58.5 -33.5t60 20.5t43 83.5q12 13 18.5 5.5t1.5 -27.5q-3 -26 -18 -50t-37 -40.5t-49 -22t-53.5 5.5t-50.5 42.5t-41 88.5z" />
    <glyph glyph-name="Icircumflex" unicode="&#xce;" horiz-adv-x="624" 
d="M15 30q2 6 9.5 9.5t15.5 5.5t15 3t9 1t10 -5t10 -5q1 0 14.5 -0.5t21.5 -0.5q6 0 18.5 0.5t13.5 0.5q4 1 19.5 4.5t34 8.5t37 9.5t27.5 7.5q12 3 17.5 7.5t8 11t3 16.5t1.5 24v107v84t-1 74.5t-3 76.5t-6 90h-160q0 5 3.5 12t9.5 8l344 49h32q0 -13 -11.5 -19.5
t-20.5 -10.5l-30 -10t-44.5 -15t-44.5 -14.5t-29 -9.5l-9 -78v-383q42 0 82.5 5t83.5 5h17.5t27 -0.5t27 -0.5h17.5q2 0 10 -4t10 -6l2.5 -2.5t1.5 -3.5h-61t-49.5 -1t-47 -3.5t-53.5 -8.5q-41 -8 -80.5 -18.5t-79 -20t-80 -16.5t-83.5 -7q-4 0 -10.5 0.5l-13 1t-11.5 1
t-6 0.5l-19 20v0zM303 913q5 10 15 10q12 0 15 -10l78 -158q0 -1 0.5 -4.5t0.5 -5.5q-12 -15 -25 -4.5t-25.5 32.5t-24.5 48.5t-23 42.5q-16 -24 -26.5 -40.5t-19.5 -30.5t-17 -27.5t-19 -29.5l-21 14z" />
    <glyph glyph-name="Idieresis" unicode="&#xcf;" horiz-adv-x="624" 
d="M15 30q2 6 9.5 9.5t15.5 5.5t15 3t9 1t10 -5t10 -5q1 0 14.5 -0.5t21.5 -0.5q6 0 18.5 0.5t13.5 0.5q4 1 19.5 4.5t34 8.5t37 9.5t27.5 7.5q12 3 17.5 7.5t8 11t3 16.5t1.5 24v107v84t-1 74.5t-3 76.5t-6 90h-160q0 5 3.5 12t9.5 8l344 49h32q0 -13 -11.5 -19.5
t-20.5 -10.5l-30 -10t-44.5 -15t-44.5 -14.5t-29 -9.5l-9 -78v-383q42 0 82.5 5t83.5 5h17.5t27 -0.5t27 -0.5h17.5q2 0 10 -4t10 -6l2.5 -2.5t1.5 -3.5h-61t-49.5 -1t-47 -3.5t-53.5 -8.5q-41 -8 -80.5 -18.5t-79 -20t-80 -16.5t-83.5 -7q-4 0 -10.5 0.5l-13 1t-11.5 1
t-6 0.5l-19 20v0zM205 773q0 23 19.5 30.5t39.5 4.5q12 -2 16.5 -11.5t4.5 -18.5q0 -7 -4.5 -14t-11.5 -13t-14.5 -9.5t-14.5 -3.5q-14 0 -24.5 10.5t-10.5 24.5zM337 773q0 23 19.5 30.5t40.5 4.5q12 -2 16.5 -11.5t4.5 -18.5q0 -7 -4.5 -14t-11.5 -13t-14.5 -9.5
t-14.5 -3.5q-14 0 -25 10.5t-11 24.5z" />
    <glyph glyph-name="Idotaccent" unicode="&#x130;" horiz-adv-x="624" 
d="M15 30q2 6 9.5 9.5t15.5 5.5t15 3t9 1t10 -5t10 -5q1 0 14.5 -0.5t21.5 -0.5q6 0 18.5 0.5t13.5 0.5q4 1 19.5 4.5t34 8.5t37 9.5t27.5 7.5q12 3 17.5 7.5t8 11t3 16.5t1.5 24v107v84t-1 74.5t-3 76.5t-6 90h-160q0 5 3.5 12t9.5 8l344 49h32q0 -13 -11.5 -19.5
t-20.5 -10.5l-30 -10t-44.5 -15t-44.5 -14.5t-29 -9.5l-9 -78v-383q42 0 82.5 5t83.5 5h17.5t27 -0.5t27 -0.5h17.5q2 0 10 -4t10 -6l2.5 -2.5t1.5 -3.5h-61t-49.5 -1t-47 -3.5t-53.5 -8.5q-41 -8 -80.5 -18.5t-79 -20t-80 -16.5t-83.5 -7q-4 0 -10.5 0.5l-13 1t-11.5 1
t-6 0.5l-19 20v0zM271 766q0 23 19.5 30t40.5 4q12 -2 16.5 -11.5t4.5 -18.5q0 -14 -15.5 -27t-29.5 -13t-25 11t-11 25z" />
    <glyph glyph-name="Igrave" unicode="&#xcc;" horiz-adv-x="624" 
d="M15 30q2 6 9.5 9.5t15.5 5.5t15 3t9 1t10 -5t10 -5q1 0 14.5 -0.5t21.5 -0.5q6 0 18.5 0.5t13.5 0.5q4 1 19.5 4.5t34 8.5t37 9.5t27.5 7.5q12 3 17.5 7.5t8 11t3 16.5t1.5 24v107v84t-1 74.5t-3 76.5t-6 90h-160q0 5 3.5 12t9.5 8l344 49h32q0 -13 -11.5 -19.5
t-20.5 -10.5l-30 -10t-44.5 -15t-44.5 -14.5t-29 -9.5l-9 -78v-383q42 0 82.5 5t83.5 5h17.5t27 -0.5t27 -0.5h17.5q2 0 10 -4t10 -6l2.5 -2.5t1.5 -3.5h-61t-49.5 -1t-47 -3.5t-53.5 -8.5q-41 -8 -80.5 -18.5t-79 -20t-80 -16.5t-83.5 -7q-4 0 -10.5 0.5l-13 1t-11.5 1
t-6 0.5l-19 20v0zM373 722q-52 51 -79 79.5t-38 42t-10.5 17t4.5 5.5q6 4 12.5 5.5t8.5 -2.5l117 -110v-3v-4q0 -7 -2.5 -13t-12.5 -17z" />
    <glyph glyph-name="Imacron" horiz-adv-x="624" 
d="M15 30q2 6 9.5 9.5t15.5 5.5t15 3t9 1t10 -5t10 -5q1 0 14.5 -0.5t21.5 -0.5q6 0 18.5 0.5t13.5 0.5q4 1 19.5 4.5t34 8.5t37 9.5t27.5 7.5q12 3 17.5 7.5t8 11t3 16.5t1.5 24v107v84t-1 74.5t-3 76.5t-6 90h-160q0 5 3.5 12t9.5 8l344 49h32q0 -13 -11.5 -19.5
t-20.5 -10.5l-30 -10t-44.5 -15t-44.5 -14.5t-29 -9.5l-9 -78v-383q42 0 82.5 5t83.5 5h17.5t27 -0.5t27 -0.5h17.5q2 0 10 -4t10 -6l2.5 -2.5t1.5 -3.5h-61t-49.5 -1t-47 -3.5t-53.5 -8.5q-41 -8 -80.5 -18.5t-79 -20t-80 -16.5t-83.5 -7q-4 0 -10.5 0.5l-13 1t-11.5 1
t-6 0.5l-19 20v0zM159 769q27 6 64.5 6.5t76.5 -0.5t74 -2t58 3h4q2 0 3 -0.5t3 -0.5q14 -4 18 -13.5t4 -23.5l-24 6l-210 -9q-2 -1 -12 1.5t-15 3.5q-4 1 -11.5 2.5t-14.5 4.5t-12.5 8.5t-5.5 13.5z" />
    <glyph glyph-name="Iogonek" unicode="&#x12e;" horiz-adv-x="624" 
d="M15 30q2 6 9.5 9.5t15.5 5.5t15 3t9 1t10 -5t10 -5q1 0 14.5 -0.5t21.5 -0.5q6 0 18.5 0.5t13.5 0.5q4 1 19.5 4.5t34 8.5t37 9.5t27.5 7.5q12 3 17.5 7.5t8 11t3 16.5t1.5 24v107v84t-1 74.5t-3 76.5t-6 90h-160q0 5 3.5 12t9.5 8l344 49h32q0 -13 -11.5 -19.5
t-20.5 -10.5l-30 -10t-44.5 -15t-44.5 -14.5t-29 -9.5l-9 -78v-383q42 0 82.5 5t83.5 5h17.5t27 -0.5t27 -0.5h17.5q2 0 10 -4t10 -6l2.5 -2.5t1.5 -3.5h-61t-49.5 -1t-47 -3.5t-53.5 -8.5q-41 -8 -80.5 -18.5t-79 -20t-80 -16.5t-83.5 -7q-4 0 -10.5 0.5l-13 1t-11.5 1
t-6 0.5l-19 20v0zM585 -100q-20 1 -38.5 6t-33 14t-23 22t-8.5 28q0 37 22.5 69.5t49.5 61.5v-20q-21 -25 -31.5 -51.5t-11.5 -49.5q0 -31 17.5 -43.5t55.5 -12.5z" />
    <glyph glyph-name="Itilde" unicode="&#x128;" horiz-adv-x="624" 
d="M15 30q2 6 9.5 9.5t15.5 5.5t15 3t9 1t10 -5t10 -5q1 0 14.5 -0.5t21.5 -0.5q6 0 18.5 0.5t13.5 0.5q4 1 19.5 4.5t34 8.5t37 9.5t27.5 7.5q12 3 17.5 7.5t8 11t3 16.5t1.5 24v107v84t-1 74.5t-3 76.5t-6 90h-160q0 5 3.5 12t9.5 8l344 49h32q0 -13 -11.5 -19.5
t-20.5 -10.5l-30 -10t-44.5 -15t-44.5 -14.5t-29 -9.5l-9 -78v-383q42 0 82.5 5t83.5 5h17.5t27 -0.5t27 -0.5h17.5q2 0 10 -4t10 -6l2.5 -2.5t1.5 -3.5h-61t-49.5 -1t-47 -3.5t-53.5 -8.5q-41 -8 -80.5 -18.5t-79 -20t-80 -16.5t-83.5 -7q-4 0 -10.5 0.5l-13 1t-11.5 1
t-6 0.5l-19 20v0zM359 733q-23 -1 -35 8t-19.5 22.5t-11 29.5t-9 30.5t-14.5 25t-26 13.5q-22 -1 -39 -8.5t-31 -19.5t-27 -27.5t-26 -30.5q-7 -7 -16.5 -8.5t-21.5 -1.5q0 10 5 12t13 10q20 20 33.5 37.5t28.5 31t35.5 22.5t54.5 12q16 0 23 -5.5t19 -22.5q7 -15 10.5 -34
t9.5 -35.5t17.5 -27t34.5 -7.5q16 -1 31.5 9.5t30.5 25t29.5 30.5t28.5 27.5t27 14.5t26 -8q0 -1 -0.5 -1t-0.5 -1v-1q-46 -38 -76 -62t-49 -37.5t-28.5 -19t-14.5 -6t-7 1t-5 1.5z" />
    <glyph glyph-name="Jcircumflex" unicode="&#x134;" horiz-adv-x="609" 
d="M45 98q32 -17 57.5 -30t49.5 -22t50.5 -13.5t59.5 -4.5q17 0 37 3t36.5 12t26.5 24.5t7 40.5l-49 403h-217q-4 0 -11 1t-14.5 3t-14 5.5t-9.5 9.5q0 2 -1 2.5t-1 1.5q10 0 32 0.5t49 1t57.5 1t58 1.5t49 1.5t32.5 1.5q32 1 64 6.5t64.5 11t64.5 10t64 4.5
q0 -6 -2.5 -13.5t-9.5 -9.5l-206 -59q-6 -2 -8 -10.5t-2.5 -18.5t0 -18.5l0.5 -8.5q0 -41 4.5 -81t10.5 -80.5t10.5 -80.5t4.5 -80q0 -57 -33 -85.5t-90 -28.5q-12 0 -35.5 4t-52 11.5t-58 17t-53.5 20.5t-39.5 22.5t-15.5 23.5h33zM296 913q5 10 15 10q12 0 15 -10l78 -158
q0 -1 0.5 -4.5t0.5 -5.5q-12 -15 -25 -4.5t-25.5 32.5t-24.5 48.5t-23 42.5q-16 -24 -26.5 -40.5t-19.5 -30.5t-17 -27.5t-19 -29.5l-21 14z" />
    <glyph glyph-name="Kcommaaccent" unicode="&#x136;" horiz-adv-x="462" 
d="M98 30h-29v137q-3 2 -9.5 7.5t-13.5 11.5t-13.5 11.5t-8.5 8.5q-1 1 -1 2v3q0 14 6.5 25.5t14 22.5t14 23.5t6.5 29.5q0 79 -5.5 158t-5.5 157q0 9 1 20.5t15 11.5h4q9 -89 11 -177t9 -177l266 285l3 1q3 0 11.5 -3t4.5 -8l-19 -30q-9 -10 -27.5 -29.5t-42 -44.5t-49 -53
t-49 -53t-42 -45t-26.5 -30q-12 -13 -18.5 -20t-9.5 -13t-3.5 -13.5t-0.5 -21.5q0 -17 1.5 -29.5t19.5 -20.5l325 -147q2 -2 6 -5.5t4 -4.5q0 -3 -4 -10.5t-6 -9.5q-39 19 -79.5 42.5t-83 44t-87 34t-89.5 13.5v-104zM63 216q-4 2 -4 -4.5t4 -5.5q5 2 5 5.5t-5 4.5z
M242 -118q0 23 -6 42.5t-6 42.5q25 0 37.5 -20t12.5 -43q0 -12 -6.5 -42.5t-18.5 -63t-28 -57.5t-35 -25h-5.5t-4.5 1q26 38 43 78t17 87z" />
    <glyph glyph-name="Lacute" unicode="&#x139;" horiz-adv-x="609" 
d="M23 149q0 70 11 140t28 139.5t38 137t42 132.5h5q6 0 10.5 -4t4.5 -10v-6l-99 -363q-4 -16 -6.5 -36t-3.5 -40.5t-1 -40.5v-36q0 -38 1.5 -67.5t19.5 -64.5l256 88l6 0.5t14 0.5h16h13h38t31 -1t31.5 -3.5t37.5 -6.5q9 -2 22 -5t26 -6.5t22 -6l9 -2.5v-21
q-25 0 -49.5 3.5t-48.5 8t-48.5 8t-49.5 3.5h-18.5t-22.5 -0.5t-19.5 -1t-9.5 -0.5q-4 0 -18.5 -4.5t-31 -9.5t-31 -9.5t-18.5 -5.5h-9l-148 -59q-2 -1 -4 -1h-6q-18 0 -26.5 19.5t-11.5 45t-2.5 50t0.5 35.5zM243 722q-10 11 -12.5 17t-2.5 13v4v3l117 110q2 4 8.5 2.5
t12.5 -5.5q4 -2 4.5 -5.5t-10.5 -17t-38 -42t-79 -79.5z" />
    <glyph glyph-name="Lcaron" unicode="&#x13d;" horiz-adv-x="609" 
d="M23 149q0 70 11 140t28 139.5t38 137t42 132.5h5q6 0 10.5 -4t4.5 -10v-6l-99 -363q-4 -16 -6.5 -36t-3.5 -40.5t-1 -40.5v-36q0 -38 1.5 -67.5t19.5 -64.5l256 88l6 0.5t14 0.5h16h13h38t31 -1t31.5 -3.5t37.5 -6.5q9 -2 22 -5t26 -6.5t22 -6l9 -2.5v-21
q-25 0 -49.5 3.5t-48.5 8t-48.5 8t-49.5 3.5h-18.5t-22.5 -0.5t-19.5 -1t-9.5 -0.5q-4 0 -18.5 -4.5t-31 -9.5t-31 -9.5t-18.5 -5.5h-9l-148 -59q-2 -1 -4 -1h-6q-18 0 -26.5 19.5t-11.5 45t-2.5 50t0.5 35.5zM286 788q14 0 20 -9.5t8 -22.5t1.5 -26.5t-0.5 -21.5
q0 -21 -0.5 -39t-1.5 -35t-3 -36.5t-5 -43.5q-5 3 -12 13.5t-7 15.5v205v0z" />
    <glyph glyph-name="Lcommaaccent" unicode="&#x13b;" horiz-adv-x="609" 
d="M23 149q0 70 11 140t28 139.5t38 137t42 132.5h5q6 0 10.5 -4t4.5 -10v-6l-99 -363q-4 -16 -6.5 -36t-3.5 -40.5t-1 -40.5v-36q0 -38 1.5 -67.5t19.5 -64.5l256 88l6 0.5t14 0.5h16h13h38t31 -1t31.5 -3.5t37.5 -6.5q9 -2 22 -5t26 -6.5t22 -6l9 -2.5v-21
q-25 0 -49.5 3.5t-48.5 8t-48.5 8t-49.5 3.5h-18.5t-22.5 -0.5t-19.5 -1t-9.5 -0.5q-4 0 -18.5 -4.5t-31 -9.5t-31 -9.5t-18.5 -5.5h-9l-148 -59q-2 -1 -4 -1h-6q-18 0 -26.5 19.5t-11.5 45t-2.5 50t0.5 35.5zM315 -118q0 23 -6 42.5t-6 42.5q25 0 37.5 -20t12.5 -43
q0 -12 -6.5 -42.5t-18.5 -63t-28 -57.5t-35 -25h-5.5t-4.5 1q26 38 43 78t17 87z" />
    <glyph glyph-name="Ldot" unicode="&#x13f;" horiz-adv-x="609" 
d="M23 149q0 70 11 140t28 139.5t38 137t42 132.5h5q6 0 10.5 -4t4.5 -10v-6l-99 -363q-4 -16 -6.5 -36t-3.5 -40.5t-1 -40.5v-36q0 -38 1.5 -67.5t19.5 -64.5l256 88l6 0.5t14 0.5h16h13h38t31 -1t31.5 -3.5t37.5 -6.5q9 -2 22 -5t26 -6.5t22 -6l9 -2.5v-21
q-25 0 -49.5 3.5t-48.5 8t-48.5 8t-49.5 3.5h-18.5t-22.5 -0.5t-19.5 -1t-9.5 -0.5q-4 0 -18.5 -4.5t-31 -9.5t-31 -9.5t-18.5 -5.5h-9l-148 -59q-2 -1 -4 -1h-6q-18 0 -26.5 19.5t-11.5 45t-2.5 50t0.5 35.5zM264 347q0 23 19.5 30t40.5 4q12 -2 16.5 -11.5t4.5 -18.5
q0 -14 -15.5 -27t-29.5 -13t-25 11t-11 25z" />
    <glyph glyph-name="Nacute" unicode="&#x143;" horiz-adv-x="619" 
d="M29 262v23.5t0.5 29t0.5 26v13.5q1 36 0 83t-0.5 96.5t4.5 97.5t15 86q1 0 2.5 0.5t2.5 0.5q9 0 14.5 -7t10.5 -13q6 -12 19.5 -38t30.5 -58t36.5 -67.5t37 -67.5t31.5 -57t21 -37q4 -6 21.5 -30t39.5 -53.5t43.5 -58.5t33.5 -44q3 -4 12 -13.5t20 -20t22.5 -18.5
t19.5 -8q5 0 9 2.5t6 7.5l78 551l20 69h2q1 0 1 0.5t1 0.5q14 0 15.5 -10.5t1.5 -20.5q0 -20 -9 -34.5t-12 -33.5l-69 -522q-1 -7 -2 -15.5t-4 -16t-8.5 -12.5t-14.5 -5h-10q-5 3 -16 11.5t-23.5 18t-24 18t-15.5 12.5q-2 2 -10 9.5t-10 9.5q-15 20 -40 54.5l-50 69
t-44.5 61.5t-22.5 32q-19 30 -34.5 61.5l-31 63t-32.5 62t-39 58.5q0 -17 -1 -52.5t-2 -80t-2 -93.5t-2 -93.5t-2 -80t-1 -52.5v-167l-10 -10q-7 3 -12.5 20.5t-8.5 43.5t-5 56.5t-3 59t-1 50.5v32zM248 722q-10 11 -12.5 17t-2.5 13v4v3l117 110q2 4 8.5 2.5t12.5 -5.5
q4 -2 4.5 -5.5t-10.5 -17t-38 -42t-79 -79.5z" />
    <glyph glyph-name="Ncaron" unicode="&#x147;" horiz-adv-x="619" 
d="M29 262v23.5t0.5 29t0.5 26v13.5q1 36 0 83t-0.5 96.5t4.5 97.5t15 86q1 0 2.5 0.5t2.5 0.5q9 0 14.5 -7t10.5 -13q6 -12 19.5 -38t30.5 -58t36.5 -67.5t37 -67.5t31.5 -57t21 -37q4 -6 21.5 -30t39.5 -53.5t43.5 -58.5t33.5 -44q3 -4 12 -13.5t20 -20t22.5 -18.5
t19.5 -8q5 0 9 2.5t6 7.5l78 551l20 69h2q1 0 1 0.5t1 0.5q14 0 15.5 -10.5t1.5 -20.5q0 -20 -9 -34.5t-12 -33.5l-69 -522q-1 -7 -2 -15.5t-4 -16t-8.5 -12.5t-14.5 -5h-10q-5 3 -16 11.5t-23.5 18t-24 18t-15.5 12.5q-2 2 -10 9.5t-10 9.5q-15 20 -40 54.5l-50 69
t-44.5 61.5t-22.5 32q-19 30 -34.5 61.5l-31 63t-32.5 62t-39 58.5q0 -17 -1 -52.5t-2 -80t-2 -93.5t-2 -93.5t-2 -80t-1 -52.5v-167l-10 -10q-7 3 -12.5 20.5t-8.5 43.5t-5 56.5t-3 59t-1 50.5v32zM190 913l29 7q14 -21 26.5 -40t25.5 -37t27 -36t31 -37q4 10 12.5 22.5
t18 26t18 26t12.5 22.5l8 20q4 8 9 15.5t12 9.5q6 -7 8 -11t2 -11q0 -1 -0.5 -2t-0.5 -3v-3l-80 -150q-3 -8 -14 -8q-6 0 -9 2t-6 6z" />
    <glyph glyph-name="Ncommaaccent" unicode="&#x145;" horiz-adv-x="619" 
d="M29 262v23.5t0.5 29t0.5 26v13.5q1 36 0 83t-0.5 96.5t4.5 97.5t15 86q1 0 2.5 0.5t2.5 0.5q9 0 14.5 -7t10.5 -13q6 -12 19.5 -38t30.5 -58t36.5 -67.5t37 -67.5t31.5 -57t21 -37q4 -6 21.5 -30t39.5 -53.5t43.5 -58.5t33.5 -44q3 -4 12 -13.5t20 -20t22.5 -18.5
t19.5 -8q5 0 9 2.5t6 7.5l78 551l20 69h2q1 0 1 0.5t1 0.5q14 0 15.5 -10.5t1.5 -20.5q0 -20 -9 -34.5t-12 -33.5l-69 -522q-1 -7 -2 -15.5t-4 -16t-8.5 -12.5t-14.5 -5h-10q-5 3 -16 11.5t-23.5 18t-24 18t-15.5 12.5q-2 2 -10 9.5t-10 9.5q-15 20 -40 54.5l-50 69
t-44.5 61.5t-22.5 32q-19 30 -34.5 61.5l-31 63t-32.5 62t-39 58.5q0 -17 -1 -52.5t-2 -80t-2 -93.5t-2 -93.5t-2 -80t-1 -52.5v-167l-10 -10q-7 3 -12.5 20.5t-8.5 43.5t-5 56.5t-3 59t-1 50.5v32zM320 -118q0 23 -6 42.5t-6 42.5q25 0 37.5 -20t12.5 -43q0 -12 -6.5 -42.5
t-18.5 -63t-28 -57.5t-35 -25h-5.5t-4.5 1q26 38 43 78t17 87z" />
    <glyph glyph-name="Ntilde" unicode="&#xd1;" horiz-adv-x="619" 
d="M29 262v23.5t0.5 29t0.5 26v13.5q1 36 0 83t-0.5 96.5t4.5 97.5t15 86q1 0 2.5 0.5t2.5 0.5q9 0 14.5 -7t10.5 -13q6 -12 19.5 -38t30.5 -58t36.5 -67.5t37 -67.5t31.5 -57t21 -37q4 -6 21.5 -30t39.5 -53.5t43.5 -58.5t33.5 -44q3 -4 12 -13.5t20 -20t22.5 -18.5
t19.5 -8q5 0 9 2.5t6 7.5l78 551l20 69h2q1 0 1 0.5t1 0.5q14 0 15.5 -10.5t1.5 -20.5q0 -20 -9 -34.5t-12 -33.5l-69 -522q-1 -7 -2 -15.5t-4 -16t-8.5 -12.5t-14.5 -5h-10q-5 3 -16 11.5t-23.5 18t-24 18t-15.5 12.5q-2 2 -10 9.5t-10 9.5q-15 20 -40 54.5l-50 69
t-44.5 61.5t-22.5 32q-19 30 -34.5 61.5l-31 63t-32.5 62t-39 58.5q0 -17 -1 -52.5t-2 -80t-2 -93.5t-2 -93.5t-2 -80t-1 -52.5v-167l-10 -10q-7 3 -12.5 20.5t-8.5 43.5t-5 56.5t-3 59t-1 50.5v32zM357 733q-23 -1 -35 8t-19.5 22.5t-11 29.5t-9 30.5t-14.5 25t-26 13.5
q-22 -1 -39 -8.5t-31 -19.5t-27 -27.5t-26 -30.5q-7 -7 -16.5 -8.5t-21.5 -1.5q0 10 5 12t13 10q20 20 33.5 37.5t28.5 31t35.5 22.5t54.5 12q16 0 23 -5.5t19 -22.5q7 -15 10.5 -34t9.5 -35.5t17.5 -27t34.5 -7.5q16 -1 31.5 9.5t30.5 25t29.5 30.5t28.5 27.5t27 14.5
t26 -8q0 -1 -0.5 -1t-0.5 -1v-1q-46 -38 -76 -62t-49 -37.5t-28.5 -19t-14.5 -6t-7 1t-5 1.5z" />
    <glyph glyph-name="Oacute" unicode="&#xd3;" horiz-adv-x="511" 
d="M23 334q0 40 4 83t15.5 83.5t33 76.5t56.5 62q7 0 24 1.5t35.5 3t35.5 3t23 1.5h11q64 0 105.5 -24t66.5 -63.5t35 -91.5t10 -108q0 -30 -6 -68t-19 -78t-32 -78.5t-44.5 -69t-58.5 -49t-72 -18.5q-66 0 -109 32.5t-68.5 82t-35.5 108.5t-10 111zM52 320q0 -44 9 -95
t30.5 -94.5t58 -72.5t91.5 -29q38 0 69 16.5t55 44t41.5 62.5t29 72.5t17 74.5t5.5 67q0 49 -9 94.5t-31 81t-59 57t-93 21.5q-52 0 -83 -8.5t-48 -29t-23.5 -54.5t-8.5 -86l-20 39q0 2 -4 2q-8 0 -11 -7.5t-5 -13.5q-1 -4 -2.5 -14t-3 -21t-2.5 -21t-1 -13q0 -2 -0.5 -11
t-1 -20.5t-0.5 -23v-18.5zM194 722q-10 11 -12.5 17t-2.5 13v4v3l117 110q2 4 8.5 2.5t12.5 -5.5q4 -2 4.5 -5.5t-10.5 -17t-38 -42t-79 -79.5z" />
    <glyph glyph-name="Obreve" unicode="&#x14e;" horiz-adv-x="511" 
d="M23 334q0 40 4 83t15.5 83.5t33 76.5t56.5 62q7 0 24 1.5t35.5 3t35.5 3t23 1.5h11q64 0 105.5 -24t66.5 -63.5t35 -91.5t10 -108q0 -30 -6 -68t-19 -78t-32 -78.5t-44.5 -69t-58.5 -49t-72 -18.5q-66 0 -109 32.5t-68.5 82t-35.5 108.5t-10 111zM52 320q0 -44 9 -95
t30.5 -94.5t58 -72.5t91.5 -29q38 0 69 16.5t55 44t41.5 62.5t29 72.5t17 74.5t5.5 67q0 49 -9 94.5t-31 81t-59 57t-93 21.5q-52 0 -83 -8.5t-48 -29t-23.5 -54.5t-8.5 -86l-20 39q0 2 -4 2q-8 0 -11 -7.5t-5 -13.5q-1 -4 -2.5 -14t-3 -21t-2.5 -21t-1 -13q0 -2 -0.5 -11
t-1 -20.5t-0.5 -23v-18.5zM128 868l29 7q11 -50 38.5 -79.5t58.5 -33.5t60 20.5t43 83.5q12 13 18.5 5.5t1.5 -27.5q-3 -26 -18 -50t-37 -40.5t-49 -22t-53.5 5.5t-50.5 42.5t-41 88.5z" />
    <glyph glyph-name="Ocircumflex" unicode="&#xd4;" horiz-adv-x="511" 
d="M23 334q0 40 4 83t15.5 83.5t33 76.5t56.5 62q7 0 24 1.5t35.5 3t35.5 3t23 1.5h11q64 0 105.5 -24t66.5 -63.5t35 -91.5t10 -108q0 -30 -6 -68t-19 -78t-32 -78.5t-44.5 -69t-58.5 -49t-72 -18.5q-66 0 -109 32.5t-68.5 82t-35.5 108.5t-10 111zM52 320q0 -44 9 -95
t30.5 -94.5t58 -72.5t91.5 -29q38 0 69 16.5t55 44t41.5 62.5t29 72.5t17 74.5t5.5 67q0 49 -9 94.5t-31 81t-59 57t-93 21.5q-52 0 -83 -8.5t-48 -29t-23.5 -54.5t-8.5 -86l-20 39q0 2 -4 2q-8 0 -11 -7.5t-5 -13.5q-1 -4 -2.5 -14t-3 -21t-2.5 -21t-1 -13q0 -2 -0.5 -11
t-1 -20.5t-0.5 -23v-18.5zM247 913q5 10 15 10q12 0 15 -10l78 -158q0 -1 0.5 -4.5t0.5 -5.5q-12 -15 -25 -4.5t-25.5 32.5t-24.5 48.5t-23 42.5q-16 -24 -26.5 -40.5t-19.5 -30.5t-17 -27.5t-19 -29.5l-21 14z" />
    <glyph glyph-name="Odieresis" unicode="&#xd6;" horiz-adv-x="511" 
d="M23 334q0 40 4 83t15.5 83.5t33 76.5t56.5 62q7 0 24 1.5t35.5 3t35.5 3t23 1.5h11q64 0 105.5 -24t66.5 -63.5t35 -91.5t10 -108q0 -30 -6 -68t-19 -78t-32 -78.5t-44.5 -69t-58.5 -49t-72 -18.5q-66 0 -109 32.5t-68.5 82t-35.5 108.5t-10 111zM52 320q0 -44 9 -95
t30.5 -94.5t58 -72.5t91.5 -29q38 0 69 16.5t55 44t41.5 62.5t29 72.5t17 74.5t5.5 67q0 49 -9 94.5t-31 81t-59 57t-93 21.5q-52 0 -83 -8.5t-48 -29t-23.5 -54.5t-8.5 -86l-20 39q0 2 -4 2q-8 0 -11 -7.5t-5 -13.5q-1 -4 -2.5 -14t-3 -21t-2.5 -21t-1 -13q0 -2 -0.5 -11
t-1 -20.5t-0.5 -23v-18.5zM149 773q0 23 19.5 30.5t39.5 4.5q12 -2 16.5 -11.5t4.5 -18.5q0 -7 -4.5 -14t-11.5 -13t-14.5 -9.5t-14.5 -3.5q-14 0 -24.5 10.5t-10.5 24.5zM281 773q0 23 19.5 30.5t40.5 4.5q12 -2 16.5 -11.5t4.5 -18.5q0 -7 -4.5 -14t-11.5 -13t-14.5 -9.5
t-14.5 -3.5q-14 0 -25 10.5t-11 24.5z" />
    <glyph glyph-name="Ograve" unicode="&#xd2;" horiz-adv-x="511" 
d="M23 334q0 40 4 83t15.5 83.5t33 76.5t56.5 62q7 0 24 1.5t35.5 3t35.5 3t23 1.5h11q64 0 105.5 -24t66.5 -63.5t35 -91.5t10 -108q0 -30 -6 -68t-19 -78t-32 -78.5t-44.5 -69t-58.5 -49t-72 -18.5q-66 0 -109 32.5t-68.5 82t-35.5 108.5t-10 111zM52 320q0 -44 9 -95
t30.5 -94.5t58 -72.5t91.5 -29q38 0 69 16.5t55 44t41.5 62.5t29 72.5t17 74.5t5.5 67q0 49 -9 94.5t-31 81t-59 57t-93 21.5q-52 0 -83 -8.5t-48 -29t-23.5 -54.5t-8.5 -86l-20 39q0 2 -4 2q-8 0 -11 -7.5t-5 -13.5q-1 -4 -2.5 -14t-3 -21t-2.5 -21t-1 -13q0 -2 -0.5 -11
t-1 -20.5t-0.5 -23v-18.5zM316 722q-52 51 -79 79.5t-38 42t-10.5 17t4.5 5.5q6 4 12.5 5.5t8.5 -2.5l117 -110v-3v-4q0 -7 -2.5 -13t-12.5 -17z" />
    <glyph glyph-name="Ohungarumlaut" unicode="&#x150;" horiz-adv-x="511" 
d="M23 334q0 40 4 83t15.5 83.5t33 76.5t56.5 62q7 0 24 1.5t35.5 3t35.5 3t23 1.5h11q64 0 105.5 -24t66.5 -63.5t35 -91.5t10 -108q0 -30 -6 -68t-19 -78t-32 -78.5t-44.5 -69t-58.5 -49t-72 -18.5q-66 0 -109 32.5t-68.5 82t-35.5 108.5t-10 111zM52 320q0 -44 9 -95
t30.5 -94.5t58 -72.5t91.5 -29q38 0 69 16.5t55 44t41.5 62.5t29 72.5t17 74.5t5.5 67q0 49 -9 94.5t-31 81t-59 57t-93 21.5q-52 0 -83 -8.5t-48 -29t-23.5 -54.5t-8.5 -86l-20 39q0 2 -4 2q-8 0 -11 -7.5t-5 -13.5q-1 -4 -2.5 -14t-3 -21t-2.5 -21t-1 -13q0 -2 -0.5 -11
t-1 -20.5t-0.5 -23v-18.5zM134 742q-10 11 -12.5 17.5t-2.5 12.5q-1 2 0 4.5t1 3.5l116 109q2 4 8.5 3t12.5 -5q4 -2 4.5 -5.5t-10.5 -17.5t-38 -42.5t-79 -79.5zM255 732q-11 11 -13.5 17t-2.5 13q-1 2 0 4.5t1 3.5l116 109q2 4 9 2.5t12 -4.5q4 -2 5 -5.5t-10 -17.5
t-38 -42.5t-79 -79.5z" />
    <glyph glyph-name="Omacron" unicode="&#x14c;" horiz-adv-x="511" 
d="M23 334q0 40 4 83t15.5 83.5t33 76.5t56.5 62q7 0 24 1.5t35.5 3t35.5 3t23 1.5h11q64 0 105.5 -24t66.5 -63.5t35 -91.5t10 -108q0 -30 -6 -68t-19 -78t-32 -78.5t-44.5 -69t-58.5 -49t-72 -18.5q-66 0 -109 32.5t-68.5 82t-35.5 108.5t-10 111zM52 320q0 -44 9 -95
t30.5 -94.5t58 -72.5t91.5 -29q38 0 69 16.5t55 44t41.5 62.5t29 72.5t17 74.5t5.5 67q0 49 -9 94.5t-31 81t-59 57t-93 21.5q-52 0 -83 -8.5t-48 -29t-23.5 -54.5t-8.5 -86l-20 39q0 2 -4 2q-8 0 -11 -7.5t-5 -13.5q-1 -4 -2.5 -14t-3 -21t-2.5 -21t-1 -13q0 -2 -0.5 -11
t-1 -20.5t-0.5 -23v-18.5zM103 769q27 6 64.5 6.5t76.5 -0.5t74 -2t58 3h4q2 0 3 -0.5t3 -0.5q14 -4 18 -13.5t4 -23.5l-24 6l-210 -9q-2 -1 -12 1.5t-15 3.5q-4 1 -11.5 2.5t-14.5 4.5t-12.5 8.5t-5.5 13.5z" />
    <glyph glyph-name="Oslash" unicode="&#xd8;" horiz-adv-x="511" 
d="M23 334q0 40 4 83t15.5 83.5t33 76.5t56.5 62q7 0 24 1.5t35.5 3t35.5 3t23 1.5h11q64 0 105.5 -24t66.5 -63.5t35 -91.5t10 -108q0 -30 -6 -68t-19 -78t-32 -78.5t-44.5 -69t-58.5 -49t-72 -18.5q-66 0 -109 32.5t-68.5 82t-35.5 108.5t-10 111zM52 320q0 -44 9 -95
t30.5 -94.5t58 -72.5t91.5 -29q38 0 69 16.5t55 44t41.5 62.5t29 72.5t17 74.5t5.5 67q0 49 -9 94.5t-31 81t-59 57t-93 21.5q-52 0 -83 -8.5t-48 -29t-23.5 -54.5t-8.5 -86l-20 39q0 2 -4 2q-8 0 -11 -7.5t-5 -13.5q-1 -4 -2.5 -14t-3 -21t-2.5 -21t-1 -13q0 -2 -0.5 -11
t-1 -20.5t-0.5 -23v-18.5zM66 -55q0 31 5.5 65.5t15 68.5t22.5 65.5t27 57.5l275 492q0 3 1.5 9.5t4.5 13t8 11.5t11 5q3 0 10 -2t5 -9l-30 -78l-236 -393q-16 -27 -29 -57.5t-24 -62.5t-19.5 -64t-15.5 -62q-2 -5 -2.5 -16.5t-2.5 -25t-5.5 -26.5t-9.5 -20q-11 2 -11 12v16
z" />
    <glyph glyph-name="Otilde" unicode="&#xd5;" horiz-adv-x="511" 
d="M23 334q0 40 4 83t15.5 83.5t33 76.5t56.5 62q7 0 24 1.5t35.5 3t35.5 3t23 1.5h11q64 0 105.5 -24t66.5 -63.5t35 -91.5t10 -108q0 -30 -6 -68t-19 -78t-32 -78.5t-44.5 -69t-58.5 -49t-72 -18.5q-66 0 -109 32.5t-68.5 82t-35.5 108.5t-10 111zM52 320q0 -44 9 -95
t30.5 -94.5t58 -72.5t91.5 -29q38 0 69 16.5t55 44t41.5 62.5t29 72.5t17 74.5t5.5 67q0 49 -9 94.5t-31 81t-59 57t-93 21.5q-52 0 -83 -8.5t-48 -29t-23.5 -54.5t-8.5 -86l-20 39q0 2 -4 2q-8 0 -11 -7.5t-5 -13.5q-1 -4 -2.5 -14t-3 -21t-2.5 -21t-1 -13q0 -2 -0.5 -11
t-1 -20.5t-0.5 -23v-18.5zM304 733q-23 -1 -35 8t-19.5 22.5t-11 29.5t-9 30.5t-14.5 25t-26 13.5q-22 -1 -39 -8.5t-31 -19.5t-27 -27.5t-26 -30.5q-7 -7 -16.5 -8.5t-21.5 -1.5q0 10 5 12t13 10q20 20 33.5 37.5t28.5 31t35.5 22.5t54.5 12q16 0 23 -5.5t19 -22.5
q7 -15 10.5 -34t9.5 -35.5t17.5 -27t34.5 -7.5q16 -1 31.5 9.5t30.5 25t29.5 30.5t28.5 27.5t27 14.5t26 -8q0 -1 -0.5 -1t-0.5 -1v-1q-46 -38 -76 -62t-49 -37.5t-28.5 -19t-14.5 -6t-7 1t-5 1.5z" />
    <glyph glyph-name="Oslashacute" unicode="&#x1fe;" horiz-adv-x="511" 
d="M23 334q0 40 4 83t15.5 83.5t33 76.5t56.5 62q7 0 24 1.5t35.5 3t35.5 3t23 1.5h11q64 0 105.5 -24t66.5 -63.5t35 -91.5t10 -108q0 -30 -6 -68t-19 -78t-32 -78.5t-44.5 -69t-58.5 -49t-72 -18.5q-66 0 -109 32.5t-68.5 82t-35.5 108.5t-10 111zM52 320q0 -44 9 -95
t30.5 -94.5t58 -72.5t91.5 -29q38 0 69 16.5t55 44t41.5 62.5t29 72.5t17 74.5t5.5 67q0 49 -9 94.5t-31 81t-59 57t-93 21.5q-52 0 -83 -8.5t-48 -29t-23.5 -54.5t-8.5 -86l-20 39q0 2 -4 2q-8 0 -11 -7.5t-5 -13.5q-1 -4 -2.5 -14t-3 -21t-2.5 -21t-1 -13q0 -2 -0.5 -11
t-1 -20.5t-0.5 -23v-18.5zM63 -80q0 31 5.5 65.5t15 68.5t22.5 65.5t27 57.5l275 492q0 3 1.5 9.5t4.5 13t8 11.5t11 5q3 0 10 -2t5 -9l-30 -78l-236 -393q-16 -27 -29 -57.5t-24 -62.5t-19.5 -64t-15.5 -62q-2 -5 -2.5 -16.5t-2.5 -25t-5.5 -26.5t-9.5 -20q-11 2 -11 12v16
zM194 722q-10 11 -12.5 17t-2.5 13v4v3l117 110q2 4 8.5 2.5t12.5 -5.5q4 -2 4.5 -5.5t-10.5 -17t-38 -42t-79 -79.5z" />
    <glyph glyph-name="Racute" unicode="&#x154;" horiz-adv-x="624" 
d="M44 511v6.5t-0.5 13t-0.5 15v11.5v13t0.5 16.5t0.5 15v7.5q0 8 1.5 19.5t3 22.5t3 19t2.5 8h16v-65t1 -74.5t4 -76.5t8 -69q23 2 60 11.5t79.5 24.5t86 34t79 40.5t57.5 45t22 46.5q0 34 -26.5 55.5t-63.5 34t-75 17.5t-61 6q-12 0 -41.5 0.5t-62.5 0.5t-62 -0.5
t-41 -0.5l-10 9q35 11 73 11h74q21 0 52.5 -1t66 -5.5t69.5 -12.5t64 -22.5t49 -36t24 -51.5q3 -25 -20 -50.5t-55.5 -47t-64.5 -37.5t-47 -22q-9 -4 -31 -12.5t-47 -17.5t-47.5 -17t-31.5 -11q1 -2 4.5 -6t5.5 -5q7 -4 25 -14t38.5 -20.5t38.5 -20t26 -13.5l294 -246
q8 4 14.5 -1.5t6.5 -12.5q0 -4 -2.5 -11t-7.5 -4l-40 19q-10 9 -30.5 26.5t-46.5 40t-55 47t-55 46.5t-47 39.5t-31 26.5q-18 15 -41.5 30.5t-50 28t-53 20.5t-50.5 8q0 -86 9 -169.5t9 -170.5q0 -6 -0.5 -13t-9.5 -9l-10 10zM232 752q-10 11 -12.5 17t-2.5 13v4v3l117 110
q2 4 8.5 2.5t12.5 -5.5q4 -2 4.5 -5.5t-10.5 -17t-38 -42t-79 -79.5z" />
    <glyph glyph-name="Rcaron" unicode="&#x158;" horiz-adv-x="624" 
d="M44 511v6.5t-0.5 13t-0.5 15v11.5v13t0.5 16.5t0.5 15v7.5q0 8 1.5 19.5t3 22.5t3 19t2.5 8h16v-65t1 -74.5t4 -76.5t8 -69q23 2 60 11.5t79.5 24.5t86 34t79 40.5t57.5 45t22 46.5q0 34 -26.5 55.5t-63.5 34t-75 17.5t-61 6q-12 0 -41.5 0.5t-62.5 0.5t-62 -0.5
t-41 -0.5l-10 9q35 11 73 11h74q21 0 52.5 -1t66 -5.5t69.5 -12.5t64 -22.5t49 -36t24 -51.5q3 -25 -20 -50.5t-55.5 -47t-64.5 -37.5t-47 -22q-9 -4 -31 -12.5t-47 -17.5t-47.5 -17t-31.5 -11q1 -2 4.5 -6t5.5 -5q7 -4 25 -14t38.5 -20.5t38.5 -20t26 -13.5l294 -246
q8 4 14.5 -1.5t6.5 -12.5q0 -4 -2.5 -11t-7.5 -4l-40 19q-10 9 -30.5 26.5t-46.5 40t-55 47t-55 46.5t-47 39.5t-31 26.5q-18 15 -41.5 30.5t-50 28t-53 20.5t-50.5 8q0 -86 9 -169.5t9 -170.5q0 -6 -0.5 -13t-9.5 -9l-10 10zM137 940l29 7q14 -21 26.5 -40t25.5 -37t27 -36
t31 -37q4 10 12.5 22.5t18 26t18 26t12.5 22.5l8 20q4 8 9 15.5t12 9.5q6 -7 8 -11t2 -11q0 -1 -0.5 -2t-0.5 -3v-3l-80 -150q-3 -8 -14 -8q-6 0 -9 2t-6 6z" />
    <glyph glyph-name="Rcommaaccent" unicode="&#x156;" horiz-adv-x="624" 
d="M44 511v6.5t-0.5 13t-0.5 15v11.5v13t0.5 16.5t0.5 15v7.5q0 8 1.5 19.5t3 22.5t3 19t2.5 8h16v-65t1 -74.5t4 -76.5t8 -69q23 2 60 11.5t79.5 24.5t86 34t79 40.5t57.5 45t22 46.5q0 34 -26.5 55.5t-63.5 34t-75 17.5t-61 6q-12 0 -41.5 0.5t-62.5 0.5t-62 -0.5
t-41 -0.5l-10 9q35 11 73 11h74q21 0 52.5 -1t66 -5.5t69.5 -12.5t64 -22.5t49 -36t24 -51.5q3 -25 -20 -50.5t-55.5 -47t-64.5 -37.5t-47 -22q-9 -4 -31 -12.5t-47 -17.5t-47.5 -17t-31.5 -11q1 -2 4.5 -6t5.5 -5q7 -4 25 -14t38.5 -20.5t38.5 -20t26 -13.5l294 -246
q8 4 14.5 -1.5t6.5 -12.5q0 -4 -2.5 -11t-7.5 -4l-40 19q-10 9 -30.5 26.5t-46.5 40t-55 47t-55 46.5t-47 39.5t-31 26.5q-18 15 -41.5 30.5t-50 28t-53 20.5t-50.5 8q0 -86 9 -169.5t9 -170.5q0 -6 -0.5 -13t-9.5 -9l-10 10zM323 -118q0 23 -6 42.5t-6 42.5q25 0 37.5 -20
t12.5 -43q0 -12 -6.5 -42.5t-18.5 -63t-28 -57.5t-35 -25h-5.5t-4.5 1q26 38 43 78t17 87z" />
    <glyph glyph-name="Sacute" unicode="&#x15a;" horiz-adv-x="560" 
d="M15 30q4 5 14 12t16 7h107l20 -15h-88q10 -1 36.5 -2t56.5 -2t56 -1t37 1q6 0 25 2.5t41 5.5t42.5 6t29.5 5q7 2 22 7t30 12.5t26 17.5t11 22q0 9 -2 15.5t-8 13.5t-18.5 20t-25 25.5t-23 22t-12.5 11.5l-265 187q-61 43 -61 118q0 47 26.5 85.5t66.5 65.5t86.5 41.5
t86.5 14.5q32 0 64 -5.5t57.5 -20.5t41.5 -40t16 -64q0 -14 -1.5 -26.5t-19.5 -12.5q-1 0 -4.5 0.5t-5.5 0.5q2 4 5.5 15t4.5 15v2q0 1 0.5 1.5t0.5 1.5q0 31 -16 52.5t-40 35t-53 19.5t-54 6q-33 0 -73.5 -14.5t-75.5 -39t-59 -57.5t-24 -70q0 -41 18.5 -71t51.5 -53
l275 -197q7 -5 19 -15.5t23.5 -24t19.5 -27.5t8 -26q0 -28 -24 -47t-62 -32t-83.5 -20t-88.5 -10.5t-77.5 -4t-50.5 -0.5q-14 0 -32 -0.5t-36 2t-33.5 9t-24.5 20.5zM219 722q-10 11 -12.5 17t-2.5 13v4v3l117 110q2 4 8.5 2.5t12.5 -5.5q4 -2 4.5 -5.5t-10.5 -17t-38 -42
t-79 -79.5z" />
    <glyph glyph-name="Scedilla" unicode="&#x15e;" horiz-adv-x="560" 
d="M15 30q4 5 14 12t16 7h107l20 -15h-88q10 -1 36.5 -2t56.5 -2t56 -1t37 1q6 0 25 2.5t41 5.5t42.5 6t29.5 5q7 2 22 7t30 12.5t26 17.5t11 22q0 9 -2 15.5t-8 13.5t-18.5 20t-25 25.5t-23 22t-12.5 11.5l-265 187q-61 43 -61 118q0 47 26.5 85.5t66.5 65.5t86.5 41.5
t86.5 14.5q32 0 64 -5.5t57.5 -20.5t41.5 -40t16 -64q0 -14 -1.5 -26.5t-19.5 -12.5q-1 0 -4.5 0.5t-5.5 0.5q2 4 5.5 15t4.5 15v2q0 1 0.5 1.5t0.5 1.5q0 31 -16 52.5t-40 35t-53 19.5t-54 6q-33 0 -73.5 -14.5t-75.5 -39t-59 -57.5t-24 -70q0 -41 18.5 -71t51.5 -53
l275 -197q7 -5 19 -15.5t23.5 -24t19.5 -27.5t8 -26q0 -28 -24 -47t-62 -32t-83.5 -20t-88.5 -10.5t-77.5 -4t-50.5 -0.5q-14 0 -32 -0.5t-36 2t-33.5 9t-24.5 20.5zM214 -277q0 20 9 35t18.5 19.5t16 -4.5t2.5 -36q6 0 19 -1.5t27 -3t27 -3t19 -0.5q12 2 31 9t37 18.5
t31.5 27t13.5 34.5q0 22 -18.5 28t-47 6.5t-61 -0.5t-61 6t-47 27t-18.5 62q0 43 5 59.5t11.5 16.5t13.5 -12.5t11.5 -28.5t4.5 -30.5t-7 -18.5q0 -31 12.5 -45t33 -17.5t46.5 -1.5t52.5 1t52 -8t45.5 -29v-15q0 -33 -22.5 -56t-54.5 -37t-66 -20.5t-57 -6.5h-20.5t-26.5 2
t-22.5 7t-9.5 16z" />
    <glyph glyph-name="Scircumflex" unicode="&#x15c;" horiz-adv-x="560" 
d="M15 30q4 5 14 12t16 7h107l20 -15h-88q10 -1 36.5 -2t56.5 -2t56 -1t37 1q6 0 25 2.5t41 5.5t42.5 6t29.5 5q7 2 22 7t30 12.5t26 17.5t11 22q0 9 -2 15.5t-8 13.5t-18.5 20t-25 25.5t-23 22t-12.5 11.5l-265 187q-61 43 -61 118q0 47 26.5 85.5t66.5 65.5t86.5 41.5
t86.5 14.5q32 0 64 -5.5t57.5 -20.5t41.5 -40t16 -64q0 -14 -1.5 -26.5t-19.5 -12.5q-1 0 -4.5 0.5t-5.5 0.5q2 4 5.5 15t4.5 15v2q0 1 0.5 1.5t0.5 1.5q0 31 -16 52.5t-40 35t-53 19.5t-54 6q-33 0 -73.5 -14.5t-75.5 -39t-59 -57.5t-24 -70q0 -41 18.5 -71t51.5 -53
l275 -197q7 -5 19 -15.5t23.5 -24t19.5 -27.5t8 -26q0 -28 -24 -47t-62 -32t-83.5 -20t-88.5 -10.5t-77.5 -4t-50.5 -0.5q-14 0 -32 -0.5t-36 2t-33.5 9t-24.5 20.5zM315 932q5 10 15 10q12 0 15 -10l78 -158q0 -1 0.5 -4.5t0.5 -5.5q-12 -15 -25 -4.5t-25.5 32.5
t-24.5 48.5t-23 42.5q-16 -24 -26.5 -40.5t-19.5 -30.5t-17 -27.5t-19 -29.5l-21 14z" />
    <glyph glyph-name="Scommaaccent" unicode="&#x218;" horiz-adv-x="560" 
d="M15 30q4 5 14 12t16 7h107l20 -15h-88q10 -1 36.5 -2t56.5 -2t56 -1t37 1q6 0 25 2.5t41 5.5t42.5 6t29.5 5q7 2 22 7t30 12.5t26 17.5t11 22q0 9 -2 15.5t-8 13.5t-18.5 20t-25 25.5t-23 22t-12.5 11.5l-265 187q-61 43 -61 118q0 47 26.5 85.5t66.5 65.5t86.5 41.5
t86.5 14.5q32 0 64 -5.5t57.5 -20.5t41.5 -40t16 -64q0 -14 -1.5 -26.5t-19.5 -12.5q-1 0 -4.5 0.5t-5.5 0.5q2 4 5.5 15t4.5 15v2q0 1 0.5 1.5t0.5 1.5q0 31 -16 52.5t-40 35t-53 19.5t-54 6q-33 0 -73.5 -14.5t-75.5 -39t-59 -57.5t-24 -70q0 -41 18.5 -71t51.5 -53
l275 -197q7 -5 19 -15.5t23.5 -24t19.5 -27.5t8 -26q0 -28 -24 -47t-62 -32t-83.5 -20t-88.5 -10.5t-77.5 -4t-50.5 -0.5q-14 0 -32 -0.5t-36 2t-33.5 9t-24.5 20.5zM291 -118q0 23 -6 42.5t-6 42.5q25 0 37.5 -20t12.5 -43q0 -12 -6.5 -42.5t-18.5 -63t-28 -57.5t-35 -25
h-5.5t-4.5 1q26 38 43 78t17 87z" />
    <glyph glyph-name="Tbar" unicode="&#x166;" horiz-adv-x="781" 
d="M309 657q18 0 23 -11.5t7 -26.5q11 -63 12.5 -127.5t7.5 -128.5q0 -3 1.5 -14.5t3 -24.5t3.5 -24.5t2 -14.5v-10q2 -15 7.5 -52.5t11.5 -80t12 -80t8 -52.5q-6 -11 -15 -11q-1 0 -2.5 0.5t-2.5 0.5q-20 74 -32.5 154.5t-20.5 162t-13.5 161t-12.5 151.5v28zM15 629
q62 35 129.5 55.5t138 30.5t142 12.5t140.5 2.5q8 0 29 -0.5t44.5 -1t44.5 -1t29 -0.5q3 0 11 -1t17 -3.5t15.5 -7.5t6.5 -13t-8.5 -12.5t-16.5 -4.5q0 13 -12 17t-22 6q-8 0 -28.5 0.5t-43 1t-43 0.5h-28.5h-36.5t-45 -0.5t-40 -1t-20.5 -0.5q-7 -1 -26 -4t-44 -7.5
t-54 -10t-56 -10.5t-50 -9.5t-36 -7.5q-4 -1 -20 -7t-34 -12.5t-33.5 -13t-19.5 -7.5h-11q-6 0 -11.5 1t-7.5 9zM180 484q27 6 64.5 6.5t76.5 -0.5t74 -2t58 3h4q2 0 3 -0.5t3 -0.5q14 -4 18 -13.5t4 -23.5l-24 6l-210 -9q-2 -1 -12 1.5t-15 3.5q-4 1 -11.5 2.5t-14.5 4.5
t-12.5 8.5t-5.5 13.5z" />
    <glyph glyph-name="Tcaron" unicode="&#x164;" horiz-adv-x="781" 
d="M309 657q18 0 23 -11.5t7 -26.5q11 -63 12.5 -127.5t7.5 -128.5q0 -3 1.5 -14.5t3 -24.5t3.5 -24.5t2 -14.5v-10q2 -15 7.5 -52.5t11.5 -80t12 -80t8 -52.5q-6 -11 -15 -11q-1 0 -2.5 0.5t-2.5 0.5q-20 74 -32.5 154.5t-20.5 162t-13.5 161t-12.5 151.5v28zM15 629
q62 35 129.5 55.5t138 30.5t142 12.5t140.5 2.5q8 0 29 -0.5t44.5 -1t44.5 -1t29 -0.5q3 0 11 -1t17 -3.5t15.5 -7.5t6.5 -13t-8.5 -12.5t-16.5 -4.5q0 13 -12 17t-22 6q-8 0 -28.5 0.5t-43 1t-43 0.5h-28.5h-36.5t-45 -0.5t-40 -1t-20.5 -0.5q-7 -1 -26 -4t-44 -7.5
t-54 -10t-56 -10.5t-50 -9.5t-36 -7.5q-4 -1 -20 -7t-34 -12.5t-33.5 -13t-19.5 -7.5h-11q-6 0 -11.5 1t-7.5 9zM190 941l29 7q14 -21 26.5 -40t25.5 -37t27 -36t31 -37q4 10 12.5 22.5t18 26t18 26t12.5 22.5l8 20q4 8 9 15.5t12 9.5q6 -7 8 -11t2 -11q0 -1 -0.5 -2
t-0.5 -3v-3l-80 -150q-3 -8 -14 -8q-6 0 -9 2t-6 6z" />
    <glyph glyph-name="Tcommaaccent" unicode="&#x162;" horiz-adv-x="781" 
d="M309 657q18 0 23 -11.5t7 -26.5q11 -63 12.5 -127.5t7.5 -128.5q0 -3 1.5 -14.5t3 -24.5t3.5 -24.5t2 -14.5v-10q2 -15 7.5 -52.5t11.5 -80t12 -80t8 -52.5q-6 -11 -15 -11q-1 0 -2.5 0.5t-2.5 0.5q-20 74 -32.5 154.5t-20.5 162t-13.5 161t-12.5 151.5v28zM15 629
q62 35 129.5 55.5t138 30.5t142 12.5t140.5 2.5q8 0 29 -0.5t44.5 -1t44.5 -1t29 -0.5q3 0 11 -1t17 -3.5t15.5 -7.5t6.5 -13t-8.5 -12.5t-16.5 -4.5q0 13 -12 17t-22 6q-8 0 -28.5 0.5t-43 1t-43 0.5h-28.5h-36.5t-45 -0.5t-40 -1t-20.5 -0.5q-7 -1 -26 -4t-44 -7.5
t-54 -10t-56 -10.5t-50 -9.5t-36 -7.5q-4 -1 -20 -7t-34 -12.5t-33.5 -13t-19.5 -7.5h-11q-6 0 -11.5 1t-7.5 9zM401 -118q0 23 -6 42.5t-6 42.5q25 0 37.5 -20t12.5 -43q0 -12 -6.5 -42.5t-18.5 -63t-28 -57.5t-35 -25h-5.5t-4.5 1q26 38 43 78t17 87z" />
    <glyph glyph-name="Uacute" unicode="&#xda;" 
d="M29 283q0 49 5.5 98.5t11.5 98.5t11.5 98.5t5.5 99.5h16q3 0 5 -7.5t3 -17.5t1.5 -19.5t0.5 -13.5q0 -43 -5 -85t-10.5 -84.5t-10.5 -84.5t-5 -85q0 -23 0.5 -49t4 -52t11.5 -50t24 -42q6 -6 15.5 -16t19 -19.5t17 -16t8.5 -6.5h48q1 0 9.5 7.5t19.5 18.5t22 22.5
t18 19.5q46 51 80.5 122t57 149t34.5 156t15 143h2q1 0 1.5 0.5t1.5 0.5q5 0 10 -2.5t5 -7.5v-89l-69 -275q0 -1 -0.5 -8t-1 -15.5t-0.5 -17v-13.5q0 -41 7.5 -78t26 -64t49 -41t76.5 -9q-8 -14 -26.5 -17t-32.5 -3q-36 0 -59.5 17.5t-38.5 44t-24 57.5t-16 58
q-4 -8 -16 -28t-26.5 -41.5t-27 -41t-18.5 -26.5q-8 -11 -19 -23t-24.5 -22.5t-29 -17.5t-30.5 -7q-32 0 -55.5 15t-40.5 39t-28 54.5t-17.5 62t-9 61.5t-2.5 52zM234 722q-10 11 -12.5 17t-2.5 13v4v3l117 110q2 4 8.5 2.5t12.5 -5.5q4 -2 4.5 -5.5t-10.5 -17t-38 -42
t-79 -79.5z" />
    <glyph glyph-name="Ubreve" unicode="&#x16c;" 
d="M29 283q0 49 5.5 98.5t11.5 98.5t11.5 98.5t5.5 99.5h16q3 0 5 -7.5t3 -17.5t1.5 -19.5t0.5 -13.5q0 -43 -5 -85t-10.5 -84.5t-10.5 -84.5t-5 -85q0 -23 0.5 -49t4 -52t11.5 -50t24 -42q6 -6 15.5 -16t19 -19.5t17 -16t8.5 -6.5h48q1 0 9.5 7.5t19.5 18.5t22 22.5
t18 19.5q46 51 80.5 122t57 149t34.5 156t15 143h2q1 0 1.5 0.5t1.5 0.5q5 0 10 -2.5t5 -7.5v-89l-69 -275q0 -1 -0.5 -8t-1 -15.5t-0.5 -17v-13.5q0 -41 7.5 -78t26 -64t49 -41t76.5 -9q-8 -14 -26.5 -17t-32.5 -3q-36 0 -59.5 17.5t-38.5 44t-24 57.5t-16 58
q-4 -8 -16 -28t-26.5 -41.5t-27 -41t-18.5 -26.5q-8 -11 -19 -23t-24.5 -22.5t-29 -17.5t-30.5 -7q-32 0 -55.5 15t-40.5 39t-28 54.5t-17.5 62t-9 61.5t-2.5 52zM167 868l29 7q11 -50 38.5 -79.5t58.5 -33.5t60 20.5t43 83.5q12 13 18.5 5.5t1.5 -27.5q-3 -26 -18 -50
t-37 -40.5t-49 -22t-53.5 5.5t-50.5 42.5t-41 88.5z" />
    <glyph glyph-name="Ucircumflex" unicode="&#xdb;" 
d="M29 283q0 49 5.5 98.5t11.5 98.5t11.5 98.5t5.5 99.5h16q3 0 5 -7.5t3 -17.5t1.5 -19.5t0.5 -13.5q0 -43 -5 -85t-10.5 -84.5t-10.5 -84.5t-5 -85q0 -23 0.5 -49t4 -52t11.5 -50t24 -42q6 -6 15.5 -16t19 -19.5t17 -16t8.5 -6.5h48q1 0 9.5 7.5t19.5 18.5t22 22.5
t18 19.5q46 51 80.5 122t57 149t34.5 156t15 143h2q1 0 1.5 0.5t1.5 0.5q5 0 10 -2.5t5 -7.5v-89l-69 -275q0 -1 -0.5 -8t-1 -15.5t-0.5 -17v-13.5q0 -41 7.5 -78t26 -64t49 -41t76.5 -9q-8 -14 -26.5 -17t-32.5 -3q-36 0 -59.5 17.5t-38.5 44t-24 57.5t-16 58
q-4 -8 -16 -28t-26.5 -41.5t-27 -41t-18.5 -26.5q-8 -11 -19 -23t-24.5 -22.5t-29 -17.5t-30.5 -7q-32 0 -55.5 15t-40.5 39t-28 54.5t-17.5 62t-9 61.5t-2.5 52zM286 913q5 10 15 10q12 0 15 -10l78 -158q0 -1 0.5 -4.5t0.5 -5.5q-12 -15 -25 -4.5t-25.5 32.5t-24.5 48.5
t-23 42.5q-16 -24 -26.5 -40.5t-19.5 -30.5t-17 -27.5t-19 -29.5l-21 14z" />
    <glyph glyph-name="Udieresis" unicode="&#xdc;" 
d="M29 283q0 49 5.5 98.5t11.5 98.5t11.5 98.5t5.5 99.5h16q3 0 5 -7.5t3 -17.5t1.5 -19.5t0.5 -13.5q0 -43 -5 -85t-10.5 -84.5t-10.5 -84.5t-5 -85q0 -23 0.5 -49t4 -52t11.5 -50t24 -42q6 -6 15.5 -16t19 -19.5t17 -16t8.5 -6.5h48q1 0 9.5 7.5t19.5 18.5t22 22.5
t18 19.5q46 51 80.5 122t57 149t34.5 156t15 143h2q1 0 1.5 0.5t1.5 0.5q5 0 10 -2.5t5 -7.5v-89l-69 -275q0 -1 -0.5 -8t-1 -15.5t-0.5 -17v-13.5q0 -41 7.5 -78t26 -64t49 -41t76.5 -9q-8 -14 -26.5 -17t-32.5 -3q-36 0 -59.5 17.5t-38.5 44t-24 57.5t-16 58
q-4 -8 -16 -28t-26.5 -41.5t-27 -41t-18.5 -26.5q-8 -11 -19 -23t-24.5 -22.5t-29 -17.5t-30.5 -7q-32 0 -55.5 15t-40.5 39t-28 54.5t-17.5 62t-9 61.5t-2.5 52zM188 773q0 23 19.5 30.5t39.5 4.5q12 -2 16.5 -11.5t4.5 -18.5q0 -7 -4.5 -14t-11.5 -13t-14.5 -9.5
t-14.5 -3.5q-14 0 -24.5 10.5t-10.5 24.5zM320 773q0 23 19.5 30.5t40.5 4.5q12 -2 16.5 -11.5t4.5 -18.5q0 -7 -4.5 -14t-11.5 -13t-14.5 -9.5t-14.5 -3.5q-14 0 -25 10.5t-11 24.5z" />
    <glyph glyph-name="Ugrave" unicode="&#xd9;" 
d="M29 283q0 49 5.5 98.5t11.5 98.5t11.5 98.5t5.5 99.5h16q3 0 5 -7.5t3 -17.5t1.5 -19.5t0.5 -13.5q0 -43 -5 -85t-10.5 -84.5t-10.5 -84.5t-5 -85q0 -23 0.5 -49t4 -52t11.5 -50t24 -42q6 -6 15.5 -16t19 -19.5t17 -16t8.5 -6.5h48q1 0 9.5 7.5t19.5 18.5t22 22.5
t18 19.5q46 51 80.5 122t57 149t34.5 156t15 143h2q1 0 1.5 0.5t1.5 0.5q5 0 10 -2.5t5 -7.5v-89l-69 -275q0 -1 -0.5 -8t-1 -15.5t-0.5 -17v-13.5q0 -41 7.5 -78t26 -64t49 -41t76.5 -9q-8 -14 -26.5 -17t-32.5 -3q-36 0 -59.5 17.5t-38.5 44t-24 57.5t-16 58
q-4 -8 -16 -28t-26.5 -41.5t-27 -41t-18.5 -26.5q-8 -11 -19 -23t-24.5 -22.5t-29 -17.5t-30.5 -7q-32 0 -55.5 15t-40.5 39t-28 54.5t-17.5 62t-9 61.5t-2.5 52zM356 722q-52 51 -79 79.5t-38 42t-10.5 17t4.5 5.5q6 4 12.5 5.5t8.5 -2.5l117 -110v-3v-4q0 -7 -2.5 -13
t-12.5 -17z" />
    <glyph glyph-name="Uhungarumlaut" unicode="&#x170;" 
d="M29 283q0 49 5.5 98.5t11.5 98.5t11.5 98.5t5.5 99.5h16q3 0 5 -7.5t3 -17.5t1.5 -19.5t0.5 -13.5q0 -43 -5 -85t-10.5 -84.5t-10.5 -84.5t-5 -85q0 -23 0.5 -49t4 -52t11.5 -50t24 -42q6 -6 15.5 -16t19 -19.5t17 -16t8.5 -6.5h48q1 0 9.5 7.5t19.5 18.5t22 22.5
t18 19.5q46 51 80.5 122t57 149t34.5 156t15 143h2q1 0 1.5 0.5t1.5 0.5q5 0 10 -2.5t5 -7.5v-89l-69 -275q0 -1 -0.5 -8t-1 -15.5t-0.5 -17v-13.5q0 -41 7.5 -78t26 -64t49 -41t76.5 -9q-8 -14 -26.5 -17t-32.5 -3q-36 0 -59.5 17.5t-38.5 44t-24 57.5t-16 58
q-4 -8 -16 -28t-26.5 -41.5t-27 -41t-18.5 -26.5q-8 -11 -19 -23t-24.5 -22.5t-29 -17.5t-30.5 -7q-32 0 -55.5 15t-40.5 39t-28 54.5t-17.5 62t-9 61.5t-2.5 52zM173 742q-10 11 -12.5 17.5t-2.5 12.5q-1 2 0 4.5t1 3.5l116 109q2 4 8.5 3t12.5 -5q4 -2 4.5 -5.5
t-10.5 -17.5t-38 -42.5t-79 -79.5zM294 732q-11 11 -13.5 17t-2.5 13q-1 2 0 4.5t1 3.5l116 109q2 4 9 2.5t12 -4.5q4 -2 5 -5.5t-10 -17.5t-38 -42.5t-79 -79.5z" />
    <glyph glyph-name="Umacron" unicode="&#x16a;" 
d="M29 283q0 49 5.5 98.5t11.5 98.5t11.5 98.5t5.5 99.5h16q3 0 5 -7.5t3 -17.5t1.5 -19.5t0.5 -13.5q0 -43 -5 -85t-10.5 -84.5t-10.5 -84.5t-5 -85q0 -23 0.5 -49t4 -52t11.5 -50t24 -42q6 -6 15.5 -16t19 -19.5t17 -16t8.5 -6.5h48q1 0 9.5 7.5t19.5 18.5t22 22.5
t18 19.5q46 51 80.5 122t57 149t34.5 156t15 143h2q1 0 1.5 0.5t1.5 0.5q5 0 10 -2.5t5 -7.5v-89l-69 -275q0 -1 -0.5 -8t-1 -15.5t-0.5 -17v-13.5q0 -41 7.5 -78t26 -64t49 -41t76.5 -9q-8 -14 -26.5 -17t-32.5 -3q-36 0 -59.5 17.5t-38.5 44t-24 57.5t-16 58
q-4 -8 -16 -28t-26.5 -41.5t-27 -41t-18.5 -26.5q-8 -11 -19 -23t-24.5 -22.5t-29 -17.5t-30.5 -7q-32 0 -55.5 15t-40.5 39t-28 54.5t-17.5 62t-9 61.5t-2.5 52zM142 769q27 6 64.5 6.5t76.5 -0.5t74 -2t58 3h4q2 0 3 -0.5t3 -0.5q14 -4 18 -13.5t4 -23.5l-24 6l-210 -9
q-2 -1 -12 1.5t-15 3.5q-4 1 -11.5 2.5t-14.5 4.5t-12.5 8.5t-5.5 13.5z" />
    <glyph glyph-name="Uogonek" unicode="&#x172;" 
d="M29 283q0 49 5.5 98.5t11.5 98.5t11.5 98.5t5.5 99.5h16q3 0 5 -7.5t3 -17.5t1.5 -19.5t0.5 -13.5q0 -43 -5 -85t-10.5 -84.5t-10.5 -84.5t-5 -85q0 -23 0.5 -49t4 -52t11.5 -50t24 -42q6 -6 15.5 -16t19 -19.5t17 -16t8.5 -6.5h48q1 0 9.5 7.5t19.5 18.5t22 22.5
t18 19.5q46 51 80.5 122t57 149t34.5 156t15 143h2q1 0 1.5 0.5t1.5 0.5q5 0 10 -2.5t5 -7.5v-89l-69 -275q0 -1 -0.5 -8t-1 -15.5t-0.5 -17v-13.5q0 -41 7.5 -78t26 -64t49 -41t76.5 -9q-8 -14 -26.5 -17t-32.5 -3q-36 0 -59.5 17.5t-38.5 44t-24 57.5t-16 58
q-4 -8 -16 -28t-26.5 -41.5t-27 -41t-18.5 -26.5q-8 -11 -19 -23t-24.5 -22.5t-29 -17.5t-30.5 -7q-32 0 -55.5 15t-40.5 39t-28 54.5t-17.5 62t-9 61.5t-2.5 52zM543 -143q-20 1 -38.5 6t-33 14t-23 22t-8.5 28q0 37 22.5 69.5t49.5 61.5v-20q-21 -25 -31.5 -51.5
t-11.5 -49.5q0 -31 17.5 -43.5t55.5 -12.5z" />
    <glyph glyph-name="Uring" unicode="&#x16e;" 
d="M29 283q0 49 5.5 98.5t11.5 98.5t11.5 98.5t5.5 99.5h16q3 0 5 -7.5t3 -17.5t1.5 -19.5t0.5 -13.5q0 -43 -5 -85t-10.5 -84.5t-10.5 -84.5t-5 -85q0 -23 0.5 -49t4 -52t11.5 -50t24 -42q6 -6 15.5 -16t19 -19.5t17 -16t8.5 -6.5h48q1 0 9.5 7.5t19.5 18.5t22 22.5
t18 19.5q46 51 80.5 122t57 149t34.5 156t15 143h2q1 0 1.5 0.5t1.5 0.5q5 0 10 -2.5t5 -7.5v-89l-69 -275q0 -1 -0.5 -8t-1 -15.5t-0.5 -17v-13.5q0 -41 7.5 -78t26 -64t49 -41t76.5 -9q-8 -14 -26.5 -17t-32.5 -3q-36 0 -59.5 17.5t-38.5 44t-24 57.5t-16 58
q-4 -8 -16 -28t-26.5 -41.5t-27 -41t-18.5 -26.5q-8 -11 -19 -23t-24.5 -22.5t-29 -17.5t-30.5 -7q-32 0 -55.5 15t-40.5 39t-28 54.5t-17.5 62t-9 61.5t-2.5 52zM187 793q0 21 8.5 40.5t21 38t28.5 36t31 32.5v11q-13 -2 -18 -3.5t-7 -4.5t-3.5 -8t-7.5 -12h-4q-5 0 -8 4
t-3 7q0 8 6.5 16.5t15.5 12.5q3 0 13 0.5t12 0.5q46 0 80.5 -20.5t48.5 -55.5q0 -4 1 -18t1 -19q0 -23 -4 -45.5t-15 -41t-32.5 -30t-55.5 -11.5q-21 0 -40.5 5t-35 14t-24.5 22t-9 29zM216 802q0 -31 18.5 -43.5t57.5 -12.5q29 0 46.5 8.5t26.5 23t11.5 32.5t2.5 36
q0 16 -3.5 32t-12.5 29.5t-23 23.5t-35 15q-12 -10 -27 -27.5t-28.5 -38t-23 -41.5t-10.5 -37z" />
    <glyph glyph-name="Utilde" unicode="&#x168;" 
d="M29 283q0 49 5.5 98.5t11.5 98.5t11.5 98.5t5.5 99.5h16q3 0 5 -7.5t3 -17.5t1.5 -19.5t0.5 -13.5q0 -43 -5 -85t-10.5 -84.5t-10.5 -84.5t-5 -85q0 -23 0.5 -49t4 -52t11.5 -50t24 -42q6 -6 15.5 -16t19 -19.5t17 -16t8.5 -6.5h48q1 0 9.5 7.5t19.5 18.5t22 22.5
t18 19.5q46 51 80.5 122t57 149t34.5 156t15 143h2q1 0 1.5 0.5t1.5 0.5q5 0 10 -2.5t5 -7.5v-89l-69 -275q0 -1 -0.5 -8t-1 -15.5t-0.5 -17v-13.5q0 -41 7.5 -78t26 -64t49 -41t76.5 -9q-8 -14 -26.5 -17t-32.5 -3q-36 0 -59.5 17.5t-38.5 44t-24 57.5t-16 58
q-4 -8 -16 -28t-26.5 -41.5t-27 -41t-18.5 -26.5q-8 -11 -19 -23t-24.5 -22.5t-29 -17.5t-30.5 -7q-32 0 -55.5 15t-40.5 39t-28 54.5t-17.5 62t-9 61.5t-2.5 52zM342 733q-23 -1 -35 8t-19.5 22.5t-11 29.5t-9 30.5t-14.5 25t-26 13.5q-22 -1 -39 -8.5t-31 -19.5t-27 -27.5
t-26 -30.5q-7 -7 -16.5 -8.5t-21.5 -1.5q0 10 5 12t13 10q20 20 33.5 37.5t28.5 31t35.5 22.5t54.5 12q16 0 23 -5.5t19 -22.5q7 -15 10.5 -34t9.5 -35.5t17.5 -27t34.5 -7.5q16 -1 31.5 9.5t30.5 25t29.5 30.5t28.5 27.5t27 14.5t26 -8q0 -1 -0.5 -1t-0.5 -1v-1
q-46 -38 -76 -62t-49 -37.5t-28.5 -19t-14.5 -6t-7 1t-5 1.5z" />
    <glyph glyph-name="Wacute" unicode="&#x1e82;" horiz-adv-x="835" 
d="M54 560q4 14 -0.5 27.5t-11 27.5l-13 28t-6.5 28q11 0 19.5 -8t15 -19.5t10 -23.5t5.5 -21t8 -37t14 -65t17 -79.5t17 -79.5t14.5 -65t8.5 -37q1 -3 8 -23t16.5 -47l19 -54t15.5 -43q1 -2 4.5 -10t5.5 -10l9 10l129 491q0 1 3 9t7.5 17t10.5 16.5t13 7.5q1 0 1.5 -0.5
t1.5 -0.5h2q12 -8 19.5 -19.5t13 -25t9.5 -27t7 -25.5q3 -11 9.5 -35t14 -54t16.5 -63.5t16.5 -63.5l13.5 -54t9 -35q4 -12 11.5 -30.5t17.5 -36.5t22.5 -30.5t27.5 -12.5q2 0 5 0.5t4 0.5l29 49q3 4 9 20t13.5 39t16 49.5t16.5 52.5t14.5 49t9.5 37q3 12 8 38t11 59
t12.5 69t12 69t9.5 59l6 39h2q1 0 1.5 0.5t1.5 0.5q6 0 11 -5t8 -11.5t4.5 -13.5t0.5 -10q0 -3 -2.5 -8.5t-5.5 -11.5t-6.5 -11.5t-4.5 -7.5l-79 -384q0 -3 -6 -20t-13.5 -38.5t-16 -43.5t-13.5 -35q-3 -9 -8 -19.5t-11.5 -19.5t-15 -15t-19.5 -6q-17 0 -35.5 19t-35 44.5
t-28 49.5t-14.5 35l-69 266q1 4 -1.5 18.5t-7.5 30.5t-11.5 28t-13.5 12q-8 0 -10.5 -6.5t-4.5 -13.5l-128 -511q-2 -8 -7.5 -16.5t-12.5 -13.5q-11 6 -20.5 20.5t-17 30t-13 29t-7.5 18.5q-3 7 -9 24t-12.5 36t-12 35.5t-6.5 22.5q-3 13 -9.5 39.5t-14.5 60.5t-16.5 71.5
t-16 71.5t-13.5 61t-8 40zM356 722q-10 11 -12.5 17t-2.5 13v4v3l117 110q2 4 8.5 2.5t12.5 -5.5q4 -2 4.5 -5.5t-10.5 -17t-38 -42t-79 -79.5z" />
    <glyph glyph-name="Wcircumflex" unicode="&#x174;" horiz-adv-x="835" 
d="M54 560q4 14 -0.5 27.5t-11 27.5l-13 28t-6.5 28q11 0 19.5 -8t15 -19.5t10 -23.5t5.5 -21t8 -37t14 -65t17 -79.5t17 -79.5t14.5 -65t8.5 -37q1 -3 8 -23t16.5 -47l19 -54t15.5 -43q1 -2 4.5 -10t5.5 -10l9 10l129 491q0 1 3 9t7.5 17t10.5 16.5t13 7.5q1 0 1.5 -0.5
t1.5 -0.5h2q12 -8 19.5 -19.5t13 -25t9.5 -27t7 -25.5q3 -11 9.5 -35t14 -54t16.5 -63.5t16.5 -63.5l13.5 -54t9 -35q4 -12 11.5 -30.5t17.5 -36.5t22.5 -30.5t27.5 -12.5q2 0 5 0.5t4 0.5l29 49q3 4 9 20t13.5 39t16 49.5t16.5 52.5t14.5 49t9.5 37q3 12 8 38t11 59
t12.5 69t12 69t9.5 59l6 39h2q1 0 1.5 0.5t1.5 0.5q6 0 11 -5t8 -11.5t4.5 -13.5t0.5 -10q0 -3 -2.5 -8.5t-5.5 -11.5t-6.5 -11.5t-4.5 -7.5l-79 -384q0 -3 -6 -20t-13.5 -38.5t-16 -43.5t-13.5 -35q-3 -9 -8 -19.5t-11.5 -19.5t-15 -15t-19.5 -6q-17 0 -35.5 19t-35 44.5
t-28 49.5t-14.5 35l-69 266q1 4 -1.5 18.5t-7.5 30.5t-11.5 28t-13.5 12q-8 0 -10.5 -6.5t-4.5 -13.5l-128 -511q-2 -8 -7.5 -16.5t-12.5 -13.5q-11 6 -20.5 20.5t-17 30t-13 29t-7.5 18.5q-3 7 -9 24t-12.5 36t-12 35.5t-6.5 22.5q-3 13 -9.5 39.5t-14.5 60.5t-16.5 71.5
t-16 71.5t-13.5 61t-8 40zM409 913q5 10 15 10q12 0 15 -10l78 -158q0 -1 0.5 -4.5t0.5 -5.5q-12 -15 -25 -4.5t-25.5 32.5t-24.5 48.5t-23 42.5q-16 -24 -26.5 -40.5t-19.5 -30.5t-17 -27.5t-19 -29.5l-21 14z" />
    <glyph glyph-name="Wdieresis" unicode="&#x1e84;" horiz-adv-x="835" 
d="M54 560q4 14 -0.5 27.5t-11 27.5l-13 28t-6.5 28q11 0 19.5 -8t15 -19.5t10 -23.5t5.5 -21t8 -37t14 -65t17 -79.5t17 -79.5t14.5 -65t8.5 -37q1 -3 8 -23t16.5 -47l19 -54t15.5 -43q1 -2 4.5 -10t5.5 -10l9 10l129 491q0 1 3 9t7.5 17t10.5 16.5t13 7.5q1 0 1.5 -0.5
t1.5 -0.5h2q12 -8 19.5 -19.5t13 -25t9.5 -27t7 -25.5q3 -11 9.5 -35t14 -54t16.5 -63.5t16.5 -63.5l13.5 -54t9 -35q4 -12 11.5 -30.5t17.5 -36.5t22.5 -30.5t27.5 -12.5q2 0 5 0.5t4 0.5l29 49q3 4 9 20t13.5 39t16 49.5t16.5 52.5t14.5 49t9.5 37q3 12 8 38t11 59
t12.5 69t12 69t9.5 59l6 39h2q1 0 1.5 0.5t1.5 0.5q6 0 11 -5t8 -11.5t4.5 -13.5t0.5 -10q0 -3 -2.5 -8.5t-5.5 -11.5t-6.5 -11.5t-4.5 -7.5l-79 -384q0 -3 -6 -20t-13.5 -38.5t-16 -43.5t-13.5 -35q-3 -9 -8 -19.5t-11.5 -19.5t-15 -15t-19.5 -6q-17 0 -35.5 19t-35 44.5
t-28 49.5t-14.5 35l-69 266q1 4 -1.5 18.5t-7.5 30.5t-11.5 28t-13.5 12q-8 0 -10.5 -6.5t-4.5 -13.5l-128 -511q-2 -8 -7.5 -16.5t-12.5 -13.5q-11 6 -20.5 20.5t-17 30t-13 29t-7.5 18.5q-3 7 -9 24t-12.5 36t-12 35.5t-6.5 22.5q-3 13 -9.5 39.5t-14.5 60.5t-16.5 71.5
t-16 71.5t-13.5 61t-8 40zM311 773q0 23 19.5 30.5t39.5 4.5q12 -2 16.5 -11.5t4.5 -18.5q0 -7 -4.5 -14t-11.5 -13t-14.5 -9.5t-14.5 -3.5q-14 0 -24.5 10.5t-10.5 24.5zM443 773q0 23 19.5 30.5t40.5 4.5q12 -2 16.5 -11.5t4.5 -18.5q0 -7 -4.5 -14t-11.5 -13t-14.5 -9.5
t-14.5 -3.5q-14 0 -25 10.5t-11 24.5z" />
    <glyph glyph-name="Wgrave" unicode="&#x1e80;" horiz-adv-x="835" 
d="M54 560q4 14 -0.5 27.5t-11 27.5l-13 28t-6.5 28q11 0 19.5 -8t15 -19.5t10 -23.5t5.5 -21t8 -37t14 -65t17 -79.5t17 -79.5t14.5 -65t8.5 -37q1 -3 8 -23t16.5 -47l19 -54t15.5 -43q1 -2 4.5 -10t5.5 -10l9 10l129 491q0 1 3 9t7.5 17t10.5 16.5t13 7.5q1 0 1.5 -0.5
t1.5 -0.5h2q12 -8 19.5 -19.5t13 -25t9.5 -27t7 -25.5q3 -11 9.5 -35t14 -54t16.5 -63.5t16.5 -63.5l13.5 -54t9 -35q4 -12 11.5 -30.5t17.5 -36.5t22.5 -30.5t27.5 -12.5q2 0 5 0.5t4 0.5l29 49q3 4 9 20t13.5 39t16 49.5t16.5 52.5t14.5 49t9.5 37q3 12 8 38t11 59
t12.5 69t12 69t9.5 59l6 39h2q1 0 1.5 0.5t1.5 0.5q6 0 11 -5t8 -11.5t4.5 -13.5t0.5 -10q0 -3 -2.5 -8.5t-5.5 -11.5t-6.5 -11.5t-4.5 -7.5l-79 -384q0 -3 -6 -20t-13.5 -38.5t-16 -43.5t-13.5 -35q-3 -9 -8 -19.5t-11.5 -19.5t-15 -15t-19.5 -6q-17 0 -35.5 19t-35 44.5
t-28 49.5t-14.5 35l-69 266q1 4 -1.5 18.5t-7.5 30.5t-11.5 28t-13.5 12q-8 0 -10.5 -6.5t-4.5 -13.5l-128 -511q-2 -8 -7.5 -16.5t-12.5 -13.5q-11 6 -20.5 20.5t-17 30t-13 29t-7.5 18.5q-3 7 -9 24t-12.5 36t-12 35.5t-6.5 22.5q-3 13 -9.5 39.5t-14.5 60.5t-16.5 71.5
t-16 71.5t-13.5 61t-8 40zM478 722q-52 51 -79 79.5t-38 42t-10.5 17t4.5 5.5q6 4 12.5 5.5t8.5 -2.5l117 -110v-3v-4q0 -7 -2.5 -13t-12.5 -17z" />
    <glyph glyph-name="Yacute" unicode="&#xdd;" horiz-adv-x="403" 
d="M190 367q10 0 20 -6t10 -19q2 -8 5 -29.5t6.5 -49t7.5 -58.5t8 -58.5t7 -48.5t6 -29q5 -16 15 -32.5t24 -26.5q-6 -11 -15 -11q-12 0 -22.5 10t-18.5 24.5t-13.5 29.5t-8.5 25q-4 15 -7.5 40t-7 54.5t-6.5 59t-5 54t-3.5 40t-1.5 16.5v15zM5 648q1 1 4.5 1h5.5
q11 0 16 -4t13 -16l128 -217q6 -9 20.5 -22t28.5 -17q9 28 16.5 74.5t16 101t18 111.5t21.5 106.5t28 86.5t38 51l19 -20q-8 -2 -16.5 -7t-13.5 -12q-23 -63 -34 -127t-19 -128t-17 -128.5t-28 -127.5q-2 -10 -10 -10h-13q-20 0 -43 18.5t-46 47.5t-44.5 65t-39 69.5
t-30.5 61.5t-19 42zM80 727q-10 11 -12.5 17t-2.5 13v4v3l117 110q2 4 8.5 2.5t12.5 -5.5q4 -2 4.5 -5.5t-10.5 -17t-38 -42t-79 -79.5z" />
    <glyph glyph-name="Ycircumflex" unicode="&#x176;" horiz-adv-x="403" 
d="M190 367q10 0 20 -6t10 -19q2 -8 5 -29.5t6.5 -49t7.5 -58.5t8 -58.5t7 -48.5t6 -29q5 -16 15 -32.5t24 -26.5q-6 -11 -15 -11q-12 0 -22.5 10t-18.5 24.5t-13.5 29.5t-8.5 25q-4 15 -7.5 40t-7 54.5t-6.5 59t-5 54t-3.5 40t-1.5 16.5v15zM5 648q1 1 4.5 1h5.5
q11 0 16 -4t13 -16l128 -217q6 -9 20.5 -22t28.5 -17q9 28 16.5 74.5t16 101t18 111.5t21.5 106.5t28 86.5t38 51l19 -20q-8 -2 -16.5 -7t-13.5 -12q-23 -63 -34 -127t-19 -128t-17 -128.5t-28 -127.5q-2 -10 -10 -10h-13q-20 0 -43 18.5t-46 47.5t-44.5 65t-39 69.5
t-30.5 61.5t-19 42zM133 944q5 10 15 10q12 0 15 -10l78 -158q0 -1 0.5 -4.5t0.5 -5.5q-12 -15 -25 -4.5t-25.5 32.5t-24.5 48.5t-23 42.5q-16 -24 -26.5 -40.5t-19.5 -30.5t-17 -27.5t-19 -29.5l-21 14z" />
    <glyph glyph-name="Ygrave" unicode="&#x1ef2;" horiz-adv-x="403" 
d="M190 367q10 0 20 -6t10 -19q2 -8 5 -29.5t6.5 -49t7.5 -58.5t8 -58.5t7 -48.5t6 -29q5 -16 15 -32.5t24 -26.5q-6 -11 -15 -11q-12 0 -22.5 10t-18.5 24.5t-13.5 29.5t-8.5 25q-4 15 -7.5 40t-7 54.5t-6.5 59t-5 54t-3.5 40t-1.5 16.5v15zM5 648q1 1 4.5 1h5.5
q11 0 16 -4t13 -16l128 -217q6 -9 20.5 -22t28.5 -17q9 28 16.5 74.5t16 101t18 111.5t21.5 106.5t28 86.5t38 51l19 -20q-8 -2 -16.5 -7t-13.5 -12q-23 -63 -34 -127t-19 -128t-17 -128.5t-28 -127.5q-2 -10 -10 -10h-13q-20 0 -43 18.5t-46 47.5t-44.5 65t-39 69.5
t-30.5 61.5t-19 42zM183 725q-52 51 -79 79.5t-38 42t-10.5 17t4.5 5.5q6 4 12.5 5.5t8.5 -2.5l117 -110v-3v-4q0 -7 -2.5 -13t-12.5 -17z" />
    <glyph glyph-name="Zacute" unicode="&#x179;" horiz-adv-x="668" 
d="M295 323q-25 0 -49.5 -5t-49 -10.5t-49 -10.5t-49.5 -5v23q10 2 35 7.5t53.5 11.5t53.5 12t35 8q23 5 36.5 16t22.5 33q6 16 17 44l22 56t19.5 50.5t10.5 26.5q8 23 14 46t6 47q0 17 -8 23.5t-22 11.5h-10.5t-16.5 0.5t-16.5 0.5h-10.5q-79 0 -149 -21t-141 -59
q-1 0 -4.5 -0.5t-5.5 -0.5q-7 0 -12 1.5t-7 9.5q40 21 79 39t78.5 31.5t81 21t86.5 7.5q19 0 38 -2t34.5 -9t25.5 -21t10 -38q0 -4 -0.5 -11t-0.5 -9l-89 -255v-9q34 0 67 6t66 13.5t66 13.5t67 6h19q-5 -11 -18 -14.5t-21 -5.5t-41.5 -9t-71.5 -15.5t-71.5 -15.5t-41.5 -9
q-27 -6 -45 -26t-29 -48.5t-17 -62t-8.5 -66t-2.5 -62.5v-50h33q8 3 25 9.5t38 14.5t45 16.5t45 16.5t38 13.5t25 8.5q3 1 15.5 3.5t28 5.5l31 6t24.5 4q1 0 4 0.5t5 0.5t5.5 -0.5t4.5 -0.5l-19 -19l-11.5 -4t-27.5 -8.5t-32.5 -9.5t-27.5 -8h-9q-35 -15 -69.5 -31t-70 -29
t-71.5 -21.5t-74 -8.5q0 161 59 317v8zM221 769q-10 11 -12.5 17t-2.5 13v4v3l117 110q2 4 8.5 2.5t12.5 -5.5q4 -2 4.5 -5.5t-10.5 -17t-38 -42t-79 -79.5z" />
    <glyph glyph-name="Zdotaccent" unicode="&#x17b;" horiz-adv-x="668" 
d="M295 323q-25 0 -49.5 -5t-49 -10.5t-49 -10.5t-49.5 -5v23q10 2 35 7.5t53.5 11.5t53.5 12t35 8q23 5 36.5 16t22.5 33q6 16 17 44l22 56t19.5 50.5t10.5 26.5q8 23 14 46t6 47q0 17 -8 23.5t-22 11.5h-10.5t-16.5 0.5t-16.5 0.5h-10.5q-79 0 -149 -21t-141 -59
q-1 0 -4.5 -0.5t-5.5 -0.5q-7 0 -12 1.5t-7 9.5q40 21 79 39t78.5 31.5t81 21t86.5 7.5q19 0 38 -2t34.5 -9t25.5 -21t10 -38q0 -4 -0.5 -11t-0.5 -9l-89 -255v-9q34 0 67 6t66 13.5t66 13.5t67 6h19q-5 -11 -18 -14.5t-21 -5.5t-41.5 -9t-71.5 -15.5t-71.5 -15.5t-41.5 -9
q-27 -6 -45 -26t-29 -48.5t-17 -62t-8.5 -66t-2.5 -62.5v-50h33q8 3 25 9.5t38 14.5t45 16.5t45 16.5t38 13.5t25 8.5q3 1 15.5 3.5t28 5.5l31 6t24.5 4q1 0 4 0.5t5 0.5t5.5 -0.5t4.5 -0.5l-19 -19l-11.5 -4t-27.5 -8.5t-32.5 -9.5t-27.5 -8h-9q-35 -15 -69.5 -31t-70 -29
t-71.5 -21.5t-74 -8.5q0 161 59 317v8zM168 826q0 23 19.5 30t40.5 4q12 -2 16.5 -11.5t4.5 -18.5q0 -14 -15.5 -27t-29.5 -13t-25 11t-11 25z" />
    <glyph glyph-name="aacute" unicode="&#xe1;" horiz-adv-x="503" 
d="M23 59q0 19 8.5 53t23 74.5t35 82.5t44 76t49 56t51.5 22q18 0 27.5 -5.5t13.5 -15t4.5 -23t0.5 -29.5q0 -29 -5 -57.5t-5 -57.5q-11 -41 -11 -76t13 -61.5t39 -42t67 -16.5q43 4 89 27t78 52q0 -2 1 -5.5t1 -4.5q0 -22 -22 -38.5t-51.5 -28t-59.5 -17t-46 -5.5
q-6 0 -16.5 -0.5t-22 0.5t-22 3t-17.5 8q-5 3 -15 12.5t-21 20.5t-20.5 21t-12.5 14q-12 -13 -28 -30t-34.5 -32.5t-39 -26t-41.5 -10.5q-27 0 -41 17t-14 43zM54 63q0 -8 7 -21t17 -13q29 0 54 18.5t45.5 48.5t36 66.5t26 73t16 68t5.5 50.5t-4.5 30t-26.5 11
q-21 0 -42 -19.5t-41 -51t-36.5 -69.5t-29.5 -75t-20 -68.5t-7 -48.5zM190 555q-10 11 -12.5 17t-2.5 13v4v3l117 110q2 4 8.5 2.5t12.5 -5.5q4 -2 4.5 -5.5t-10.5 -17t-38 -42t-79 -79.5z" />
    <glyph glyph-name="abreve" unicode="&#x103;" horiz-adv-x="503" 
d="M23 59q0 19 8.5 53t23 74.5t35 82.5t44 76t49 56t51.5 22q18 0 27.5 -5.5t13.5 -15t4.5 -23t0.5 -29.5q0 -29 -5 -57.5t-5 -57.5q-11 -41 -11 -76t13 -61.5t39 -42t67 -16.5q43 4 89 27t78 52q0 -2 1 -5.5t1 -4.5q0 -22 -22 -38.5t-51.5 -28t-59.5 -17t-46 -5.5
q-6 0 -16.5 -0.5t-22 0.5t-22 3t-17.5 8q-5 3 -15 12.5t-21 20.5t-20.5 21t-12.5 14q-12 -13 -28 -30t-34.5 -32.5t-39 -26t-41.5 -10.5q-27 0 -41 17t-14 43zM54 63q0 -8 7 -21t17 -13q29 0 54 18.5t45.5 48.5t36 66.5t26 73t16 68t5.5 50.5t-4.5 30t-26.5 11
q-21 0 -42 -19.5t-41 -51t-36.5 -69.5t-29.5 -75t-20 -68.5t-7 -48.5zM124 701l29 7q11 -50 38.5 -79.5t58.5 -33.5t60 20.5t43 83.5q12 13 18.5 5.5t1.5 -27.5q-3 -26 -18 -50t-37 -40.5t-49 -22t-53.5 5.5t-50.5 42.5t-41 88.5z" />
    <glyph glyph-name="acircumflex" unicode="&#xe2;" horiz-adv-x="503" 
d="M23 59q0 19 8.5 53t23 74.5t35 82.5t44 76t49 56t51.5 22q18 0 27.5 -5.5t13.5 -15t4.5 -23t0.5 -29.5q0 -29 -5 -57.5t-5 -57.5q-11 -41 -11 -76t13 -61.5t39 -42t67 -16.5q43 4 89 27t78 52q0 -2 1 -5.5t1 -4.5q0 -22 -22 -38.5t-51.5 -28t-59.5 -17t-46 -5.5
q-6 0 -16.5 -0.5t-22 0.5t-22 3t-17.5 8q-5 3 -15 12.5t-21 20.5t-20.5 21t-12.5 14q-12 -13 -28 -30t-34.5 -32.5t-39 -26t-41.5 -10.5q-27 0 -41 17t-14 43zM54 63q0 -8 7 -21t17 -13q29 0 54 18.5t45.5 48.5t36 66.5t26 73t16 68t5.5 50.5t-4.5 30t-26.5 11
q-21 0 -42 -19.5t-41 -51t-36.5 -69.5t-29.5 -75t-20 -68.5t-7 -48.5zM243 746q5 10 15 10q12 0 15 -10l78 -158q0 -1 0.5 -4.5t0.5 -5.5q-12 -15 -25 -4.5t-25.5 32.5t-24.5 48.5t-23 42.5q-16 -24 -26.5 -40.5t-19.5 -30.5t-17 -27.5t-19 -29.5l-21 14z" />
    <glyph glyph-name="adieresis" unicode="&#xe4;" horiz-adv-x="503" 
d="M23 59q0 19 8.5 53t23 74.5t35 82.5t44 76t49 56t51.5 22q18 0 27.5 -5.5t13.5 -15t4.5 -23t0.5 -29.5q0 -29 -5 -57.5t-5 -57.5q-11 -41 -11 -76t13 -61.5t39 -42t67 -16.5q43 4 89 27t78 52q0 -2 1 -5.5t1 -4.5q0 -22 -22 -38.5t-51.5 -28t-59.5 -17t-46 -5.5
q-6 0 -16.5 -0.5t-22 0.5t-22 3t-17.5 8q-5 3 -15 12.5t-21 20.5t-20.5 21t-12.5 14q-12 -13 -28 -30t-34.5 -32.5t-39 -26t-41.5 -10.5q-27 0 -41 17t-14 43zM54 63q0 -8 7 -21t17 -13q29 0 54 18.5t45.5 48.5t36 66.5t26 73t16 68t5.5 50.5t-4.5 30t-26.5 11
q-21 0 -42 -19.5t-41 -51t-36.5 -69.5t-29.5 -75t-20 -68.5t-7 -48.5zM145 606q0 23 19.5 30.5t39.5 4.5q12 -2 16.5 -11.5t4.5 -18.5q0 -7 -4.5 -14t-11.5 -13t-14.5 -9.5t-14.5 -3.5q-14 0 -24.5 10.5t-10.5 24.5zM277 606q0 23 19.5 30.5t40.5 4.5q12 -2 16.5 -11.5
t4.5 -18.5q0 -7 -4.5 -14t-11.5 -13t-14.5 -9.5t-14.5 -3.5q-14 0 -25 10.5t-11 24.5z" />
    <glyph glyph-name="agrave" unicode="&#xe0;" horiz-adv-x="503" 
d="M23 59q0 19 8.5 53t23 74.5t35 82.5t44 76t49 56t51.5 22q18 0 27.5 -5.5t13.5 -15t4.5 -23t0.5 -29.5q0 -29 -5 -57.5t-5 -57.5q-11 -41 -11 -76t13 -61.5t39 -42t67 -16.5q43 4 89 27t78 52q0 -2 1 -5.5t1 -4.5q0 -22 -22 -38.5t-51.5 -28t-59.5 -17t-46 -5.5
q-6 0 -16.5 -0.5t-22 0.5t-22 3t-17.5 8q-5 3 -15 12.5t-21 20.5t-20.5 21t-12.5 14q-12 -13 -28 -30t-34.5 -32.5t-39 -26t-41.5 -10.5q-27 0 -41 17t-14 43zM54 63q0 -8 7 -21t17 -13q29 0 54 18.5t45.5 48.5t36 66.5t26 73t16 68t5.5 50.5t-4.5 30t-26.5 11
q-21 0 -42 -19.5t-41 -51t-36.5 -69.5t-29.5 -75t-20 -68.5t-7 -48.5zM312 555q-52 51 -79 79.5t-38 42t-10.5 17t4.5 5.5q6 4 12.5 5.5t8.5 -2.5l117 -110v-3v-4q0 -7 -2.5 -13t-12.5 -17z" />
    <glyph glyph-name="amacron" unicode="&#x101;" horiz-adv-x="503" 
d="M23 59q0 19 8.5 53t23 74.5t35 82.5t44 76t49 56t51.5 22q18 0 27.5 -5.5t13.5 -15t4.5 -23t0.5 -29.5q0 -29 -5 -57.5t-5 -57.5q-11 -41 -11 -76t13 -61.5t39 -42t67 -16.5q43 4 89 27t78 52q0 -2 1 -5.5t1 -4.5q0 -22 -22 -38.5t-51.5 -28t-59.5 -17t-46 -5.5
q-6 0 -16.5 -0.5t-22 0.5t-22 3t-17.5 8q-5 3 -15 12.5t-21 20.5t-20.5 21t-12.5 14q-12 -13 -28 -30t-34.5 -32.5t-39 -26t-41.5 -10.5q-27 0 -41 17t-14 43zM54 63q0 -8 7 -21t17 -13q29 0 54 18.5t45.5 48.5t36 66.5t26 73t16 68t5.5 50.5t-4.5 30t-26.5 11
q-21 0 -42 -19.5t-41 -51t-36.5 -69.5t-29.5 -75t-20 -68.5t-7 -48.5zM99 602q27 6 64.5 6.5t76.5 -0.5t74 -2t58 3h4q2 0 3 -0.5t3 -0.5q14 -4 18 -13.5t4 -23.5l-24 6l-210 -9q-2 -1 -12 1.5t-15 3.5q-4 1 -11.5 2.5t-14.5 4.5t-12.5 8.5t-5.5 13.5z" />
    <glyph glyph-name="aogonek" unicode="&#x105;" horiz-adv-x="503" 
d="M23 59q0 19 8.5 53t23 74.5t35 82.5t44 76t49 56t51.5 22q18 0 27.5 -5.5t13.5 -15t4.5 -23t0.5 -29.5q0 -29 -5 -57.5t-5 -57.5q-11 -41 -11 -76t13 -61.5t39 -42t67 -16.5q43 4 89 27t78 52q0 -2 1 -5.5t1 -4.5q0 -22 -22 -38.5t-51.5 -28t-59.5 -17t-46 -5.5
q-6 0 -16.5 -0.5t-22 0.5t-22 3t-17.5 8q-5 3 -15 12.5t-21 20.5t-20.5 21t-12.5 14q-12 -13 -28 -30t-34.5 -32.5t-39 -26t-41.5 -10.5q-27 0 -41 17t-14 43zM54 63q0 -8 7 -21t17 -13q29 0 54 18.5t45.5 48.5t36 66.5t26 73t16 68t5.5 50.5t-4.5 30t-26.5 11
q-21 0 -42 -19.5t-41 -51t-36.5 -69.5t-29.5 -75t-20 -68.5t-7 -48.5zM378 -158q-20 1 -38.5 6t-33 14t-23 22t-8.5 28q0 37 22.5 69.5t49.5 61.5v-20q-21 -25 -31.5 -51.5t-11.5 -49.5q0 -31 17.5 -43.5t55.5 -12.5z" />
    <glyph glyph-name="aring" unicode="&#xe5;" horiz-adv-x="503" 
d="M23 59q0 19 8.5 53t23 74.5t35 82.5t44 76t49 56t51.5 22q18 0 27.5 -5.5t13.5 -15t4.5 -23t0.5 -29.5q0 -29 -5 -57.5t-5 -57.5q-11 -41 -11 -76t13 -61.5t39 -42t67 -16.5q43 4 89 27t78 52q0 -2 1 -5.5t1 -4.5q0 -22 -22 -38.5t-51.5 -28t-59.5 -17t-46 -5.5
q-6 0 -16.5 -0.5t-22 0.5t-22 3t-17.5 8q-5 3 -15 12.5t-21 20.5t-20.5 21t-12.5 14q-12 -13 -28 -30t-34.5 -32.5t-39 -26t-41.5 -10.5q-27 0 -41 17t-14 43zM54 63q0 -8 7 -21t17 -13q29 0 54 18.5t45.5 48.5t36 66.5t26 73t16 68t5.5 50.5t-4.5 30t-26.5 11
q-21 0 -42 -19.5t-41 -51t-36.5 -69.5t-29.5 -75t-20 -68.5t-7 -48.5zM143 626q0 21 8.5 40.5t21 38t28.5 36t31 32.5v11q-13 -2 -18 -3.5t-7 -4.5t-3.5 -8t-7.5 -12h-4q-5 0 -8 4t-3 7q0 8 6.5 16.5t15.5 12.5q3 0 13 0.5t12 0.5q46 0 80.5 -20.5t48.5 -55.5q0 -4 1 -18
t1 -19q0 -23 -4 -45.5t-15 -41t-32.5 -30t-55.5 -11.5q-21 0 -40.5 5t-35 14t-24.5 22t-9 29zM172 635q0 -31 18.5 -43.5t57.5 -12.5q29 0 46.5 8.5t26.5 23t11.5 32.5t2.5 36q0 16 -3.5 32t-12.5 29.5t-23 23.5t-35 15q-12 -10 -27 -27.5t-28.5 -38t-23 -41.5t-10.5 -37z
" />
    <glyph glyph-name="atilde" unicode="&#xe3;" horiz-adv-x="503" 
d="M23 59q0 19 8.5 53t23 74.5t35 82.5t44 76t49 56t51.5 22q18 0 27.5 -5.5t13.5 -15t4.5 -23t0.5 -29.5q0 -29 -5 -57.5t-5 -57.5q-11 -41 -11 -76t13 -61.5t39 -42t67 -16.5q43 4 89 27t78 52q0 -2 1 -5.5t1 -4.5q0 -22 -22 -38.5t-51.5 -28t-59.5 -17t-46 -5.5
q-6 0 -16.5 -0.5t-22 0.5t-22 3t-17.5 8q-5 3 -15 12.5t-21 20.5t-20.5 21t-12.5 14q-12 -13 -28 -30t-34.5 -32.5t-39 -26t-41.5 -10.5q-27 0 -41 17t-14 43zM54 63q0 -8 7 -21t17 -13q29 0 54 18.5t45.5 48.5t36 66.5t26 73t16 68t5.5 50.5t-4.5 30t-26.5 11
q-21 0 -42 -19.5t-41 -51t-36.5 -69.5t-29.5 -75t-20 -68.5t-7 -48.5zM300 566q-23 -1 -35 8t-19.5 22.5t-11 29.5t-9 30.5t-14.5 25t-26 13.5q-22 -1 -39 -8.5t-31 -19.5t-27 -27.5t-26 -30.5q-7 -7 -16.5 -8.5t-21.5 -1.5q0 10 5 12t13 10q20 20 33.5 37.5t28.5 31
t35.5 22.5t54.5 12q16 0 23 -5.5t19 -22.5q7 -15 10.5 -34t9.5 -35.5t17.5 -27t34.5 -7.5q16 -1 31.5 9.5t30.5 25t29.5 30.5t28.5 27.5t27 14.5t26 -8q0 -1 -0.5 -1t-0.5 -1v-1q-46 -38 -76 -62t-49 -37.5t-28.5 -19t-14.5 -6t-7 1t-5 1.5z" />
    <glyph glyph-name="ae" unicode="&#xe6;" horiz-adv-x="538" 
d="M23 59q0 19 8.5 53t23 74.5t35 82.5t44 76t49 56t51.5 22t34.5 -10.5t10.5 -28.5q6 12 16.5 27t23.5 28.5t28 22.5t29 9q9 0 27 -5.5t36 -14t31 -18.5t13 -18q4 -36 -11 -61.5t-39.5 -44.5t-53.5 -34.5t-53 -33.5q-13 -15 -24.5 -22.5t-20.5 -14.5t-14 -16.5t-5 -29.5
q0 -35 12 -65q21 -46 58 -61.5t77 -8t77 33t59 61.5q0 -2 1 -5.5t1 -4.5q0 -9 -4 -17t-4 -17q0 -18 -19 -33.5t-44.5 -26.5t-51 -17.5t-38.5 -6.5q-35 0 -60.5 12.5t-43.5 34.5q-7 6 -16.5 15t-18.5 18t-16 16.5t-10 11.5q-12 -13 -28 -30t-34.5 -32.5t-39 -26t-41.5 -10.5
q-27 0 -41 17t-14 43zM54 63q0 -8 7 -21t17 -13q29 0 53 16.5t43 43.5t33.5 61.5t25 70t17.5 69t11 59.5v5q0 19 -4.5 30t-26.5 11q-21 0 -42 -19.5t-41 -51t-36.5 -69.5t-29.5 -75t-20 -68.5t-7 -48.5zM383 442q-20 0 -37.5 -13.5t-31.5 -34.5t-23.5 -45.5t-14.5 -46.5
q-1 -8 -2 -16.5t-2 -16.5v-3v-30q28 21 60.5 38t60 36.5t45.5 43.5t18 59q0 6 -9 11.5t-21 9t-24.5 6t-18.5 2.5z" />
    <glyph glyph-name="aeacute" unicode="&#x1fd;" horiz-adv-x="538" 
d="M23 59q0 19 8.5 53t23 74.5t35 82.5t44 76t49 56t51.5 22t34.5 -10.5t10.5 -28.5q6 12 16.5 27t23.5 28.5t28 22.5t29 9q9 0 27 -5.5t36 -14t31 -18.5t13 -18q4 -36 -11 -61.5t-39.5 -44.5t-53.5 -34.5t-53 -33.5q-13 -15 -24.5 -22.5t-20.5 -14.5t-14 -16.5t-5 -29.5
q0 -35 12 -65q21 -46 58 -61.5t77 -8t77 33t59 61.5q0 -2 1 -5.5t1 -4.5q0 -9 -4 -17t-4 -17q0 -18 -19 -33.5t-44.5 -26.5t-51 -17.5t-38.5 -6.5q-35 0 -60.5 12.5t-43.5 34.5q-7 6 -16.5 15t-18.5 18t-16 16.5t-10 11.5q-12 -13 -28 -30t-34.5 -32.5t-39 -26t-41.5 -10.5
q-27 0 -41 17t-14 43zM54 63q0 -8 7 -21t17 -13q29 0 53 16.5t43 43.5t33.5 61.5t25 70t17.5 69t11 59.5v5q0 19 -4.5 30t-26.5 11q-21 0 -42 -19.5t-41 -51t-36.5 -69.5t-29.5 -75t-20 -68.5t-7 -48.5zM383 442q-20 0 -37.5 -13.5t-31.5 -34.5t-23.5 -45.5t-14.5 -46.5
q-1 -8 -2 -16.5t-2 -16.5v-3v-30q28 21 60.5 38t60 36.5t45.5 43.5t18 59q0 6 -9 11.5t-21 9t-24.5 6t-18.5 2.5zM263 471q-10 11 -12.5 17t-2.5 13v4v3l117 110q2 4 8.5 2.5t12.5 -5.5q4 -2 4.5 -5.5t-10.5 -17t-38 -42t-79 -79.5z" />
    <glyph glyph-name="cacute" unicode="&#x107;" horiz-adv-x="438" 
d="M23 137q0 23 7 52.5t19.5 60t30.5 60t40 52t47.5 36.5t53.5 14q13 0 25.5 -5t22.5 -13.5t16 -20.5t6 -25q0 -8 -4 -17t-15 -9q0 8 -3 19t-8 20.5t-13 16t-17 6.5q-41 0 -74 -27t-56 -66t-35 -82t-12 -76q0 -29 11.5 -49t30 -32.5t42 -18t47.5 -5.5q36 0 71 7.5t69.5 20.5
t67 29t63.5 33q0 -1 0.5 -2.5t0.5 -2.5q0 -10 -16.5 -22.5t-43 -25t-58 -24.5t-61.5 -21.5t-54.5 -15t-36.5 -5.5q-29 0 -58.5 9t-53 27t-38 43.5t-14.5 58.5zM158 555q-10 11 -12.5 17t-2.5 13v4v3l117 110q2 4 8.5 2.5t12.5 -5.5q4 -2 4.5 -5.5t-10.5 -17t-38 -42
t-79 -79.5z" />
    <glyph glyph-name="ccaron" unicode="&#x10d;" horiz-adv-x="438" 
d="M23 137q0 23 7 52.5t19.5 60t30.5 60t40 52t47.5 36.5t53.5 14q13 0 25.5 -5t22.5 -13.5t16 -20.5t6 -25q0 -8 -4 -17t-15 -9q0 8 -3 19t-8 20.5t-13 16t-17 6.5q-41 0 -74 -27t-56 -66t-35 -82t-12 -76q0 -29 11.5 -49t30 -32.5t42 -18t47.5 -5.5q36 0 71 7.5t69.5 20.5
t67 29t63.5 33q0 -1 0.5 -2.5t0.5 -2.5q0 -10 -16.5 -22.5t-43 -25t-58 -24.5t-61.5 -21.5t-54.5 -15t-36.5 -5.5q-29 0 -58.5 9t-53 27t-38 43.5t-14.5 58.5zM99 746l29 7q14 -21 26.5 -40t25.5 -37t27 -36t31 -37q4 10 12.5 22.5t18 26t18 26t12.5 22.5l8 20q4 8 9 15.5
t12 9.5q6 -7 8 -11t2 -11q0 -1 -0.5 -2t-0.5 -3v-3l-80 -150q-3 -8 -14 -8q-6 0 -9 2t-6 6z" />
    <glyph glyph-name="ccedilla" unicode="&#xe7;" horiz-adv-x="438" 
d="M23 137q0 23 7 52.5t19.5 60t30.5 60t40 52t47.5 36.5t53.5 14q13 0 25.5 -5t22.5 -13.5t16 -20.5t6 -25q0 -8 -4 -17t-15 -9q0 8 -3 19t-8 20.5t-13 16t-17 6.5q-41 0 -74 -27t-56 -66t-35 -82t-12 -76q0 -29 11.5 -49t30 -32.5t42 -18t47.5 -5.5q36 0 71 7.5t69.5 20.5
t67 29t63.5 33q0 -1 0.5 -2.5t0.5 -2.5q0 -10 -16.5 -22.5t-43 -25t-58 -24.5t-61.5 -21.5t-54.5 -15t-36.5 -5.5q-29 0 -58.5 9t-53 27t-38 43.5t-14.5 58.5zM133 -271q0 20 9 35t18.5 19.5t16 -4.5t2.5 -36q6 0 19 -1.5t27 -3t27 -3t19 -0.5q12 2 31 9t37 18.5t31.5 27
t13.5 34.5q0 22 -18.5 28t-47 6.5t-61 -0.5t-61 6t-47 27t-18.5 62q0 43 5 59.5t11.5 16.5t13.5 -12.5t11.5 -28.5t4.5 -30.5t-7 -18.5q0 -31 12.5 -45t33 -17.5t46.5 -1.5t52.5 1t52 -8t45.5 -29v-15q0 -33 -22.5 -56t-54.5 -37t-66 -20.5t-57 -6.5h-20.5t-26.5 2t-22.5 7
t-9.5 16z" />
    <glyph glyph-name="ccircumflex" unicode="&#x109;" horiz-adv-x="438" 
d="M23 137q0 23 7 52.5t19.5 60t30.5 60t40 52t47.5 36.5t53.5 14q13 0 25.5 -5t22.5 -13.5t16 -20.5t6 -25q0 -8 -4 -17t-15 -9q0 8 -3 19t-8 20.5t-13 16t-17 6.5q-41 0 -74 -27t-56 -66t-35 -82t-12 -76q0 -29 11.5 -49t30 -32.5t42 -18t47.5 -5.5q36 0 71 7.5t69.5 20.5
t67 29t63.5 33q0 -1 0.5 -2.5t0.5 -2.5q0 -10 -16.5 -22.5t-43 -25t-58 -24.5t-61.5 -21.5t-54.5 -15t-36.5 -5.5q-29 0 -58.5 9t-53 27t-38 43.5t-14.5 58.5zM210 746q5 10 15 10q12 0 15 -10l78 -158q0 -1 0.5 -4.5t0.5 -5.5q-12 -15 -25 -4.5t-25.5 32.5t-24.5 48.5
t-23 42.5q-16 -24 -26.5 -40.5t-19.5 -30.5t-17 -27.5t-19 -29.5l-21 14z" />
    <glyph glyph-name="cdotaccent" unicode="&#x10b;" horiz-adv-x="438" 
d="M23 137q0 23 7 52.5t19.5 60t30.5 60t40 52t47.5 36.5t53.5 14q13 0 25.5 -5t22.5 -13.5t16 -20.5t6 -25q0 -8 -4 -17t-15 -9q0 8 -3 19t-8 20.5t-13 16t-17 6.5q-41 0 -74 -27t-56 -66t-35 -82t-12 -76q0 -29 11.5 -49t30 -32.5t42 -18t47.5 -5.5q36 0 71 7.5t69.5 20.5
t67 29t63.5 33q0 -1 0.5 -2.5t0.5 -2.5q0 -10 -16.5 -22.5t-43 -25t-58 -24.5t-61.5 -21.5t-54.5 -15t-36.5 -5.5q-29 0 -58.5 9t-53 27t-38 43.5t-14.5 58.5zM178 599q0 23 19.5 30t40.5 4q12 -2 16.5 -11.5t4.5 -18.5q0 -14 -15.5 -27t-29.5 -13t-25 11t-11 25z" />
    <glyph glyph-name="dcaron" unicode="&#x10f;" horiz-adv-x="563" 
d="M266 366q21 0 34 -9.5t19.5 -24t8.5 -32t2 -34.5v-40q-1 -6 -2.5 -16t-3 -19.5t-3 -16.5l-1.5 -7h-7q0 14 0.5 36.5t-1 46.5t-6.5 46.5t-16 37.5q-2 0 -11.5 0.5t-12.5 0.5q-33 0 -71.5 -29t-72.5 -69.5t-56.5 -83t-22.5 -69.5q0 -17 8 -30t22 -24q3 0 8.5 -0.5t12 -0.5
t12 -0.5t7.5 -0.5q23 0 40.5 3t32.5 10.5t30 18.5t35 28q13 12 29 27.5t32 32t31 34t26 34.5q5 8 11 44t12.5 85t14.5 104.5t18.5 102t24 77t31.5 30.5q15 0 22.5 -12t10.5 -27.5t3 -31v-21.5q0 -39 -9.5 -78.5t-23.5 -78t-32 -75t-34 -69.5q0 -3 -0.5 -9t-1 -13.5
t-0.5 -13.5v-9q0 -47 12 -80t35.5 -54.5t56.5 -32.5t75 -15q-16 -9 -32 -10t-33 -1q-33 0 -57.5 15.5t-42.5 40.5t-30.5 54.5t-21.5 58.5q-32 -27 -60.5 -61.5t-59 -64.5t-67 -51t-84.5 -21q-8 0 -21.5 2.5t-27 7.5t-23.5 12.5t-10 17.5v89q0 2 10 17.5t24 36t29 41t25 32.5
q12 15 29 34t37 36.5t42 29t45 11.5zM489 630q-1 0 -2 -1q-11 -11 -19.5 -28.5t-14.5 -36.5t-10 -36t-6 -26q0 -3 -3.5 -27t-8 -55.5t-9.5 -63.5t-8 -51v-5v-5q2 1 5 4.5t5 5.5l32 62t29 63.5t20.5 67t7.5 70.5q0 1 0.5 10.5t-0.5 21t-4.5 21t-11.5 9.5h-2zM536 654
q14 0 20 -9.5t8 -22.5t1.5 -26.5t-0.5 -21.5q0 -21 -0.5 -39t-1.5 -35t-3 -36.5t-5 -43.5q-5 3 -12 13.5t-7 15.5v205v0z" />
    <glyph glyph-name="dcroat" unicode="&#x111;" horiz-adv-x="563" 
d="M266 366q21 0 34 -9.5t19.5 -24t8.5 -32t2 -34.5v-40q-1 -6 -2.5 -16t-3 -19.5t-3 -16.5l-1.5 -7h-7q0 14 0.5 36.5t-1 46.5t-6.5 46.5t-16 37.5q-2 0 -11.5 0.5t-12.5 0.5q-33 0 -71.5 -29t-72.5 -69.5t-56.5 -83t-22.5 -69.5q0 -17 8 -30t22 -24q3 0 8.5 -0.5t12 -0.5
t12 -0.5t7.5 -0.5q23 0 40.5 3t32.5 10.5t30 18.5t35 28q13 12 29 27.5t32 32t31 34t26 34.5q5 8 11 44t12.5 85t14.5 104.5t18.5 102t24 77t31.5 30.5q15 0 22.5 -12t10.5 -27.5t3 -31v-21.5q0 -39 -9.5 -78.5t-23.5 -78t-32 -75t-34 -69.5q0 -3 -0.5 -9t-1 -13.5
t-0.5 -13.5v-9q0 -47 12 -80t35.5 -54.5t56.5 -32.5t75 -15q-16 -9 -32 -10t-33 -1q-33 0 -57.5 15.5t-42.5 40.5t-30.5 54.5t-21.5 58.5q-32 -27 -60.5 -61.5t-59 -64.5t-67 -51t-84.5 -21q-8 0 -21.5 2.5t-27 7.5t-23.5 12.5t-10 17.5v89q0 2 10 17.5t24 36t29 41t25 32.5
q12 15 29 34t37 36.5t42 29t45 11.5zM489 630q-1 0 -2 -1q-11 -11 -19.5 -28.5t-14.5 -36.5t-10 -36t-6 -26q0 -3 -3.5 -27t-8 -55.5t-9.5 -63.5t-8 -51v-5v-5q2 1 5 4.5t5 5.5l32 62t29 63.5t20.5 67t7.5 70.5q0 1 0.5 10.5t-0.5 21t-4.5 21t-11.5 9.5h-2zM333 461
q1 3 12.5 5.5t28 4.5t36 3t36 1.5t28 1l11.5 0.5q6 0 23.5 0.5t40 2t46.5 2.5t43 1h4q2 0 3 -0.5t3 -0.5q14 -2 16 -11.5t-1 -22.5l-22 5l-243 -20q-2 -1 -12 0.5t-15 3.5q-4 1 -11 2t-14 3.5t-11 6.5t-2 12z" />
    <glyph glyph-name="eacute" unicode="&#xe9;" horiz-adv-x="337" 
d="M52 204q-3 0 -11.5 -1.5t-18 -3t-17.5 -2.5t-11 0q-2 0 -6 3.5t-4 5.5q3 11 12 18t19.5 10.5t21 4t17.5 -1.5q4 24 6.5 45t6.5 41.5t11 39.5t20 39q5 12 15.5 27t24 28.5t28.5 23t29 9.5q9 0 27 -5.5t36 -14t31 -18.5t13 -18q4 -36 -11 -61.5t-39.5 -44.5t-53.5 -34.5
t-53 -33.5q-13 -15 -24.5 -22.5t-20.5 -14.5t-14 -16.5t-5 -29.5q0 -31 9.5 -58t27 -47.5t42.5 -32t56 -11.5q3 0 10.5 1t22.5 8t41 21t67 40q1 0 1 -5q0 -18 -19 -33.5t-44.5 -26.5t-51 -17.5t-38.5 -6.5q-40 0 -68.5 17t-46.5 45t-27.5 62.5t-10.5 70.5zM202 461
q-25 0 -45.5 -20t-35 -47.5t-22.5 -57.5t-8 -51v-30q28 21 60.5 38t60 36.5t45.5 43.5t18 59q0 6 -9 11.5t-21 9t-24.5 6t-18.5 2.5zM107 555q-10 11 -12.5 17t-2.5 13v4v3l117 110q2 4 8.5 2.5t12.5 -5.5q4 -2 4.5 -5.5t-10.5 -17t-38 -42t-79 -79.5z" />
    <glyph glyph-name="ebreve" unicode="&#x115;" horiz-adv-x="337" 
d="M52 204q-3 0 -11.5 -1.5t-18 -3t-17.5 -2.5t-11 0q-2 0 -6 3.5t-4 5.5q3 11 12 18t19.5 10.5t21 4t17.5 -1.5q4 24 6.5 45t6.5 41.5t11 39.5t20 39q5 12 15.5 27t24 28.5t28.5 23t29 9.5q9 0 27 -5.5t36 -14t31 -18.5t13 -18q4 -36 -11 -61.5t-39.5 -44.5t-53.5 -34.5
t-53 -33.5q-13 -15 -24.5 -22.5t-20.5 -14.5t-14 -16.5t-5 -29.5q0 -31 9.5 -58t27 -47.5t42.5 -32t56 -11.5q3 0 10.5 1t22.5 8t41 21t67 40q1 0 1 -5q0 -18 -19 -33.5t-44.5 -26.5t-51 -17.5t-38.5 -6.5q-40 0 -68.5 17t-46.5 45t-27.5 62.5t-10.5 70.5zM202 461
q-25 0 -45.5 -20t-35 -47.5t-22.5 -57.5t-8 -51v-30q28 21 60.5 38t60 36.5t45.5 43.5t18 59q0 6 -9 11.5t-21 9t-24.5 6t-18.5 2.5zM41 701l29 7q11 -50 38.5 -79.5t58.5 -33.5t60 20.5t43 83.5q12 13 18.5 5.5t1.5 -27.5q-3 -26 -18 -50t-37 -40.5t-49 -22t-53.5 5.5
t-50.5 42.5t-41 88.5z" />
    <glyph glyph-name="edieresis" unicode="&#xeb;" horiz-adv-x="337" 
d="M52 204q-3 0 -11.5 -1.5t-18 -3t-17.5 -2.5t-11 0q-2 0 -6 3.5t-4 5.5q3 11 12 18t19.5 10.5t21 4t17.5 -1.5q4 24 6.5 45t6.5 41.5t11 39.5t20 39q5 12 15.5 27t24 28.5t28.5 23t29 9.5q9 0 27 -5.5t36 -14t31 -18.5t13 -18q4 -36 -11 -61.5t-39.5 -44.5t-53.5 -34.5
t-53 -33.5q-13 -15 -24.5 -22.5t-20.5 -14.5t-14 -16.5t-5 -29.5q0 -31 9.5 -58t27 -47.5t42.5 -32t56 -11.5q3 0 10.5 1t22.5 8t41 21t67 40q1 0 1 -5q0 -18 -19 -33.5t-44.5 -26.5t-51 -17.5t-38.5 -6.5q-40 0 -68.5 17t-46.5 45t-27.5 62.5t-10.5 70.5zM202 461
q-25 0 -45.5 -20t-35 -47.5t-22.5 -57.5t-8 -51v-30q28 21 60.5 38t60 36.5t45.5 43.5t18 59q0 6 -9 11.5t-21 9t-24.5 6t-18.5 2.5zM62 606q0 23 19.5 30.5t39.5 4.5q12 -2 16.5 -11.5t4.5 -18.5q0 -7 -4.5 -14t-11.5 -13t-14.5 -9.5t-14.5 -3.5q-14 0 -24.5 10.5
t-10.5 24.5zM194 606q0 23 19.5 30.5t40.5 4.5q12 -2 16.5 -11.5t4.5 -18.5q0 -7 -4.5 -14t-11.5 -13t-14.5 -9.5t-14.5 -3.5q-14 0 -25 10.5t-11 24.5z" />
    <glyph glyph-name="ecaron" unicode="&#x11b;" horiz-adv-x="337" 
d="M52 204q-3 0 -11.5 -1.5t-18 -3t-17.5 -2.5t-11 0q-2 0 -6 3.5t-4 5.5q3 11 12 18t19.5 10.5t21 4t17.5 -1.5q4 24 6.5 45t6.5 41.5t11 39.5t20 39q5 12 15.5 27t24 28.5t28.5 23t29 9.5q9 0 27 -5.5t36 -14t31 -18.5t13 -18q4 -36 -11 -61.5t-39.5 -44.5t-53.5 -34.5
t-53 -33.5q-13 -15 -24.5 -22.5t-20.5 -14.5t-14 -16.5t-5 -29.5q0 -31 9.5 -58t27 -47.5t42.5 -32t56 -11.5q3 0 10.5 1t22.5 8t41 21t67 40q1 0 1 -5q0 -18 -19 -33.5t-44.5 -26.5t-51 -17.5t-38.5 -6.5q-40 0 -68.5 17t-46.5 45t-27.5 62.5t-10.5 70.5zM202 461
q-25 0 -45.5 -20t-35 -47.5t-22.5 -57.5t-8 -51v-30q28 21 60.5 38t60 36.5t45.5 43.5t18 59q0 6 -9 11.5t-21 9t-24.5 6t-18.5 2.5zM49 746l29 7q14 -21 26.5 -40t25.5 -37t27 -36t31 -37q4 10 12.5 22.5t18 26t18 26t12.5 22.5l8 20q4 8 9 15.5t12 9.5q6 -7 8 -11t2 -11
q0 -1 -0.5 -2t-0.5 -3v-3l-80 -150q-3 -8 -14 -8q-6 0 -9 2t-6 6z" />
    <glyph glyph-name="ecircumflex" unicode="&#xea;" horiz-adv-x="337" 
d="M52 204q-3 0 -11.5 -1.5t-18 -3t-17.5 -2.5t-11 0q-2 0 -6 3.5t-4 5.5q3 11 12 18t19.5 10.5t21 4t17.5 -1.5q4 24 6.5 45t6.5 41.5t11 39.5t20 39q5 12 15.5 27t24 28.5t28.5 23t29 9.5q9 0 27 -5.5t36 -14t31 -18.5t13 -18q4 -36 -11 -61.5t-39.5 -44.5t-53.5 -34.5
t-53 -33.5q-13 -15 -24.5 -22.5t-20.5 -14.5t-14 -16.5t-5 -29.5q0 -31 9.5 -58t27 -47.5t42.5 -32t56 -11.5q3 0 10.5 1t22.5 8t41 21t67 40q1 0 1 -5q0 -18 -19 -33.5t-44.5 -26.5t-51 -17.5t-38.5 -6.5q-40 0 -68.5 17t-46.5 45t-27.5 62.5t-10.5 70.5zM202 461
q-25 0 -45.5 -20t-35 -47.5t-22.5 -57.5t-8 -51v-30q28 21 60.5 38t60 36.5t45.5 43.5t18 59q0 6 -9 11.5t-21 9t-24.5 6t-18.5 2.5zM160 746q5 10 15 10q12 0 15 -10l78 -158q0 -1 0.5 -4.5t0.5 -5.5q-12 -15 -25 -4.5t-25.5 32.5t-24.5 48.5t-23 42.5q-16 -24 -26.5 -40.5
t-19.5 -30.5t-17 -27.5t-19 -29.5l-21 14z" />
    <glyph glyph-name="egrave" unicode="&#xe8;" horiz-adv-x="337" 
d="M52 204q-3 0 -11.5 -1.5t-18 -3t-17.5 -2.5t-11 0q-2 0 -6 3.5t-4 5.5q3 11 12 18t19.5 10.5t21 4t17.5 -1.5q4 24 6.5 45t6.5 41.5t11 39.5t20 39q5 12 15.5 27t24 28.5t28.5 23t29 9.5q9 0 27 -5.5t36 -14t31 -18.5t13 -18q4 -36 -11 -61.5t-39.5 -44.5t-53.5 -34.5
t-53 -33.5q-13 -15 -24.5 -22.5t-20.5 -14.5t-14 -16.5t-5 -29.5q0 -31 9.5 -58t27 -47.5t42.5 -32t56 -11.5q3 0 10.5 1t22.5 8t41 21t67 40q1 0 1 -5q0 -18 -19 -33.5t-44.5 -26.5t-51 -17.5t-38.5 -6.5q-40 0 -68.5 17t-46.5 45t-27.5 62.5t-10.5 70.5zM202 461
q-25 0 -45.5 -20t-35 -47.5t-22.5 -57.5t-8 -51v-30q28 21 60.5 38t60 36.5t45.5 43.5t18 59q0 6 -9 11.5t-21 9t-24.5 6t-18.5 2.5zM229 555q-52 51 -79 79.5t-38 42t-10.5 17t4.5 5.5q6 4 12.5 5.5t8.5 -2.5l117 -110v-3v-4q0 -7 -2.5 -13t-12.5 -17z" />
    <glyph glyph-name="edotaccent" unicode="&#x117;" horiz-adv-x="337" 
d="M52 204q-3 0 -11.5 -1.5t-18 -3t-17.5 -2.5t-11 0q-2 0 -6 3.5t-4 5.5q3 11 12 18t19.5 10.5t21 4t17.5 -1.5q4 24 6.5 45t6.5 41.5t11 39.5t20 39q5 12 15.5 27t24 28.5t28.5 23t29 9.5q9 0 27 -5.5t36 -14t31 -18.5t13 -18q4 -36 -11 -61.5t-39.5 -44.5t-53.5 -34.5
t-53 -33.5q-13 -15 -24.5 -22.5t-20.5 -14.5t-14 -16.5t-5 -29.5q0 -31 9.5 -58t27 -47.5t42.5 -32t56 -11.5q3 0 10.5 1t22.5 8t41 21t67 40q1 0 1 -5q0 -18 -19 -33.5t-44.5 -26.5t-51 -17.5t-38.5 -6.5q-40 0 -68.5 17t-46.5 45t-27.5 62.5t-10.5 70.5zM202 461
q-25 0 -45.5 -20t-35 -47.5t-22.5 -57.5t-8 -51v-30q28 21 60.5 38t60 36.5t45.5 43.5t18 59q0 6 -9 11.5t-21 9t-24.5 6t-18.5 2.5zM128 599q0 23 19.5 30t40.5 4q12 -2 16.5 -11.5t4.5 -18.5q0 -14 -15.5 -27t-29.5 -13t-25 11t-11 25z" />
    <glyph glyph-name="emacron" unicode="&#x113;" horiz-adv-x="337" 
d="M52 204q-3 0 -11.5 -1.5t-18 -3t-17.5 -2.5t-11 0q-2 0 -6 3.5t-4 5.5q3 11 12 18t19.5 10.5t21 4t17.5 -1.5q4 24 6.5 45t6.5 41.5t11 39.5t20 39q5 12 15.5 27t24 28.5t28.5 23t29 9.5q9 0 27 -5.5t36 -14t31 -18.5t13 -18q4 -36 -11 -61.5t-39.5 -44.5t-53.5 -34.5
t-53 -33.5q-13 -15 -24.5 -22.5t-20.5 -14.5t-14 -16.5t-5 -29.5q0 -31 9.5 -58t27 -47.5t42.5 -32t56 -11.5q3 0 10.5 1t22.5 8t41 21t67 40q1 0 1 -5q0 -18 -19 -33.5t-44.5 -26.5t-51 -17.5t-38.5 -6.5q-40 0 -68.5 17t-46.5 45t-27.5 62.5t-10.5 70.5zM202 461
q-25 0 -45.5 -20t-35 -47.5t-22.5 -57.5t-8 -51v-30q28 21 60.5 38t60 36.5t45.5 43.5t18 59q0 6 -9 11.5t-21 9t-24.5 6t-18.5 2.5zM17 602q27 6 64.5 6.5t76.5 -0.5t74 -2t58 3h4q2 0 3 -0.5t3 -0.5q14 -4 18 -13.5t4 -23.5l-24 6l-210 -9q-2 -1 -12 1.5t-15 3.5
q-4 1 -11.5 2.5t-14.5 4.5t-12.5 8.5t-5.5 13.5z" />
    <glyph glyph-name="eogonek" unicode="&#x119;" horiz-adv-x="337" 
d="M52 204q-3 0 -11.5 -1.5t-18 -3t-17.5 -2.5t-11 0q-2 0 -6 3.5t-4 5.5q3 11 12 18t19.5 10.5t21 4t17.5 -1.5q4 24 6.5 45t6.5 41.5t11 39.5t20 39q5 12 15.5 27t24 28.5t28.5 23t29 9.5q9 0 27 -5.5t36 -14t31 -18.5t13 -18q4 -36 -11 -61.5t-39.5 -44.5t-53.5 -34.5
t-53 -33.5q-13 -15 -24.5 -22.5t-20.5 -14.5t-14 -16.5t-5 -29.5q0 -31 9.5 -58t27 -47.5t42.5 -32t56 -11.5q3 0 10.5 1t22.5 8t41 21t67 40q1 0 1 -5q0 -18 -19 -33.5t-44.5 -26.5t-51 -17.5t-38.5 -6.5q-40 0 -68.5 17t-46.5 45t-27.5 62.5t-10.5 70.5zM202 461
q-25 0 -45.5 -20t-35 -47.5t-22.5 -57.5t-8 -51v-30q28 21 60.5 38t60 36.5t45.5 43.5t18 59q0 6 -9 11.5t-21 9t-24.5 6t-18.5 2.5zM344 -135q-20 1 -38.5 6t-33 14t-23 22t-8.5 28q0 37 22.5 69.5t49.5 61.5v-20q-21 -25 -31.5 -51.5t-11.5 -49.5q0 -31 17.5 -43.5
t55.5 -12.5z" />
    <glyph glyph-name="gbreve" unicode="&#x11f;" horiz-adv-x="459" 
d="M191 -284q0 49 14 96.5t36.5 91.5t50.5 85.5t56 79.5q0 1 0.5 4.5t0.5 5.5q0 5 -6 28.5t-14 50t-17.5 48t-16.5 21.5q-24 -12 -44 -40.5t-42 -61.5t-50 -63t-68 -43q-23 0 -36 14t-20.5 34.5t-9.5 42.5t-2 38q0 20 6 54.5t17.5 75t28 82.5t36.5 75.5t44 55t51 21.5
q19 0 32.5 -11t22 -27.5t13 -35.5t6.5 -35q1 -7 2.5 -25t3 -38.5t3 -39t1.5 -25.5q22 -16 33.5 -37.5t19 -45.5t14.5 -48.5t21 -45.5l118 89h5q8 0 11.5 -6.5t3.5 -14.5t-1.5 -9.5t-5 -1.5t-9 -1t-14.5 -6q-11 -7 -25 -18.5t-27.5 -24t-25.5 -25t-21 -21.5v-5v-5
q1 -6 5.5 -30.5t9.5 -52.5t9.5 -53t5.5 -31v-4q0 -20 -2 -48t-8 -58t-16 -60t-26 -53.5t-38 -38t-52 -14.5q-23 0 -39 10t-26 25.5t-14.5 35t-4.5 39.5zM221 -334q8 -22 22.5 -27t31.5 -5q38 0 60.5 29.5t34 69.5t15 81.5t3.5 65.5q0 6 -0.5 18.5t-0.5 13.5q-1 7 -4.5 23.5
t-8 35.5t-9 35.5t-6.5 23.5q-34 -26 -60 -62.5t-43.5 -77.5t-26.5 -85t-9 -85v-10.5t0.5 -16.5t0.5 -16.5v-10.5zM52 159v-29.5t3 -36.5t11.5 -31.5t26.5 -13.5q9 0 19 5.5t19.5 13t17.5 16.5t13 15q6 9 20 31t29.5 47t29.5 47.5t19 31.5q0 4 0.5 14t0.5 21v20.5v13.5v40
t-4.5 53t-16.5 46t-35 20q-21 0 -40.5 -19.5t-36.5 -50t-31 -68t-24 -73.5t-15.5 -66.5t-5.5 -46.5zM102 701l29 7q11 -50 38.5 -79.5t58.5 -33.5t60 20.5t43 83.5q12 13 18.5 5.5t1.5 -27.5q-3 -26 -18 -50t-37 -40.5t-49 -22t-53.5 5.5t-50.5 42.5t-41 88.5z" />
    </font>
</defs>
</svg>
